<svg width="475" height="477" viewBox="0 0 475 477" fill="none" xmlns="http://www.w3.org/2000/svg">
<mask id="mask0_0_1" style="mask-type:alpha" maskUnits="userSpaceOnUse" x="36" y="10" width="362" height="391">
<path opacity="0.69" d="M316.682 115.787C116.486 -59.4299 43.7327 34.4849 36.593 44.9159C36.166 45.5398 36.0037 46.2212 36.0107 46.9773L37.1637 170.878C38.5553 320.426 169.604 455.65 296.673 376.783C338.152 351.039 373.283 314.596 390.955 263.031C423.623 167.708 332.99 130.06 316.682 115.787Z" fill="#25356A" fill-opacity="0.35"/>
</mask>
<g mask="url(#mask0_0_1)">
<circle cx="38.1394" cy="5.54713" r="5.07203" fill="#25356A" fill-opacity="0.35"/>
<circle cx="55.0466" cy="5.54713" r="5.07203" fill="#25356A" fill-opacity="0.35"/>
<circle cx="71.9539" cy="5.54713" r="5.07203" fill="#25356A" fill-opacity="0.35"/>
<circle cx="88.8602" cy="5.54713" r="5.07203" fill="#25356A" fill-opacity="0.35"/>
<circle cx="105.767" cy="5.54713" r="5.07203" fill="#25356A" fill-opacity="0.35"/>
<circle cx="122.674" cy="5.54713" r="5.07203" fill="#25356A" fill-opacity="0.35"/>
<circle cx="139.581" cy="5.54713" r="5.07203" fill="#25356A" fill-opacity="0.35"/>
<circle cx="156.487" cy="5.54713" r="5.07203" fill="#25356A" fill-opacity="0.35"/>
<circle cx="173.394" cy="5.54713" r="5.07203" fill="#25356A" fill-opacity="0.35"/>
<circle cx="190.301" cy="5.54713" r="5.07203" fill="#25356A" fill-opacity="0.35"/>
<circle cx="207.208" cy="5.54713" r="5.07203" fill="#25356A" fill-opacity="0.35"/>
<circle cx="224.114" cy="5.54713" r="5.07203" fill="#25356A" fill-opacity="0.35"/>
<circle cx="241.021" cy="5.54713" r="5.07203" fill="#25356A" fill-opacity="0.35"/>
<circle cx="257.927" cy="5.54713" r="5.07203" fill="#25356A" fill-opacity="0.35"/>
<circle cx="274.835" cy="5.54713" r="5.07203" fill="#25356A" fill-opacity="0.35"/>
<circle cx="291.742" cy="5.54713" r="5.07203" fill="#25356A" fill-opacity="0.35"/>
<circle cx="308.648" cy="5.54713" r="5.07203" fill="#25356A" fill-opacity="0.35"/>
<circle cx="325.555" cy="5.54713" r="5.07203" fill="#25356A" fill-opacity="0.35"/>
<circle cx="342.462" cy="5.54713" r="5.07203" fill="#25356A" fill-opacity="0.35"/>
<circle cx="359.369" cy="5.54713" r="5.07203" fill="#25356A" fill-opacity="0.35"/>
<circle cx="376.275" cy="5.54713" r="5.07203" fill="#25356A" fill-opacity="0.35"/>
<circle cx="393.182" cy="5.54713" r="5.07203" fill="#25356A" fill-opacity="0.35"/>
<circle cx="38.1394" cy="22.4539" r="5.07203" fill="#25356A" fill-opacity="0.35"/>
<circle cx="71.9539" cy="22.4539" r="5.07203" fill="#25356A" fill-opacity="0.35"/>
<circle cx="88.8602" cy="22.4539" r="5.07203" fill="#25356A" fill-opacity="0.35"/>
<circle cx="105.767" cy="22.4539" r="5.07203" fill="#25356A" fill-opacity="0.35"/>
<circle cx="122.674" cy="22.4539" r="5.07203" fill="#25356A" fill-opacity="0.35"/>
<circle cx="139.581" cy="22.4539" r="5.07203" fill="#25356A" fill-opacity="0.35"/>
<circle cx="190.301" cy="22.4539" r="5.07203" fill="#25356A" fill-opacity="0.35"/>
<circle cx="207.208" cy="22.4539" r="5.07203" fill="#25356A" fill-opacity="0.35"/>
<circle cx="224.114" cy="22.4539" r="5.07203" fill="#25356A" fill-opacity="0.35"/>
<circle cx="241.021" cy="22.4539" r="5.07203" fill="#25356A" fill-opacity="0.35"/>
<circle cx="257.927" cy="22.4539" r="5.07203" fill="#25356A" fill-opacity="0.35"/>
<circle cx="274.835" cy="22.4539" r="5.07203" fill="#25356A" fill-opacity="0.35"/>
<circle cx="291.742" cy="22.4539" r="5.07203" fill="#25356A" fill-opacity="0.35"/>
<circle cx="308.648" cy="22.4539" r="5.07203" fill="#25356A" fill-opacity="0.35"/>
<circle cx="325.555" cy="22.4539" r="5.07203" fill="#25356A" fill-opacity="0.35"/>
<circle cx="342.462" cy="22.4539" r="5.07203" fill="#25356A" fill-opacity="0.35"/>
<circle cx="359.369" cy="22.4539" r="5.07203" fill="#25356A" fill-opacity="0.35"/>
<circle cx="376.275" cy="22.4539" r="5.07203" fill="#25356A" fill-opacity="0.35"/>
<circle cx="393.182" cy="22.4539" r="5.07203" fill="#25356A" fill-opacity="0.35"/>
<circle cx="55.0466" cy="39.3606" r="5.07203" fill="#25356A" fill-opacity="0.35"/>
<circle cx="71.9539" cy="39.3606" r="5.07203" fill="#25356A" fill-opacity="0.35"/>
<circle cx="88.8602" cy="39.3606" r="5.07203" fill="#25356A" fill-opacity="0.35"/>
<circle cx="105.767" cy="39.3606" r="5.07203" fill="#25356A" fill-opacity="0.35"/>
<circle cx="122.674" cy="39.3606" r="5.07203" fill="#25356A" fill-opacity="0.35"/>
<circle cx="139.581" cy="39.3606" r="5.07203" fill="#25356A" fill-opacity="0.35"/>
<circle cx="156.487" cy="39.3606" r="5.07203" fill="#25356A" fill-opacity="0.35"/>
<circle cx="173.394" cy="39.3606" r="5.07203" fill="#25356A" fill-opacity="0.35"/>
<circle cx="190.301" cy="39.3606" r="5.07203" fill="#25356A" fill-opacity="0.35"/>
<circle cx="224.114" cy="39.3606" r="5.07203" fill="#25356A" fill-opacity="0.35"/>
<circle cx="241.021" cy="39.3606" r="5.07203" fill="#25356A" fill-opacity="0.35"/>
<circle cx="257.927" cy="39.3606" r="5.07203" fill="#25356A" fill-opacity="0.35"/>
<circle cx="274.835" cy="39.3606" r="5.07203" fill="#25356A" fill-opacity="0.35"/>
<circle cx="291.742" cy="39.3606" r="5.07203" fill="#25356A" fill-opacity="0.35"/>
<circle cx="308.648" cy="39.3606" r="5.07203" fill="#25356A" fill-opacity="0.35"/>
<circle cx="325.555" cy="39.3606" r="5.07203" fill="#25356A" fill-opacity="0.35"/>
<circle cx="342.462" cy="39.3606" r="5.07203" fill="#25356A" fill-opacity="0.35"/>
<circle cx="359.369" cy="39.3606" r="5.07203" fill="#25356A" fill-opacity="0.35"/>
<circle cx="376.275" cy="39.3606" r="5.07203" fill="#25356A" fill-opacity="0.35"/>
<circle cx="393.182" cy="39.3606" r="5.07203" fill="#25356A" fill-opacity="0.35"/>
<circle cx="55.0466" cy="56.2673" r="5.07203" fill="#25356A" fill-opacity="0.35"/>
<circle cx="71.9539" cy="56.2673" r="5.07203" fill="#25356A" fill-opacity="0.35"/>
<circle cx="88.8602" cy="56.2673" r="5.07203" fill="#25356A" fill-opacity="0.35"/>
<circle cx="105.767" cy="56.2673" r="5.07203" fill="#25356A" fill-opacity="0.35"/>
<circle cx="122.674" cy="56.2673" r="5.07203" fill="#25356A" fill-opacity="0.35"/>
<circle cx="139.581" cy="56.2673" r="5.07203" fill="#25356A" fill-opacity="0.35"/>
<circle cx="156.487" cy="56.2673" r="5.07203" fill="#25356A" fill-opacity="0.35"/>
<circle cx="173.394" cy="56.2673" r="5.07203" fill="#25356A" fill-opacity="0.35"/>
<circle cx="190.301" cy="56.2673" r="5.07203" fill="#25356A" fill-opacity="0.35"/>
<circle cx="207.208" cy="56.2673" r="5.07203" fill="#25356A" fill-opacity="0.35"/>
<circle cx="224.114" cy="56.2673" r="5.07203" fill="#25356A" fill-opacity="0.35"/>
<circle cx="257.927" cy="56.2673" r="5.07203" fill="#25356A" fill-opacity="0.35"/>
<circle cx="274.835" cy="56.2673" r="5.07203" fill="#25356A" fill-opacity="0.35"/>
<circle cx="291.742" cy="56.2673" r="5.07203" fill="#25356A" fill-opacity="0.35"/>
<circle cx="308.648" cy="56.2673" r="5.07203" fill="#25356A" fill-opacity="0.35"/>
<circle cx="325.555" cy="56.2673" r="5.07203" fill="#25356A" fill-opacity="0.35"/>
<circle cx="342.462" cy="56.2673" r="5.07203" fill="#25356A" fill-opacity="0.35"/>
<circle cx="359.369" cy="56.2673" r="5.07203" fill="#25356A" fill-opacity="0.35"/>
<circle cx="376.275" cy="56.2673" r="5.07203" fill="#25356A" fill-opacity="0.35"/>
<circle cx="393.182" cy="56.2673" r="5.07203" fill="#25356A" fill-opacity="0.35"/>
<circle cx="55.0466" cy="73.1741" r="5.07203" fill="#25356A" fill-opacity="0.35"/>
<circle cx="71.9539" cy="73.1741" r="5.07203" fill="#25356A" fill-opacity="0.35"/>
<circle cx="88.8602" cy="73.1741" r="5.07203" fill="#25356A" fill-opacity="0.35"/>
<circle cx="105.767" cy="73.1741" r="5.07203" fill="#25356A" fill-opacity="0.35"/>
<circle cx="122.674" cy="73.1741" r="5.07203" fill="#25356A" fill-opacity="0.35"/>
<circle cx="139.581" cy="73.1741" r="5.07203" fill="#25356A" fill-opacity="0.35"/>
<circle cx="156.487" cy="73.1741" r="5.07203" fill="#25356A" fill-opacity="0.35"/>
<circle cx="173.394" cy="73.1741" r="5.07203" fill="#25356A" fill-opacity="0.35"/>
<circle cx="190.301" cy="73.1741" r="5.07203" fill="#25356A" fill-opacity="0.35"/>
<circle cx="207.208" cy="73.1741" r="5.07203" fill="#25356A" fill-opacity="0.35"/>
<circle cx="224.114" cy="73.1741" r="5.07203" fill="#25356A" fill-opacity="0.35"/>
<circle cx="241.021" cy="73.1741" r="5.07203" fill="#25356A" fill-opacity="0.35"/>
<circle cx="274.835" cy="73.1741" r="5.07203" fill="#25356A" fill-opacity="0.35"/>
<circle cx="291.742" cy="73.1741" r="5.07203" fill="#25356A" fill-opacity="0.35"/>
<circle cx="308.648" cy="73.1741" r="5.07203" fill="#25356A" fill-opacity="0.35"/>
<circle cx="325.555" cy="73.1741" r="5.07203" fill="#25356A" fill-opacity="0.35"/>
<circle cx="342.462" cy="73.1741" r="5.07203" fill="#25356A" fill-opacity="0.35"/>
<circle cx="359.369" cy="73.1741" r="5.07203" fill="#25356A" fill-opacity="0.35"/>
<circle cx="376.275" cy="73.1741" r="5.07203" fill="#25356A" fill-opacity="0.35"/>
<circle cx="393.182" cy="73.1741" r="5.07203" fill="#25356A" fill-opacity="0.35"/>
<circle cx="38.1394" cy="90.0808" r="5.07203" fill="#25356A" fill-opacity="0.35"/>
<circle cx="55.0466" cy="90.0808" r="5.07203" fill="#25356A" fill-opacity="0.35"/>
<circle cx="71.9539" cy="90.0808" r="5.07203" fill="#25356A" fill-opacity="0.35"/>
<circle cx="88.8602" cy="90.0808" r="5.07203" fill="#25356A" fill-opacity="0.35"/>
<circle cx="105.767" cy="90.0808" r="5.07203" fill="#25356A" fill-opacity="0.35"/>
<circle cx="122.674" cy="90.0808" r="5.07203" fill="#25356A" fill-opacity="0.35"/>
<circle cx="139.581" cy="90.0808" r="5.07203" fill="#25356A" fill-opacity="0.35"/>
<circle cx="156.487" cy="90.0808" r="5.07203" fill="#25356A" fill-opacity="0.35"/>
<circle cx="173.394" cy="90.0808" r="5.07203" fill="#25356A" fill-opacity="0.35"/>
<circle cx="190.301" cy="90.0808" r="5.07203" fill="#25356A" fill-opacity="0.35"/>
<circle cx="207.208" cy="90.0808" r="5.07203" fill="#25356A" fill-opacity="0.35"/>
<circle cx="224.114" cy="90.0808" r="5.07203" fill="#25356A" fill-opacity="0.35"/>
<circle cx="241.021" cy="90.0808" r="5.07203" fill="#25356A" fill-opacity="0.35"/>
<circle cx="257.927" cy="90.0808" r="5.07203" fill="#25356A" fill-opacity="0.35"/>
<circle cx="274.835" cy="90.0808" r="5.07203" fill="#25356A" fill-opacity="0.35"/>
<circle cx="308.648" cy="90.0808" r="5.07203" fill="#25356A" fill-opacity="0.35"/>
<circle cx="325.555" cy="90.0808" r="5.07203" fill="#25356A" fill-opacity="0.35"/>
<circle cx="342.462" cy="90.0808" r="5.07203" fill="#25356A" fill-opacity="0.35"/>
<circle cx="359.369" cy="90.0808" r="5.07203" fill="#25356A" fill-opacity="0.35"/>
<circle cx="376.275" cy="90.0808" r="5.07203" fill="#25356A" fill-opacity="0.35"/>
<circle cx="393.182" cy="90.0808" r="5.07203" fill="#25356A" fill-opacity="0.35"/>
<circle cx="38.1394" cy="106.988" r="5.07203" fill="#25356A" fill-opacity="0.35"/>
<circle cx="55.0466" cy="106.988" r="5.07203" fill="#25356A" fill-opacity="0.35"/>
<circle cx="71.9539" cy="106.988" r="5.07203" fill="#25356A" fill-opacity="0.35"/>
<circle cx="88.8602" cy="106.988" r="5.07203" fill="#25356A" fill-opacity="0.35"/>
<circle cx="105.767" cy="106.988" r="5.07203" fill="#25356A" fill-opacity="0.35"/>
<circle cx="122.674" cy="106.988" r="5.07203" fill="#25356A" fill-opacity="0.35"/>
<circle cx="139.581" cy="106.988" r="5.07203" fill="#25356A" fill-opacity="0.35"/>
<circle cx="156.487" cy="106.988" r="5.07203" fill="#25356A" fill-opacity="0.35"/>
<circle cx="173.394" cy="106.988" r="5.07203" fill="#25356A" fill-opacity="0.35"/>
<circle cx="190.301" cy="106.988" r="5.07203" fill="#25356A" fill-opacity="0.35"/>
<circle cx="207.208" cy="106.988" r="5.07203" fill="#25356A" fill-opacity="0.35"/>
<circle cx="224.114" cy="106.988" r="5.07203" fill="#25356A" fill-opacity="0.35"/>
<circle cx="241.021" cy="106.988" r="5.07203" fill="#25356A" fill-opacity="0.35"/>
<circle cx="257.927" cy="106.988" r="5.07203" fill="#25356A" fill-opacity="0.35"/>
<circle cx="274.835" cy="106.988" r="5.07203" fill="#25356A" fill-opacity="0.35"/>
<circle cx="291.742" cy="106.988" r="5.07203" fill="#25356A" fill-opacity="0.35"/>
<circle cx="325.555" cy="106.988" r="5.07203" fill="#25356A" fill-opacity="0.35"/>
<circle cx="342.462" cy="106.988" r="5.07203" fill="#25356A" fill-opacity="0.35"/>
<circle cx="359.369" cy="106.988" r="5.07203" fill="#25356A" fill-opacity="0.35"/>
<circle cx="376.275" cy="106.988" r="5.07203" fill="#25356A" fill-opacity="0.35"/>
<circle cx="393.182" cy="106.988" r="5.07203" fill="#25356A" fill-opacity="0.35"/>
<circle cx="38.1394" cy="123.895" r="5.07203" fill="#25356A" fill-opacity="0.35"/>
<circle cx="55.0466" cy="123.895" r="5.07203" fill="#25356A" fill-opacity="0.35"/>
<circle cx="71.9539" cy="123.895" r="5.07203" fill="#25356A" fill-opacity="0.35"/>
<circle cx="88.8602" cy="123.895" r="5.07203" fill="#25356A" fill-opacity="0.35"/>
<circle cx="105.767" cy="123.895" r="5.07203" fill="#25356A" fill-opacity="0.35"/>
<circle cx="122.674" cy="123.895" r="5.07203" fill="#25356A" fill-opacity="0.35"/>
<circle cx="139.581" cy="123.895" r="5.07203" fill="#25356A" fill-opacity="0.35"/>
<circle cx="156.487" cy="123.895" r="5.07203" fill="#25356A" fill-opacity="0.35"/>
<circle cx="173.394" cy="123.895" r="5.07203" fill="#25356A" fill-opacity="0.35"/>
<circle cx="190.301" cy="123.895" r="5.07203" fill="#25356A" fill-opacity="0.35"/>
<circle cx="207.208" cy="123.895" r="5.07203" fill="#25356A" fill-opacity="0.35"/>
<circle cx="224.114" cy="123.895" r="5.07203" fill="#25356A" fill-opacity="0.35"/>
<circle cx="241.021" cy="123.895" r="5.07203" fill="#25356A" fill-opacity="0.35"/>
<circle cx="257.927" cy="123.895" r="5.07203" fill="#25356A" fill-opacity="0.35"/>
<circle cx="274.835" cy="123.895" r="5.07203" fill="#25356A" fill-opacity="0.35"/>
<circle cx="291.742" cy="123.895" r="5.07203" fill="#25356A" fill-opacity="0.35"/>
<circle cx="308.648" cy="123.895" r="5.07203" fill="#25356A" fill-opacity="0.35"/>
<circle cx="342.462" cy="123.895" r="5.07203" fill="#25356A" fill-opacity="0.35"/>
<circle cx="359.369" cy="123.895" r="5.07203" fill="#25356A" fill-opacity="0.35"/>
<circle cx="376.275" cy="123.895" r="5.07203" fill="#25356A" fill-opacity="0.35"/>
<circle cx="393.182" cy="123.895" r="5.07203" fill="#25356A" fill-opacity="0.35"/>
<circle cx="38.1394" cy="140.802" r="5.07203" fill="#25356A" fill-opacity="0.35"/>
<circle cx="55.0466" cy="140.802" r="5.07203" fill="#25356A" fill-opacity="0.35"/>
<circle cx="71.9539" cy="140.802" r="5.07203" fill="#25356A" fill-opacity="0.35"/>
<circle cx="88.8602" cy="140.802" r="5.07203" fill="#25356A" fill-opacity="0.35"/>
<circle cx="105.767" cy="140.802" r="5.07203" fill="#25356A" fill-opacity="0.35"/>
<circle cx="122.674" cy="140.802" r="5.07203" fill="#25356A" fill-opacity="0.35"/>
<circle cx="139.581" cy="140.802" r="5.07203" fill="#25356A" fill-opacity="0.35"/>
<circle cx="156.487" cy="140.802" r="5.07203" fill="#25356A" fill-opacity="0.35"/>
<circle cx="173.394" cy="140.802" r="5.07203" fill="#25356A" fill-opacity="0.35"/>
<circle cx="190.301" cy="140.802" r="5.07203" fill="#25356A" fill-opacity="0.35"/>
<circle cx="207.208" cy="140.802" r="5.07203" fill="#25356A" fill-opacity="0.35"/>
<circle cx="224.114" cy="140.802" r="5.07203" fill="#25356A" fill-opacity="0.35"/>
<circle cx="241.021" cy="140.802" r="5.07203" fill="#25356A" fill-opacity="0.35"/>
<circle cx="257.927" cy="140.802" r="5.07203" fill="#25356A" fill-opacity="0.35"/>
<circle cx="274.835" cy="140.802" r="5.07203" fill="#25356A" fill-opacity="0.35"/>
<circle cx="291.742" cy="140.802" r="5.07203" fill="#25356A" fill-opacity="0.35"/>
<circle cx="308.648" cy="140.802" r="5.07203" fill="#25356A" fill-opacity="0.35"/>
<circle cx="325.555" cy="140.802" r="5.07203" fill="#25356A" fill-opacity="0.35"/>
<circle cx="342.462" cy="140.802" r="5.07203" fill="#25356A" fill-opacity="0.35"/>
<circle cx="376.275" cy="140.802" r="5.07203" fill="#25356A" fill-opacity="0.35"/>
<circle cx="393.182" cy="140.802" r="5.07203" fill="#25356A" fill-opacity="0.35"/>
<circle cx="38.1394" cy="157.708" r="5.07203" fill="#25356A" fill-opacity="0.35"/>
<circle cx="55.0466" cy="157.708" r="5.07203" fill="#25356A" fill-opacity="0.35"/>
<circle cx="71.9539" cy="157.708" r="5.07203" fill="#25356A" fill-opacity="0.35"/>
<circle cx="88.8602" cy="157.708" r="5.07203" fill="#25356A" fill-opacity="0.35"/>
<circle cx="105.767" cy="157.708" r="5.07203" fill="#25356A" fill-opacity="0.35"/>
<circle cx="122.674" cy="157.708" r="5.07203" fill="#25356A" fill-opacity="0.35"/>
<circle cx="139.581" cy="157.708" r="5.07203" fill="#25356A" fill-opacity="0.35"/>
<circle cx="156.487" cy="157.708" r="5.07203" fill="#25356A" fill-opacity="0.35"/>
<circle cx="173.394" cy="157.708" r="5.07203" fill="#25356A" fill-opacity="0.35"/>
<circle cx="190.301" cy="157.708" r="5.07203" fill="#25356A" fill-opacity="0.35"/>
<circle cx="207.208" cy="157.708" r="5.07203" fill="#25356A" fill-opacity="0.35"/>
<circle cx="224.114" cy="157.708" r="5.07203" fill="#25356A" fill-opacity="0.35"/>
<circle cx="241.021" cy="157.708" r="5.07203" fill="#25356A" fill-opacity="0.35"/>
<circle cx="257.927" cy="157.708" r="5.07203" fill="#25356A" fill-opacity="0.35"/>
<circle cx="274.835" cy="157.708" r="5.07203" fill="#25356A" fill-opacity="0.35"/>
<circle cx="291.742" cy="157.708" r="5.07203" fill="#25356A" fill-opacity="0.35"/>
<circle cx="308.648" cy="157.708" r="5.07203" fill="#25356A" fill-opacity="0.35"/>
<circle cx="325.555" cy="157.708" r="5.07203" fill="#25356A" fill-opacity="0.35"/>
<circle cx="342.462" cy="157.708" r="5.07203" fill="#25356A" fill-opacity="0.35"/>
<circle cx="359.369" cy="157.708" r="5.07203" fill="#25356A" fill-opacity="0.35"/>
<circle cx="393.182" cy="157.708" r="5.07203" fill="#25356A" fill-opacity="0.35"/>
<circle cx="38.1394" cy="174.615" r="5.07203" fill="#25356A" fill-opacity="0.35"/>
<circle cx="55.0466" cy="174.615" r="5.07203" fill="#25356A" fill-opacity="0.35"/>
<circle cx="71.9539" cy="174.615" r="5.07203" fill="#25356A" fill-opacity="0.35"/>
<circle cx="88.8602" cy="174.615" r="5.07203" fill="#25356A" fill-opacity="0.35"/>
<circle cx="105.767" cy="174.615" r="5.07203" fill="#25356A" fill-opacity="0.35"/>
<circle cx="122.674" cy="174.615" r="5.07203" fill="#25356A" fill-opacity="0.35"/>
<circle cx="139.581" cy="174.615" r="5.07203" fill="#25356A" fill-opacity="0.35"/>
<circle cx="156.487" cy="174.615" r="5.07203" fill="#25356A" fill-opacity="0.35"/>
<circle cx="173.394" cy="174.615" r="5.07203" fill="#25356A" fill-opacity="0.35"/>
<circle cx="190.301" cy="174.615" r="5.07203" fill="#25356A" fill-opacity="0.35"/>
<circle cx="207.208" cy="174.615" r="5.07203" fill="#25356A" fill-opacity="0.35"/>
<circle cx="224.114" cy="174.615" r="5.07203" fill="#25356A" fill-opacity="0.35"/>
<circle cx="241.021" cy="174.615" r="5.07203" fill="#25356A" fill-opacity="0.35"/>
<circle cx="257.927" cy="174.615" r="5.07203" fill="#25356A" fill-opacity="0.35"/>
<circle cx="274.835" cy="174.615" r="5.07203" fill="#25356A" fill-opacity="0.35"/>
<circle cx="291.742" cy="174.615" r="5.07203" fill="#25356A" fill-opacity="0.35"/>
<circle cx="308.648" cy="174.615" r="5.07203" fill="#25356A" fill-opacity="0.35"/>
<circle cx="325.555" cy="174.615" r="5.07203" fill="#25356A" fill-opacity="0.35"/>
<circle cx="342.462" cy="174.615" r="5.07203" fill="#25356A" fill-opacity="0.35"/>
<circle cx="359.369" cy="174.615" r="5.07203" fill="#25356A" fill-opacity="0.35"/>
<circle cx="376.275" cy="174.615" r="5.07203" fill="#25356A" fill-opacity="0.35"/>
<circle cx="393.182" cy="174.615" r="5.07203" fill="#25356A" fill-opacity="0.35"/>
<circle cx="38.1394" cy="191.522" r="5.07203" fill="#25356A" fill-opacity="0.35"/>
<circle cx="55.0466" cy="191.522" r="5.07203" fill="#25356A" fill-opacity="0.35"/>
<circle cx="71.9539" cy="191.522" r="5.07203" fill="#25356A" fill-opacity="0.35"/>
<circle cx="88.8602" cy="191.522" r="5.07203" fill="#25356A" fill-opacity="0.35"/>
<circle cx="105.767" cy="191.522" r="5.07203" fill="#25356A" fill-opacity="0.35"/>
<circle cx="122.674" cy="191.522" r="5.07203" fill="#25356A" fill-opacity="0.35"/>
<circle cx="139.581" cy="191.522" r="5.07203" fill="#25356A" fill-opacity="0.35"/>
<circle cx="156.487" cy="191.522" r="5.07203" fill="#25356A" fill-opacity="0.35"/>
<circle cx="173.394" cy="191.522" r="5.07203" fill="#25356A" fill-opacity="0.35"/>
<circle cx="190.301" cy="191.522" r="5.07203" fill="#25356A" fill-opacity="0.35"/>
<circle cx="207.208" cy="191.522" r="5.07203" fill="#25356A" fill-opacity="0.35"/>
<circle cx="224.114" cy="191.522" r="5.07203" fill="#25356A" fill-opacity="0.35"/>
<circle cx="241.021" cy="191.522" r="5.07203" fill="#25356A" fill-opacity="0.35"/>
<circle cx="257.927" cy="191.522" r="5.07203" fill="#25356A" fill-opacity="0.35"/>
<circle cx="274.835" cy="191.522" r="5.07203" fill="#25356A" fill-opacity="0.35"/>
<circle cx="291.742" cy="191.522" r="5.07203" fill="#25356A" fill-opacity="0.35"/>
<circle cx="308.648" cy="191.522" r="5.07203" fill="#25356A" fill-opacity="0.35"/>
<circle cx="325.555" cy="191.522" r="5.07203" fill="#25356A" fill-opacity="0.35"/>
<circle cx="342.462" cy="191.522" r="5.07203" fill="#25356A" fill-opacity="0.35"/>
<circle cx="359.369" cy="191.522" r="5.07203" fill="#25356A" fill-opacity="0.35"/>
<circle cx="376.275" cy="191.522" r="5.07203" fill="#25356A" fill-opacity="0.35"/>
<circle cx="38.1394" cy="208.428" r="5.07203" fill="#25356A" fill-opacity="0.35"/>
<circle cx="55.0466" cy="208.428" r="5.07203" fill="#25356A" fill-opacity="0.35"/>
<circle cx="71.9539" cy="208.428" r="5.07203" fill="#25356A" fill-opacity="0.35"/>
<circle cx="88.8602" cy="208.428" r="5.07203" fill="#25356A" fill-opacity="0.35"/>
<circle cx="105.767" cy="208.428" r="5.07203" fill="#25356A" fill-opacity="0.35"/>
<circle cx="122.674" cy="208.428" r="5.07203" fill="#25356A" fill-opacity="0.35"/>
<circle cx="139.581" cy="208.428" r="5.07203" fill="#25356A" fill-opacity="0.35"/>
<circle cx="156.487" cy="208.428" r="5.07203" fill="#25356A" fill-opacity="0.35"/>
<circle cx="173.394" cy="208.428" r="5.07203" fill="#25356A" fill-opacity="0.35"/>
<circle cx="190.301" cy="208.428" r="5.07203" fill="#25356A" fill-opacity="0.35"/>
<circle cx="207.208" cy="208.428" r="5.07203" fill="#25356A" fill-opacity="0.35"/>
<circle cx="224.114" cy="208.428" r="5.07203" fill="#25356A" fill-opacity="0.35"/>
<circle cx="241.021" cy="208.428" r="5.07203" fill="#25356A" fill-opacity="0.35"/>
<circle cx="257.927" cy="208.428" r="5.07203" fill="#25356A" fill-opacity="0.35"/>
<circle cx="274.835" cy="208.428" r="5.07203" fill="#25356A" fill-opacity="0.35"/>
<circle cx="291.742" cy="208.428" r="5.07203" fill="#25356A" fill-opacity="0.35"/>
<circle cx="308.648" cy="208.428" r="5.07203" fill="#25356A" fill-opacity="0.35"/>
<circle cx="325.555" cy="208.428" r="5.07203" fill="#25356A" fill-opacity="0.35"/>
<circle cx="342.462" cy="208.428" r="5.07203" fill="#25356A" fill-opacity="0.35"/>
<circle cx="359.369" cy="208.428" r="5.07203" fill="#25356A" fill-opacity="0.35"/>
<circle cx="376.275" cy="208.428" r="5.07203" fill="#25356A" fill-opacity="0.35"/>
<circle cx="38.1394" cy="225.335" r="5.07203" fill="#25356A" fill-opacity="0.35"/>
<circle cx="55.0466" cy="225.335" r="5.07203" fill="#25356A" fill-opacity="0.35"/>
<circle cx="71.9539" cy="225.335" r="5.07203" fill="#25356A" fill-opacity="0.35"/>
<circle cx="88.8602" cy="225.335" r="5.07203" fill="#25356A" fill-opacity="0.35"/>
<circle cx="105.767" cy="225.335" r="5.07203" fill="#25356A" fill-opacity="0.35"/>
<circle cx="122.674" cy="225.335" r="5.07203" fill="#25356A" fill-opacity="0.35"/>
<circle cx="139.581" cy="225.335" r="5.07203" fill="#25356A" fill-opacity="0.35"/>
<circle cx="156.487" cy="225.335" r="5.07203" fill="#25356A" fill-opacity="0.35"/>
<circle cx="173.394" cy="225.335" r="5.07203" fill="#25356A" fill-opacity="0.35"/>
<circle cx="190.301" cy="225.335" r="5.07203" fill="#25356A" fill-opacity="0.35"/>
<circle cx="207.208" cy="225.335" r="5.07203" fill="#25356A" fill-opacity="0.35"/>
<circle cx="224.114" cy="225.335" r="5.07203" fill="#25356A" fill-opacity="0.35"/>
<circle cx="241.021" cy="225.335" r="5.07203" fill="#25356A" fill-opacity="0.35"/>
<circle cx="257.927" cy="225.335" r="5.07203" fill="#25356A" fill-opacity="0.35"/>
<circle cx="274.835" cy="225.335" r="5.07203" fill="#25356A" fill-opacity="0.35"/>
<circle cx="291.742" cy="225.335" r="5.07203" fill="#25356A" fill-opacity="0.35"/>
<circle cx="308.648" cy="225.335" r="5.07203" fill="#25356A" fill-opacity="0.35"/>
<circle cx="325.555" cy="225.335" r="5.07203" fill="#25356A" fill-opacity="0.35"/>
<circle cx="342.462" cy="225.335" r="5.07203" fill="#25356A" fill-opacity="0.35"/>
<circle cx="359.369" cy="225.335" r="5.07203" fill="#25356A" fill-opacity="0.35"/>
<circle cx="376.275" cy="225.335" r="5.07203" fill="#25356A" fill-opacity="0.35"/>
<circle cx="393.182" cy="225.335" r="5.07203" fill="#25356A" fill-opacity="0.35"/>
<circle cx="38.1394" cy="242.242" r="5.07203" fill="#25356A" fill-opacity="0.35"/>
<circle cx="55.0466" cy="242.242" r="5.07203" fill="#25356A" fill-opacity="0.35"/>
<circle cx="71.9539" cy="242.242" r="5.07203" fill="#25356A" fill-opacity="0.35"/>
<circle cx="88.8602" cy="242.242" r="5.07203" fill="#25356A" fill-opacity="0.35"/>
<circle cx="105.767" cy="242.242" r="5.07203" fill="#25356A" fill-opacity="0.35"/>
<circle cx="122.674" cy="242.242" r="5.07203" fill="#25356A" fill-opacity="0.35"/>
<circle cx="139.581" cy="242.242" r="5.07203" fill="#25356A" fill-opacity="0.35"/>
<circle cx="156.487" cy="242.242" r="5.07203" fill="#25356A" fill-opacity="0.35"/>
<circle cx="173.394" cy="242.242" r="5.07203" fill="#25356A" fill-opacity="0.35"/>
<circle cx="190.301" cy="242.242" r="5.07203" fill="#25356A" fill-opacity="0.35"/>
<circle cx="207.208" cy="242.242" r="5.07203" fill="#25356A" fill-opacity="0.35"/>
<circle cx="224.114" cy="242.242" r="5.07203" fill="#25356A" fill-opacity="0.35"/>
<circle cx="241.021" cy="242.242" r="5.07203" fill="#25356A" fill-opacity="0.35"/>
<circle cx="257.927" cy="242.242" r="5.07203" fill="#25356A" fill-opacity="0.35"/>
<circle cx="274.835" cy="242.242" r="5.07203" fill="#25356A" fill-opacity="0.35"/>
<circle cx="291.742" cy="242.242" r="5.07203" fill="#25356A" fill-opacity="0.35"/>
<circle cx="308.648" cy="242.242" r="5.07203" fill="#25356A" fill-opacity="0.35"/>
<circle cx="325.555" cy="242.242" r="5.07203" fill="#25356A" fill-opacity="0.35"/>
<circle cx="342.462" cy="242.242" r="5.07203" fill="#25356A" fill-opacity="0.35"/>
<circle cx="359.369" cy="242.242" r="5.07203" fill="#25356A" fill-opacity="0.35"/>
<circle cx="376.275" cy="242.242" r="5.07203" fill="#25356A" fill-opacity="0.35"/>
<circle cx="38.1394" cy="259.149" r="5.07203" fill="#25356A" fill-opacity="0.35"/>
<circle cx="55.0466" cy="259.149" r="5.07203" fill="#25356A" fill-opacity="0.35"/>
<circle cx="71.9539" cy="259.149" r="5.07203" fill="#25356A" fill-opacity="0.35"/>
<circle cx="88.8602" cy="259.149" r="5.07203" fill="#25356A" fill-opacity="0.35"/>
<circle cx="105.767" cy="259.149" r="5.07203" fill="#25356A" fill-opacity="0.35"/>
<circle cx="122.674" cy="259.149" r="5.07203" fill="#25356A" fill-opacity="0.35"/>
<circle cx="139.581" cy="259.149" r="5.07203" fill="#25356A" fill-opacity="0.35"/>
<circle cx="156.487" cy="259.149" r="5.07203" fill="#25356A" fill-opacity="0.35"/>
<circle cx="173.394" cy="259.149" r="5.07203" fill="#25356A" fill-opacity="0.35"/>
<circle cx="190.301" cy="259.149" r="5.07203" fill="#25356A" fill-opacity="0.35"/>
<circle cx="207.208" cy="259.149" r="5.07203" fill="#25356A" fill-opacity="0.35"/>
<circle cx="224.114" cy="259.149" r="5.07203" fill="#25356A" fill-opacity="0.35"/>
<circle cx="241.021" cy="259.149" r="5.07203" fill="#25356A" fill-opacity="0.35"/>
<circle cx="257.927" cy="259.149" r="5.07203" fill="#25356A" fill-opacity="0.35"/>
<circle cx="274.835" cy="259.149" r="5.07203" fill="#25356A" fill-opacity="0.35"/>
<circle cx="291.742" cy="259.149" r="5.07203" fill="#25356A" fill-opacity="0.35"/>
<circle cx="308.648" cy="259.149" r="5.07203" fill="#25356A" fill-opacity="0.35"/>
<circle cx="325.555" cy="259.149" r="5.07203" fill="#25356A" fill-opacity="0.35"/>
<circle cx="342.462" cy="259.149" r="5.07203" fill="#25356A" fill-opacity="0.35"/>
<circle cx="359.369" cy="259.149" r="5.07203" fill="#25356A" fill-opacity="0.35"/>
<circle cx="376.275" cy="259.149" r="5.07203" fill="#25356A" fill-opacity="0.35"/>
<circle cx="38.1394" cy="276.055" r="5.07203" fill="#25356A" fill-opacity="0.35"/>
<circle cx="55.0466" cy="276.055" r="5.07203" fill="#25356A" fill-opacity="0.35"/>
<circle cx="71.9539" cy="276.055" r="5.07203" fill="#25356A" fill-opacity="0.35"/>
<circle cx="88.8602" cy="276.055" r="5.07203" fill="#25356A" fill-opacity="0.35"/>
<circle cx="105.767" cy="276.055" r="5.07203" fill="#25356A" fill-opacity="0.35"/>
<circle cx="122.674" cy="276.055" r="5.07203" fill="#25356A" fill-opacity="0.35"/>
<circle cx="139.581" cy="276.055" r="5.07203" fill="#25356A" fill-opacity="0.35"/>
<circle cx="156.487" cy="276.055" r="5.07203" fill="#25356A" fill-opacity="0.35"/>
<circle cx="173.394" cy="276.055" r="5.07203" fill="#25356A" fill-opacity="0.35"/>
<circle cx="190.301" cy="276.055" r="5.07203" fill="#25356A" fill-opacity="0.35"/>
<circle cx="207.208" cy="276.055" r="5.07203" fill="#25356A" fill-opacity="0.35"/>
<circle cx="224.114" cy="276.055" r="5.07203" fill="#25356A" fill-opacity="0.35"/>
<circle cx="241.021" cy="276.055" r="5.07203" fill="#25356A" fill-opacity="0.35"/>
<circle cx="257.927" cy="276.055" r="5.07203" fill="#25356A" fill-opacity="0.35"/>
<circle cx="274.835" cy="276.055" r="5.07203" fill="#25356A" fill-opacity="0.35"/>
<circle cx="291.742" cy="276.055" r="5.07203" fill="#25356A" fill-opacity="0.35"/>
<circle cx="308.648" cy="276.055" r="5.07203" fill="#25356A" fill-opacity="0.35"/>
<circle cx="325.555" cy="276.055" r="5.07203" fill="#25356A" fill-opacity="0.35"/>
<circle cx="342.462" cy="276.055" r="5.07203" fill="#25356A" fill-opacity="0.35"/>
<circle cx="359.369" cy="276.055" r="5.07203" fill="#25356A" fill-opacity="0.35"/>
<circle cx="376.275" cy="276.055" r="5.07203" fill="#25356A" fill-opacity="0.35"/>
<circle cx="393.182" cy="276.055" r="5.07203" fill="#25356A" fill-opacity="0.35"/>
<circle cx="38.1394" cy="292.962" r="5.07203" fill="#25356A" fill-opacity="0.35"/>
<circle cx="55.0466" cy="292.962" r="5.07203" fill="#25356A" fill-opacity="0.35"/>
<circle cx="71.9539" cy="292.962" r="5.07203" fill="#25356A" fill-opacity="0.35"/>
<circle cx="88.8602" cy="292.962" r="5.07203" fill="#25356A" fill-opacity="0.35"/>
<circle cx="105.767" cy="292.962" r="5.07203" fill="#25356A" fill-opacity="0.35"/>
<circle cx="122.674" cy="292.962" r="5.07203" fill="#25356A" fill-opacity="0.35"/>
<circle cx="139.581" cy="292.962" r="5.07203" fill="#25356A" fill-opacity="0.35"/>
<circle cx="156.487" cy="292.962" r="5.07203" fill="#25356A" fill-opacity="0.35"/>
<circle cx="173.394" cy="292.962" r="5.07203" fill="#25356A" fill-opacity="0.35"/>
<circle cx="190.301" cy="292.962" r="5.07203" fill="#25356A" fill-opacity="0.35"/>
<circle cx="207.208" cy="292.962" r="5.07203" fill="#25356A" fill-opacity="0.35"/>
<circle cx="224.114" cy="292.962" r="5.07203" fill="#25356A" fill-opacity="0.35"/>
<circle cx="241.021" cy="292.962" r="5.07203" fill="#25356A" fill-opacity="0.35"/>
<circle cx="257.927" cy="292.962" r="5.07203" fill="#25356A" fill-opacity="0.35"/>
<circle cx="274.835" cy="292.962" r="5.07203" fill="#25356A" fill-opacity="0.35"/>
<circle cx="291.742" cy="292.962" r="5.07203" fill="#25356A" fill-opacity="0.35"/>
<circle cx="308.648" cy="292.962" r="5.07203" fill="#25356A" fill-opacity="0.35"/>
<circle cx="325.555" cy="292.962" r="5.07203" fill="#25356A" fill-opacity="0.35"/>
<circle cx="342.462" cy="292.962" r="5.07203" fill="#25356A" fill-opacity="0.35"/>
<circle cx="359.369" cy="292.962" r="5.07203" fill="#25356A" fill-opacity="0.35"/>
<circle cx="376.275" cy="292.962" r="5.07203" fill="#25356A" fill-opacity="0.35"/>
<circle cx="393.182" cy="292.962" r="5.07203" fill="#25356A" fill-opacity="0.35"/>
<circle cx="38.1394" cy="309.869" r="5.07203" fill="#25356A" fill-opacity="0.35"/>
<circle cx="55.0466" cy="309.869" r="5.07203" fill="#25356A" fill-opacity="0.35"/>
<circle cx="71.9539" cy="309.869" r="5.07203" fill="#25356A" fill-opacity="0.35"/>
<circle cx="88.8602" cy="309.869" r="5.07203" fill="#25356A" fill-opacity="0.35"/>
<circle cx="105.767" cy="309.869" r="5.07203" fill="#25356A" fill-opacity="0.35"/>
<circle cx="122.674" cy="309.869" r="5.07203" fill="#25356A" fill-opacity="0.35"/>
<circle cx="139.581" cy="309.869" r="5.07203" fill="#25356A" fill-opacity="0.35"/>
<circle cx="156.487" cy="309.869" r="5.07203" fill="#25356A" fill-opacity="0.35"/>
<circle cx="173.394" cy="309.869" r="5.07203" fill="#25356A" fill-opacity="0.35"/>
<circle cx="190.301" cy="309.869" r="5.07203" fill="#25356A" fill-opacity="0.35"/>
<circle cx="207.208" cy="309.869" r="5.07203" fill="#25356A" fill-opacity="0.35"/>
<circle cx="224.114" cy="309.869" r="5.07203" fill="#25356A" fill-opacity="0.35"/>
<circle cx="241.021" cy="309.869" r="5.07203" fill="#25356A" fill-opacity="0.35"/>
<circle cx="257.927" cy="309.869" r="5.07203" fill="#25356A" fill-opacity="0.35"/>
<circle cx="274.835" cy="309.869" r="5.07203" fill="#25356A" fill-opacity="0.35"/>
<circle cx="291.742" cy="309.869" r="5.07203" fill="#25356A" fill-opacity="0.35"/>
<circle cx="308.648" cy="309.869" r="5.07203" fill="#25356A" fill-opacity="0.35"/>
<circle cx="325.555" cy="309.869" r="5.07203" fill="#25356A" fill-opacity="0.35"/>
<circle cx="342.462" cy="309.869" r="5.07203" fill="#25356A" fill-opacity="0.35"/>
<circle cx="359.369" cy="309.869" r="5.07203" fill="#25356A" fill-opacity="0.35"/>
<circle cx="376.275" cy="309.869" r="5.07203" fill="#25356A" fill-opacity="0.35"/>
<circle cx="393.182" cy="309.869" r="5.07203" fill="#25356A" fill-opacity="0.35"/>
<circle cx="38.1394" cy="326.776" r="5.07203" fill="#25356A" fill-opacity="0.35"/>
<circle cx="55.0466" cy="326.776" r="5.07203" fill="#25356A" fill-opacity="0.35"/>
<circle cx="71.9539" cy="326.776" r="5.07203" fill="#25356A" fill-opacity="0.35"/>
<circle cx="88.8602" cy="326.776" r="5.07203" fill="#25356A" fill-opacity="0.35"/>
<circle cx="105.767" cy="326.776" r="5.07203" fill="#25356A" fill-opacity="0.35"/>
<circle cx="122.674" cy="326.776" r="5.07203" fill="#25356A" fill-opacity="0.35"/>
<circle cx="139.581" cy="326.776" r="5.07203" fill="#25356A" fill-opacity="0.35"/>
<circle cx="156.487" cy="326.776" r="5.07203" fill="#25356A" fill-opacity="0.35"/>
<circle cx="173.394" cy="326.776" r="5.07203" fill="#25356A" fill-opacity="0.35"/>
<circle cx="190.301" cy="326.776" r="5.07203" fill="#25356A" fill-opacity="0.35"/>
<circle cx="207.208" cy="326.776" r="5.07203" fill="#25356A" fill-opacity="0.35"/>
<circle cx="224.114" cy="326.776" r="5.07203" fill="#25356A" fill-opacity="0.35"/>
<circle cx="241.021" cy="326.776" r="5.07203" fill="#25356A" fill-opacity="0.35"/>
<circle cx="257.927" cy="326.776" r="5.07203" fill="#25356A" fill-opacity="0.35"/>
<circle cx="274.835" cy="326.776" r="5.07203" fill="#25356A" fill-opacity="0.35"/>
<circle cx="291.742" cy="326.776" r="5.07203" fill="#25356A" fill-opacity="0.35"/>
<circle cx="308.648" cy="326.776" r="5.07203" fill="#25356A" fill-opacity="0.35"/>
<circle cx="325.555" cy="326.776" r="5.07203" fill="#25356A" fill-opacity="0.35"/>
<circle cx="342.462" cy="326.776" r="5.07203" fill="#25356A" fill-opacity="0.35"/>
<circle cx="359.369" cy="326.776" r="5.07203" fill="#25356A" fill-opacity="0.35"/>
<circle cx="376.275" cy="326.776" r="5.07203" fill="#25356A" fill-opacity="0.35"/>
<circle cx="393.182" cy="326.776" r="5.07203" fill="#25356A" fill-opacity="0.35"/>
<circle cx="38.1394" cy="343.683" r="5.07203" fill="#25356A" fill-opacity="0.35"/>
<circle cx="55.0466" cy="343.683" r="5.07203" fill="#25356A" fill-opacity="0.35"/>
<circle cx="71.9539" cy="343.683" r="5.07203" fill="#25356A" fill-opacity="0.35"/>
<circle cx="88.8602" cy="343.683" r="5.07203" fill="#25356A" fill-opacity="0.35"/>
<circle cx="105.767" cy="343.683" r="5.07203" fill="#25356A" fill-opacity="0.35"/>
<circle cx="122.674" cy="343.683" r="5.07203" fill="#25356A" fill-opacity="0.35"/>
<circle cx="139.581" cy="343.683" r="5.07203" fill="#25356A" fill-opacity="0.35"/>
<circle cx="156.487" cy="343.683" r="5.07203" fill="#25356A" fill-opacity="0.35"/>
<circle cx="173.394" cy="343.683" r="5.07203" fill="#25356A" fill-opacity="0.35"/>
<circle cx="190.301" cy="343.683" r="5.07203" fill="#25356A" fill-opacity="0.35"/>
<circle cx="207.208" cy="343.683" r="5.07203" fill="#25356A" fill-opacity="0.35"/>
<circle cx="224.114" cy="343.683" r="5.07203" fill="#25356A" fill-opacity="0.35"/>
<circle cx="241.021" cy="343.683" r="5.07203" fill="#25356A" fill-opacity="0.35"/>
<circle cx="257.927" cy="343.683" r="5.07203" fill="#25356A" fill-opacity="0.35"/>
<circle cx="274.835" cy="343.683" r="5.07203" fill="#25356A" fill-opacity="0.35"/>
<circle cx="291.742" cy="343.683" r="5.07203" fill="#25356A" fill-opacity="0.35"/>
<circle cx="308.648" cy="343.683" r="5.07203" fill="#25356A" fill-opacity="0.35"/>
<circle cx="325.555" cy="343.683" r="5.07203" fill="#25356A" fill-opacity="0.35"/>
<circle cx="342.462" cy="343.683" r="5.07203" fill="#25356A" fill-opacity="0.35"/>
<circle cx="359.369" cy="343.683" r="5.07203" fill="#25356A" fill-opacity="0.35"/>
<circle cx="376.275" cy="343.683" r="5.07203" fill="#25356A" fill-opacity="0.35"/>
<circle cx="393.182" cy="343.683" r="5.07203" fill="#25356A" fill-opacity="0.35"/>
</g>
<g opacity="0.91" filter="url(#filter0_d_0_1)">
<path d="M354.447 196.59C111.628 -16.1479 24.2958 99.8025 16.571 111.258C16.1487 111.884 16.0036 112.538 16.0106 113.294L17.918 318.474C19.3081 468.019 144.637 597.342 281.543 537.154C351.772 506.279 416.03 456.027 444.005 374.317C483.397 259.26 374.11 213.817 354.447 196.59Z" fill="#6FCF97"/>
</g>
<defs>
<filter id="filter0_d_0_1" x="-19.9559" y="33.5088" width="549.293" height="595.581" filterUnits="userSpaceOnUse" color-interpolation-filters="sRGB">
<feFlood flood-opacity="0" result="BackgroundImageFix"/>
<feColorMatrix in="SourceAlpha" type="matrix" values="0 0 0 0 0 0 0 0 0 0 0 0 0 0 0 0 0 0 127 0" result="hardAlpha"/>
<feOffset dx="20.4354" dy="20.4354"/>
<feGaussianBlur stdDeviation="28.2009"/>
<feColorMatrix type="matrix" values="0 0 0 0 0 0 0 0 0 0 0 0 0 0 0 0 0 0 0.04 0"/>
<feBlend mode="normal" in2="BackgroundImageFix" result="effect1_dropShadow_0_1"/>
<feBlend mode="normal" in="SourceGraphic" in2="effect1_dropShadow_0_1" result="shape"/>
</filter>
</defs>
</svg>
