<svg width="83" height="83" viewBox="0 0 83 83" fill="none" xmlns="http://www.w3.org/2000/svg">
<rect width="83" height="83" rx="20" fill="#DAE6FF"/>
<path d="M60.4048 43.7382V50.4524C60.4048 53.362 53.3906 57.1667 44.7381 57.1667C36.0856 57.1667 29.0714 53.362 29.0714 50.4524V44.8572" stroke="#444444" stroke-linecap="round" stroke-linejoin="round"/>
<path d="M29.7294 45.4369C31.6654 48.0062 37.6523 50.4167 44.7381 50.4167C53.3906 50.4167 60.4048 46.8223 60.4048 43.7337C60.4048 41.9992 58.1958 40.099 54.729 38.7651" stroke="#444444" stroke-linecap="round" stroke-linejoin="round"/>
<path d="M53.6905 32.5476V39.2619C53.6905 42.1714 46.6763 45.9762 38.0238 45.9762C29.3713 45.9762 22.3571 42.1714 22.3571 39.2619V32.5476" stroke="#444444" stroke-linecap="round" stroke-linejoin="round"/>
<path fill-rule="evenodd" clip-rule="evenodd" d="M38.0238 39.2261C46.6763 39.2261 53.6905 35.6318 53.6905 32.5432C53.6905 29.4524 46.6763 25.8334 38.0238 25.8334C29.3713 25.8334 22.3571 29.4524 22.3571 32.5432C22.3571 35.6318 29.3713 39.2261 38.0238 39.2261Z" stroke="#444444" stroke-linecap="round" stroke-linejoin="round"/>
</svg>
