<svg width="425" height="387" viewBox="0 0 425 387" fill="none" xmlns="http://www.w3.org/2000/svg">
<path d="M1.30105 31.4362C-0.347122 31.5291 -0.259857 33.9799 1.40439 34.3384L114.589 58.7149L138.118 65.1424C141.956 66.191 144.358 69.9101 143.665 73.7344C142.873 78.1138 138.383 80.8658 133.987 79.6677L52.6222 57.4936C51.1035 57.0797 50.5212 59.4702 51.9228 60.3648L128.2 109.048C133.132 112.195 135.669 117.906 134.646 123.557L110.987 240.125L231.602 211.765C270.618 202.887 296.026 179.978 293.057 143.336L292.409 135.342L221.59 140.623C211.991 141.339 204.269 133.003 205.974 123.764L208.535 109.888C209.717 103.483 215.181 98.6718 221.836 98.1754L327.216 90.3164C367.657 87.3004 397.849 52.8756 394.652 13.4265L394.004 5.43175L181.212 21.3014L1.30105 31.4362Z" fill="#00AEE8" fill-opacity="0.02"/>
<path d="M1.30105 31.4362C-0.347122 31.5291 -0.259857 33.9799 1.40439 34.3384L114.589 58.7149L138.118 65.1424C141.956 66.191 144.358 69.9101 143.665 73.7344C142.873 78.1138 138.383 80.8658 133.987 79.6677L52.6222 57.4936C51.1035 57.0797 50.5212 59.4702 51.9228 60.3648L128.2 109.048C133.132 112.195 135.669 117.906 134.646 123.557L110.987 240.125L231.602 211.765C270.618 202.887 296.026 179.978 293.057 143.336L292.409 135.342L221.59 140.623C211.991 141.339 204.269 133.003 205.974 123.764L208.535 109.888C209.717 103.483 215.181 98.6718 221.836 98.1754L327.216 90.3164C367.657 87.3004 397.849 52.8756 394.652 13.4265L394.004 5.43175L181.212 21.3014L1.30105 31.4362Z" fill="#00AEE8" fill-opacity="0.02"/>
<path d="M135.477 250.809C118.258 255.267 105.104 269.081 101.502 286.487L96.6752 309.818C90.284 343.012 118.645 376.731 153.338 377.186L178.806 247.391C179.231 245.227 180.884 239.053 180.884 239.053L135.477 250.809Z" fill="#00AEE8" fill-opacity="0.02"/>
<path d="M135.477 250.809C118.258 255.267 105.104 269.081 101.502 286.487L96.6752 309.818C90.284 343.012 118.645 376.731 153.338 377.186L178.806 247.391C179.231 245.227 180.884 239.053 180.884 239.053L135.477 250.809Z" fill="#00AEE8" fill-opacity="0.02"/>
</svg>
