<svg width="606" height="817" viewBox="0 0 606 817" fill="none" xmlns="http://www.w3.org/2000/svg">
<g opacity="0.05">
<path opacity="0.91" d="M462.117 173.6C126.935 -120.121 8.73773 44.9446 0.471985 57.525C0.125793 58.0519 0.00311279 58.5989 0.00897217 59.2293L3.93927 482.113C5.09937 606.932 105.729 709.256 227.552 682.05C366.056 651.118 528.425 579.852 584.401 416.321C638.187 259.188 488.966 197.127 462.117 173.6Z" fill="#6FCF97"/>
</g>
<mask id="mask0_0_1" style="mask-type:alpha" maskUnits="userSpaceOnUse" x="167" y="350" width="362" height="391">
<path opacity="0.69" d="M447.682 455.787C247.486 280.57 174.733 374.485 167.593 384.916C167.166 385.54 167.004 386.221 167.011 386.977L168.164 510.878C169.555 660.426 300.604 795.65 427.673 716.783C469.152 691.039 504.283 654.596 521.955 603.031C554.623 507.708 463.99 470.06 447.682 455.787Z" fill="#25356A" fill-opacity="0.35"/>
</mask>
<g mask="url(#mask0_0_1)">
<circle cx="169" cy="362" r="5" fill="#25356A" fill-opacity="0.35"/>
<circle cx="203" cy="362" r="5" fill="#25356A" fill-opacity="0.35"/>
<circle cx="220" cy="362" r="5" fill="#25356A" fill-opacity="0.35"/>
<circle cx="237" cy="362" r="5" fill="#25356A" fill-opacity="0.35"/>
<circle cx="254" cy="362" r="5" fill="#25356A" fill-opacity="0.35"/>
<circle cx="271" cy="362" r="5" fill="#25356A" fill-opacity="0.35"/>
<circle cx="321" cy="362" r="5" fill="#25356A" fill-opacity="0.35"/>
<circle cx="338" cy="362" r="5" fill="#25356A" fill-opacity="0.35"/>
<circle cx="355" cy="362" r="5" fill="#25356A" fill-opacity="0.35"/>
<circle cx="372" cy="362" r="5" fill="#25356A" fill-opacity="0.35"/>
<circle cx="389" cy="362" r="5" fill="#25356A" fill-opacity="0.35"/>
<circle cx="406" cy="362" r="5" fill="#25356A" fill-opacity="0.35"/>
<circle cx="423" cy="362" r="5" fill="#25356A" fill-opacity="0.35"/>
<circle cx="440" cy="362" r="5" fill="#25356A" fill-opacity="0.35"/>
<circle cx="456" cy="362" r="5" fill="#25356A" fill-opacity="0.35"/>
<circle cx="473" cy="362" r="5" fill="#25356A" fill-opacity="0.35"/>
<circle cx="490" cy="362" r="5" fill="#25356A" fill-opacity="0.35"/>
<circle cx="507" cy="362" r="5" fill="#25356A" fill-opacity="0.35"/>
<circle cx="524" cy="362" r="5" fill="#25356A" fill-opacity="0.35"/>
<circle cx="186" cy="379" r="5" fill="#25356A" fill-opacity="0.35"/>
<circle cx="203" cy="379" r="5" fill="#25356A" fill-opacity="0.35"/>
<circle cx="220" cy="379" r="5" fill="#25356A" fill-opacity="0.35"/>
<circle cx="237" cy="379" r="5" fill="#25356A" fill-opacity="0.35"/>
<circle cx="254" cy="379" r="5" fill="#25356A" fill-opacity="0.35"/>
<circle cx="271" cy="379" r="5" fill="#25356A" fill-opacity="0.35"/>
<circle cx="287" cy="379" r="5" fill="#25356A" fill-opacity="0.35"/>
<circle cx="304" cy="379" r="5" fill="#25356A" fill-opacity="0.35"/>
<circle cx="321" cy="379" r="5" fill="#25356A" fill-opacity="0.35"/>
<circle cx="355" cy="379" r="5" fill="#25356A" fill-opacity="0.35"/>
<circle cx="372" cy="379" r="5" fill="#25356A" fill-opacity="0.35"/>
<circle cx="389" cy="379" r="5" fill="#25356A" fill-opacity="0.35"/>
<circle cx="406" cy="379" r="5" fill="#25356A" fill-opacity="0.35"/>
<circle cx="423" cy="379" r="5" fill="#25356A" fill-opacity="0.35"/>
<circle cx="440" cy="379" r="5" fill="#25356A" fill-opacity="0.35"/>
<circle cx="456" cy="379" r="5" fill="#25356A" fill-opacity="0.35"/>
<circle cx="473" cy="379" r="5" fill="#25356A" fill-opacity="0.35"/>
<circle cx="490" cy="379" r="5" fill="#25356A" fill-opacity="0.35"/>
<circle cx="507" cy="379" r="5" fill="#25356A" fill-opacity="0.35"/>
<circle cx="524" cy="379" r="5" fill="#25356A" fill-opacity="0.35"/>
<circle cx="186" cy="396" r="5" fill="#25356A" fill-opacity="0.35"/>
<circle cx="203" cy="396" r="5" fill="#25356A" fill-opacity="0.35"/>
<circle cx="220" cy="396" r="5" fill="#25356A" fill-opacity="0.35"/>
<circle cx="237" cy="396" r="5" fill="#25356A" fill-opacity="0.35"/>
<circle cx="254" cy="396" r="5" fill="#25356A" fill-opacity="0.35"/>
<circle cx="271" cy="396" r="5" fill="#25356A" fill-opacity="0.35"/>
<circle cx="287" cy="396" r="5" fill="#25356A" fill-opacity="0.35"/>
<circle cx="304" cy="396" r="5" fill="#25356A" fill-opacity="0.35"/>
<circle cx="321" cy="396" r="5" fill="#25356A" fill-opacity="0.35"/>
<circle cx="338" cy="396" r="5" fill="#25356A" fill-opacity="0.35"/>
<circle cx="355" cy="396" r="5" fill="#25356A" fill-opacity="0.35"/>
<circle cx="389" cy="396" r="5" fill="#25356A" fill-opacity="0.35"/>
<circle cx="406" cy="396" r="5" fill="#25356A" fill-opacity="0.35"/>
<circle cx="423" cy="396" r="5" fill="#25356A" fill-opacity="0.35"/>
<circle cx="440" cy="396" r="5" fill="#25356A" fill-opacity="0.35"/>
<circle cx="456" cy="396" r="5" fill="#25356A" fill-opacity="0.35"/>
<circle cx="473" cy="396" r="5" fill="#25356A" fill-opacity="0.35"/>
<circle cx="490" cy="396" r="5" fill="#25356A" fill-opacity="0.35"/>
<circle cx="507" cy="396" r="5" fill="#25356A" fill-opacity="0.35"/>
<circle cx="524" cy="396" r="5" fill="#25356A" fill-opacity="0.35"/>
<circle cx="186" cy="413" r="5" fill="#25356A" fill-opacity="0.35"/>
<circle cx="203" cy="413" r="5" fill="#25356A" fill-opacity="0.35"/>
<circle cx="220" cy="413" r="5" fill="#25356A" fill-opacity="0.35"/>
<circle cx="237" cy="413" r="5" fill="#25356A" fill-opacity="0.35"/>
<circle cx="254" cy="413" r="5" fill="#25356A" fill-opacity="0.35"/>
<circle cx="271" cy="413" r="5" fill="#25356A" fill-opacity="0.35"/>
<circle cx="287" cy="413" r="5" fill="#25356A" fill-opacity="0.35"/>
<circle cx="304" cy="413" r="5" fill="#25356A" fill-opacity="0.35"/>
<circle cx="321" cy="413" r="5" fill="#25356A" fill-opacity="0.35"/>
<circle cx="338" cy="413" r="5" fill="#25356A" fill-opacity="0.35"/>
<circle cx="355" cy="413" r="5" fill="#25356A" fill-opacity="0.35"/>
<circle cx="372" cy="413" r="5" fill="#25356A" fill-opacity="0.35"/>
<circle cx="406" cy="413" r="5" fill="#25356A" fill-opacity="0.35"/>
<circle cx="423" cy="413" r="5" fill="#25356A" fill-opacity="0.35"/>
<circle cx="440" cy="413" r="5" fill="#25356A" fill-opacity="0.35"/>
<circle cx="456" cy="413" r="5" fill="#25356A" fill-opacity="0.35"/>
<circle cx="473" cy="413" r="5" fill="#25356A" fill-opacity="0.35"/>
<circle cx="490" cy="413" r="5" fill="#25356A" fill-opacity="0.35"/>
<circle cx="507" cy="413" r="5" fill="#25356A" fill-opacity="0.35"/>
<circle cx="524" cy="413" r="5" fill="#25356A" fill-opacity="0.35"/>
<circle cx="169" cy="430" r="5" fill="#25356A" fill-opacity="0.35"/>
<circle cx="186" cy="430" r="5" fill="#25356A" fill-opacity="0.35"/>
<circle cx="203" cy="430" r="5" fill="#25356A" fill-opacity="0.35"/>
<circle cx="220" cy="430" r="5" fill="#25356A" fill-opacity="0.35"/>
<circle cx="237" cy="430" r="5" fill="#25356A" fill-opacity="0.35"/>
<circle cx="254" cy="430" r="5" fill="#25356A" fill-opacity="0.35"/>
<circle cx="271" cy="430" r="5" fill="#25356A" fill-opacity="0.35"/>
<circle cx="287" cy="430" r="5" fill="#25356A" fill-opacity="0.35"/>
<circle cx="304" cy="430" r="5" fill="#25356A" fill-opacity="0.35"/>
<circle cx="321" cy="430" r="5" fill="#25356A" fill-opacity="0.35"/>
<circle cx="338" cy="430" r="5" fill="#25356A" fill-opacity="0.35"/>
<circle cx="355" cy="430" r="5" fill="#25356A" fill-opacity="0.35"/>
<circle cx="372" cy="430" r="5" fill="#25356A" fill-opacity="0.35"/>
<circle cx="389" cy="430" r="5" fill="#25356A" fill-opacity="0.35"/>
<circle cx="406" cy="430" r="5" fill="#25356A" fill-opacity="0.35"/>
<circle cx="440" cy="430" r="5" fill="#25356A" fill-opacity="0.35"/>
<circle cx="456" cy="430" r="5" fill="#25356A" fill-opacity="0.35"/>
<circle cx="473" cy="430" r="5" fill="#25356A" fill-opacity="0.35"/>
<circle cx="490" cy="430" r="5" fill="#25356A" fill-opacity="0.35"/>
<circle cx="507" cy="430" r="5" fill="#25356A" fill-opacity="0.35"/>
<circle cx="524" cy="430" r="5" fill="#25356A" fill-opacity="0.35"/>
<circle cx="169" cy="447" r="5" fill="#25356A" fill-opacity="0.35"/>
<circle cx="186" cy="447" r="5" fill="#25356A" fill-opacity="0.35"/>
<circle cx="203" cy="447" r="5" fill="#25356A" fill-opacity="0.35"/>
<circle cx="220" cy="447" r="5" fill="#25356A" fill-opacity="0.35"/>
<circle cx="237" cy="447" r="5" fill="#25356A" fill-opacity="0.35"/>
<circle cx="254" cy="447" r="5" fill="#25356A" fill-opacity="0.35"/>
<circle cx="271" cy="447" r="5" fill="#25356A" fill-opacity="0.35"/>
<circle cx="287" cy="447" r="5" fill="#25356A" fill-opacity="0.35"/>
<circle cx="304" cy="447" r="5" fill="#25356A" fill-opacity="0.35"/>
<circle cx="321" cy="447" r="5" fill="#25356A" fill-opacity="0.35"/>
<circle cx="338" cy="447" r="5" fill="#25356A" fill-opacity="0.35"/>
<circle cx="355" cy="447" r="5" fill="#25356A" fill-opacity="0.35"/>
<circle cx="372" cy="447" r="5" fill="#25356A" fill-opacity="0.35"/>
<circle cx="389" cy="447" r="5" fill="#25356A" fill-opacity="0.35"/>
<circle cx="406" cy="447" r="5" fill="#25356A" fill-opacity="0.35"/>
<circle cx="423" cy="447" r="5" fill="#25356A" fill-opacity="0.35"/>
<circle cx="456" cy="447" r="5" fill="#25356A" fill-opacity="0.35"/>
<circle cx="473" cy="447" r="5" fill="#25356A" fill-opacity="0.35"/>
<circle cx="490" cy="447" r="5" fill="#25356A" fill-opacity="0.35"/>
<circle cx="507" cy="447" r="5" fill="#25356A" fill-opacity="0.35"/>
<circle cx="524" cy="447" r="5" fill="#25356A" fill-opacity="0.35"/>
<circle cx="169" cy="464" r="5" fill="#25356A" fill-opacity="0.35"/>
<circle cx="186" cy="464" r="5" fill="#25356A" fill-opacity="0.35"/>
<circle cx="203" cy="464" r="5" fill="#25356A" fill-opacity="0.35"/>
<circle cx="220" cy="464" r="5" fill="#25356A" fill-opacity="0.35"/>
<circle cx="237" cy="464" r="5" fill="#25356A" fill-opacity="0.35"/>
<circle cx="254" cy="464" r="5" fill="#25356A" fill-opacity="0.35"/>
<circle cx="271" cy="464" r="5" fill="#25356A" fill-opacity="0.35"/>
<circle cx="287" cy="464" r="5" fill="#25356A" fill-opacity="0.35"/>
<circle cx="304" cy="464" r="5" fill="#25356A" fill-opacity="0.35"/>
<circle cx="321" cy="464" r="5" fill="#25356A" fill-opacity="0.35"/>
<circle cx="338" cy="464" r="5" fill="#25356A" fill-opacity="0.35"/>
<circle cx="355" cy="464" r="5" fill="#25356A" fill-opacity="0.35"/>
<circle cx="372" cy="464" r="5" fill="#25356A" fill-opacity="0.35"/>
<circle cx="389" cy="464" r="5" fill="#25356A" fill-opacity="0.35"/>
<circle cx="406" cy="464" r="5" fill="#25356A" fill-opacity="0.35"/>
<circle cx="423" cy="464" r="5" fill="#25356A" fill-opacity="0.35"/>
<circle cx="440" cy="464" r="5" fill="#25356A" fill-opacity="0.35"/>
<circle cx="473" cy="464" r="5" fill="#25356A" fill-opacity="0.35"/>
<circle cx="490" cy="464" r="5" fill="#25356A" fill-opacity="0.35"/>
<circle cx="507" cy="464" r="5" fill="#25356A" fill-opacity="0.35"/>
<circle cx="524" cy="464" r="5" fill="#25356A" fill-opacity="0.35"/>
<circle cx="169" cy="481" r="5" fill="#25356A" fill-opacity="0.35"/>
<circle cx="186" cy="481" r="5" fill="#25356A" fill-opacity="0.35"/>
<circle cx="203" cy="481" r="5" fill="#25356A" fill-opacity="0.35"/>
<circle cx="220" cy="481" r="5" fill="#25356A" fill-opacity="0.35"/>
<circle cx="237" cy="481" r="5" fill="#25356A" fill-opacity="0.35"/>
<circle cx="254" cy="481" r="5" fill="#25356A" fill-opacity="0.35"/>
<circle cx="271" cy="481" r="5" fill="#25356A" fill-opacity="0.35"/>
<circle cx="287" cy="481" r="5" fill="#25356A" fill-opacity="0.35"/>
<circle cx="304" cy="481" r="5" fill="#25356A" fill-opacity="0.35"/>
<circle cx="321" cy="481" r="5" fill="#25356A" fill-opacity="0.35"/>
<circle cx="338" cy="481" r="5" fill="#25356A" fill-opacity="0.35"/>
<circle cx="355" cy="481" r="5" fill="#25356A" fill-opacity="0.35"/>
<circle cx="372" cy="481" r="5" fill="#25356A" fill-opacity="0.35"/>
<circle cx="389" cy="481" r="5" fill="#25356A" fill-opacity="0.35"/>
<circle cx="406" cy="481" r="5" fill="#25356A" fill-opacity="0.35"/>
<circle cx="423" cy="481" r="5" fill="#25356A" fill-opacity="0.35"/>
<circle cx="440" cy="481" r="5" fill="#25356A" fill-opacity="0.35"/>
<circle cx="456" cy="481" r="5" fill="#25356A" fill-opacity="0.35"/>
<circle cx="473" cy="481" r="5" fill="#25356A" fill-opacity="0.35"/>
<circle cx="507" cy="481" r="5" fill="#25356A" fill-opacity="0.35"/>
<circle cx="524" cy="481" r="5" fill="#25356A" fill-opacity="0.35"/>
<circle cx="169" cy="498" r="5" fill="#25356A" fill-opacity="0.35"/>
<circle cx="186" cy="498" r="5" fill="#25356A" fill-opacity="0.35"/>
<circle cx="203" cy="498" r="5" fill="#25356A" fill-opacity="0.35"/>
<circle cx="220" cy="498" r="5" fill="#25356A" fill-opacity="0.35"/>
<circle cx="237" cy="498" r="5" fill="#25356A" fill-opacity="0.35"/>
<circle cx="254" cy="498" r="5" fill="#25356A" fill-opacity="0.35"/>
<circle cx="271" cy="498" r="5" fill="#25356A" fill-opacity="0.35"/>
<circle cx="287" cy="498" r="5" fill="#25356A" fill-opacity="0.35"/>
<circle cx="304" cy="498" r="5" fill="#25356A" fill-opacity="0.35"/>
<circle cx="321" cy="498" r="5" fill="#25356A" fill-opacity="0.35"/>
<circle cx="338" cy="498" r="5" fill="#25356A" fill-opacity="0.35"/>
<circle cx="355" cy="498" r="5" fill="#25356A" fill-opacity="0.35"/>
<circle cx="372" cy="498" r="5" fill="#25356A" fill-opacity="0.35"/>
<circle cx="389" cy="498" r="5" fill="#25356A" fill-opacity="0.35"/>
<circle cx="406" cy="498" r="5" fill="#25356A" fill-opacity="0.35"/>
<circle cx="423" cy="498" r="5" fill="#25356A" fill-opacity="0.35"/>
<circle cx="440" cy="498" r="5" fill="#25356A" fill-opacity="0.35"/>
<circle cx="456" cy="498" r="5" fill="#25356A" fill-opacity="0.35"/>
<circle cx="473" cy="498" r="5" fill="#25356A" fill-opacity="0.35"/>
<circle cx="490" cy="498" r="5" fill="#25356A" fill-opacity="0.35"/>
<circle cx="524" cy="498" r="5" fill="#25356A" fill-opacity="0.35"/>
<circle cx="169" cy="515" r="5" fill="#25356A" fill-opacity="0.35"/>
<circle cx="186" cy="515" r="5" fill="#25356A" fill-opacity="0.35"/>
<circle cx="203" cy="515" r="5" fill="#25356A" fill-opacity="0.35"/>
<circle cx="220" cy="515" r="5" fill="#25356A" fill-opacity="0.35"/>
<circle cx="237" cy="515" r="5" fill="#25356A" fill-opacity="0.35"/>
<circle cx="254" cy="515" r="5" fill="#25356A" fill-opacity="0.35"/>
<circle cx="271" cy="515" r="5" fill="#25356A" fill-opacity="0.35"/>
<circle cx="287" cy="515" r="5" fill="#25356A" fill-opacity="0.35"/>
<circle cx="304" cy="515" r="5" fill="#25356A" fill-opacity="0.35"/>
<circle cx="321" cy="515" r="5" fill="#25356A" fill-opacity="0.35"/>
<circle cx="338" cy="515" r="5" fill="#25356A" fill-opacity="0.35"/>
<circle cx="355" cy="515" r="5" fill="#25356A" fill-opacity="0.35"/>
<circle cx="372" cy="515" r="5" fill="#25356A" fill-opacity="0.35"/>
<circle cx="389" cy="515" r="5" fill="#25356A" fill-opacity="0.35"/>
<circle cx="406" cy="515" r="5" fill="#25356A" fill-opacity="0.35"/>
<circle cx="423" cy="515" r="5" fill="#25356A" fill-opacity="0.35"/>
<circle cx="440" cy="515" r="5" fill="#25356A" fill-opacity="0.35"/>
<circle cx="456" cy="515" r="5" fill="#25356A" fill-opacity="0.35"/>
<circle cx="473" cy="515" r="5" fill="#25356A" fill-opacity="0.35"/>
<circle cx="490" cy="515" r="5" fill="#25356A" fill-opacity="0.35"/>
<circle cx="507" cy="515" r="5" fill="#25356A" fill-opacity="0.35"/>
<circle cx="524" cy="515" r="5" fill="#25356A" fill-opacity="0.35"/>
<circle cx="169" cy="531" r="5" fill="#25356A" fill-opacity="0.35"/>
<circle cx="186" cy="531" r="5" fill="#25356A" fill-opacity="0.35"/>
<circle cx="203" cy="531" r="5" fill="#25356A" fill-opacity="0.35"/>
<circle cx="220" cy="531" r="5" fill="#25356A" fill-opacity="0.35"/>
<circle cx="237" cy="531" r="5" fill="#25356A" fill-opacity="0.35"/>
<circle cx="254" cy="531" r="5" fill="#25356A" fill-opacity="0.35"/>
<circle cx="271" cy="531" r="5" fill="#25356A" fill-opacity="0.35"/>
<circle cx="287" cy="531" r="5" fill="#25356A" fill-opacity="0.35"/>
<circle cx="304" cy="531" r="5" fill="#25356A" fill-opacity="0.35"/>
<circle cx="321" cy="531" r="5" fill="#25356A" fill-opacity="0.35"/>
<circle cx="338" cy="531" r="5" fill="#25356A" fill-opacity="0.35"/>
<circle cx="355" cy="531" r="5" fill="#25356A" fill-opacity="0.35"/>
<circle cx="372" cy="531" r="5" fill="#25356A" fill-opacity="0.35"/>
<circle cx="389" cy="531" r="5" fill="#25356A" fill-opacity="0.35"/>
<circle cx="406" cy="531" r="5" fill="#25356A" fill-opacity="0.35"/>
<circle cx="423" cy="531" r="5" fill="#25356A" fill-opacity="0.35"/>
<circle cx="440" cy="531" r="5" fill="#25356A" fill-opacity="0.35"/>
<circle cx="456" cy="531" r="5" fill="#25356A" fill-opacity="0.35"/>
<circle cx="473" cy="531" r="5" fill="#25356A" fill-opacity="0.35"/>
<circle cx="490" cy="531" r="5" fill="#25356A" fill-opacity="0.35"/>
<circle cx="507" cy="531" r="5" fill="#25356A" fill-opacity="0.35"/>
<circle cx="169" cy="548" r="5" fill="#25356A" fill-opacity="0.35"/>
<circle cx="186" cy="548" r="5" fill="#25356A" fill-opacity="0.35"/>
<circle cx="203" cy="548" r="5" fill="#25356A" fill-opacity="0.35"/>
<circle cx="220" cy="548" r="5" fill="#25356A" fill-opacity="0.35"/>
<circle cx="237" cy="548" r="5" fill="#25356A" fill-opacity="0.35"/>
<circle cx="254" cy="548" r="5" fill="#25356A" fill-opacity="0.35"/>
<circle cx="271" cy="548" r="5" fill="#25356A" fill-opacity="0.35"/>
<circle cx="287" cy="548" r="5" fill="#25356A" fill-opacity="0.35"/>
<circle cx="304" cy="548" r="5" fill="#25356A" fill-opacity="0.35"/>
<circle cx="321" cy="548" r="5" fill="#25356A" fill-opacity="0.35"/>
<circle cx="338" cy="548" r="5" fill="#25356A" fill-opacity="0.35"/>
<circle cx="355" cy="548" r="5" fill="#25356A" fill-opacity="0.35"/>
<circle cx="372" cy="548" r="5" fill="#25356A" fill-opacity="0.35"/>
<circle cx="389" cy="548" r="5" fill="#25356A" fill-opacity="0.35"/>
<circle cx="406" cy="548" r="5" fill="#25356A" fill-opacity="0.35"/>
<circle cx="423" cy="548" r="5" fill="#25356A" fill-opacity="0.35"/>
<circle cx="440" cy="548" r="5" fill="#25356A" fill-opacity="0.35"/>
<circle cx="456" cy="548" r="5" fill="#25356A" fill-opacity="0.35"/>
<circle cx="473" cy="548" r="5" fill="#25356A" fill-opacity="0.35"/>
<circle cx="490" cy="548" r="5" fill="#25356A" fill-opacity="0.35"/>
<circle cx="507" cy="548" r="5" fill="#25356A" fill-opacity="0.35"/>
<circle cx="169" cy="565" r="5" fill="#25356A" fill-opacity="0.35"/>
<circle cx="186" cy="565" r="5" fill="#25356A" fill-opacity="0.35"/>
<circle cx="203" cy="565" r="5" fill="#25356A" fill-opacity="0.35"/>
<circle cx="220" cy="565" r="5" fill="#25356A" fill-opacity="0.35"/>
<circle cx="237" cy="565" r="5" fill="#25356A" fill-opacity="0.35"/>
<circle cx="254" cy="565" r="5" fill="#25356A" fill-opacity="0.35"/>
<circle cx="271" cy="565" r="5" fill="#25356A" fill-opacity="0.35"/>
<circle cx="287" cy="565" r="5" fill="#25356A" fill-opacity="0.35"/>
<circle cx="304" cy="565" r="5" fill="#25356A" fill-opacity="0.35"/>
<circle cx="321" cy="565" r="5" fill="#25356A" fill-opacity="0.35"/>
<circle cx="338" cy="565" r="5" fill="#25356A" fill-opacity="0.35"/>
<circle cx="355" cy="565" r="5" fill="#25356A" fill-opacity="0.35"/>
<circle cx="372" cy="565" r="5" fill="#25356A" fill-opacity="0.35"/>
<circle cx="389" cy="565" r="5" fill="#25356A" fill-opacity="0.35"/>
<circle cx="406" cy="565" r="5" fill="#25356A" fill-opacity="0.35"/>
<circle cx="423" cy="565" r="5" fill="#25356A" fill-opacity="0.35"/>
<circle cx="440" cy="565" r="5" fill="#25356A" fill-opacity="0.35"/>
<circle cx="456" cy="565" r="5" fill="#25356A" fill-opacity="0.35"/>
<circle cx="473" cy="565" r="5" fill="#25356A" fill-opacity="0.35"/>
<circle cx="490" cy="565" r="5" fill="#25356A" fill-opacity="0.35"/>
<circle cx="507" cy="565" r="5" fill="#25356A" fill-opacity="0.35"/>
<circle cx="524" cy="565" r="5" fill="#25356A" fill-opacity="0.35"/>
<circle cx="169" cy="582" r="5" fill="#25356A" fill-opacity="0.35"/>
<circle cx="186" cy="582" r="5" fill="#25356A" fill-opacity="0.35"/>
<circle cx="203" cy="582" r="5" fill="#25356A" fill-opacity="0.35"/>
<circle cx="220" cy="582" r="5" fill="#25356A" fill-opacity="0.35"/>
<circle cx="237" cy="582" r="5" fill="#25356A" fill-opacity="0.35"/>
<circle cx="254" cy="582" r="5" fill="#25356A" fill-opacity="0.35"/>
<circle cx="271" cy="582" r="5" fill="#25356A" fill-opacity="0.35"/>
<circle cx="287" cy="582" r="5" fill="#25356A" fill-opacity="0.35"/>
<circle cx="304" cy="582" r="5" fill="#25356A" fill-opacity="0.35"/>
<circle cx="321" cy="582" r="5" fill="#25356A" fill-opacity="0.35"/>
<circle cx="338" cy="582" r="5" fill="#25356A" fill-opacity="0.35"/>
<circle cx="355" cy="582" r="5" fill="#25356A" fill-opacity="0.35"/>
<circle cx="372" cy="582" r="5" fill="#25356A" fill-opacity="0.35"/>
<circle cx="389" cy="582" r="5" fill="#25356A" fill-opacity="0.35"/>
<circle cx="406" cy="582" r="5" fill="#25356A" fill-opacity="0.35"/>
<circle cx="423" cy="582" r="5" fill="#25356A" fill-opacity="0.35"/>
<circle cx="440" cy="582" r="5" fill="#25356A" fill-opacity="0.35"/>
<circle cx="456" cy="582" r="5" fill="#25356A" fill-opacity="0.35"/>
<circle cx="473" cy="582" r="5" fill="#25356A" fill-opacity="0.35"/>
<circle cx="490" cy="582" r="5" fill="#25356A" fill-opacity="0.35"/>
<circle cx="507" cy="582" r="5" fill="#25356A" fill-opacity="0.35"/>
<circle cx="169" cy="599" r="5" fill="#25356A" fill-opacity="0.35"/>
<circle cx="186" cy="599" r="5" fill="#25356A" fill-opacity="0.35"/>
<circle cx="203" cy="599" r="5" fill="#25356A" fill-opacity="0.35"/>
<circle cx="220" cy="599" r="5" fill="#25356A" fill-opacity="0.35"/>
<circle cx="237" cy="599" r="5" fill="#25356A" fill-opacity="0.35"/>
<circle cx="254" cy="599" r="5" fill="#25356A" fill-opacity="0.35"/>
<circle cx="271" cy="599" r="5" fill="#25356A" fill-opacity="0.35"/>
<circle cx="287" cy="599" r="5" fill="#25356A" fill-opacity="0.35"/>
<circle cx="304" cy="599" r="5" fill="#25356A" fill-opacity="0.35"/>
<circle cx="321" cy="599" r="5" fill="#25356A" fill-opacity="0.35"/>
<circle cx="338" cy="599" r="5" fill="#25356A" fill-opacity="0.35"/>
<circle cx="355" cy="599" r="5" fill="#25356A" fill-opacity="0.35"/>
<circle cx="372" cy="599" r="5" fill="#25356A" fill-opacity="0.35"/>
<circle cx="389" cy="599" r="5" fill="#25356A" fill-opacity="0.35"/>
<circle cx="406" cy="599" r="5" fill="#25356A" fill-opacity="0.35"/>
<circle cx="423" cy="599" r="5" fill="#25356A" fill-opacity="0.35"/>
<circle cx="440" cy="599" r="5" fill="#25356A" fill-opacity="0.35"/>
<circle cx="456" cy="599" r="5" fill="#25356A" fill-opacity="0.35"/>
<circle cx="473" cy="599" r="5" fill="#25356A" fill-opacity="0.35"/>
<circle cx="490" cy="599" r="5" fill="#25356A" fill-opacity="0.35"/>
<circle cx="507" cy="599" r="5" fill="#25356A" fill-opacity="0.35"/>
<circle cx="169" cy="616" r="5" fill="#25356A" fill-opacity="0.35"/>
<circle cx="186" cy="616" r="5" fill="#25356A" fill-opacity="0.35"/>
<circle cx="203" cy="616" r="5" fill="#25356A" fill-opacity="0.35"/>
<circle cx="220" cy="616" r="5" fill="#25356A" fill-opacity="0.35"/>
<circle cx="237" cy="616" r="5" fill="#25356A" fill-opacity="0.35"/>
<circle cx="254" cy="616" r="5" fill="#25356A" fill-opacity="0.35"/>
<circle cx="271" cy="616" r="5" fill="#25356A" fill-opacity="0.35"/>
<circle cx="287" cy="616" r="5" fill="#25356A" fill-opacity="0.35"/>
<circle cx="304" cy="616" r="5" fill="#25356A" fill-opacity="0.35"/>
<circle cx="321" cy="616" r="5" fill="#25356A" fill-opacity="0.35"/>
<circle cx="338" cy="616" r="5" fill="#25356A" fill-opacity="0.35"/>
<circle cx="355" cy="616" r="5" fill="#25356A" fill-opacity="0.35"/>
<circle cx="372" cy="616" r="5" fill="#25356A" fill-opacity="0.35"/>
<circle cx="389" cy="616" r="5" fill="#25356A" fill-opacity="0.35"/>
<circle cx="406" cy="616" r="5" fill="#25356A" fill-opacity="0.35"/>
<circle cx="423" cy="616" r="5" fill="#25356A" fill-opacity="0.35"/>
<circle cx="440" cy="616" r="5" fill="#25356A" fill-opacity="0.35"/>
<circle cx="456" cy="616" r="5" fill="#25356A" fill-opacity="0.35"/>
<circle cx="473" cy="616" r="5" fill="#25356A" fill-opacity="0.35"/>
<circle cx="490" cy="616" r="5" fill="#25356A" fill-opacity="0.35"/>
<circle cx="507" cy="616" r="5" fill="#25356A" fill-opacity="0.35"/>
<circle cx="524" cy="616" r="5" fill="#25356A" fill-opacity="0.35"/>
<circle cx="169" cy="633" r="5" fill="#25356A" fill-opacity="0.35"/>
<circle cx="186" cy="633" r="5" fill="#25356A" fill-opacity="0.35"/>
<circle cx="203" cy="633" r="5" fill="#25356A" fill-opacity="0.35"/>
<circle cx="220" cy="633" r="5" fill="#25356A" fill-opacity="0.35"/>
<circle cx="237" cy="633" r="5" fill="#25356A" fill-opacity="0.35"/>
<circle cx="254" cy="633" r="5" fill="#25356A" fill-opacity="0.35"/>
<circle cx="271" cy="633" r="5" fill="#25356A" fill-opacity="0.35"/>
<circle cx="287" cy="633" r="5" fill="#25356A" fill-opacity="0.35"/>
<circle cx="304" cy="633" r="5" fill="#25356A" fill-opacity="0.35"/>
<circle cx="321" cy="633" r="5" fill="#25356A" fill-opacity="0.35"/>
<circle cx="338" cy="633" r="5" fill="#25356A" fill-opacity="0.35"/>
<circle cx="355" cy="633" r="5" fill="#25356A" fill-opacity="0.35"/>
<circle cx="372" cy="633" r="5" fill="#25356A" fill-opacity="0.35"/>
<circle cx="389" cy="633" r="5" fill="#25356A" fill-opacity="0.35"/>
<circle cx="406" cy="633" r="5" fill="#25356A" fill-opacity="0.35"/>
<circle cx="423" cy="633" r="5" fill="#25356A" fill-opacity="0.35"/>
<circle cx="440" cy="633" r="5" fill="#25356A" fill-opacity="0.35"/>
<circle cx="456" cy="633" r="5" fill="#25356A" fill-opacity="0.35"/>
<circle cx="473" cy="633" r="5" fill="#25356A" fill-opacity="0.35"/>
<circle cx="490" cy="633" r="5" fill="#25356A" fill-opacity="0.35"/>
<circle cx="507" cy="633" r="5" fill="#25356A" fill-opacity="0.35"/>
<circle cx="524" cy="633" r="5" fill="#25356A" fill-opacity="0.35"/>
<circle cx="169" cy="650" r="5" fill="#25356A" fill-opacity="0.35"/>
<circle cx="186" cy="650" r="5" fill="#25356A" fill-opacity="0.35"/>
<circle cx="203" cy="650" r="5" fill="#25356A" fill-opacity="0.35"/>
<circle cx="220" cy="650" r="5" fill="#25356A" fill-opacity="0.35"/>
<circle cx="237" cy="650" r="5" fill="#25356A" fill-opacity="0.35"/>
<circle cx="254" cy="650" r="5" fill="#25356A" fill-opacity="0.35"/>
<circle cx="271" cy="650" r="5" fill="#25356A" fill-opacity="0.35"/>
<circle cx="287" cy="650" r="5" fill="#25356A" fill-opacity="0.35"/>
<circle cx="304" cy="650" r="5" fill="#25356A" fill-opacity="0.35"/>
<circle cx="321" cy="650" r="5" fill="#25356A" fill-opacity="0.35"/>
<circle cx="338" cy="650" r="5" fill="#25356A" fill-opacity="0.35"/>
<circle cx="355" cy="650" r="5" fill="#25356A" fill-opacity="0.35"/>
<circle cx="372" cy="650" r="5" fill="#25356A" fill-opacity="0.35"/>
<circle cx="389" cy="650" r="5" fill="#25356A" fill-opacity="0.35"/>
<circle cx="406" cy="650" r="5" fill="#25356A" fill-opacity="0.35"/>
<circle cx="423" cy="650" r="5" fill="#25356A" fill-opacity="0.35"/>
<circle cx="440" cy="650" r="5" fill="#25356A" fill-opacity="0.35"/>
<circle cx="456" cy="650" r="5" fill="#25356A" fill-opacity="0.35"/>
<circle cx="473" cy="650" r="5" fill="#25356A" fill-opacity="0.35"/>
<circle cx="490" cy="650" r="5" fill="#25356A" fill-opacity="0.35"/>
<circle cx="507" cy="650" r="5" fill="#25356A" fill-opacity="0.35"/>
<circle cx="524" cy="650" r="5" fill="#25356A" fill-opacity="0.35"/>
<circle cx="169" cy="667" r="5" fill="#25356A" fill-opacity="0.35"/>
<circle cx="186" cy="667" r="5" fill="#25356A" fill-opacity="0.35"/>
<circle cx="203" cy="667" r="5" fill="#25356A" fill-opacity="0.35"/>
<circle cx="220" cy="667" r="5" fill="#25356A" fill-opacity="0.35"/>
<circle cx="237" cy="667" r="5" fill="#25356A" fill-opacity="0.35"/>
<circle cx="254" cy="667" r="5" fill="#25356A" fill-opacity="0.35"/>
<circle cx="271" cy="667" r="5" fill="#25356A" fill-opacity="0.35"/>
<circle cx="287" cy="667" r="5" fill="#25356A" fill-opacity="0.35"/>
<circle cx="304" cy="667" r="5" fill="#25356A" fill-opacity="0.35"/>
<circle cx="321" cy="667" r="5" fill="#25356A" fill-opacity="0.35"/>
<circle cx="338" cy="667" r="5" fill="#25356A" fill-opacity="0.35"/>
<circle cx="355" cy="667" r="5" fill="#25356A" fill-opacity="0.35"/>
<circle cx="372" cy="667" r="5" fill="#25356A" fill-opacity="0.35"/>
<circle cx="389" cy="667" r="5" fill="#25356A" fill-opacity="0.35"/>
<circle cx="406" cy="667" r="5" fill="#25356A" fill-opacity="0.35"/>
<circle cx="423" cy="667" r="5" fill="#25356A" fill-opacity="0.35"/>
<circle cx="440" cy="667" r="5" fill="#25356A" fill-opacity="0.35"/>
<circle cx="456" cy="667" r="5" fill="#25356A" fill-opacity="0.35"/>
<circle cx="473" cy="667" r="5" fill="#25356A" fill-opacity="0.35"/>
<circle cx="490" cy="667" r="5" fill="#25356A" fill-opacity="0.35"/>
<circle cx="507" cy="667" r="5" fill="#25356A" fill-opacity="0.35"/>
<circle cx="524" cy="667" r="5" fill="#25356A" fill-opacity="0.35"/>
<circle cx="169" cy="684" r="5" fill="#25356A" fill-opacity="0.35"/>
<circle cx="186" cy="684" r="5" fill="#25356A" fill-opacity="0.35"/>
<circle cx="203" cy="684" r="5" fill="#25356A" fill-opacity="0.35"/>
<circle cx="220" cy="684" r="5" fill="#25356A" fill-opacity="0.35"/>
<circle cx="237" cy="684" r="5" fill="#25356A" fill-opacity="0.35"/>
<circle cx="254" cy="684" r="5" fill="#25356A" fill-opacity="0.35"/>
<circle cx="271" cy="684" r="5" fill="#25356A" fill-opacity="0.35"/>
<circle cx="287" cy="684" r="5" fill="#25356A" fill-opacity="0.35"/>
<circle cx="304" cy="684" r="5" fill="#25356A" fill-opacity="0.35"/>
<circle cx="321" cy="684" r="5" fill="#25356A" fill-opacity="0.35"/>
<circle cx="338" cy="684" r="5" fill="#25356A" fill-opacity="0.35"/>
<circle cx="355" cy="684" r="5" fill="#25356A" fill-opacity="0.35"/>
<circle cx="372" cy="684" r="5" fill="#25356A" fill-opacity="0.35"/>
<circle cx="389" cy="684" r="5" fill="#25356A" fill-opacity="0.35"/>
<circle cx="406" cy="684" r="5" fill="#25356A" fill-opacity="0.35"/>
<circle cx="423" cy="684" r="5" fill="#25356A" fill-opacity="0.35"/>
<circle cx="440" cy="684" r="5" fill="#25356A" fill-opacity="0.35"/>
<circle cx="456" cy="684" r="5" fill="#25356A" fill-opacity="0.35"/>
<circle cx="473" cy="684" r="5" fill="#25356A" fill-opacity="0.35"/>
<circle cx="490" cy="684" r="5" fill="#25356A" fill-opacity="0.35"/>
<circle cx="507" cy="684" r="5" fill="#25356A" fill-opacity="0.35"/>
<circle cx="524" cy="684" r="5" fill="#25356A" fill-opacity="0.35"/>
</g>
<g opacity="0.91" filter="url(#filter0_d_0_1)">
<path d="M485.447 536.59C242.628 323.852 155.296 439.802 147.571 451.258C147.149 451.884 147.004 452.538 147.011 453.294L148.918 658.474C150.308 808.019 275.637 937.342 412.543 877.154C482.772 846.279 547.03 796.027 575.005 714.317C614.397 599.26 505.11 553.817 485.447 536.59Z" fill="#6FCF97"/>
</g>
<defs>
<filter id="filter0_d_0_1" x="111.044" y="373.509" width="549.293" height="595.581" filterUnits="userSpaceOnUse" color-interpolation-filters="sRGB">
<feFlood flood-opacity="0" result="BackgroundImageFix"/>
<feColorMatrix in="SourceAlpha" type="matrix" values="0 0 0 0 0 0 0 0 0 0 0 0 0 0 0 0 0 0 127 0" result="hardAlpha"/>
<feOffset dx="20.4354" dy="20.4354"/>
<feGaussianBlur stdDeviation="28.2009"/>
<feColorMatrix type="matrix" values="0 0 0 0 0 0 0 0 0 0 0 0 0 0 0 0 0 0 0.04 0"/>
<feBlend mode="normal" in2="BackgroundImageFix" result="effect1_dropShadow_0_1"/>
<feBlend mode="normal" in="SourceGraphic" in2="effect1_dropShadow_0_1" result="shape"/>
</filter>
</defs>
</svg>
