<svg width="606" height="1004" viewBox="0 0 606 1004" fill="none" xmlns="http://www.w3.org/2000/svg">
<g opacity="0.05">
<path opacity="0.91" d="M462.117 173.6C126.935 -120.121 8.73773 44.9446 0.471988 57.525C0.125796 58.0519 0.00311565 58.5989 0.00897503 59.2293L3.93927 482.113C5.09937 606.932 105.729 709.256 227.552 682.05C366.056 651.118 528.425 579.852 584.401 416.321C638.187 259.188 488.966 197.127 462.117 173.6Z" fill="#6FCF97"/>
</g>
<mask id="mask0_0_1" style="mask-type:alpha" maskUnits="userSpaceOnUse" x="167" y="537" width="362" height="391">
<path opacity="0.69" d="M447.682 642.787C247.486 467.57 174.733 561.485 167.593 571.916C167.166 572.54 167.004 573.221 167.011 573.977L168.164 697.878C169.555 847.426 300.604 982.65 427.673 903.783C469.152 878.039 504.283 841.596 521.955 790.031C554.623 694.708 463.99 657.06 447.682 642.787Z" fill="#25356A" fill-opacity="0.35"/>
</mask>
<g mask="url(#mask0_0_1)">
<circle cx="169" cy="549" r="5" fill="#25356A" fill-opacity="0.35"/>
<circle cx="203" cy="549" r="5" fill="#25356A" fill-opacity="0.35"/>
<circle cx="220" cy="549" r="5" fill="#25356A" fill-opacity="0.35"/>
<circle cx="237" cy="549" r="5" fill="#25356A" fill-opacity="0.35"/>
<circle cx="254" cy="549" r="5" fill="#25356A" fill-opacity="0.35"/>
<circle cx="271" cy="549" r="5" fill="#25356A" fill-opacity="0.35"/>
<circle cx="321" cy="549" r="5" fill="#25356A" fill-opacity="0.35"/>
<circle cx="338" cy="549" r="5" fill="#25356A" fill-opacity="0.35"/>
<circle cx="355" cy="549" r="5" fill="#25356A" fill-opacity="0.35"/>
<circle cx="372" cy="549" r="5" fill="#25356A" fill-opacity="0.35"/>
<circle cx="389" cy="549" r="5" fill="#25356A" fill-opacity="0.35"/>
<circle cx="406" cy="549" r="5" fill="#25356A" fill-opacity="0.35"/>
<circle cx="423" cy="549" r="5" fill="#25356A" fill-opacity="0.35"/>
<circle cx="440" cy="549" r="5" fill="#25356A" fill-opacity="0.35"/>
<circle cx="456" cy="549" r="5" fill="#25356A" fill-opacity="0.35"/>
<circle cx="473" cy="549" r="5" fill="#25356A" fill-opacity="0.35"/>
<circle cx="490" cy="549" r="5" fill="#25356A" fill-opacity="0.35"/>
<circle cx="507" cy="549" r="5" fill="#25356A" fill-opacity="0.35"/>
<circle cx="524" cy="549" r="5" fill="#25356A" fill-opacity="0.35"/>
<circle cx="186" cy="566" r="5" fill="#25356A" fill-opacity="0.35"/>
<circle cx="203" cy="566" r="5" fill="#25356A" fill-opacity="0.35"/>
<circle cx="220" cy="566" r="5" fill="#25356A" fill-opacity="0.35"/>
<circle cx="237" cy="566" r="5" fill="#25356A" fill-opacity="0.35"/>
<circle cx="254" cy="566" r="5" fill="#25356A" fill-opacity="0.35"/>
<circle cx="271" cy="566" r="5" fill="#25356A" fill-opacity="0.35"/>
<circle cx="287" cy="566" r="5" fill="#25356A" fill-opacity="0.35"/>
<circle cx="304" cy="566" r="5" fill="#25356A" fill-opacity="0.35"/>
<circle cx="321" cy="566" r="5" fill="#25356A" fill-opacity="0.35"/>
<circle cx="355" cy="566" r="5" fill="#25356A" fill-opacity="0.35"/>
<circle cx="372" cy="566" r="5" fill="#25356A" fill-opacity="0.35"/>
<circle cx="389" cy="566" r="5" fill="#25356A" fill-opacity="0.35"/>
<circle cx="406" cy="566" r="5" fill="#25356A" fill-opacity="0.35"/>
<circle cx="423" cy="566" r="5" fill="#25356A" fill-opacity="0.35"/>
<circle cx="440" cy="566" r="5" fill="#25356A" fill-opacity="0.35"/>
<circle cx="456" cy="566" r="5" fill="#25356A" fill-opacity="0.35"/>
<circle cx="473" cy="566" r="5" fill="#25356A" fill-opacity="0.35"/>
<circle cx="490" cy="566" r="5" fill="#25356A" fill-opacity="0.35"/>
<circle cx="507" cy="566" r="5" fill="#25356A" fill-opacity="0.35"/>
<circle cx="524" cy="566" r="5" fill="#25356A" fill-opacity="0.35"/>
<circle cx="186" cy="583" r="5" fill="#25356A" fill-opacity="0.35"/>
<circle cx="203" cy="583" r="5" fill="#25356A" fill-opacity="0.35"/>
<circle cx="220" cy="583" r="5" fill="#25356A" fill-opacity="0.35"/>
<circle cx="237" cy="583" r="5" fill="#25356A" fill-opacity="0.35"/>
<circle cx="254" cy="583" r="5" fill="#25356A" fill-opacity="0.35"/>
<circle cx="271" cy="583" r="5" fill="#25356A" fill-opacity="0.35"/>
<circle cx="287" cy="583" r="5" fill="#25356A" fill-opacity="0.35"/>
<circle cx="304" cy="583" r="5" fill="#25356A" fill-opacity="0.35"/>
<circle cx="321" cy="583" r="5" fill="#25356A" fill-opacity="0.35"/>
<circle cx="338" cy="583" r="5" fill="#25356A" fill-opacity="0.35"/>
<circle cx="355" cy="583" r="5" fill="#25356A" fill-opacity="0.35"/>
<circle cx="389" cy="583" r="5" fill="#25356A" fill-opacity="0.35"/>
<circle cx="406" cy="583" r="5" fill="#25356A" fill-opacity="0.35"/>
<circle cx="423" cy="583" r="5" fill="#25356A" fill-opacity="0.35"/>
<circle cx="440" cy="583" r="5" fill="#25356A" fill-opacity="0.35"/>
<circle cx="456" cy="583" r="5" fill="#25356A" fill-opacity="0.35"/>
<circle cx="473" cy="583" r="5" fill="#25356A" fill-opacity="0.35"/>
<circle cx="490" cy="583" r="5" fill="#25356A" fill-opacity="0.35"/>
<circle cx="507" cy="583" r="5" fill="#25356A" fill-opacity="0.35"/>
<circle cx="524" cy="583" r="5" fill="#25356A" fill-opacity="0.35"/>
<circle cx="186" cy="600" r="5" fill="#25356A" fill-opacity="0.35"/>
<circle cx="203" cy="600" r="5" fill="#25356A" fill-opacity="0.35"/>
<circle cx="220" cy="600" r="5" fill="#25356A" fill-opacity="0.35"/>
<circle cx="237" cy="600" r="5" fill="#25356A" fill-opacity="0.35"/>
<circle cx="254" cy="600" r="5" fill="#25356A" fill-opacity="0.35"/>
<circle cx="271" cy="600" r="5" fill="#25356A" fill-opacity="0.35"/>
<circle cx="287" cy="600" r="5" fill="#25356A" fill-opacity="0.35"/>
<circle cx="304" cy="600" r="5" fill="#25356A" fill-opacity="0.35"/>
<circle cx="321" cy="600" r="5" fill="#25356A" fill-opacity="0.35"/>
<circle cx="338" cy="600" r="5" fill="#25356A" fill-opacity="0.35"/>
<circle cx="355" cy="600" r="5" fill="#25356A" fill-opacity="0.35"/>
<circle cx="372" cy="600" r="5" fill="#25356A" fill-opacity="0.35"/>
<circle cx="406" cy="600" r="5" fill="#25356A" fill-opacity="0.35"/>
<circle cx="423" cy="600" r="5" fill="#25356A" fill-opacity="0.35"/>
<circle cx="440" cy="600" r="5" fill="#25356A" fill-opacity="0.35"/>
<circle cx="456" cy="600" r="5" fill="#25356A" fill-opacity="0.35"/>
<circle cx="473" cy="600" r="5" fill="#25356A" fill-opacity="0.35"/>
<circle cx="490" cy="600" r="5" fill="#25356A" fill-opacity="0.35"/>
<circle cx="507" cy="600" r="5" fill="#25356A" fill-opacity="0.35"/>
<circle cx="524" cy="600" r="5" fill="#25356A" fill-opacity="0.35"/>
<circle cx="169" cy="617" r="5" fill="#25356A" fill-opacity="0.35"/>
<circle cx="186" cy="617" r="5" fill="#25356A" fill-opacity="0.35"/>
<circle cx="203" cy="617" r="5" fill="#25356A" fill-opacity="0.35"/>
<circle cx="220" cy="617" r="5" fill="#25356A" fill-opacity="0.35"/>
<circle cx="237" cy="617" r="5" fill="#25356A" fill-opacity="0.35"/>
<circle cx="254" cy="617" r="5" fill="#25356A" fill-opacity="0.35"/>
<circle cx="271" cy="617" r="5" fill="#25356A" fill-opacity="0.35"/>
<circle cx="287" cy="617" r="5" fill="#25356A" fill-opacity="0.35"/>
<circle cx="304" cy="617" r="5" fill="#25356A" fill-opacity="0.35"/>
<circle cx="321" cy="617" r="5" fill="#25356A" fill-opacity="0.35"/>
<circle cx="338" cy="617" r="5" fill="#25356A" fill-opacity="0.35"/>
<circle cx="355" cy="617" r="5" fill="#25356A" fill-opacity="0.35"/>
<circle cx="372" cy="617" r="5" fill="#25356A" fill-opacity="0.35"/>
<circle cx="389" cy="617" r="5" fill="#25356A" fill-opacity="0.35"/>
<circle cx="406" cy="617" r="5" fill="#25356A" fill-opacity="0.35"/>
<circle cx="440" cy="617" r="5" fill="#25356A" fill-opacity="0.35"/>
<circle cx="456" cy="617" r="5" fill="#25356A" fill-opacity="0.35"/>
<circle cx="473" cy="617" r="5" fill="#25356A" fill-opacity="0.35"/>
<circle cx="490" cy="617" r="5" fill="#25356A" fill-opacity="0.35"/>
<circle cx="507" cy="617" r="5" fill="#25356A" fill-opacity="0.35"/>
<circle cx="524" cy="617" r="5" fill="#25356A" fill-opacity="0.35"/>
<circle cx="169" cy="634" r="5" fill="#25356A" fill-opacity="0.35"/>
<circle cx="186" cy="634" r="5" fill="#25356A" fill-opacity="0.35"/>
<circle cx="203" cy="634" r="5" fill="#25356A" fill-opacity="0.35"/>
<circle cx="220" cy="634" r="5" fill="#25356A" fill-opacity="0.35"/>
<circle cx="237" cy="634" r="5" fill="#25356A" fill-opacity="0.35"/>
<circle cx="254" cy="634" r="5" fill="#25356A" fill-opacity="0.35"/>
<circle cx="271" cy="634" r="5" fill="#25356A" fill-opacity="0.35"/>
<circle cx="287" cy="634" r="5" fill="#25356A" fill-opacity="0.35"/>
<circle cx="304" cy="634" r="5" fill="#25356A" fill-opacity="0.35"/>
<circle cx="321" cy="634" r="5" fill="#25356A" fill-opacity="0.35"/>
<circle cx="338" cy="634" r="5" fill="#25356A" fill-opacity="0.35"/>
<circle cx="355" cy="634" r="5" fill="#25356A" fill-opacity="0.35"/>
<circle cx="372" cy="634" r="5" fill="#25356A" fill-opacity="0.35"/>
<circle cx="389" cy="634" r="5" fill="#25356A" fill-opacity="0.35"/>
<circle cx="406" cy="634" r="5" fill="#25356A" fill-opacity="0.35"/>
<circle cx="423" cy="634" r="5" fill="#25356A" fill-opacity="0.35"/>
<circle cx="456" cy="634" r="5" fill="#25356A" fill-opacity="0.35"/>
<circle cx="473" cy="634" r="5" fill="#25356A" fill-opacity="0.35"/>
<circle cx="490" cy="634" r="5" fill="#25356A" fill-opacity="0.35"/>
<circle cx="507" cy="634" r="5" fill="#25356A" fill-opacity="0.35"/>
<circle cx="524" cy="634" r="5" fill="#25356A" fill-opacity="0.35"/>
<circle cx="169" cy="651" r="5" fill="#25356A" fill-opacity="0.35"/>
<circle cx="186" cy="651" r="5" fill="#25356A" fill-opacity="0.35"/>
<circle cx="203" cy="651" r="5" fill="#25356A" fill-opacity="0.35"/>
<circle cx="220" cy="651" r="5" fill="#25356A" fill-opacity="0.35"/>
<circle cx="237" cy="651" r="5" fill="#25356A" fill-opacity="0.35"/>
<circle cx="254" cy="651" r="5" fill="#25356A" fill-opacity="0.35"/>
<circle cx="271" cy="651" r="5" fill="#25356A" fill-opacity="0.35"/>
<circle cx="287" cy="651" r="5" fill="#25356A" fill-opacity="0.35"/>
<circle cx="304" cy="651" r="5" fill="#25356A" fill-opacity="0.35"/>
<circle cx="321" cy="651" r="5" fill="#25356A" fill-opacity="0.35"/>
<circle cx="338" cy="651" r="5" fill="#25356A" fill-opacity="0.35"/>
<circle cx="355" cy="651" r="5" fill="#25356A" fill-opacity="0.35"/>
<circle cx="372" cy="651" r="5" fill="#25356A" fill-opacity="0.35"/>
<circle cx="389" cy="651" r="5" fill="#25356A" fill-opacity="0.35"/>
<circle cx="406" cy="651" r="5" fill="#25356A" fill-opacity="0.35"/>
<circle cx="423" cy="651" r="5" fill="#25356A" fill-opacity="0.35"/>
<circle cx="440" cy="651" r="5" fill="#25356A" fill-opacity="0.35"/>
<circle cx="473" cy="651" r="5" fill="#25356A" fill-opacity="0.35"/>
<circle cx="490" cy="651" r="5" fill="#25356A" fill-opacity="0.35"/>
<circle cx="507" cy="651" r="5" fill="#25356A" fill-opacity="0.35"/>
<circle cx="524" cy="651" r="5" fill="#25356A" fill-opacity="0.35"/>
<circle cx="169" cy="668" r="5" fill="#25356A" fill-opacity="0.35"/>
<circle cx="186" cy="668" r="5" fill="#25356A" fill-opacity="0.35"/>
<circle cx="203" cy="668" r="5" fill="#25356A" fill-opacity="0.35"/>
<circle cx="220" cy="668" r="5" fill="#25356A" fill-opacity="0.35"/>
<circle cx="237" cy="668" r="5" fill="#25356A" fill-opacity="0.35"/>
<circle cx="254" cy="668" r="5" fill="#25356A" fill-opacity="0.35"/>
<circle cx="271" cy="668" r="5" fill="#25356A" fill-opacity="0.35"/>
<circle cx="287" cy="668" r="5" fill="#25356A" fill-opacity="0.35"/>
<circle cx="304" cy="668" r="5" fill="#25356A" fill-opacity="0.35"/>
<circle cx="321" cy="668" r="5" fill="#25356A" fill-opacity="0.35"/>
<circle cx="338" cy="668" r="5" fill="#25356A" fill-opacity="0.35"/>
<circle cx="355" cy="668" r="5" fill="#25356A" fill-opacity="0.35"/>
<circle cx="372" cy="668" r="5" fill="#25356A" fill-opacity="0.35"/>
<circle cx="389" cy="668" r="5" fill="#25356A" fill-opacity="0.35"/>
<circle cx="406" cy="668" r="5" fill="#25356A" fill-opacity="0.35"/>
<circle cx="423" cy="668" r="5" fill="#25356A" fill-opacity="0.35"/>
<circle cx="440" cy="668" r="5" fill="#25356A" fill-opacity="0.35"/>
<circle cx="456" cy="668" r="5" fill="#25356A" fill-opacity="0.35"/>
<circle cx="473" cy="668" r="5" fill="#25356A" fill-opacity="0.35"/>
<circle cx="507" cy="668" r="5" fill="#25356A" fill-opacity="0.35"/>
<circle cx="524" cy="668" r="5" fill="#25356A" fill-opacity="0.35"/>
<circle cx="169" cy="685" r="5" fill="#25356A" fill-opacity="0.35"/>
<circle cx="186" cy="685" r="5" fill="#25356A" fill-opacity="0.35"/>
<circle cx="203" cy="685" r="5" fill="#25356A" fill-opacity="0.35"/>
<circle cx="220" cy="685" r="5" fill="#25356A" fill-opacity="0.35"/>
<circle cx="237" cy="685" r="5" fill="#25356A" fill-opacity="0.35"/>
<circle cx="254" cy="685" r="5" fill="#25356A" fill-opacity="0.35"/>
<circle cx="271" cy="685" r="5" fill="#25356A" fill-opacity="0.35"/>
<circle cx="287" cy="685" r="5" fill="#25356A" fill-opacity="0.35"/>
<circle cx="304" cy="685" r="5" fill="#25356A" fill-opacity="0.35"/>
<circle cx="321" cy="685" r="5" fill="#25356A" fill-opacity="0.35"/>
<circle cx="338" cy="685" r="5" fill="#25356A" fill-opacity="0.35"/>
<circle cx="355" cy="685" r="5" fill="#25356A" fill-opacity="0.35"/>
<circle cx="372" cy="685" r="5" fill="#25356A" fill-opacity="0.35"/>
<circle cx="389" cy="685" r="5" fill="#25356A" fill-opacity="0.35"/>
<circle cx="406" cy="685" r="5" fill="#25356A" fill-opacity="0.35"/>
<circle cx="423" cy="685" r="5" fill="#25356A" fill-opacity="0.35"/>
<circle cx="440" cy="685" r="5" fill="#25356A" fill-opacity="0.35"/>
<circle cx="456" cy="685" r="5" fill="#25356A" fill-opacity="0.35"/>
<circle cx="473" cy="685" r="5" fill="#25356A" fill-opacity="0.35"/>
<circle cx="490" cy="685" r="5" fill="#25356A" fill-opacity="0.35"/>
<circle cx="524" cy="685" r="5" fill="#25356A" fill-opacity="0.35"/>
<circle cx="169" cy="702" r="5" fill="#25356A" fill-opacity="0.35"/>
<circle cx="186" cy="702" r="5" fill="#25356A" fill-opacity="0.35"/>
<circle cx="203" cy="702" r="5" fill="#25356A" fill-opacity="0.35"/>
<circle cx="220" cy="702" r="5" fill="#25356A" fill-opacity="0.35"/>
<circle cx="237" cy="702" r="5" fill="#25356A" fill-opacity="0.35"/>
<circle cx="254" cy="702" r="5" fill="#25356A" fill-opacity="0.35"/>
<circle cx="271" cy="702" r="5" fill="#25356A" fill-opacity="0.35"/>
<circle cx="287" cy="702" r="5" fill="#25356A" fill-opacity="0.35"/>
<circle cx="304" cy="702" r="5" fill="#25356A" fill-opacity="0.35"/>
<circle cx="321" cy="702" r="5" fill="#25356A" fill-opacity="0.35"/>
<circle cx="338" cy="702" r="5" fill="#25356A" fill-opacity="0.35"/>
<circle cx="355" cy="702" r="5" fill="#25356A" fill-opacity="0.35"/>
<circle cx="372" cy="702" r="5" fill="#25356A" fill-opacity="0.35"/>
<circle cx="389" cy="702" r="5" fill="#25356A" fill-opacity="0.35"/>
<circle cx="406" cy="702" r="5" fill="#25356A" fill-opacity="0.35"/>
<circle cx="423" cy="702" r="5" fill="#25356A" fill-opacity="0.35"/>
<circle cx="440" cy="702" r="5" fill="#25356A" fill-opacity="0.35"/>
<circle cx="456" cy="702" r="5" fill="#25356A" fill-opacity="0.35"/>
<circle cx="473" cy="702" r="5" fill="#25356A" fill-opacity="0.35"/>
<circle cx="490" cy="702" r="5" fill="#25356A" fill-opacity="0.35"/>
<circle cx="507" cy="702" r="5" fill="#25356A" fill-opacity="0.35"/>
<circle cx="524" cy="702" r="5" fill="#25356A" fill-opacity="0.35"/>
<circle cx="169" cy="718" r="5" fill="#25356A" fill-opacity="0.35"/>
<circle cx="186" cy="718" r="5" fill="#25356A" fill-opacity="0.35"/>
<circle cx="203" cy="718" r="5" fill="#25356A" fill-opacity="0.35"/>
<circle cx="220" cy="718" r="5" fill="#25356A" fill-opacity="0.35"/>
<circle cx="237" cy="718" r="5" fill="#25356A" fill-opacity="0.35"/>
<circle cx="254" cy="718" r="5" fill="#25356A" fill-opacity="0.35"/>
<circle cx="271" cy="718" r="5" fill="#25356A" fill-opacity="0.35"/>
<circle cx="287" cy="718" r="5" fill="#25356A" fill-opacity="0.35"/>
<circle cx="304" cy="718" r="5" fill="#25356A" fill-opacity="0.35"/>
<circle cx="321" cy="718" r="5" fill="#25356A" fill-opacity="0.35"/>
<circle cx="338" cy="718" r="5" fill="#25356A" fill-opacity="0.35"/>
<circle cx="355" cy="718" r="5" fill="#25356A" fill-opacity="0.35"/>
<circle cx="372" cy="718" r="5" fill="#25356A" fill-opacity="0.35"/>
<circle cx="389" cy="718" r="5" fill="#25356A" fill-opacity="0.35"/>
<circle cx="406" cy="718" r="5" fill="#25356A" fill-opacity="0.35"/>
<circle cx="423" cy="718" r="5" fill="#25356A" fill-opacity="0.35"/>
<circle cx="440" cy="718" r="5" fill="#25356A" fill-opacity="0.35"/>
<circle cx="456" cy="718" r="5" fill="#25356A" fill-opacity="0.35"/>
<circle cx="473" cy="718" r="5" fill="#25356A" fill-opacity="0.35"/>
<circle cx="490" cy="718" r="5" fill="#25356A" fill-opacity="0.35"/>
<circle cx="507" cy="718" r="5" fill="#25356A" fill-opacity="0.35"/>
<circle cx="169" cy="735" r="5" fill="#25356A" fill-opacity="0.35"/>
<circle cx="186" cy="735" r="5" fill="#25356A" fill-opacity="0.35"/>
<circle cx="203" cy="735" r="5" fill="#25356A" fill-opacity="0.35"/>
<circle cx="220" cy="735" r="5" fill="#25356A" fill-opacity="0.35"/>
<circle cx="237" cy="735" r="5" fill="#25356A" fill-opacity="0.35"/>
<circle cx="254" cy="735" r="5" fill="#25356A" fill-opacity="0.35"/>
<circle cx="271" cy="735" r="5" fill="#25356A" fill-opacity="0.35"/>
<circle cx="287" cy="735" r="5" fill="#25356A" fill-opacity="0.35"/>
<circle cx="304" cy="735" r="5" fill="#25356A" fill-opacity="0.35"/>
<circle cx="321" cy="735" r="5" fill="#25356A" fill-opacity="0.35"/>
<circle cx="338" cy="735" r="5" fill="#25356A" fill-opacity="0.35"/>
<circle cx="355" cy="735" r="5" fill="#25356A" fill-opacity="0.35"/>
<circle cx="372" cy="735" r="5" fill="#25356A" fill-opacity="0.35"/>
<circle cx="389" cy="735" r="5" fill="#25356A" fill-opacity="0.35"/>
<circle cx="406" cy="735" r="5" fill="#25356A" fill-opacity="0.35"/>
<circle cx="423" cy="735" r="5" fill="#25356A" fill-opacity="0.35"/>
<circle cx="440" cy="735" r="5" fill="#25356A" fill-opacity="0.35"/>
<circle cx="456" cy="735" r="5" fill="#25356A" fill-opacity="0.35"/>
<circle cx="473" cy="735" r="5" fill="#25356A" fill-opacity="0.35"/>
<circle cx="490" cy="735" r="5" fill="#25356A" fill-opacity="0.35"/>
<circle cx="507" cy="735" r="5" fill="#25356A" fill-opacity="0.35"/>
<circle cx="169" cy="752" r="5" fill="#25356A" fill-opacity="0.35"/>
<circle cx="186" cy="752" r="5" fill="#25356A" fill-opacity="0.35"/>
<circle cx="203" cy="752" r="5" fill="#25356A" fill-opacity="0.35"/>
<circle cx="220" cy="752" r="5" fill="#25356A" fill-opacity="0.35"/>
<circle cx="237" cy="752" r="5" fill="#25356A" fill-opacity="0.35"/>
<circle cx="254" cy="752" r="5" fill="#25356A" fill-opacity="0.35"/>
<circle cx="271" cy="752" r="5" fill="#25356A" fill-opacity="0.35"/>
<circle cx="287" cy="752" r="5" fill="#25356A" fill-opacity="0.35"/>
<circle cx="304" cy="752" r="5" fill="#25356A" fill-opacity="0.35"/>
<circle cx="321" cy="752" r="5" fill="#25356A" fill-opacity="0.35"/>
<circle cx="338" cy="752" r="5" fill="#25356A" fill-opacity="0.35"/>
<circle cx="355" cy="752" r="5" fill="#25356A" fill-opacity="0.35"/>
<circle cx="372" cy="752" r="5" fill="#25356A" fill-opacity="0.35"/>
<circle cx="389" cy="752" r="5" fill="#25356A" fill-opacity="0.35"/>
<circle cx="406" cy="752" r="5" fill="#25356A" fill-opacity="0.35"/>
<circle cx="423" cy="752" r="5" fill="#25356A" fill-opacity="0.35"/>
<circle cx="440" cy="752" r="5" fill="#25356A" fill-opacity="0.35"/>
<circle cx="456" cy="752" r="5" fill="#25356A" fill-opacity="0.35"/>
<circle cx="473" cy="752" r="5" fill="#25356A" fill-opacity="0.35"/>
<circle cx="490" cy="752" r="5" fill="#25356A" fill-opacity="0.35"/>
<circle cx="507" cy="752" r="5" fill="#25356A" fill-opacity="0.35"/>
<circle cx="524" cy="752" r="5" fill="#25356A" fill-opacity="0.35"/>
<circle cx="169" cy="769" r="5" fill="#25356A" fill-opacity="0.35"/>
<circle cx="186" cy="769" r="5" fill="#25356A" fill-opacity="0.35"/>
<circle cx="203" cy="769" r="5" fill="#25356A" fill-opacity="0.35"/>
<circle cx="220" cy="769" r="5" fill="#25356A" fill-opacity="0.35"/>
<circle cx="237" cy="769" r="5" fill="#25356A" fill-opacity="0.35"/>
<circle cx="254" cy="769" r="5" fill="#25356A" fill-opacity="0.35"/>
<circle cx="271" cy="769" r="5" fill="#25356A" fill-opacity="0.35"/>
<circle cx="287" cy="769" r="5" fill="#25356A" fill-opacity="0.35"/>
<circle cx="304" cy="769" r="5" fill="#25356A" fill-opacity="0.35"/>
<circle cx="321" cy="769" r="5" fill="#25356A" fill-opacity="0.35"/>
<circle cx="338" cy="769" r="5" fill="#25356A" fill-opacity="0.35"/>
<circle cx="355" cy="769" r="5" fill="#25356A" fill-opacity="0.35"/>
<circle cx="372" cy="769" r="5" fill="#25356A" fill-opacity="0.35"/>
<circle cx="389" cy="769" r="5" fill="#25356A" fill-opacity="0.35"/>
<circle cx="406" cy="769" r="5" fill="#25356A" fill-opacity="0.35"/>
<circle cx="423" cy="769" r="5" fill="#25356A" fill-opacity="0.35"/>
<circle cx="440" cy="769" r="5" fill="#25356A" fill-opacity="0.35"/>
<circle cx="456" cy="769" r="5" fill="#25356A" fill-opacity="0.35"/>
<circle cx="473" cy="769" r="5" fill="#25356A" fill-opacity="0.35"/>
<circle cx="490" cy="769" r="5" fill="#25356A" fill-opacity="0.35"/>
<circle cx="507" cy="769" r="5" fill="#25356A" fill-opacity="0.35"/>
<circle cx="169" cy="786" r="5" fill="#25356A" fill-opacity="0.35"/>
<circle cx="186" cy="786" r="5" fill="#25356A" fill-opacity="0.35"/>
<circle cx="203" cy="786" r="5" fill="#25356A" fill-opacity="0.35"/>
<circle cx="220" cy="786" r="5" fill="#25356A" fill-opacity="0.35"/>
<circle cx="237" cy="786" r="5" fill="#25356A" fill-opacity="0.35"/>
<circle cx="254" cy="786" r="5" fill="#25356A" fill-opacity="0.35"/>
<circle cx="271" cy="786" r="5" fill="#25356A" fill-opacity="0.35"/>
<circle cx="287" cy="786" r="5" fill="#25356A" fill-opacity="0.35"/>
<circle cx="304" cy="786" r="5" fill="#25356A" fill-opacity="0.35"/>
<circle cx="321" cy="786" r="5" fill="#25356A" fill-opacity="0.35"/>
<circle cx="338" cy="786" r="5" fill="#25356A" fill-opacity="0.35"/>
<circle cx="355" cy="786" r="5" fill="#25356A" fill-opacity="0.35"/>
<circle cx="372" cy="786" r="5" fill="#25356A" fill-opacity="0.35"/>
<circle cx="389" cy="786" r="5" fill="#25356A" fill-opacity="0.35"/>
<circle cx="406" cy="786" r="5" fill="#25356A" fill-opacity="0.35"/>
<circle cx="423" cy="786" r="5" fill="#25356A" fill-opacity="0.35"/>
<circle cx="440" cy="786" r="5" fill="#25356A" fill-opacity="0.35"/>
<circle cx="456" cy="786" r="5" fill="#25356A" fill-opacity="0.35"/>
<circle cx="473" cy="786" r="5" fill="#25356A" fill-opacity="0.35"/>
<circle cx="490" cy="786" r="5" fill="#25356A" fill-opacity="0.35"/>
<circle cx="507" cy="786" r="5" fill="#25356A" fill-opacity="0.35"/>
<circle cx="169" cy="803" r="5" fill="#25356A" fill-opacity="0.35"/>
<circle cx="186" cy="803" r="5" fill="#25356A" fill-opacity="0.35"/>
<circle cx="203" cy="803" r="5" fill="#25356A" fill-opacity="0.35"/>
<circle cx="220" cy="803" r="5" fill="#25356A" fill-opacity="0.35"/>
<circle cx="237" cy="803" r="5" fill="#25356A" fill-opacity="0.35"/>
<circle cx="254" cy="803" r="5" fill="#25356A" fill-opacity="0.35"/>
<circle cx="271" cy="803" r="5" fill="#25356A" fill-opacity="0.35"/>
<circle cx="287" cy="803" r="5" fill="#25356A" fill-opacity="0.35"/>
<circle cx="304" cy="803" r="5" fill="#25356A" fill-opacity="0.35"/>
<circle cx="321" cy="803" r="5" fill="#25356A" fill-opacity="0.35"/>
<circle cx="338" cy="803" r="5" fill="#25356A" fill-opacity="0.35"/>
<circle cx="355" cy="803" r="5" fill="#25356A" fill-opacity="0.35"/>
<circle cx="372" cy="803" r="5" fill="#25356A" fill-opacity="0.35"/>
<circle cx="389" cy="803" r="5" fill="#25356A" fill-opacity="0.35"/>
<circle cx="406" cy="803" r="5" fill="#25356A" fill-opacity="0.35"/>
<circle cx="423" cy="803" r="5" fill="#25356A" fill-opacity="0.35"/>
<circle cx="440" cy="803" r="5" fill="#25356A" fill-opacity="0.35"/>
<circle cx="456" cy="803" r="5" fill="#25356A" fill-opacity="0.35"/>
<circle cx="473" cy="803" r="5" fill="#25356A" fill-opacity="0.35"/>
<circle cx="490" cy="803" r="5" fill="#25356A" fill-opacity="0.35"/>
<circle cx="507" cy="803" r="5" fill="#25356A" fill-opacity="0.35"/>
<circle cx="524" cy="803" r="5" fill="#25356A" fill-opacity="0.35"/>
<circle cx="169" cy="820" r="5" fill="#25356A" fill-opacity="0.35"/>
<circle cx="186" cy="820" r="5" fill="#25356A" fill-opacity="0.35"/>
<circle cx="203" cy="820" r="5" fill="#25356A" fill-opacity="0.35"/>
<circle cx="220" cy="820" r="5" fill="#25356A" fill-opacity="0.35"/>
<circle cx="237" cy="820" r="5" fill="#25356A" fill-opacity="0.35"/>
<circle cx="254" cy="820" r="5" fill="#25356A" fill-opacity="0.35"/>
<circle cx="271" cy="820" r="5" fill="#25356A" fill-opacity="0.35"/>
<circle cx="287" cy="820" r="5" fill="#25356A" fill-opacity="0.35"/>
<circle cx="304" cy="820" r="5" fill="#25356A" fill-opacity="0.35"/>
<circle cx="321" cy="820" r="5" fill="#25356A" fill-opacity="0.35"/>
<circle cx="338" cy="820" r="5" fill="#25356A" fill-opacity="0.35"/>
<circle cx="355" cy="820" r="5" fill="#25356A" fill-opacity="0.35"/>
<circle cx="372" cy="820" r="5" fill="#25356A" fill-opacity="0.35"/>
<circle cx="389" cy="820" r="5" fill="#25356A" fill-opacity="0.35"/>
<circle cx="406" cy="820" r="5" fill="#25356A" fill-opacity="0.35"/>
<circle cx="423" cy="820" r="5" fill="#25356A" fill-opacity="0.35"/>
<circle cx="440" cy="820" r="5" fill="#25356A" fill-opacity="0.35"/>
<circle cx="456" cy="820" r="5" fill="#25356A" fill-opacity="0.35"/>
<circle cx="473" cy="820" r="5" fill="#25356A" fill-opacity="0.35"/>
<circle cx="490" cy="820" r="5" fill="#25356A" fill-opacity="0.35"/>
<circle cx="507" cy="820" r="5" fill="#25356A" fill-opacity="0.35"/>
<circle cx="524" cy="820" r="5" fill="#25356A" fill-opacity="0.35"/>
<circle cx="169" cy="837" r="5" fill="#25356A" fill-opacity="0.35"/>
<circle cx="186" cy="837" r="5" fill="#25356A" fill-opacity="0.35"/>
<circle cx="203" cy="837" r="5" fill="#25356A" fill-opacity="0.35"/>
<circle cx="220" cy="837" r="5" fill="#25356A" fill-opacity="0.35"/>
<circle cx="237" cy="837" r="5" fill="#25356A" fill-opacity="0.35"/>
<circle cx="254" cy="837" r="5" fill="#25356A" fill-opacity="0.35"/>
<circle cx="271" cy="837" r="5" fill="#25356A" fill-opacity="0.35"/>
<circle cx="287" cy="837" r="5" fill="#25356A" fill-opacity="0.35"/>
<circle cx="304" cy="837" r="5" fill="#25356A" fill-opacity="0.35"/>
<circle cx="321" cy="837" r="5" fill="#25356A" fill-opacity="0.35"/>
<circle cx="338" cy="837" r="5" fill="#25356A" fill-opacity="0.35"/>
<circle cx="355" cy="837" r="5" fill="#25356A" fill-opacity="0.35"/>
<circle cx="372" cy="837" r="5" fill="#25356A" fill-opacity="0.35"/>
<circle cx="389" cy="837" r="5" fill="#25356A" fill-opacity="0.35"/>
<circle cx="406" cy="837" r="5" fill="#25356A" fill-opacity="0.35"/>
<circle cx="423" cy="837" r="5" fill="#25356A" fill-opacity="0.35"/>
<circle cx="440" cy="837" r="5" fill="#25356A" fill-opacity="0.35"/>
<circle cx="456" cy="837" r="5" fill="#25356A" fill-opacity="0.35"/>
<circle cx="473" cy="837" r="5" fill="#25356A" fill-opacity="0.35"/>
<circle cx="490" cy="837" r="5" fill="#25356A" fill-opacity="0.35"/>
<circle cx="507" cy="837" r="5" fill="#25356A" fill-opacity="0.35"/>
<circle cx="524" cy="837" r="5" fill="#25356A" fill-opacity="0.35"/>
<circle cx="169" cy="854" r="5" fill="#25356A" fill-opacity="0.35"/>
<circle cx="186" cy="854" r="5" fill="#25356A" fill-opacity="0.35"/>
<circle cx="203" cy="854" r="5" fill="#25356A" fill-opacity="0.35"/>
<circle cx="220" cy="854" r="5" fill="#25356A" fill-opacity="0.35"/>
<circle cx="237" cy="854" r="5" fill="#25356A" fill-opacity="0.35"/>
<circle cx="254" cy="854" r="5" fill="#25356A" fill-opacity="0.35"/>
<circle cx="271" cy="854" r="5" fill="#25356A" fill-opacity="0.35"/>
<circle cx="287" cy="854" r="5" fill="#25356A" fill-opacity="0.35"/>
<circle cx="304" cy="854" r="5" fill="#25356A" fill-opacity="0.35"/>
<circle cx="321" cy="854" r="5" fill="#25356A" fill-opacity="0.35"/>
<circle cx="338" cy="854" r="5" fill="#25356A" fill-opacity="0.35"/>
<circle cx="355" cy="854" r="5" fill="#25356A" fill-opacity="0.35"/>
<circle cx="372" cy="854" r="5" fill="#25356A" fill-opacity="0.35"/>
<circle cx="389" cy="854" r="5" fill="#25356A" fill-opacity="0.35"/>
<circle cx="406" cy="854" r="5" fill="#25356A" fill-opacity="0.35"/>
<circle cx="423" cy="854" r="5" fill="#25356A" fill-opacity="0.35"/>
<circle cx="440" cy="854" r="5" fill="#25356A" fill-opacity="0.35"/>
<circle cx="456" cy="854" r="5" fill="#25356A" fill-opacity="0.35"/>
<circle cx="473" cy="854" r="5" fill="#25356A" fill-opacity="0.35"/>
<circle cx="490" cy="854" r="5" fill="#25356A" fill-opacity="0.35"/>
<circle cx="507" cy="854" r="5" fill="#25356A" fill-opacity="0.35"/>
<circle cx="524" cy="854" r="5" fill="#25356A" fill-opacity="0.35"/>
<circle cx="169" cy="871" r="5" fill="#25356A" fill-opacity="0.35"/>
<circle cx="186" cy="871" r="5" fill="#25356A" fill-opacity="0.35"/>
<circle cx="203" cy="871" r="5" fill="#25356A" fill-opacity="0.35"/>
<circle cx="220" cy="871" r="5" fill="#25356A" fill-opacity="0.35"/>
<circle cx="237" cy="871" r="5" fill="#25356A" fill-opacity="0.35"/>
<circle cx="254" cy="871" r="5" fill="#25356A" fill-opacity="0.35"/>
<circle cx="271" cy="871" r="5" fill="#25356A" fill-opacity="0.35"/>
<circle cx="287" cy="871" r="5" fill="#25356A" fill-opacity="0.35"/>
<circle cx="304" cy="871" r="5" fill="#25356A" fill-opacity="0.35"/>
<circle cx="321" cy="871" r="5" fill="#25356A" fill-opacity="0.35"/>
<circle cx="338" cy="871" r="5" fill="#25356A" fill-opacity="0.35"/>
<circle cx="355" cy="871" r="5" fill="#25356A" fill-opacity="0.35"/>
<circle cx="372" cy="871" r="5" fill="#25356A" fill-opacity="0.35"/>
<circle cx="389" cy="871" r="5" fill="#25356A" fill-opacity="0.35"/>
<circle cx="406" cy="871" r="5" fill="#25356A" fill-opacity="0.35"/>
<circle cx="423" cy="871" r="5" fill="#25356A" fill-opacity="0.35"/>
<circle cx="440" cy="871" r="5" fill="#25356A" fill-opacity="0.35"/>
<circle cx="456" cy="871" r="5" fill="#25356A" fill-opacity="0.35"/>
<circle cx="473" cy="871" r="5" fill="#25356A" fill-opacity="0.35"/>
<circle cx="490" cy="871" r="5" fill="#25356A" fill-opacity="0.35"/>
<circle cx="507" cy="871" r="5" fill="#25356A" fill-opacity="0.35"/>
<circle cx="524" cy="871" r="5" fill="#25356A" fill-opacity="0.35"/>
</g>
<g opacity="0.91" filter="url(#filter0_d_0_1)">
<path d="M485.447 723.59C242.628 510.852 155.296 626.802 147.571 638.258C147.149 638.884 147.004 639.538 147.011 640.294L148.918 845.474C150.308 995.019 275.637 1124.34 412.543 1064.15C482.772 1033.28 547.03 983.027 575.005 901.317C614.397 786.26 505.11 740.817 485.447 723.59Z" fill="#6FCF97"/>
</g>
<defs>
<filter id="filter0_d_0_1" x="111.044" y="560.509" width="549.293" height="595.581" filterUnits="userSpaceOnUse" color-interpolation-filters="sRGB">
<feFlood flood-opacity="0" result="BackgroundImageFix"/>
<feColorMatrix in="SourceAlpha" type="matrix" values="0 0 0 0 0 0 0 0 0 0 0 0 0 0 0 0 0 0 127 0" result="hardAlpha"/>
<feOffset dx="20.4354" dy="20.4354"/>
<feGaussianBlur stdDeviation="28.2009"/>
<feColorMatrix type="matrix" values="0 0 0 0 0 0 0 0 0 0 0 0 0 0 0 0 0 0 0.04 0"/>
<feBlend mode="normal" in2="BackgroundImageFix" result="effect1_dropShadow_0_1"/>
<feBlend mode="normal" in="SourceGraphic" in2="effect1_dropShadow_0_1" result="shape"/>
</filter>
</defs>
</svg>
