<svg width="37" height="36" viewBox="0 0 37 36" fill="none" xmlns="http://www.w3.org/2000/svg">
<ellipse cx="18.4459" cy="18" rx="18.4459" ry="18" fill="black" fill-opacity="0.06"/>
<path d="M18 28.036C15.54 28.036 15.25 28.023 14.29 27.981C13.5414 27.9564 12.8024 27.8042 12.105 27.531C11.5082 27.2987 10.9662 26.9449 10.5134 26.492C10.0607 26.039 9.70703 25.4969 9.475 24.9C9.21231 24.2 9.07062 23.4605 9.056 22.713C9 21.755 9 21.441 9 19C9 16.533 9.013 16.245 9.056 15.29C9.07094 14.5435 9.21262 13.805 9.475 13.106C9.70677 12.5083 10.0606 11.9656 10.514 11.5124C10.9674 11.0592 11.5102 10.7055 12.108 10.474C12.8066 10.2102 13.5453 10.0681 14.292 10.054C15.247 10 15.561 10 18 10C20.48 10 20.765 10.013 21.71 10.054C22.458 10.068 23.2 10.21 23.9 10.474C24.4976 10.7058 25.0403 11.0596 25.4937 11.5127C25.947 11.9659 26.301 12.5085 26.533 13.106C26.8 13.816 26.943 14.566 26.954 15.323C27.01 16.281 27.01 16.594 27.01 19.034C27.01 21.474 26.996 21.794 26.954 22.741C26.9391 23.4892 26.797 24.2294 26.534 24.93C26.3014 25.5273 25.9471 26.0698 25.4936 26.5229C25.0402 26.976 24.4975 27.3298 23.9 27.562C23.2 27.824 22.461 27.966 21.714 27.981C20.759 28.036 20.446 28.036 18 28.036ZM17.966 11.583C15.52 11.583 15.266 11.595 14.311 11.638C13.7406 11.6455 13.1758 11.7506 12.641 11.949C12.2509 12.0985 11.8965 12.3281 11.6006 12.623C11.3047 12.9179 11.0739 13.2715 10.923 13.661C10.723 14.201 10.618 14.772 10.612 15.348C10.559 16.317 10.559 16.571 10.559 19C10.559 21.4 10.568 21.691 10.612 22.654C10.621 23.224 10.726 23.789 10.923 24.324C11.229 25.111 11.853 25.733 12.642 26.035C13.1761 26.2346 13.7408 26.3398 14.311 26.346C15.279 26.402 15.534 26.402 17.966 26.402C20.419 26.402 20.673 26.39 21.62 26.346C22.1904 26.3391 22.7553 26.2339 23.29 26.035C23.678 25.8843 24.0304 25.6546 24.3248 25.3604C24.6192 25.0662 24.8491 24.7139 25 24.326C25.2 23.786 25.305 23.214 25.311 22.638H25.322C25.365 21.682 25.365 21.427 25.365 18.984C25.365 16.541 25.354 16.284 25.311 15.329C25.302 14.7595 25.1968 14.1955 25 13.661C24.8495 13.2725 24.6197 12.9197 24.3253 12.6249C24.0309 12.3302 23.6783 12.1 23.29 11.949C22.7555 11.7497 22.1904 11.6445 21.62 11.638C20.653 11.583 20.4 11.583 17.966 11.583ZM18 23.619C17.0856 23.6196 16.1915 23.349 15.4309 22.8414C14.6703 22.3338 14.0773 21.6121 13.7269 20.7675C13.3765 19.9228 13.2844 18.9932 13.4624 18.0963C13.6404 17.1994 14.0803 16.3753 14.7266 15.7285C15.3729 15.0816 16.1966 14.6409 17.0934 14.4622C17.9902 14.2834 18.9198 14.3747 19.7648 14.7243C20.6097 15.074 21.332 15.6664 21.8402 16.4266C22.3484 17.1867 22.6198 18.0806 22.62 18.995C22.6184 20.2202 22.1313 21.3948 21.2653 22.2615C20.3994 23.1282 19.2252 23.6164 18 23.619ZM18 15.993C17.4067 15.993 16.8266 16.1689 16.3333 16.4986C15.8399 16.8282 15.4554 17.2968 15.2284 17.8449C15.0013 18.3931 14.9419 18.9963 15.0576 19.5783C15.1734 20.1602 15.4591 20.6948 15.8787 21.1143C16.2982 21.5339 16.8328 21.8196 17.4147 21.9354C17.9967 22.0511 18.5999 21.9917 19.1481 21.7646C19.6962 21.5376 20.1648 21.1531 20.4944 20.6597C20.8241 20.1664 21 19.5863 21 18.993C20.9982 18.1979 20.6815 17.4359 20.1193 16.8737C19.5571 16.3115 18.7951 15.9948 18 15.993ZM22.8 15.28C22.6584 15.2795 22.5184 15.2511 22.3878 15.1964C22.2572 15.1418 22.1386 15.0619 22.0389 14.9614C21.8375 14.7585 21.7249 14.4839 21.726 14.198C21.7271 13.9121 21.8417 13.6383 22.0446 13.4369C22.2475 13.2355 22.5221 13.1229 22.808 13.124C23.0939 13.1251 23.3677 13.2397 23.5691 13.4426C23.7705 13.6455 23.8831 13.9201 23.882 14.206C23.8809 14.4919 23.7663 14.7657 23.5634 14.9671C23.3605 15.1685 23.0859 15.2811 22.8 15.28Z" fill="#05A5DB"/>
</svg>
