<svg width="37" height="36" viewBox="0 0 37 36" fill="none" xmlns="http://www.w3.org/2000/svg">
<ellipse cx="18.4459" cy="18" rx="18.4459" ry="18" fill="black" fill-opacity="0.06"/>
<path d="M28.2829 13.1873C27.588 13.4789 26.8931 13.6538 26.0719 13.7704C26.8299 13.304 27.4616 12.6626 27.7775 11.8463C27.0194 12.2544 26.1982 12.546 25.377 12.7209C24.6821 12.0212 23.6714 11.613 22.5975 11.613C20.5128 11.613 18.744 13.1873 18.744 15.1698C18.744 15.4613 18.8072 15.6946 18.8704 15.9861C15.7118 15.8695 12.8691 14.4118 10.974 12.3127C10.6581 12.7209 10.4686 13.304 10.4686 13.9453C10.4686 15.1698 11.1635 16.2776 12.1742 16.8607C11.5425 16.8607 10.974 16.6858 10.4686 16.3942V16.4526C10.4686 18.1435 11.7952 19.6012 13.564 19.8927C13.2481 19.951 12.9323 20.0093 12.5533 20.0093C12.3006 20.0093 12.0479 20.0093 11.8584 19.951C12.3638 21.3504 13.7535 22.3999 15.4591 22.3999C14.1325 23.3328 12.4901 23.9159 10.7213 23.9159C10.4055 23.9159 10.0896 23.9159 9.83691 23.8576C11.353 24.9654 13.3745 25.5485 15.5223 25.5485C22.5343 25.5485 26.3877 20.1842 26.3877 15.5196V15.0532C27.1458 14.5284 27.7775 13.9453 28.2829 13.1873Z" fill="#05A5DB"/>
</svg>
