<svg width="423" height="653" viewBox="0 0 423 653" fill="none" xmlns="http://www.w3.org/2000/svg">
<path fill-rule="evenodd" clip-rule="evenodd" d="M188.372 603.455C164.03 611.17 122.067 614.348 68.5852 614.896C18.9539 615.798 -0.852977 621.921 0.0280525 632.06C5.99947 647.703 88.1636 654.329 228.998 652.221C345.261 650.616 399.33 640.239 414.764 623.655C438.161 595.147 263.032 580.168 188.372 603.455Z" fill="url(#paint0_linear_127_2)"/>
<rect x="77" width="257" height="584" fill="#00AEE8"/>
<path d="M258.844 273.671C261.913 276.818 264.801 280.42 267.323 284.175C267.606 284.591 267.807 285.06 267.913 285.556C268.019 286.052 268.028 286.564 267.941 287.063C267.854 287.563 267.671 288.04 267.404 288.466C267.137 288.893 266.79 289.261 266.384 289.549C265.977 289.838 265.52 290.04 265.037 290.146C264.554 290.252 264.056 290.258 263.571 290.165C263.086 290.072 262.623 289.881 262.21 289.603C261.797 289.325 261.442 288.966 261.164 288.546C255.816 280.511 248.812 273.787 240.651 268.851C232.489 263.915 223.37 260.889 213.942 259.988C204.514 259.088 195.009 260.334 186.102 263.639C177.196 266.945 169.107 272.227 162.412 279.112C159.639 282.013 157.12 285.16 154.883 288.516C154.611 288.949 154.256 289.321 153.841 289.61C153.426 289.9 152.958 290.1 152.466 290.2C151.974 290.3 151.467 290.297 150.976 290.192C150.485 290.086 150.02 289.88 149.608 289.586C149.196 289.292 148.845 288.915 148.578 288.479C148.31 288.043 148.13 287.556 148.049 287.047C147.968 286.538 147.987 286.017 148.106 285.516C148.225 285.015 148.44 284.543 148.739 284.129C151.329 280.281 154.187 276.695 157.128 273.663C170.618 259.792 188.913 252 207.99 252C227.067 252 245.362 259.792 258.852 273.663L258.844 273.671ZM242.119 288.854C245.716 292.603 248.727 296.902 251.046 301.598C251.287 302.049 251.438 302.546 251.489 303.058C251.54 303.57 251.491 304.087 251.344 304.58C251.197 305.072 250.955 305.529 250.633 305.923C250.311 306.317 249.916 306.641 249.47 306.876C249.024 307.11 248.537 307.25 248.038 307.287C247.538 307.325 247.037 307.259 246.563 307.093C246.089 306.927 245.652 306.665 245.278 306.323C244.904 305.981 244.601 305.564 244.386 305.099C242.422 301.12 239.872 297.475 236.828 294.295C232.271 289.608 226.7 286.098 220.569 284.053C214.439 282.008 207.925 281.486 201.56 282.529C195.196 283.573 189.163 286.153 183.955 290.057C178.748 293.962 174.514 299.08 171.601 304.991C171.381 305.445 171.076 305.85 170.703 306.181C170.33 306.513 169.897 306.766 169.428 306.925C168.96 307.084 168.466 307.147 167.974 307.109C167.482 307.071 167.003 306.933 166.563 306.704C166.123 306.475 165.731 306.158 165.411 305.773C165.09 305.388 164.847 304.941 164.695 304.459C164.543 303.976 164.485 303.468 164.525 302.962C164.564 302.457 164.701 301.964 164.926 301.513C168.373 294.517 173.384 288.46 179.547 283.84C185.71 279.219 192.85 276.166 200.382 274.931C207.913 273.696 215.623 274.314 222.877 276.734C230.132 279.154 236.726 283.308 242.119 288.854ZM229.322 308.07C231.978 310.794 234.164 314.149 235.683 317.72C236.067 318.652 236.078 319.702 235.714 320.643C235.35 321.584 234.64 322.339 233.738 322.745C232.836 323.151 231.815 323.175 230.896 322.812C229.976 322.449 229.234 321.728 228.828 320.806C227.68 318.093 226.056 315.62 224.038 313.51C221.931 311.342 219.428 309.622 216.674 308.449C213.92 307.275 210.968 306.671 207.986 306.671C205.005 306.671 202.053 307.275 199.299 308.449C196.544 309.622 194.042 311.342 191.934 313.51C189.937 315.593 188.335 318.041 187.212 320.729C187.019 321.198 186.737 321.622 186.383 321.978C186.029 322.334 185.61 322.615 185.15 322.803C184.69 322.991 184.198 323.084 183.703 323.075C183.208 323.066 182.72 322.957 182.266 322.753C181.812 322.548 181.403 322.254 181.061 321.886C180.719 321.517 180.451 321.083 180.274 320.608C180.096 320.132 180.012 319.626 180.026 319.117C180.041 318.608 180.153 318.107 180.357 317.643C181.854 314.077 183.986 310.83 186.643 308.07C189.446 305.187 192.773 302.901 196.435 301.341C200.097 299.781 204.022 298.978 207.986 298.978C211.95 298.978 215.875 299.781 219.537 301.341C223.199 302.901 226.527 305.187 229.329 308.07H229.322ZM214.924 322.945C215.826 323.873 216.541 324.974 217.03 326.186C217.518 327.398 217.769 328.697 217.769 330.009C217.769 331.321 217.518 332.621 217.03 333.833C216.541 335.045 215.826 336.146 214.924 337.074C214.021 338.002 212.95 338.737 211.772 339.24C210.593 339.742 209.329 340 208.054 340C206.778 340 205.514 339.742 204.336 339.24C203.157 338.737 202.086 338.002 201.184 337.074C199.362 335.2 198.338 332.659 198.338 330.009C198.338 327.36 199.362 324.819 201.184 322.945C203.006 321.071 205.477 320.019 208.054 320.019C210.63 320.019 213.102 321.071 214.924 322.945Z" fill="white"/>
<path d="M366.038 475.201L329.831 412.466L314.47 418.882L325.99 478.231L366.038 475.201Z" fill="#EEEEEE" stroke="#DBDBDB"/>
<path d="M316.848 488.746C316.848 489.103 310.997 493.083 308.254 494.449C308.985 494.877 309.412 497.123 309.534 498.192L314.288 496.945L316.848 492.311C316.97 490.588 317.141 487.463 316.848 488.746Z" fill="#3A325B" stroke="black"/>
<path d="M308.07 494.271C300.024 496.981 286.797 495.4 281.189 494.271C280.396 495.935 280.348 500.189 286.492 503.896C292.636 507.603 304.535 501.638 309.716 498.192C309.472 496.885 308.801 494.271 308.07 494.271Z" fill="#784F4B" stroke="black"/>
<path d="M317.579 516.728L318.493 503.183H309.533L282.469 511.916L317.579 516.728Z" fill="#445370" stroke="black"/>
<path d="M318.859 533.303H261.988L269.851 520.293L291.247 511.025H318.859V533.303Z" fill="#607296" stroke="#5F7396"/>
<path d="M54.6179 594.791C50.2291 590.371 52.7892 583.087 54.6179 579.998L55.5322 573.76L58.8238 564.849L67.9671 561.462H95.0312L93.7512 568.413L66.8699 578.394H61.0182C59.1286 583.681 55.2031 594.363 54.6179 594.791Z" fill="#6B6B6B"/>
<path d="M54.6179 594.791C50.2291 590.371 52.7892 583.087 54.6179 579.998L55.5322 573.76L58.8238 564.849L67.9671 561.462H95.0312L93.7512 568.413L66.8699 578.394H61.0182C59.1286 583.681 55.2031 594.363 54.6179 594.791Z" stroke="black"/>
<path d="M54.6179 594.791C50.2291 590.371 52.7892 583.087 54.6179 579.998L55.5322 573.76L58.8238 564.849L67.9671 561.462H95.0312L93.7512 568.413L66.8699 578.394H61.0182C59.1286 583.681 55.2031 594.363 54.6179 594.791Z" stroke="black" stroke-opacity="0.2"/>
<ellipse rx="21.5806" ry="22.0108" transform="matrix(-1 0 0 1 105.099 592.227)" fill="#C8C7CC"/>
<path d="M88.1963 593.543C88.1963 601.231 95.0116 608.634 104.906 608.634C114.801 608.634 121.616 601.231 121.616 593.543C121.616 585.856 114.801 578.453 104.906 578.453C95.0116 578.453 88.1963 585.856 88.1963 593.543Z" stroke="black" stroke-width="24"/>
<ellipse rx="5.20247" ry="5.07942" transform="matrix(-1 0 0 1 104.906 593.355)" fill="black"/>
<path d="M95.7254 593.543C95.7254 598.23 99.6473 602.212 104.713 602.212C109.779 602.212 113.701 598.23 113.701 593.543C113.701 588.857 109.779 584.875 104.713 584.875C99.6473 584.875 95.7254 588.857 95.7254 593.543Z" stroke="#595555" stroke-width="9"/>
<ellipse rx="20.481" ry="20.8524" transform="matrix(-1 0 0 1 389.628 592.296)" fill="#C8C7CC"/>
<path d="M374.198 593.544C374.198 600.424 380.338 607.208 389.445 607.208C398.553 607.208 404.692 600.424 404.692 593.544C404.692 586.664 398.553 579.879 389.445 579.879C380.338 579.879 374.198 586.664 374.198 593.544Z" stroke="black" stroke-width="24"/>
<ellipse rx="4.93738" ry="4.81208" transform="matrix(-1 0 0 1 389.445 593.366)" fill="black"/>
<path d="M380.962 593.544C380.962 597.84 384.569 601.519 389.263 601.519C393.957 601.519 397.563 597.84 397.563 593.544C397.563 589.247 393.957 585.568 389.263 585.568C384.569 585.568 380.962 589.247 380.962 593.544Z" stroke="white" stroke-width="9"/>
<path d="M323.077 408.901H314.117L311.008 414.783L309.911 420.13L316.677 479.835L318.871 492.133H377.571V489.637L365.685 475.023H347.033H329.843L326.003 451.319L320.334 429.041L321.614 414.783L323.077 408.901Z" fill="#FECF0F"/>
<path d="M323.077 408.901H314.117L311.008 414.783L309.911 420.13L316.677 479.835L318.871 492.133H377.571V489.637L365.685 475.023H347.033H329.843L326.003 451.319L320.334 429.041L321.614 414.783L323.077 408.901Z" stroke="black"/>
<path d="M323.077 408.901H314.117L311.008 414.783L309.911 420.13L316.677 479.835L318.871 492.133H377.571V489.637L365.685 475.023H347.033H329.843L326.003 451.319L320.334 429.041L321.614 414.783L323.077 408.901Z" stroke="black" stroke-opacity="0.2"/>
<path d="M188.11 576.985L187.379 538.311L153.366 536.35V541.875C153.183 544.548 152.927 550.073 153.366 550.786C153.805 551.499 154.402 565.936 154.646 573.065L168.544 582.332L196.339 585.362L213.163 583.58L214.077 577.877L188.11 576.985Z" fill="#AB6D22"/>
<path d="M188.11 576.985L187.379 538.311L153.366 536.35V541.875C153.183 544.548 152.927 550.073 153.366 550.786C153.805 551.499 154.402 565.936 154.646 573.065L168.544 582.332L196.339 585.362L213.163 583.58L214.077 577.877L188.11 576.985Z" stroke="black"/>
<path d="M188.11 576.985L187.379 538.311L153.366 536.35V541.875C153.183 544.548 152.927 550.073 153.366 550.786C153.805 551.499 154.402 565.936 154.646 573.065L168.544 582.332L196.339 585.362L213.163 583.58L214.077 577.877L188.11 576.985Z" stroke="black" stroke-opacity="0.2"/>
<path d="M187.004 440.804L309.582 439.556H312.105L310.825 423.872L305.412 417.278L225.627 412.109L161.799 413.001L119.731 436.348L121.907 528.847L160.892 541.145H168.327L166.695 499.796C166.574 491.36 166.695 471.031 168.145 457.2C169.596 443.37 181.322 440.507 187.004 440.804Z" fill="#232939"/>
<path d="M187.004 440.804L309.582 439.556H312.105L310.825 423.872L305.412 417.278L225.627 412.109L161.799 413.001L119.731 436.348L121.907 528.847L160.892 541.145H168.327L166.695 499.796C166.574 491.36 166.695 471.031 168.145 457.2C169.596 443.37 181.322 440.507 187.004 440.804Z" stroke="black"/>
<path d="M187.004 440.804L309.582 439.556H312.105L310.825 423.872L305.412 417.278L225.627 412.109L161.799 413.001L119.731 436.348L121.907 528.847L160.892 541.145H168.327L166.695 499.796C166.574 491.36 166.695 471.031 168.145 457.2C169.596 443.37 181.322 440.507 187.004 440.804Z" stroke="black" stroke-opacity="0.2"/>
<path d="M246.444 517.102L225.415 518.171L220.295 528.33L231.449 584.471L238.581 585.897L246.627 586.254L252.845 582.154L251.748 554.886L248.273 540.984L245.713 538.311H230.535L231.267 536.35L233.095 534.746L234.924 533.855H248.639V532.786L249.919 525.657L246.444 520.31V517.102Z" fill="#D1A345"/>
<path d="M246.444 517.102L225.415 518.171L220.295 528.33L231.449 584.471L238.581 585.897L246.627 586.254L252.845 582.154L251.748 554.886L248.273 540.984L245.713 538.311H230.535L231.267 536.35L233.095 534.746L234.924 533.855H248.639V532.786L249.919 525.657L246.444 520.31V517.102Z" stroke="black"/>
<path d="M246.444 517.102L225.415 518.171L220.295 528.33L231.449 584.471L238.581 585.897L246.627 586.254L252.845 582.154L251.748 554.886L248.273 540.984L245.713 538.311H230.535L231.267 536.35L233.095 534.746L234.924 533.855H248.639V532.786L249.919 525.657L246.444 520.31V517.102Z" stroke="black" stroke-opacity="0.2"/>
<path d="M332.209 414.622C332.209 416.904 328.795 417.712 327.088 417.831L334.769 468.447L367.685 467.734C368.538 467.971 370.354 469.088 370.793 471.655C371.232 474.221 368.904 476.051 367.685 476.645C358.298 477.18 338.024 478.178 332.026 477.892C324.528 477.536 324.163 464.526 323.797 463.991C323.431 463.456 317.945 419.435 317.397 416.048C316.958 413.339 319.408 410.88 320.688 409.989C321.663 409.335 324.455 408.064 327.82 408.206C332.026 408.385 332.209 411.771 332.209 414.622Z" fill="#707070" stroke="black" stroke-opacity="0.32"/>
<path d="M325.808 413.375H328.368C329.099 413.375 329.282 414.622 328.917 414.979C328.551 415.335 324.711 416.345 324.528 416.939L333.671 470.585C343.485 470.228 363.515 469.516 365.124 469.516C366.148 470.371 365.551 471.535 365.124 472.011C357.017 472.308 339.852 472.902 336.048 472.902C332.684 473.33 330.989 471.535 330.562 470.585C327.758 452.762 322.187 416.868 322.333 415.87C322.48 414.872 324.711 413.79 325.808 413.375Z" fill="white" stroke="black" stroke-opacity="0.48"/>
<path d="M317.03 491.081H379.388C379.826 491.794 379.57 493.16 379.388 493.754L317.03 493.576V491.081Z" fill="#C4C4C4" stroke="black"/>
<path d="M379.205 517.993V493.754H316.848L316.116 598.729H336.049C345.375 596.946 351.775 586.431 354.335 581.084C356.383 576.807 361.528 562.43 363.844 555.776L379.205 517.993Z" fill="#FECF0F" stroke="black" stroke-opacity="0.33"/>
<path d="M153.731 395.552L313.556 408.741L313.922 408.919L312.825 410.523L311.362 413.018L309.899 416.226L309.35 418.543V421.216H308.802C273.996 420.622 197.765 419.434 171.287 419.434C149.16 419.434 145.807 446.227 147.148 462.743V502.309L55.5324 496.606C56.2639 488.526 58.0194 467.769 59.1898 449.376C60.3601 430.983 69.796 419.612 74.3676 416.226C78.3297 412.84 88.5214 404.748 97.5916 399.473C106.662 394.197 138.797 394.661 153.731 395.552Z" fill="#797C8F" stroke="#797A8E"/>
<path d="M379.571 522.805H377.377L364.759 553.281H372.805V548.469H384.874L379.571 522.805Z" fill="black" stroke="black"/>
<path d="M369.33 562.549L364.21 555.063L361.65 561.48L365.307 565.935L369.33 562.549Z" fill="black" stroke="black"/>
<path d="M353.421 594.986L355.981 587.501C357.078 587.56 359.419 587.644 360.004 587.501C358.687 588.356 356.286 597.006 355.249 601.224C355.31 602.947 355.176 606.001 354.152 604.432C353.128 602.864 353.238 597.482 353.421 594.986Z" fill="black" stroke="black"/>
<rect x="-0.5" y="0.5" width="27.1613" height="10.4064" rx="5.20321" transform="matrix(-1 0 0 1 367.05 496.606)" fill="#7A7767" stroke="black"/>
<rect x="-0.5" y="0.5" width="20.5782" height="7.91127" rx="3.95563" transform="matrix(-1 0 0 1 365.233 498.015)" fill="#FF8134" stroke="black"/>
<path d="M362.93 500.153L361.284 499.44H359.456H357.81C359.273 499.499 362.345 499.975 362.93 501.4C363.505 502.802 363.539 503.63 363.482 503.883C363.481 503.887 363.48 503.891 363.479 503.896C363.48 503.892 363.481 503.887 363.482 503.883C363.724 502.868 363.95 500.721 362.93 500.153Z" fill="white"/>
<path d="M55.5321 496.784L54.252 498.209L42 575.738L43.0972 578.767C48.9489 580.609 61.4935 581.583 64.8583 570.747C67.4915 566.898 79.6094 566.648 85.3392 567.004C91.8615 566.945 104.248 567.254 107.466 570.391C111.489 574.312 112.22 580.728 117.706 585.362C124.343 590.967 134.347 587.857 134.164 588.035C134.29 586.815 134.342 585.041 134.198 583.045L229.986 590.887H233.826V583.045H240.958V582.154V542.053H226.877L225.597 517.993L222.123 517.458V499.992C221.818 499.576 220.843 498.744 219.38 498.744C217.917 498.744 217.429 499.576 217.368 499.992C217.978 516.686 218.575 552.782 218.283 564.331C217.99 575.88 212.187 581.025 209.322 582.154C200.971 582.391 182.587 582.724 175.858 582.154C169.128 581.583 164.764 577.639 163.423 575.738C162.509 558.153 160.424 521.094 159.4 513.537C158.376 505.98 152.512 503.022 149.708 502.487C119.169 500.586 57.5801 496.784 55.5321 496.784Z" fill="#FECF0F"/>
<path d="M43.0972 578.767L42 575.738L54.252 498.209L55.5321 496.784C57.5801 496.784 119.169 500.586 149.708 502.487C152.512 503.022 158.376 505.98 159.4 513.537C160.424 521.094 162.509 558.153 163.423 575.738C164.764 577.639 169.128 581.583 175.858 582.154C182.587 582.724 200.971 582.391 209.322 582.154C212.187 581.025 217.99 575.88 218.283 564.331C218.575 552.782 217.978 516.686 217.368 499.992C217.429 499.576 217.917 498.744 219.38 498.744C220.843 498.744 221.818 499.576 222.123 499.992V517.458L225.597 517.993L226.877 542.053H240.958V582.154V583.045H233.826V590.887H229.986L134.198 583.045M43.0972 578.767C48.949 580.609 61.4935 581.583 64.8583 570.747C67.4915 566.898 79.6094 566.648 85.3392 567.004C91.8614 566.945 104.248 567.254 107.466 570.391C111.489 574.312 112.22 580.728 117.706 585.362C124.343 590.967 134.347 587.857 134.164 588.035C134.29 586.815 134.342 585.041 134.198 583.045M43.0972 578.767C43.4629 577.282 45.6207 571.959 51.3261 562.549C57.9092 553.424 68.4545 550.311 72.9043 549.895C77.9026 549.598 90.9714 549.538 103.26 551.677C118.621 554.35 125.387 565.579 130.324 571.46C132.923 574.555 133.922 579.208 134.198 583.045" stroke="#A39595"/>
<path d="M43.0972 578.767L42 575.738L54.252 498.209L55.5321 496.784C57.5801 496.784 119.169 500.586 149.708 502.487C152.512 503.022 158.376 505.98 159.4 513.537C160.424 521.094 162.509 558.153 163.423 575.738C164.764 577.639 169.128 581.583 175.858 582.154C182.587 582.724 200.971 582.391 209.322 582.154C212.187 581.025 217.99 575.88 218.283 564.331C218.575 552.782 217.978 516.686 217.368 499.992C217.429 499.576 217.917 498.744 219.38 498.744C220.843 498.744 221.818 499.576 222.123 499.992V517.458L225.597 517.993L226.877 542.053H240.958V582.154V583.045H233.826V590.887H229.986L134.198 583.045M43.0972 578.767C48.949 580.609 61.4935 581.583 64.8583 570.747C67.4915 566.898 79.6094 566.648 85.3392 567.004C91.8614 566.945 104.248 567.254 107.466 570.391C111.489 574.312 112.22 580.728 117.706 585.362C124.343 590.967 134.347 587.857 134.164 588.035C134.29 586.815 134.342 585.041 134.198 583.045M43.0972 578.767C43.4629 577.282 45.6207 571.959 51.3261 562.549C57.9092 553.424 68.4545 550.311 72.9043 549.895C77.9026 549.598 90.9714 549.538 103.26 551.677C118.621 554.35 125.387 565.579 130.324 571.46C132.923 574.555 133.922 579.208 134.198 583.045" stroke="black" stroke-opacity="0.2"/>
<path d="M140.565 586.609H134.896H118.987H115.33V600.689H140.931L141.845 599.263H145.868L152.268 592.313V587.857H141.845L140.565 586.609Z" fill="#30324B"/>
<path d="M140.565 586.609H134.896H118.987H115.33V600.689H140.931L141.845 599.263H145.868L152.268 592.313V587.857H141.845L140.565 586.609Z" stroke="black"/>
<path d="M140.565 586.609H134.896H118.987H115.33V600.689H140.931L141.845 599.263H145.868L152.268 592.313V587.857H141.845L140.565 586.609Z" stroke="black" stroke-opacity="0.2"/>
<path d="M141.845 599.263V587.857H152.268V592.313L145.685 599.263H141.845Z" fill="#FECF0F"/>
<path d="M141.845 599.263V587.857H152.268V592.313L145.685 599.263H141.845Z" stroke="black"/>
<path d="M141.845 599.263V587.857H152.268V592.313L145.685 599.263H141.845Z" stroke="black" stroke-opacity="0.2"/>
<path d="M203.105 588.748H152.268V590.709H228.889L203.105 588.748Z" fill="black"/>
<path d="M203.105 588.748H152.268V590.709H228.889L203.105 588.748Z" stroke="black"/>
<path d="M203.105 588.748H152.268V590.709H228.889L203.105 588.748Z" stroke="black" stroke-opacity="0.2"/>
<path d="M314.47 588.392V581.263L234.009 583.758V590.353L314.47 588.392Z" fill="#FECF0F"/>
<path d="M314.47 588.392V581.263L234.009 583.758V590.353L314.47 588.392Z" stroke="black" stroke-opacity="0.15"/>
<path d="M314.47 588.392V581.263L234.009 583.758V590.353L314.47 588.392Z" stroke="black" stroke-opacity="0.2"/>
<path d="M246.627 555.063V580.193H251.747L249.187 586.074H313.921H315.75V575.024H285.577V541.162H246.627C245.347 542.944 243.555 547.685 246.627 552.39C249.699 554.529 253.027 555.063 254.307 555.063H246.627Z" fill="#343434"/>
<path d="M281.92 580.193L285.577 575.024M281.92 580.193H251.747M281.92 580.193V555.063H280.274M285.577 575.024H315.75V586.074H313.921H249.187L251.747 580.193M285.577 575.024V541.162H246.627C245.347 542.944 243.555 547.685 246.627 552.39C249.699 554.529 253.027 555.063 254.307 555.063M251.747 580.193H246.627V555.063H254.307M254.307 555.063H275.154M275.154 555.063L280.274 552.39V555.063M275.154 555.063H280.274" stroke="black"/>
<path d="M281.92 580.193L285.577 575.024M281.92 580.193H251.747M281.92 580.193V555.063H280.274M285.577 575.024H315.75V586.074H313.921H249.187L251.747 580.193M285.577 575.024V541.162H246.627C245.347 542.944 243.555 547.685 246.627 552.39C249.699 554.529 253.027 555.063 254.307 555.063M251.747 580.193H246.627V555.063H254.307M254.307 555.063H275.154M275.154 555.063L280.274 552.39V555.063M275.154 555.063H280.274" stroke="black" stroke-opacity="0.2"/>
<path d="M295.635 535.815C294.318 533.819 292.404 533.676 291.612 533.855H234.923C234.192 533.855 232.4 534.461 231.083 536.885C229.767 539.308 232.241 540.39 233.643 540.627H292.892C294.355 539.855 296.951 537.811 295.635 535.815Z" fill="#4A5267"/>
<path d="M295.635 535.815C294.318 533.819 292.404 533.676 291.612 533.855H234.923C234.192 533.855 232.4 534.461 231.083 536.885C229.767 539.308 232.241 540.39 233.643 540.627H292.892C294.355 539.855 296.951 537.811 295.635 535.815Z" stroke="black"/>
<path d="M295.635 535.815C294.318 533.819 292.404 533.676 291.612 533.855H234.923C234.192 533.855 232.4 534.461 231.083 536.885C229.767 539.308 232.241 540.39 233.643 540.627H292.892C294.355 539.855 296.951 537.811 295.635 535.815Z" stroke="black" stroke-opacity="0.2"/>
<path d="M217.734 482.526L217.917 498.744H218.831H220.294L221.392 499.101L221.209 482.526L220.294 481.1V419.969H218.466V481.1L217.734 482.526Z" fill="#5A5B60" stroke="#5A5B60"/>
<path d="M234.924 503.378L221.94 502.666V504.27L235.838 505.161L234.924 503.378Z" fill="#FECF0F"/>
<path d="M234.924 503.378L221.94 502.666V504.27L235.838 505.161L234.924 503.378Z" stroke="black" stroke-opacity="0.38"/>
<path d="M234.924 503.378L221.94 502.666V504.27L235.838 505.161L234.924 503.378Z" stroke="black" stroke-opacity="0.2"/>
<path d="M232.729 484.308C234.192 483.738 235.29 485.259 235.655 486.09C238.094 493.813 243.08 509.83 243.519 512.111C242.933 514.678 239.983 514.369 238.581 513.893C235.96 505.576 230.645 488.692 230.352 487.694C230.06 486.696 230.474 485.734 230.718 485.377C230.779 485.259 231.267 484.878 232.729 484.308Z" fill="#40364B"/>
<path d="M232.729 484.308C234.192 483.738 235.29 485.259 235.655 486.09C238.094 493.813 243.08 509.83 243.519 512.111C242.933 514.678 239.983 514.369 238.581 513.893C235.96 505.576 230.645 488.692 230.352 487.694C230.06 486.696 230.474 485.734 230.718 485.377C230.779 485.259 231.267 484.878 232.729 484.308Z" stroke="black"/>
<path d="M232.729 484.308C234.192 483.738 235.29 485.259 235.655 486.09C238.094 493.813 243.08 509.83 243.519 512.111C242.933 514.678 239.983 514.369 238.581 513.893C235.96 505.576 230.645 488.692 230.352 487.694C230.06 486.696 230.474 485.734 230.718 485.377C230.779 485.259 231.267 484.878 232.729 484.308Z" stroke="black" stroke-opacity="0.2"/>
<path d="M318.859 467.198V464.168L317.579 463.99V467.198C318.164 468.767 318.677 467.852 318.859 467.198Z" fill="#707070"/>
<path d="M318.859 467.198V464.168L317.579 463.99V467.198C318.164 468.767 318.677 467.852 318.859 467.198Z" stroke="black"/>
<path d="M318.859 467.198V464.168L317.579 463.99V467.198C318.164 468.767 318.677 467.852 318.859 467.198Z" stroke="black" stroke-opacity="0.2"/>
<path d="M316.981 467.376C316.981 468.073 317.564 468.659 318.31 468.659C319.056 468.659 319.639 468.073 319.639 467.376C319.639 466.68 319.056 466.094 318.31 466.094C317.564 466.094 316.981 466.68 316.981 467.376Z" fill="#12131C" stroke="#12131C"/>
<path d="M161.059 532.233H190.443C191.477 532.233 193.217 532.837 194.823 535.25C196.43 537.662 194.641 540.276 192.268 541.83L161.059 542.927V532.233Z" fill="black"/>
<path d="M161.059 532.233H190.443C191.477 532.233 193.217 532.837 194.823 535.25C196.43 537.662 194.641 540.276 192.268 541.83L161.059 542.927V532.233Z" stroke="black"/>
<path d="M161.059 532.233H190.443C191.477 532.233 193.217 532.837 194.823 535.25C196.43 537.662 194.641 540.276 192.268 541.83L161.059 542.927V532.233Z" stroke="black" stroke-opacity="0.2"/>
<path d="M379.387 490.903L368.05 476.823H367.501L375.913 489.655L318.493 490.012C316.116 468.862 311.288 425.636 310.996 421.929C310.703 418.222 311.483 415.751 311.91 414.979L315.019 409.454L320.688 409.81L323.796 408.563L314.287 408.028C313.495 409.454 311.617 412.84 310.447 414.979C309.277 417.117 309.228 420.504 309.35 421.929L313.739 461.852L316.847 489.655V493.754H379.387C379.826 492.756 379.57 491.437 379.387 490.903Z" fill="#7A7767" stroke="black" stroke-opacity="0.35"/>
<path d="M310.813 458.287L309.167 446.168C311.178 445.455 313.19 447.237 315.201 448.841C317.168 450.409 320.87 458.287 319.956 463.99C316.299 464.561 312.337 460.426 310.813 458.287Z" fill="#232939"/>
<path d="M310.813 458.287L309.167 446.168C311.178 445.455 313.19 447.237 315.201 448.841C317.168 450.409 320.87 458.287 319.956 463.99C316.299 464.561 312.337 460.426 310.813 458.287Z" stroke="black"/>
<path d="M310.813 458.287L309.167 446.168C311.178 445.455 313.19 447.237 315.201 448.841C317.168 450.409 320.87 458.287 319.956 463.99C316.299 464.561 312.337 460.426 310.813 458.287Z" stroke="black" stroke-opacity="0.2"/>
<path d="M375.182 560.749C362.893 564.742 357.261 580.116 355.981 587.305C357.322 587.424 360.077 587.661 360.37 587.661C372.915 577.384 380.218 576.268 389.467 574.854L389.628 574.829C398.954 573.403 418.521 580.889 420.167 581.245C421.483 581.53 421.812 580.651 421.812 580.176C421.691 578.988 419.838 574.722 413.401 567.165C405.355 557.719 390.542 555.759 375.182 560.749Z" fill="#FECF0F"/>
<path d="M375.182 560.749C362.893 564.742 357.261 580.116 355.981 587.305C357.322 587.424 360.077 587.661 360.37 587.661C372.915 577.384 380.218 576.268 389.467 574.854L389.628 574.829C398.954 573.403 418.521 580.889 420.167 581.245C421.483 581.53 421.812 580.651 421.812 580.176C421.691 578.988 419.838 574.722 413.401 567.165C405.355 557.719 390.542 555.759 375.182 560.749Z" stroke="black" stroke-opacity="0.35"/>
<path d="M375.182 560.749C362.893 564.742 357.261 580.116 355.981 587.305C357.322 587.424 360.077 587.661 360.37 587.661C372.915 577.384 380.218 576.268 389.467 574.854L389.628 574.829C398.954 573.403 418.521 580.889 420.167 581.245C421.483 581.53 421.812 580.651 421.812 580.176C421.691 578.988 419.838 574.722 413.401 567.165C405.355 557.719 390.542 555.759 375.182 560.749Z" stroke="black" stroke-opacity="0.2"/>
<ellipse rx="21.5806" ry="22.0108" transform="matrix(-1 0 0 1 90.4702 592.227)" fill="black"/>
<path d="M73.5674 593.543C73.5674 601.231 80.3827 608.634 90.2774 608.634C100.172 608.634 106.987 601.231 106.987 593.543C106.987 585.856 100.172 578.453 90.2774 578.453C80.3827 578.453 73.5674 585.856 73.5674 593.543Z" stroke="black" stroke-width="24"/>
<path d="M82.5003 593.476C82.5003 597.772 86.1069 601.452 90.801 601.452C95.495 601.452 99.1016 597.772 99.1016 593.476C99.1016 589.179 95.495 585.5 90.801 585.5C86.1069 585.5 82.5003 589.179 82.5003 593.476Z" stroke="white" stroke-width="9"/>
<path d="M45.2914 531.164H49.3145L47.6687 542.926C46.3276 542.926 43.6456 542.534 43.6456 540.966C42.9141 539.398 44.438 533.778 45.2914 531.164Z" fill="#F12C3E"/>
<path d="M45.2914 531.164H49.3145L47.6687 542.926C46.3276 542.926 43.6456 542.534 43.6456 540.966C42.9141 539.398 44.438 533.778 45.2914 531.164Z" stroke="black"/>
<path d="M45.2914 531.164H49.3145L47.6687 542.926C46.3276 542.926 43.6456 542.534 43.6456 540.966C42.9141 539.398 44.438 533.778 45.2914 531.164Z" stroke="black" stroke-opacity="0.2"/>
<path d="M275.337 439.022C275.63 435.03 273.874 432.725 272.96 432.071C273.143 431.002 272.045 428.328 271.68 427.794C267.657 422.625 256.868 424.229 255.405 424.942C245.53 428.15 247.724 435.457 248.09 439.913C248.383 443.477 252.357 447.695 254.308 449.359L252.113 455.24L264.365 462.191V459.34L264.914 453.28C265.401 453.399 266.413 453.636 266.56 453.636C273.874 456.488 275.947 452.805 276.069 450.607V444.903C276.654 444.903 278.141 443.834 278.812 443.299C277.653 442.111 275.337 439.592 275.337 439.022Z" fill="#8E5E5A"/>
<path d="M275.337 439.022C275.63 435.03 273.874 432.725 272.96 432.071C273.143 431.002 272.045 428.328 271.68 427.794C267.657 422.625 256.868 424.229 255.405 424.942C245.53 428.15 247.724 435.457 248.09 439.913C248.383 443.477 252.357 447.695 254.308 449.359L252.113 455.24L264.365 462.191V459.34L264.914 453.28C265.401 453.399 266.413 453.636 266.56 453.636C273.874 456.488 275.947 452.805 276.069 450.607V444.903C276.654 444.903 278.141 443.834 278.812 443.299C277.653 442.111 275.337 439.592 275.337 439.022Z" stroke="#8E5E5A"/>
<path d="M275.337 439.022C275.63 435.03 273.874 432.725 272.96 432.071C273.143 431.002 272.045 428.328 271.68 427.794C267.657 422.625 256.868 424.229 255.405 424.942C245.53 428.15 247.724 435.457 248.09 439.913C248.383 443.477 252.357 447.695 254.308 449.359L252.113 455.24L264.365 462.191V459.34L264.914 453.28C265.401 453.399 266.413 453.636 266.56 453.636C273.874 456.488 275.947 452.805 276.069 450.607V444.903C276.654 444.903 278.141 443.834 278.812 443.299C277.653 442.111 275.337 439.592 275.337 439.022Z" stroke="#8E5E5A"/>
<path d="M266.56 436.705L266.011 432.962L272.96 432.071C272.96 431.477 272.923 430.11 272.777 429.397C271.68 424.585 263.817 423.516 260.708 423.872C248.822 424.229 246.81 429.576 246.993 437.596C247.139 444.012 251.93 448.111 254.308 449.359L260.159 444.547C259.062 444.428 257.197 443.584 258.514 441.16C259.83 438.736 261.622 440.863 262.354 442.23L266.56 436.705Z" fill="black"/>
<path d="M266.56 436.705L266.011 432.962L272.96 432.071C272.96 431.477 272.923 430.11 272.777 429.397C271.68 424.585 263.817 423.516 260.708 423.872C248.822 424.229 246.81 429.576 246.993 437.596C247.139 444.012 251.93 448.111 254.308 449.359L260.159 444.547C259.062 444.428 257.197 443.584 258.514 441.16C259.83 438.736 261.622 440.863 262.354 442.23L266.56 436.705Z" stroke="black"/>
<path d="M266.56 436.705L266.011 432.962L272.96 432.071C272.96 431.477 272.923 430.11 272.777 429.397C271.68 424.585 263.817 423.516 260.708 423.872C248.822 424.229 246.81 429.576 246.993 437.596C247.139 444.012 251.93 448.111 254.308 449.359L260.159 444.547C259.062 444.428 257.197 443.584 258.514 441.16C259.83 438.736 261.622 440.863 262.354 442.23L266.56 436.705Z" stroke="black" stroke-opacity="0.2"/>
<path d="M250.467 458.27L252.296 453.28C256.38 455.597 265.206 460.516 267.839 461.656C270.473 462.797 270.034 466.409 269.485 468.072L250.467 458.27Z" fill="#177486"/>
<path d="M250.467 458.27L252.296 453.28C256.38 455.597 265.206 460.516 267.839 461.656C270.473 462.797 270.034 466.409 269.485 468.072L250.467 458.27Z" stroke="black" stroke-opacity="0.47"/>
<path d="M250.467 458.27L252.296 453.28C256.38 455.597 265.206 460.516 267.839 461.656C270.473 462.797 270.034 466.409 269.485 468.072L250.467 458.27Z" stroke="black" stroke-opacity="0.2"/>
<path d="M273.692 474.844L269.486 468.072C263.268 464.745 250.687 458.091 250.102 458.091C248.639 458.448 240.044 472.349 237.301 476.449C235.107 479.728 235.29 484.35 235.655 486.251L246.445 516.549L244.25 519.044L247.542 526.173L246.445 534.55C251.26 536.273 261.366 538.542 263.268 533.837C265.17 529.132 275.52 520.351 280.458 516.549L284.664 508.707C285.273 507.282 286.492 504.287 286.492 503.717C286.492 500.331 283.201 496.053 280.458 493.736C277.239 492.881 274.606 480.785 273.692 474.844Z" fill="#F1F1F2" stroke="#525252"/>
<path d="M258.513 510.49L271.13 498.015C273.203 498.252 277.165 499.334 276.434 501.757C275.702 504.181 268.692 512.154 265.279 515.837L258.513 510.49Z" fill="#177486"/>
<path d="M258.513 510.49L271.13 498.015C273.203 498.252 277.165 499.334 276.434 501.757C275.702 504.181 268.692 512.154 265.279 515.837L258.513 510.49Z" stroke="black"/>
<path d="M258.513 510.49L271.13 498.015C273.203 498.252 277.165 499.334 276.434 501.757C275.702 504.181 268.692 512.154 265.279 515.837L258.513 510.49Z" stroke="black" stroke-opacity="0.2"/>
<path d="M304.23 502.114C295.892 505.25 281.982 503.777 276.069 502.648L265.828 514.946C265.585 514.946 265.536 515.089 267.291 515.659C269.486 516.372 273.143 516.015 278.812 516.55C283.347 516.978 298.013 510.312 304.779 506.926C304.84 505.203 304.816 501.829 304.23 502.114Z" fill="#8E5E5A"/>
<path d="M304.23 502.114C295.892 505.25 281.982 503.777 276.069 502.648L265.828 514.946C265.585 514.946 265.536 515.089 267.291 515.659C269.486 516.372 273.143 516.015 278.812 516.55C283.347 516.978 298.013 510.312 304.779 506.926C304.84 505.203 304.816 501.829 304.23 502.114Z" stroke="black"/>
<path d="M304.23 502.114C295.892 505.25 281.982 503.777 276.069 502.648L265.828 514.946C265.585 514.946 265.536 515.089 267.291 515.659C269.486 516.372 273.143 516.015 278.812 516.55C283.347 516.978 298.013 510.312 304.779 506.926C304.84 505.203 304.816 501.829 304.23 502.114Z" stroke="black" stroke-opacity="0.2"/>
<path d="M312.641 496.945C310.74 499.226 306.363 501.46 304.413 502.292L304.961 506.569C305.875 506.213 308.253 505.464 310.447 505.321C312.641 505.179 315.75 502.41 317.03 501.044V492.489L316.482 492.133C315.994 492.786 314.543 494.664 312.641 496.945Z" fill="#3A325B" stroke="black"/>
<path d="M269.668 499.618C266.559 493.915 260.744 481.867 262.353 479.301" stroke="black" stroke-opacity="0.22"/>
<path d="M153.468 510.883L53.5201 504.252L52.9715 507.638L153.26 514.085L153.468 510.883Z" fill="#EDB90E"/>
<path d="M153.731 524.2L51.3596 517.513L50.8278 521.009L153.523 527.402L153.731 524.2Z" fill="#EDB90E"/>
<path d="M153.365 540.24L49.1769 533.434L48.766 536.689L153.157 543.441L153.365 540.24Z" fill="#EDB90E"/>
<path d="M62.2979 552.908L46.0228 552.017L45.4742 555.225L58.0919 555.582L62.2979 552.908Z" fill="#EDB90E"/>
<path d="M153 558.419L116.061 556.472L118.073 557.898L119.945 559.499L152.679 561.637L153 558.419Z" fill="#EDB90E"/>
<defs>
<linearGradient id="paint0_linear_127_2" x1="201.027" y1="659.955" x2="201.458" y2="607.69" gradientUnits="userSpaceOnUse">
<stop stop-color="white" stop-opacity="0"/>
<stop offset="1" stop-color="#82A9FF" stop-opacity="0.21"/>
</linearGradient>
</defs>
</svg>
