<svg width="288" height="107" viewBox="0 0 288 107" fill="none" xmlns="http://www.w3.org/2000/svg">
<path d="M260.129 17.8335H27.8714C22.7405 17.8335 18.5811 21.8256 18.5811 26.7502V80.2502C18.5811 85.1747 22.7405 89.1668 27.8714 89.1668H260.129C265.26 89.1668 269.42 85.1747 269.42 80.2502V26.7502C269.42 21.8256 265.26 17.8335 260.129 17.8335Z" fill="black"/>
<path d="M260.129 19.2602C262.199 19.2602 264.184 20.0493 265.648 21.4539C267.111 22.8586 267.933 24.7637 267.933 26.7502V80.2502C267.933 82.2366 267.111 84.1417 265.648 85.5464C264.184 86.951 262.199 87.7402 260.129 87.7402H27.8714C25.8017 87.7402 23.8167 86.951 22.3532 85.5464C20.8897 84.1417 20.0675 82.2366 20.0675 80.2502V26.7502C20.0675 24.7637 20.8897 22.8586 22.3532 21.4539C23.8167 20.0493 25.8017 19.2602 27.8714 19.2602H260.129ZM260.129 17.8335H27.8714C25.4074 17.8335 23.0444 18.7729 21.3021 20.4451C19.5599 22.1173 18.5811 24.3853 18.5811 26.7502V80.2502C18.5811 82.615 19.5599 84.883 21.3021 86.5552C23.0444 88.2274 25.4074 89.1668 27.8714 89.1668H260.129C262.593 89.1668 264.956 88.2274 266.699 86.5552C268.441 84.883 269.42 82.615 269.42 80.2502V26.7502C269.42 24.3853 268.441 22.1173 266.699 20.4451C264.956 18.7729 262.593 17.8335 260.129 17.8335Z" fill="#A6A6A6"/>
<path d="M106.69 36.0945C106.721 36.7486 106.614 37.402 106.375 38.0151C106.135 38.6282 105.768 39.1882 105.296 39.6611C104.769 40.1865 104.133 40.5994 103.429 40.8728C102.724 41.1463 101.968 41.2742 101.208 41.2483C100.056 41.2396 98.9327 40.9049 97.978 40.2859C97.0234 39.667 96.2803 38.7914 95.8418 37.7689C95.4034 36.7463 95.2891 35.6224 95.5133 34.5378C95.7375 33.4532 96.2902 32.4562 97.1021 31.6718C97.6358 31.1489 98.2756 30.7367 98.9819 30.4606C99.6882 30.1845 100.446 30.0505 101.208 30.0668C101.994 30.0643 102.772 30.216 103.494 30.5126C104.166 30.7729 104.765 31.1824 105.24 31.7075L104.256 32.6526C103.885 32.2293 103.416 31.8945 102.888 31.6747C102.359 31.455 101.784 31.3563 101.208 31.3865C100.628 31.3837 100.053 31.4935 99.518 31.7092C98.9829 31.9249 98.4987 32.2421 98.0944 32.6418C97.6901 33.0415 97.3741 33.5154 97.1653 34.0351C96.9565 34.5549 96.8592 35.1097 96.8792 35.6665C96.867 36.4977 97.1116 37.3138 97.5821 38.0118C98.0527 38.7098 98.7281 39.2585 99.5231 39.5885C100.318 39.9185 101.197 40.0151 102.049 39.8662C102.902 39.7173 103.689 39.3294 104.311 38.7516C104.883 38.1569 105.213 37.3847 105.24 36.576H101.208V35.292H106.615C106.665 35.5568 106.69 35.8254 106.69 36.0945ZM115.2 31.6361H110.183V35.0245H114.754V36.3085H110.183V39.6968H115.2V41.0165H108.696V30.3165H115.2V31.6361ZM121.294 41.0165H119.863V31.6361H116.742V30.3165H124.49V31.6361H121.294V41.0165ZM129.953 41.0165V30.3165H131.383V41.0165H129.953ZM137.738 41.0165H136.307V31.6361H133.186V30.3165H140.841V31.6361H137.738V41.0165ZM155.352 39.6255C154.266 40.6622 152.797 41.2441 151.265 41.2441C149.733 41.2441 148.263 40.6622 147.177 39.6255C146.121 38.5528 145.533 37.1331 145.533 35.6575C145.533 34.1819 146.121 32.7623 147.177 31.6896C147.712 31.172 148.349 30.7612 149.051 30.4808C149.752 30.2005 150.505 30.0562 151.265 30.0562C152.025 30.0562 152.777 30.2005 153.479 30.4808C154.18 30.7612 154.817 31.172 155.352 31.6896C156.412 32.7602 157.003 34.1807 157.003 35.6575C157.003 37.1344 156.412 38.5549 155.352 39.6255ZM148.236 38.7338C149.04 39.5026 150.129 39.9343 151.265 39.9343C152.4 39.9343 153.489 39.5026 154.293 38.7338C155.087 37.8939 155.527 36.8005 155.527 35.6665C155.527 34.5325 155.087 33.439 154.293 32.5991C153.489 31.8303 152.4 31.3986 151.265 31.3986C150.129 31.3986 149.04 31.8303 148.236 32.5991C147.442 33.439 147.003 34.5325 147.003 35.6665C147.003 36.8005 147.442 37.8939 148.236 38.7338ZM159.013 41.0165V30.3165H160.759L166.185 38.6446V30.3165H167.616V41.0165H166.129L160.462 32.296V41.0165H159.013Z" fill="white" stroke="white" stroke-width="0.2" stroke-miterlimit="10"/>
<path d="M145.189 56.6209C143.629 56.6279 142.106 57.0784 140.812 57.9155C139.519 58.7526 138.512 59.9387 137.92 61.3242C137.328 62.7098 137.177 64.2325 137.486 65.7004C137.795 67.1683 138.55 68.5154 139.656 69.5718C140.762 70.6282 142.169 71.3465 143.7 71.6361C145.23 71.9256 146.816 71.7735 148.257 71.1988C149.698 70.6241 150.929 69.6527 151.795 68.4071C152.661 67.1615 153.123 65.6975 153.123 64.2C153.138 63.1977 152.943 62.2027 152.549 61.2742C152.156 60.3457 151.571 59.5028 150.831 58.7956C150.091 58.0885 149.21 57.5315 148.24 57.1579C147.271 56.7842 146.234 56.6016 145.189 56.6209ZM145.189 68.801C144.23 68.8654 143.272 68.6513 142.441 68.1865C141.61 67.7216 140.944 67.0276 140.529 66.1946C140.115 65.3616 139.971 64.4281 140.116 63.5155C140.262 62.6029 140.69 61.7534 141.345 61.0775C142 60.4015 142.852 59.9304 143.79 59.7252C144.728 59.5201 145.708 59.5905 146.604 59.9273C147.499 60.2641 148.269 60.8517 148.812 61.6137C149.355 62.3757 149.646 63.2768 149.649 64.2C149.679 64.785 149.586 65.3698 149.377 65.9199C149.168 66.47 148.846 66.9744 148.43 67.4032C148.014 67.832 147.514 68.1766 146.957 68.4167C146.4 68.6568 145.799 68.7875 145.189 68.801ZM127.891 56.6209C126.33 56.6244 124.805 57.0719 123.509 57.9068C122.212 58.7418 121.203 59.9267 120.608 61.3119C120.014 62.6972 119.86 64.2205 120.167 65.6896C120.473 67.1586 121.227 68.5074 122.332 69.5656C123.437 70.6238 124.844 71.3438 126.376 71.6348C127.907 71.9258 129.494 71.7747 130.936 71.2005C132.377 70.6264 133.61 69.6549 134.477 68.4089C135.343 67.1629 135.806 65.6983 135.806 64.2C135.821 63.1977 135.626 62.2027 135.232 61.2742C134.838 60.3457 134.254 59.5028 133.514 58.7956C132.773 58.0885 131.892 57.5315 130.923 57.1579C129.954 56.7842 128.916 56.6016 127.872 56.6209H127.891ZM127.891 68.801C126.931 68.8691 125.972 68.6581 125.138 68.1957C124.305 67.7332 123.636 67.0407 123.218 66.2082C122.801 65.3758 122.654 64.4419 122.797 63.5283C122.94 62.6147 123.367 61.7636 124.021 61.0858C124.675 60.408 125.527 59.9349 126.465 59.7282C127.403 59.5215 128.385 59.5906 129.281 59.9266C130.178 60.2626 130.948 60.85 131.493 61.6122C132.037 62.3744 132.329 63.2761 132.332 64.2C132.361 64.785 132.269 65.3698 132.06 65.9199C131.85 66.47 131.529 66.9744 131.113 67.4032C130.697 67.832 130.196 68.1766 129.64 68.4167C129.083 68.6568 128.482 68.7875 127.872 68.801H127.891ZM107.285 58.957V62.167H115.312C115.186 63.6789 114.531 65.1056 113.454 66.2152C112.651 67.0003 111.685 67.6153 110.62 68.0207C109.554 68.4262 108.412 68.613 107.266 68.5692C104.901 68.5692 102.632 67.6673 100.96 66.062C99.2872 64.4567 98.3475 62.2795 98.3475 60.0092C98.3475 57.7389 99.2872 55.5617 100.96 53.9564C102.632 52.3511 104.901 51.4492 107.266 51.4492C109.529 51.4138 111.714 52.2411 113.342 53.7497L115.702 51.4849C114.603 50.4167 113.291 49.5711 111.846 48.9983C110.4 48.4255 108.849 48.137 107.285 48.15C105.633 48.0883 103.985 48.3473 102.44 48.9115C100.895 49.4756 99.4846 50.3333 98.2932 51.4332C97.1018 52.533 96.154 53.8524 95.5065 55.3122C94.8591 56.7721 94.5254 58.3424 94.5254 59.9289C94.5254 61.5155 94.8591 63.0858 95.5065 64.5456C96.154 66.0055 97.1018 67.3249 98.2932 68.4247C99.4846 69.5246 100.895 70.3823 102.44 70.9464C103.985 71.5106 105.633 71.7696 107.285 71.7079C108.875 71.7768 110.463 71.5181 111.94 70.949C113.418 70.3799 114.751 69.5137 115.85 68.4087C117.797 66.3559 118.836 63.6575 118.749 60.883C118.755 60.2071 118.693 59.5322 118.563 58.8679L107.285 58.957ZM191.474 61.4537C190.989 60.0854 190.083 58.8907 188.875 58.0276C187.667 57.1646 186.215 56.674 184.71 56.6209C183.694 56.619 182.688 56.8171 181.755 57.2032C180.821 57.5892 179.98 58.1549 179.284 58.8652C178.587 59.5756 178.05 60.4155 177.705 61.3331C177.36 62.2507 177.215 63.2264 177.278 64.2C177.256 65.1968 177.442 66.1876 177.828 67.1134C178.213 68.0393 178.789 68.8811 179.521 69.5885C180.253 70.296 181.126 70.8546 182.088 71.231C183.049 71.6074 184.081 71.7938 185.119 71.7792C186.419 71.7859 187.7 71.4832 188.848 70.8981C189.996 70.313 190.975 69.4638 191.697 68.4265L189.003 66.6432C188.6 67.2866 188.031 67.8188 187.35 68.1876C186.67 68.5565 185.901 68.7494 185.119 68.7475C184.314 68.777 183.519 68.5733 182.836 68.163C182.154 67.7527 181.615 67.1548 181.292 66.447L191.864 62.2562L191.474 61.4537ZM180.697 63.986C180.659 63.4344 180.737 62.8812 180.925 62.3586C181.112 61.8361 181.407 61.3548 181.791 60.9429C182.175 60.5311 182.641 60.1969 183.162 59.96C183.682 59.7231 184.246 59.5883 184.822 59.5634C185.421 59.5255 186.019 59.6574 186.541 59.9427C187.063 60.228 187.486 60.6542 187.758 61.1684L180.697 63.986ZM172.113 71.3334H175.587V49.0417H172.113V71.3334ZM166.427 58.315H166.297C165.773 57.7531 165.132 57.3037 164.415 56.9964C163.697 56.6891 162.92 56.5307 162.135 56.5317C160.104 56.6262 158.19 57.4669 156.787 58.8796C155.385 60.2923 154.603 62.1686 154.603 64.1198C154.603 66.0709 155.385 67.9473 156.787 69.36C158.19 70.7726 160.104 71.6134 162.135 71.7079C162.922 71.7206 163.703 71.5675 164.422 71.2594C165.141 70.9513 165.781 70.4956 166.297 69.9245H166.408V71.0124C166.408 73.9192 164.792 75.4707 162.191 75.4707C161.324 75.4512 160.483 75.1848 159.775 74.7052C159.067 74.2257 158.524 73.5548 158.214 72.7779L155.186 73.9905C155.756 75.3215 156.727 76.4587 157.975 77.2563C159.223 78.0538 160.691 78.4753 162.191 78.4667C166.26 78.4667 169.623 76.1662 169.623 70.5665V57.0667H166.427V58.315ZM162.451 68.801C161.252 68.6996 160.137 68.171 159.324 67.3194C158.512 66.4677 158.061 65.3548 158.061 64.2C158.061 63.0452 158.512 61.9323 159.324 61.0807C160.137 60.229 161.252 59.7004 162.451 59.599C163.045 59.6283 163.627 59.7714 164.163 60.02C164.699 60.2685 165.177 60.6174 165.57 61.0462C165.963 61.475 166.263 61.9749 166.452 62.5165C166.64 63.0582 166.714 63.6306 166.669 64.2C166.719 64.7719 166.649 65.3478 166.461 65.8927C166.273 66.4376 165.972 66.9403 165.576 67.3704C165.18 67.8005 164.697 68.149 164.157 68.3949C163.616 68.6408 163.03 68.779 162.432 68.801H162.451ZM207.75 49.0417H199.445V71.3334H202.919V62.8804H207.769C208.759 62.9486 209.754 62.8204 210.69 62.5036C211.626 62.1868 212.484 61.6883 213.211 61.0391C213.938 60.3899 214.518 59.6039 214.914 58.7303C215.31 57.8566 215.515 56.9139 215.515 55.961C215.515 55.0081 215.31 54.0655 214.914 53.1918C214.518 52.3181 213.938 51.5322 213.211 50.883C212.484 50.2338 211.626 49.7353 210.69 49.4185C209.754 49.1017 208.759 48.9734 207.769 49.0417H207.75ZM207.75 59.7417H202.901V52.1447H207.825C208.882 52.1447 209.895 52.5477 210.643 53.2651C211.39 53.9825 211.81 54.9554 211.81 55.9699C211.81 56.9845 211.39 57.9574 210.643 58.6748C209.895 59.3922 208.882 59.7952 207.825 59.7952L207.75 59.7417ZM229.174 56.5317C227.909 56.4591 226.649 56.7428 225.55 57.348C224.451 57.9531 223.56 58.8533 222.987 59.9379L226.071 61.1684C226.375 60.6304 226.835 60.1889 227.396 59.8976C227.957 59.6064 228.594 59.4778 229.23 59.5277C229.671 59.4783 230.118 59.5136 230.544 59.6317C230.971 59.7498 231.369 59.9483 231.715 60.2155C232.061 60.4828 232.348 60.8135 232.559 61.1884C232.77 61.5632 232.902 61.9747 232.946 62.3989V62.6307C231.83 62.0636 230.585 61.7696 229.322 61.7747C225.997 61.7747 222.633 63.558 222.633 66.7859C222.666 67.4741 222.843 68.1491 223.152 68.7708C223.461 69.3925 223.897 69.9485 224.434 70.4057C224.971 70.8629 225.598 71.2121 226.278 71.4327C226.958 71.6533 227.678 71.7408 228.393 71.69C229.268 71.7503 230.144 71.5835 230.929 71.2069C231.714 70.8304 232.378 70.2581 232.853 69.55H232.964V71.3334H236.309V62.7555C236.309 58.85 233.224 56.5852 229.267 56.5852L229.174 56.5317ZM228.747 68.7475C227.613 68.7475 226.034 68.1947 226.034 66.8572C226.034 65.0739 228.003 64.4854 229.75 64.4854C230.854 64.4592 231.944 64.7179 232.909 65.2344C232.792 66.1999 232.317 67.0925 231.569 67.7479C230.821 68.4033 229.852 68.7773 228.839 68.801L228.747 68.7475ZM248.498 57.0667L244.521 66.7324H244.41L240.285 57.0667H236.569L242.756 70.5844L239.226 78.0922H242.849L252.363 57.0667H248.498ZM217.264 71.3334H220.738V49.0417H217.264V71.3334Z" fill="white"/>
<path d="M37.9786 31.2796C37.3729 31.9771 37.0673 32.87 37.1238 33.7763V73.2236C37.0673 74.1299 37.3729 75.0228 37.9786 75.7203L38.1086 75.8451L61.13 53.7675V53.2503L38.1086 31.1548L37.9786 31.2796Z" fill="url(#paint0_linear_2_1232)"/>
<path d="M68.7479 61.1325L61.1299 53.7674V53.2502L68.7479 45.8672L68.9152 45.9564L78.0383 50.9319C80.6396 52.3407 80.6396 54.659 78.0383 56.0857L68.9523 61.0434L68.7479 61.1325Z" fill="url(#paint1_linear_2_1232)"/>
<path d="M68.971 61.0257L61.13 53.5L37.9785 75.7203C38.5087 76.1677 39.1851 76.4232 39.8908 76.4427C40.5965 76.4623 41.2871 76.2446 41.8433 75.8273L68.9896 61.0257" fill="url(#paint2_linear_2_1232)"/>
<path d="M68.9711 45.9744L41.8247 31.1728C41.2685 30.7555 40.5779 30.5378 39.8722 30.5574C39.1666 30.5769 38.4902 30.8324 37.96 31.2798L61.13 53.5001L68.9711 45.9744Z" fill="url(#paint3_linear_2_1232)"/>
<path opacity="0.2" d="M68.7481 60.8652L41.8247 75.5777C41.2883 75.9627 40.6364 76.1707 39.9666 76.1707C39.2968 76.1707 38.645 75.9627 38.1086 75.5777L37.9785 75.7026L38.1086 75.8274C38.6438 76.2151 39.2961 76.4248 39.9666 76.4248C40.6372 76.4248 41.2895 76.2151 41.8247 75.8274L68.971 61.0257L68.7481 60.8652Z" fill="black"/>
<path opacity="0.12" d="M37.9786 75.4707C37.3729 74.7732 37.0673 73.8803 37.1238 72.974V73.2415C37.0673 74.1478 37.3729 75.0407 37.9786 75.7382L38.1086 75.6133L37.9786 75.4707ZM78.0384 55.8183L68.7481 60.8652L68.9153 61.0257L78.0384 56.068C78.5561 55.8346 79.0004 55.4743 79.3267 55.0234C79.6529 54.5726 79.8494 54.0471 79.8965 53.5C79.792 53.997 79.5702 54.4644 79.2481 54.8663C78.926 55.2682 78.5122 55.5939 78.0384 55.8183Z" fill="black"/>
<path opacity="0.25" d="M41.825 31.4223L78.0387 51.1817C78.5124 51.4061 78.9263 51.7318 79.2484 52.1337C79.5705 52.5356 79.7923 53.003 79.8968 53.5C79.8497 52.9529 79.6532 52.4275 79.327 51.9766C79.0007 51.5257 78.5564 51.1654 78.0387 50.932L41.825 31.1727C39.2237 29.7638 37.1055 30.9408 37.1055 33.7942V34.0617C37.1613 31.1905 39.2423 30.0135 41.825 31.4223Z" fill="white"/>
<defs>
<linearGradient id="paint0_linear_2_1232" x1="59.0862" y1="33.3661" x2="29.187" y2="64.5182" gradientUnits="userSpaceOnUse">
<stop stop-color="#00A0FF"/>
<stop offset="0.01" stop-color="#00A1FF"/>
<stop offset="0.26" stop-color="#00BEFF"/>
<stop offset="0.51" stop-color="#00D2FF"/>
<stop offset="0.76" stop-color="#00DFFF"/>
<stop offset="1" stop-color="#00E3FF"/>
</linearGradient>
<linearGradient id="paint1_linear_2_1232" x1="81.4385" y1="53.4999" x2="36.492" y2="53.4999" gradientUnits="userSpaceOnUse">
<stop stop-color="#FFE000"/>
<stop offset="0.41" stop-color="#FFBD00"/>
<stop offset="0.78" stop-color="#FFA500"/>
<stop offset="1" stop-color="#FF9C00"/>
</linearGradient>
<linearGradient id="paint2_linear_2_1232" x1="64.7161" y1="57.6017" x2="24.1609" y2="99.8378" gradientUnits="userSpaceOnUse">
<stop stop-color="#FF3A44"/>
<stop offset="1" stop-color="#C31162"/>
</linearGradient>
<linearGradient id="paint3_linear_2_1232" x1="32.1442" y1="18.1544" x2="50.2476" y2="37.0165" gradientUnits="userSpaceOnUse">
<stop stop-color="#32A071"/>
<stop offset="0.07" stop-color="#2DA771"/>
<stop offset="0.48" stop-color="#15CF74"/>
<stop offset="0.8" stop-color="#06E775"/>
<stop offset="1" stop-color="#00F076"/>
</linearGradient>
</defs>
</svg>
