<svg width="174" height="97" viewBox="0 0 174 97" fill="none" xmlns="http://www.w3.org/2000/svg">
<path d="M128.922 38.5746C101.488 33.3504 74.6038 27.3842 52.2896 15.0083C17.6047 -4.22845 -17.3305 56.8442 16.2162 47.8994C109.354 23.0653 110.484 96.4011 144.812 84.304C179.135 72.2085 188.247 49.8718 128.922 38.5746Z" fill="white"/>
<path d="M117.985 10.1418L99.5893 19.4821L84.8656 22.5842L70.0007 19.4821L51.6755 10.1077L57.9958 38.2992L51.9933 54.1164L73.0372 66.7292L84.7244 79.0012V79.1035L84.795 79.0353L84.8656 79.1035V79.0012L96.5527 66.7292L117.667 54.1164L111.665 38.3333L117.985 10.1418Z" fill="url(#paint0_linear_66_312)"/>
<ellipse cx="137.878" cy="25.7087" rx="4.34442" ry="4.1749" fill="url(#paint1_linear_66_312)"/>
<ellipse cx="117.985" cy="44.8252" rx="15.5484" ry="14.9418" fill="url(#paint2_linear_66_312)"/>
<ellipse cx="43.2153" cy="37.1347" rx="8.00287" ry="7.69061" fill="url(#paint3_linear_66_312)"/>
<defs>
<linearGradient id="paint0_linear_66_312" x1="124.669" y1="106.646" x2="47.7817" y2="2.9325" gradientUnits="userSpaceOnUse">
<stop stop-color="#315EFB"/>
<stop offset="1" stop-color="#315EFB" stop-opacity="0"/>
</linearGradient>
<linearGradient id="paint1_linear_66_312" x1="143.098" y1="33.2167" x2="134.032" y2="19.9749" gradientUnits="userSpaceOnUse">
<stop stop-color="#315EFB"/>
<stop offset="1" stop-color="#315EFB" stop-opacity="0"/>
</linearGradient>
<linearGradient id="paint2_linear_66_312" x1="136.668" y1="71.6962" x2="104.22" y2="24.3044" gradientUnits="userSpaceOnUse">
<stop stop-color="#28BC00"/>
<stop offset="1" stop-color="#28BC00" stop-opacity="0"/>
</linearGradient>
<linearGradient id="paint3_linear_66_312" x1="51.8814" y1="42.0114" x2="30.6588" y2="40.644" gradientUnits="userSpaceOnUse">
<stop stop-color="#DADAFF"/>
<stop offset="1" stop-color="#EEEEFF" stop-opacity="0"/>
</linearGradient>
</defs>
</svg>
