<svg width="249" height="38" viewBox="0 0 249 38" fill="none" xmlns="http://www.w3.org/2000/svg">
<path d="M0.815114 21.1491C0.558604 21.2513 0.433558 21.5422 0.535817 21.7987C0.638077 22.0552 0.928917 22.1802 1.18543 22.078L0.815114 21.1491ZM248.533 36.8344L245.515 31.9125L242.761 36.9871L248.533 36.8344ZM1.18543 22.078C2.08479 21.7194 2.98629 21.3653 3.88989 21.0156L3.52893 20.083C2.6222 20.4339 1.71759 20.7893 0.815114 21.1491L1.18543 22.078ZM9.33085 18.9723C11.1498 18.31 12.9768 17.6655 14.8118 17.039L14.4886 16.0926C12.6473 16.7214 10.8139 17.3681 8.98872 18.0326L9.33085 18.9723ZM20.3306 15.2164C22.1745 14.6279 24.026 14.0576 25.8849 13.5054L25.6001 12.5468C23.7348 13.1009 21.8768 13.6732 20.0266 14.2637L20.3306 15.2164ZM31.4728 11.9066C33.3385 11.3931 35.2115 10.8978 37.0913 10.4209L36.8455 9.45161C34.9591 9.93012 33.0797 10.4271 31.2074 10.9424L31.4728 11.9066ZM42.7393 9.0487C44.624 8.61089 46.5153 8.19153 48.4131 7.79083L48.2065 6.8124C46.3021 7.2145 44.4043 7.63531 42.513 8.07464L42.7393 9.0487ZM54.1121 6.64739C56.0125 6.28598 57.9191 5.94321 59.8316 5.61928L59.6646 4.63332C57.7455 4.95838 55.8323 5.30233 53.9252 5.665L54.1121 6.64739ZM65.5723 4.7063C67.4854 4.42177 69.4042 4.15604 71.3284 3.90929L71.2012 2.91741C69.2704 3.16501 67.345 3.43166 65.4252 3.71718L65.5723 4.7063ZM77.101 3.22793C79.0238 3.02053 80.9518 2.83206 82.8848 2.6627L82.7975 1.66651C80.8579 1.83646 78.9232 2.02558 76.9937 2.2337L77.101 3.22793ZM88.6797 2.2134C90.6092 2.0832 92.5434 1.97204 94.4822 1.88008L94.4348 0.881205C92.4894 0.973478 90.5485 1.08502 88.6123 1.21567L88.6797 2.2134ZM100.29 1.66261C102.223 1.60949 104.16 1.57547 106.102 1.56072L106.094 0.560749C104.146 0.575548 102.202 0.609684 100.262 0.662985L100.29 1.66261ZM111.913 1.57415C113.846 1.59776 115.784 1.64049 117.725 1.70252L117.756 0.703033C115.809 0.640791 113.865 0.597912 111.925 0.574226L111.913 1.57415ZM123.531 1.94529C124.498 1.99523 125.465 2.04996 126.434 2.10951L126.495 1.1114C125.523 1.05165 124.553 0.996727 123.583 0.946619L123.531 1.94529ZM126.434 2.10951C127.402 2.16906 128.369 2.2333 129.335 2.30218L129.406 1.30472C128.437 1.2356 127.467 1.17115 126.495 1.1114L126.434 2.10951ZM135.127 2.77263C137.061 2.94886 138.989 3.1438 140.911 3.35726L141.021 2.36337C139.093 2.14918 137.158 1.95358 135.218 1.77676L135.127 2.77263ZM146.68 4.05587C148.605 4.30838 150.524 4.57952 152.436 4.86909L152.585 3.88036C150.667 3.5898 148.741 3.31774 146.81 3.06437L146.68 4.05587ZM158.173 5.79646C160.086 6.12526 161.992 6.47256 163.891 6.83818L164.08 5.85621C162.174 5.48934 160.262 5.14084 158.342 4.81091L158.173 5.79646ZM169.587 7.99406C171.485 8.39897 173.375 8.82224 175.258 9.26366L175.486 8.29006C173.597 7.84711 171.7 7.42238 169.796 7.01607L169.587 7.99406ZM180.904 10.6471C182.783 11.1278 184.655 11.6266 186.519 12.1434L186.786 11.1797C184.915 10.6611 183.037 10.1606 181.151 9.6783L180.904 10.6471ZM192.104 13.7528C193.963 14.3086 195.813 14.8824 197.655 15.4739L197.96 14.5218C196.112 13.9282 194.256 13.3525 192.391 12.7947L192.104 13.7528ZM203.171 17.307C205.005 17.9372 206.831 18.5851 208.648 19.2505L208.991 18.3115C207.168 17.6438 205.336 16.9936 203.496 16.3612L203.171 17.307ZM214.085 21.3043C215.892 22.0079 217.69 22.7289 219.479 23.4672L219.861 22.5428C218.066 21.802 216.261 21.0785 214.448 20.3725L214.085 21.3043ZM224.829 25.7386C226.606 26.5143 228.374 27.3073 230.132 28.1172L230.55 27.2089C228.786 26.3962 227.013 25.6005 225.229 24.8221L224.829 25.7386ZM235.386 30.6022C237.13 31.4489 238.864 32.3124 240.589 33.1925L241.043 32.3018C239.313 31.4187 237.573 30.5522 235.822 29.7026L235.386 30.6022ZM0.629958 20.6846C0.116936 20.8891 -0.133154 21.4708 0.0713639 21.9838C0.275882 22.4969 0.857563 22.747 1.37058 22.5424L0.629958 20.6846ZM248.533 36.8344L242.497 26.9906L236.99 37.1398L248.533 36.8344ZM1.37058 22.5424C2.26839 22.1845 3.16833 21.831 4.07036 21.4818L3.34845 19.6167C2.44016 19.9682 1.53399 20.3242 0.629958 20.6846L1.37058 22.5424ZM9.50191 19.4421C11.3177 18.781 13.1416 18.1376 14.9733 17.5121L14.3271 15.6194C12.4826 16.2493 10.646 16.8971 8.81766 17.5628L9.50191 19.4421ZM20.4826 15.6927C22.3233 15.1053 24.1716 14.5359 26.0272 13.9847L25.4577 12.0675C23.5892 12.6225 21.728 13.1959 19.8746 13.7874L20.4826 15.6927ZM31.6054 12.3887C33.468 11.876 35.3377 11.3816 37.2143 10.9056L36.7225 8.96696C34.8329 9.44629 32.9502 9.94416 31.0747 10.4604L31.6054 12.3887ZM42.8525 9.53573C44.7339 9.09868 46.6219 8.68005 48.5164 8.28004L48.1032 6.32319C46.1956 6.72598 44.2944 7.14751 42.3999 7.58761L42.8525 9.53573ZM54.2055 7.13859C56.1026 6.7778 58.0059 6.43563 59.9151 6.11226L59.5811 4.14034C57.6587 4.46596 55.7421 4.81051 53.8318 5.1738L54.2055 7.13859ZM65.6459 5.20086C67.5557 4.91682 69.4711 4.65155 71.392 4.40523L71.1376 2.42147C69.2034 2.6695 67.2747 2.93661 65.3517 3.22262L65.6459 5.20086ZM77.1546 3.72505C79.0741 3.51801 80.9988 3.32986 82.9285 3.16079L82.7539 1.16842C80.8109 1.33866 78.8729 1.52811 76.9401 1.73658L77.1546 3.72505ZM88.7133 2.71226C90.6395 2.58229 92.5704 2.47132 94.5058 2.37952L94.4111 0.381766C92.4624 0.474198 90.5182 0.585935 88.5787 0.716801L88.7133 2.71226ZM100.304 2.16242C102.233 2.10939 104.168 2.07543 106.106 2.06071L106.091 0.0607633C104.139 0.075587 102.192 0.109782 100.249 0.163174L100.304 2.16242ZM111.907 2.07411C113.837 2.09768 115.771 2.14034 117.709 2.20227L117.772 0.203288C115.822 0.140941 113.875 0.0979889 111.931 0.0742632L111.907 2.07411ZM123.505 2.44462C124.47 2.49448 125.436 2.54912 126.403 2.60857L126.526 0.61234C125.553 0.552489 124.58 0.497477 123.608 0.447285L123.505 2.44462ZM126.403 2.60857C127.37 2.66802 128.335 2.73214 129.299 2.80091L129.442 0.805984C128.471 0.736749 127.499 0.672193 126.526 0.61234L126.403 2.60857ZM135.082 3.27057C137.013 3.4465 138.937 3.64111 140.856 3.8542L141.077 1.86643C139.145 1.65188 137.207 1.45594 135.263 1.27882L135.082 3.27057ZM146.615 4.55163C148.537 4.8037 150.452 5.07438 152.361 5.36345L152.66 3.386C150.738 3.09494 148.81 2.82241 146.875 2.56861L146.615 4.55163ZM158.088 6.28923C159.998 6.61747 161.901 6.96417 163.796 7.32916L164.174 5.36523C162.266 4.99772 160.35 4.64863 158.427 4.31814L158.088 6.28923ZM169.483 8.48305C171.377 8.88727 173.264 9.30981 175.144 9.75047L175.6 7.80326C173.708 7.35955 171.807 6.93409 169.9 6.52708L169.483 8.48305ZM180.78 11.1315C182.656 11.6113 184.524 12.1093 186.385 12.6252L186.919 10.6979C185.046 10.1784 183.164 9.67702 181.275 9.19389L180.78 11.1315ZM191.961 14.2318C193.816 14.7867 195.663 15.3595 197.502 15.95L198.113 14.0458C196.262 13.4512 194.402 12.8744 192.534 12.3157L191.961 14.2318ZM203.008 17.7798C204.839 18.4089 206.662 19.0557 208.476 19.72L209.163 17.842C207.337 17.1731 205.502 16.5218 203.658 15.8883L203.008 17.7798ZM213.903 21.7703C215.708 22.4726 217.503 23.1924 219.288 23.9294L220.051 22.0807C218.253 21.3386 216.446 20.6138 214.629 19.9065L213.903 21.7703ZM224.629 26.1968C226.403 26.9712 228.168 27.7628 229.923 28.5713L230.759 26.7548C228.992 25.9407 227.216 25.1436 225.429 24.3638L224.629 26.1968ZM235.167 31.052C236.909 31.8972 238.64 32.7592 240.361 33.6378L241.271 31.8565C239.538 30.9718 237.794 30.1038 236.041 29.2527L235.167 31.052Z" fill="#AFAFAF"/>
</svg>
