<svg width="250" height="34" viewBox="0 0 250 34" fill="none" xmlns="http://www.w3.org/2000/svg">
<path d="M1.61345 1.44544C1.36739 1.3201 1.26953 1.01902 1.39487 0.772962C1.52021 0.526906 1.82129 0.429047 2.06735 0.55439L1.61345 1.44544ZM249.726 8.53339L246.27 13.1579L243.993 7.85228L249.726 8.53339ZM2.06735 0.55439C2.93006 0.993857 3.7953 1.42915 4.66303 1.86025L4.21811 2.75582C3.34737 2.32323 2.47914 1.88643 1.61345 1.44544L2.06735 0.55439ZM9.89379 4.39365C11.6443 5.21985 13.4046 6.02913 15.1744 6.82126L14.7659 7.73401C12.9899 6.93913 11.2236 6.12705 9.46697 5.29799L9.89379 4.39365ZM20.5029 9.14209C22.2851 9.89704 24.0765 10.6347 25.877 11.355L25.5056 12.2835C23.6988 11.5607 21.9012 10.8204 20.1129 10.0629L20.5029 9.14209ZM31.2948 13.4593C33.1057 14.1417 34.9253 14.8066 36.7535 15.4537L36.4198 16.3964C34.5853 15.747 32.7593 15.0798 30.9422 14.395L31.2948 13.4593ZM42.252 17.3379C44.0886 17.9466 45.9335 18.5376 47.7865 19.1106L47.4911 20.0659C45.6316 19.491 43.7803 18.898 41.9373 18.2871L42.252 17.3379ZM53.3567 20.7716C55.216 21.3057 57.0831 21.8218 58.9579 22.3197L58.7013 23.2862C56.82 22.7865 54.9464 22.2687 53.0806 21.7327L53.3567 20.7716ZM64.5908 23.755C66.4698 24.2137 68.3561 24.6542 70.2496 25.0763L70.032 26.0524C68.132 25.6288 66.2391 25.1868 64.3536 24.7265L64.5908 23.755ZM75.9354 26.2839C77.8311 26.6667 79.7337 27.0311 81.6431 27.377L81.4648 28.361C79.5489 28.0139 77.6397 27.6483 75.7374 27.2642L75.9354 26.2839ZM87.3723 28.3556C89.2818 28.6621 91.1977 28.9501 93.1198 29.2194L92.9811 30.2097C91.0523 29.9395 89.1298 29.6505 87.2138 29.3429L87.3723 28.3556ZM98.8831 29.9683C100.803 30.1984 102.729 30.4099 104.661 30.6025L104.562 31.5976C102.624 31.4043 100.691 31.1921 98.7641 30.9612L98.8831 29.9683ZM110.449 31.1218C112.377 31.2756 114.31 31.4106 116.248 31.5267L116.188 32.5249C114.243 32.4084 112.304 32.2729 110.37 32.1187L110.449 31.1218ZM122.052 31.8172C123.02 31.8561 123.988 31.8903 124.958 31.9198L124.928 32.9193C123.954 32.8898 122.983 32.8555 122.012 32.8164L122.052 31.8172ZM124.958 31.9198C125.928 31.9493 126.897 31.974 127.865 31.9939L127.844 32.9937C126.873 32.9737 125.901 32.9489 124.928 32.9193L124.958 31.9198ZM133.676 32.0564C135.618 32.0582 137.555 32.0408 139.489 32.0044L139.507 33.0042C137.567 33.0407 135.623 33.0582 133.675 33.0564L133.676 32.0564ZM145.297 31.8375C147.237 31.7625 149.173 31.6684 151.103 31.5553L151.162 32.5536C149.225 32.6671 147.282 32.7615 145.336 32.8368L145.297 31.8375ZM156.901 31.1578C158.836 31.0057 160.766 30.8346 162.691 30.6446L162.789 31.6397C160.858 31.8304 158.921 32.0021 156.98 32.1547L156.901 31.1578ZM168.469 30.0157C170.396 29.7864 172.317 29.5382 174.232 29.2713L174.37 30.2617C172.448 30.5296 170.52 30.7787 168.587 31.0087L168.469 30.0157ZM179.981 28.4112C181.897 28.1048 183.806 27.7797 185.71 27.4359L185.887 28.42C183.977 28.765 182.061 29.0912 180.139 29.3986L179.981 28.4112ZM191.419 26.3453C193.321 25.9622 195.216 25.5604 197.104 25.1402L197.321 26.1163C195.426 26.538 193.525 26.9411 191.617 27.3256L191.419 26.3453ZM202.765 23.8205C204.649 23.3611 206.527 22.8833 208.397 22.3872L208.653 23.3538C206.777 23.8516 204.893 24.3311 203.002 24.792L202.765 23.8205ZM214 20.8404C215.864 20.3055 217.72 19.7523 219.569 19.1811L219.864 20.1366C218.009 20.7097 216.146 21.2648 214.275 21.8016L214 20.8404ZM225.105 17.4097C226.946 16.8001 228.779 16.1726 230.603 15.5272L230.937 16.47C229.106 17.1176 227.267 17.7473 225.419 18.359L225.105 17.4097ZM236.063 13.5343C237.878 12.8511 239.684 12.1502 241.481 11.4318L241.852 12.3604C240.049 13.0813 238.236 13.7846 236.415 14.4701L236.063 13.5343ZM1.38649 1.89097C0.894381 1.64028 0.698663 1.03813 0.949347 0.546012C1.20003 0.0538975 1.80219 -0.14182 2.2943 0.108863L1.38649 1.89097ZM249.726 8.53339L242.813 17.7825L238.26 7.17118L249.726 8.53339ZM2.2943 0.108863C3.15552 0.547571 4.01926 0.982113 4.8855 1.41246L3.99565 3.2036C3.12341 2.77027 2.25368 2.33271 1.38649 1.89097L2.2943 0.108863ZM10.1072 3.94149C11.8547 4.76625 13.6119 5.57413 15.3787 6.36489L14.5616 8.19038C12.7826 7.39413 11.0132 6.58065 9.25356 5.75016L10.1072 3.94149ZM20.698 8.6817C22.477 9.43533 24.2653 10.1718 26.0627 10.8908L25.3198 12.7477C23.51 12.0237 21.7093 11.2821 19.9179 10.5233L20.698 8.6817ZM31.4711 12.9914C33.2788 13.6726 35.0953 14.3364 36.9204 14.9824L36.253 16.8678C34.4153 16.2172 32.5861 15.5489 30.7658 14.8629L31.4711 12.9914ZM42.4093 16.8633C44.2427 17.471 46.0844 18.0609 47.9342 18.6329L47.3434 20.5436C45.4807 19.9677 43.6262 19.3736 41.78 18.7617L42.4093 16.8633ZM53.4947 20.291C55.3508 20.8242 57.2147 21.3394 59.0863 21.8364L58.5729 23.7694C56.6884 23.2689 54.8115 22.7502 52.9426 22.2133L53.4947 20.291ZM64.7094 23.2693C66.5851 23.7272 68.4681 24.1669 70.3584 24.5883L69.9232 26.5404C68.0199 26.1161 66.1238 25.6733 64.235 25.2122L64.7094 23.2693ZM76.0343 25.7938C77.9268 26.176 79.8261 26.5398 81.7322 26.885L81.3757 28.853C79.4565 28.5053 77.544 28.139 75.6385 27.7543L76.0343 25.7938ZM87.4516 27.8619C89.3577 28.1679 91.2703 28.4554 93.1892 28.7242L92.9117 30.7049C90.9797 30.4342 89.0539 30.1447 87.1346 29.8366L87.4516 27.8619ZM98.9425 29.4719C100.859 29.7016 102.782 29.9127 104.711 30.105L104.513 32.0951C102.571 31.9015 100.635 31.6889 98.7046 31.4577L98.9425 29.4719ZM110.489 30.6234C112.413 30.7769 114.343 30.9117 116.278 31.0276L116.158 33.0241C114.21 32.9073 112.267 32.7716 110.33 32.6171L110.489 30.6234ZM122.072 31.3176C123.038 31.3565 124.005 31.3906 124.973 31.42L124.912 33.4191C123.938 33.3895 122.964 33.3551 121.992 33.316L122.072 31.3176ZM124.973 31.42C125.941 31.4495 126.909 31.4741 127.875 31.494L127.834 33.4936C126.861 33.4735 125.887 33.4487 124.912 33.4191L124.973 31.42ZM133.676 31.5564C135.615 31.5582 137.549 31.5408 139.479 31.5045L139.517 33.5041C137.574 33.5407 135.626 33.5582 133.674 33.5564L133.676 31.5564ZM145.278 31.3379C147.215 31.263 149.147 31.1691 151.074 31.0562L151.191 33.0528C149.25 33.1664 147.305 33.261 145.355 33.3364L145.278 31.3379ZM156.862 30.6593C158.794 30.5075 160.72 30.3367 162.642 30.147L162.838 32.1373C160.904 32.3283 158.964 32.5003 157.019 32.6532L156.862 30.6593ZM168.41 29.5192C170.333 29.2903 172.251 29.0426 174.163 28.7761L174.439 30.7569C172.514 31.0253 170.583 31.2748 168.646 31.5052L168.41 29.5192ZM179.902 27.9174C181.814 27.6116 183.721 27.287 185.621 26.9439L185.976 28.912C184.063 29.2576 182.143 29.5844 180.218 29.8923L179.902 27.9174ZM191.32 25.8551C193.219 25.4727 195.11 25.0716 196.995 24.6521L197.43 26.6044C195.532 27.0268 193.627 27.4306 191.715 27.8157L191.32 25.8551ZM202.646 23.3347C204.528 22.8761 206.402 22.3991 208.269 21.9039L208.781 23.8371C206.902 24.3357 205.014 24.816 203.12 25.2778L202.646 23.3347ZM213.862 20.3598C215.723 19.8258 217.576 19.2736 219.422 18.7034L220.012 20.6143C218.153 21.1884 216.287 21.7445 214.413 22.2822L213.862 20.3598ZM224.948 16.9351C226.785 16.3265 228.615 15.7001 230.437 15.0558L231.104 16.9414C229.269 17.5901 227.427 18.2209 225.576 18.8337L224.948 16.9351ZM235.887 13.0663C237.698 12.3843 239.501 11.6846 241.296 10.9675L242.038 12.8247C240.231 13.5468 238.416 14.2513 236.592 14.9381L235.887 13.0663Z" fill="#AFAFAF"/>
</svg>
