<svg width="102" height="101" viewBox="0 0 102 101" fill="none" xmlns="http://www.w3.org/2000/svg">
<rect width="102" height="100.725" rx="20" fill="#E2F3FF"/>
<path d="M39.5052 23C37.7542 23 36.0749 23.698 34.8368 24.9404C33.5987 26.1828 32.9031 27.8679 32.9031 29.625V52.8125H36.2042V29.625C36.2042 28.7465 36.5519 27.9039 37.171 27.2827C37.7901 26.6615 38.6297 26.3125 39.5052 26.3125H62.6125C63.4879 26.3125 64.3276 26.6615 64.9466 27.2827C65.5657 27.9039 65.9135 28.7465 65.9135 29.625V66.0625H56.0104V69.375H69.2145C71.841 69.375 74.3599 68.328 76.2171 66.4644C78.0743 64.6007 79.1176 62.0731 79.1176 59.4375V52.8125H69.2145V29.625C69.2145 27.8679 68.519 26.1828 67.2808 24.9404C66.0427 23.698 64.3634 23 62.6125 23H39.5052ZM75.8166 59.4375C75.8166 61.1946 75.121 62.8797 73.8829 64.1221C72.6448 65.3645 70.9655 66.0625 69.2145 66.0625V56.125H75.8166V59.4375ZM44.4567 32.9375C44.019 32.9375 43.5992 33.112 43.2897 33.4226C42.9801 33.7332 42.8062 34.1545 42.8062 34.5938C42.8062 35.033 42.9801 35.4543 43.2897 35.7649C43.5992 36.0755 44.019 36.25 44.4567 36.25H57.6609C58.0986 36.25 58.5185 36.0755 58.828 35.7649C59.1375 35.4543 59.3114 35.033 59.3114 34.5938C59.3114 34.1545 59.1375 33.7332 58.828 33.4226C58.5185 33.112 58.0986 32.9375 57.6609 32.9375H44.4567ZM42.8062 41.2188C42.8062 40.7795 42.9801 40.3582 43.2897 40.0476C43.5992 39.737 44.019 39.5625 44.4567 39.5625H57.6609C58.0986 39.5625 58.5185 39.737 58.828 40.0476C59.1375 40.3582 59.3114 40.7795 59.3114 41.2188C59.3114 41.658 59.1375 42.0793 58.828 42.3899C58.5185 42.7005 58.0986 42.875 57.6609 42.875H44.4567C44.019 42.875 43.5992 42.7005 43.2897 42.3899C42.9801 42.0793 42.8062 41.658 42.8062 41.2188ZM47.7578 56.125C49.071 56.125 50.3305 56.6485 51.2591 57.5803C52.1877 58.5121 52.7093 59.776 52.7093 61.0938V71.0312C52.7093 72.349 52.1877 73.6129 51.2591 74.5447C50.3305 75.4765 49.071 76 47.7578 76H27.9516C26.6383 76 25.3789 75.4765 24.4503 74.5447C23.5217 73.6129 23 72.349 23 71.0312V61.0938C23 59.776 23.5217 58.5121 24.4503 57.5803C25.3789 56.6485 26.6383 56.125 27.9516 56.125H47.7578ZM49.4083 71.0312V67.7188C48.0951 67.7188 46.8356 68.2422 45.907 69.1741C44.9784 70.1059 44.4567 71.3697 44.4567 72.6875H47.7578C47.7578 72.2482 47.9317 71.827 48.2412 71.5164C48.5507 71.2057 48.9706 71.0312 49.4083 71.0312ZM49.4083 61.0938C48.9706 61.0938 48.5507 60.9193 48.2412 60.6086C47.9317 60.298 47.7578 59.8768 47.7578 59.4375H44.4567C44.4567 60.7553 44.9784 62.0191 45.907 62.9509C46.8356 63.8828 48.0951 64.4062 49.4083 64.4062V61.0938ZM27.9516 59.4375C27.9516 59.8768 27.7777 60.298 27.4681 60.6086C27.1586 60.9193 26.7388 61.0938 26.301 61.0938V64.4062C27.6143 64.4062 28.8737 63.8828 29.8023 62.9509C30.7309 62.0191 31.2526 60.7553 31.2526 59.4375H27.9516ZM26.301 71.0312C26.7388 71.0312 27.1586 71.2057 27.4681 71.5164C27.7777 71.827 27.9516 72.2482 27.9516 72.6875H31.2526C31.2526 71.3697 30.7309 70.1059 29.8023 69.1741C28.8737 68.2422 27.6143 67.7188 26.301 67.7188V71.0312ZM37.8547 61.0938C36.5414 61.0938 35.282 61.6172 34.3534 62.5491C33.4248 63.4809 32.9031 64.7447 32.9031 66.0625C32.9031 67.3803 33.4248 68.6441 34.3534 69.5759C35.282 70.5078 36.5414 71.0312 37.8547 71.0312C39.1679 71.0312 40.4274 70.5078 41.356 69.5759C42.2845 68.6441 42.8062 67.3803 42.8062 66.0625C42.8062 64.7447 42.2845 63.4809 41.356 62.5491C40.4274 61.6172 39.1679 61.0938 37.8547 61.0938Z" fill="#A6A6A6"/>
</svg>
