<svg width="229" height="128" viewBox="0 0 229 128" fill="none" xmlns="http://www.w3.org/2000/svg">
<path d="M48.192 52.56C49.3653 52.7093 50.3467 53.3173 51.136 54.384C50.8587 54.7893 50.56 55.088 50.24 55.28C49.9413 55.4507 49.568 55.5467 49.12 55.568C47.264 55.5893 45.6747 55.664 44.352 55.792C43.0507 55.92 41.664 56.3467 40.192 57.072C38.7413 57.7973 37.92 58.96 37.728 60.56C37.152 61.7333 36.864 63.1093 36.864 64.688C36.864 65.4987 36.96 66.5333 37.152 67.792C37.408 69.4133 38.208 70.224 39.552 70.224C39.8933 70.224 40.16 70.2027 40.352 70.16C41.4827 69.968 42.6133 69.5413 43.744 68.88C44.384 68.4747 45.024 68.016 45.664 67.504C46.304 66.9707 46.688 66.6613 46.816 66.576L47.648 65.904C47.8827 65.6907 48.0533 65.4987 48.16 65.328C48.288 65.136 48.352 64.9013 48.352 64.624C48.352 64.5173 48.3307 64.3573 48.288 64.144C47.5627 64.208 46.496 64.2827 45.088 64.368L44.16 64.432C43.7547 64.4747 43.1467 64.5173 42.336 64.56C41.4613 64.56 40.768 64.3573 40.256 63.952C39.7653 63.5253 39.3813 62.832 39.104 61.872C39.168 61.8293 39.2427 61.7653 39.328 61.68C39.4133 61.5947 39.488 61.552 39.552 61.552L40.672 61.424C43.1253 61.1253 44.992 60.944 46.272 60.88C47.3173 60.816 48.5333 60.9013 49.92 61.136C51.84 61.456 52.8 62.3413 52.8 63.792C52.8 64.3253 52.6933 64.88 52.48 65.456C52.3733 65.776 52.2027 66.1493 51.968 66.576C51.4773 67.6213 50.8053 68.528 49.952 69.296C49.0987 70.064 48.064 70.8 46.848 71.504C45.888 72.08 45.0453 72.528 44.32 72.848C43.5947 73.168 42.8267 73.36 42.016 73.424C41.824 73.4453 41.5253 73.456 41.12 73.456C39.264 73.456 37.5787 72.8267 36.064 71.568C35.3173 70.928 34.7413 70.2453 34.336 69.52C33.952 68.7733 33.728 67.9307 33.664 66.992C33.6213 66.352 33.6 65.904 33.6 65.648C33.6 64.432 33.7493 63.3013 34.048 62.256C34.3467 61.1893 34.912 59.536 35.744 57.296C36.576 55.4827 37.92 54.2133 39.776 53.488C41.632 52.7413 43.5947 52.368 45.664 52.368C46.5387 52.368 47.3813 52.432 48.192 52.56ZM61.8303 69.008C61.6169 69.136 61.3076 69.2 60.9023 69.2C60.7529 69.2 60.5716 69.1893 60.3583 69.168C60.1449 69.1467 59.9636 69.1467 59.8143 69.168C59.9849 69.872 60.3903 70.448 61.0303 70.896C61.6703 71.3227 62.3849 71.536 63.1743 71.536C63.8569 71.536 64.4649 71.3867 64.9983 71.088C65.7876 70.6827 66.4703 70.2027 67.0463 69.648C67.4516 69.2427 67.8356 69.04 68.1983 69.04C68.4329 69.04 68.6356 69.1573 68.8063 69.392C68.9769 69.6693 69.0623 70.0107 69.0623 70.416C69.0623 70.8427 68.9769 71.1733 68.8063 71.408C68.2516 72.2613 67.5263 72.848 66.6303 73.168C65.7556 73.488 64.7316 73.648 63.5583 73.648C62.3423 73.648 61.1689 73.3813 60.0383 72.848C58.9076 72.3147 57.9369 71.5893 57.1263 70.672C56.3369 69.7333 55.8143 68.6987 55.5583 67.568C55.3876 66.9067 55.3023 66.256 55.3023 65.616C55.3023 64.6133 55.5796 63.8027 56.1343 63.184C56.7103 62.5653 57.6276 61.9787 58.8863 61.424C60.0383 60.9333 61.1049 60.688 62.0863 60.688C62.7903 60.688 63.4729 60.7947 64.1343 61.008C66.1823 61.648 67.2063 62.5227 67.2063 63.632C67.2063 64.336 66.7903 65.1893 65.9583 66.192C65.5529 66.6613 65.0729 67.0773 64.5183 67.44C63.9636 67.8027 63.4196 68.1333 62.8863 68.432C62.3743 68.7093 62.0223 68.9013 61.8303 69.008ZM63.1743 63.088C63.1529 62.9813 63.0676 62.896 62.9183 62.832C62.7903 62.7467 62.7156 62.6933 62.6943 62.672C62.1183 62.6293 61.5316 62.8 60.9343 63.184C60.3369 63.5467 59.8356 64.016 59.4303 64.592C59.0463 65.168 58.8543 65.7227 58.8543 66.256L58.8863 66.512C58.9076 66.5973 59.0143 66.704 59.2063 66.832C59.4196 66.96 59.5476 67.0027 59.5903 66.96C61.1049 65.8293 62.2463 64.9227 63.0143 64.24C63.1423 64.112 63.2063 63.8773 63.2063 63.536C63.2063 63.3227 63.1956 63.1733 63.1743 63.088ZM78.239 57.968C78.3457 57.9253 78.5803 57.8933 78.943 57.872C79.327 57.8293 79.6683 57.808 79.967 57.808C80.5643 57.808 81.1083 58.1813 81.599 58.928L81.183 59.248C80.6923 59.6107 79.9883 59.888 79.071 60.08C78.2603 60.4853 77.6523 60.8267 77.247 61.104C76.863 61.3813 76.575 61.6907 76.383 62.032C76.2123 62.3733 76.127 62.8107 76.127 63.344C76.127 63.6 76.191 64.2613 76.319 65.328L76.479 66.672C76.6497 68.3147 76.799 69.52 76.927 70.288C76.9697 70.5653 77.055 70.896 77.183 71.28C77.3323 71.6427 77.4817 71.856 77.631 71.92C77.7803 71.984 78.079 71.8773 78.527 71.6C79.3803 70.576 79.935 69.8613 80.191 69.456C80.255 69.3493 80.3617 69.168 80.511 68.912C80.6603 68.656 80.8097 68.464 80.959 68.336C81.1083 68.1867 81.2897 68.112 81.503 68.112C81.5457 68.112 81.6523 68.1333 81.823 68.176C82.1643 68.2827 82.431 68.4427 82.623 68.656C82.8363 68.8693 82.943 69.1787 82.943 69.584C82.943 69.776 82.9323 69.9147 82.911 70C82.783 70.8533 82.4843 71.6213 82.015 72.304C81.5457 72.9867 80.927 73.6587 80.159 74.32C79.8603 74.5973 79.3697 74.736 78.687 74.736C77.9403 74.736 77.2043 74.5653 76.479 74.224C75.7537 73.904 75.263 73.4773 75.007 72.944C74.3457 71.5147 73.727 69.6907 73.151 67.472C73.0017 66.8533 72.8843 65.872 72.799 64.528L72.703 63.344C72.6603 62.8533 72.6603 62.48 72.703 62.224C72.7457 61.9467 72.3297 61.776 71.455 61.712C71.135 61.6907 70.975 61.4773 70.975 61.072C71.1883 60.3893 71.519 59.984 71.967 59.856C72.3937 59.728 72.6603 59.4613 72.767 59.056C72.8737 58.6293 72.959 58.192 73.023 57.744C73.215 56.3573 73.2577 54.8107 73.151 53.104C73.1083 52.2933 73.3537 51.824 73.887 51.696L74.175 51.728C74.2817 51.7493 74.527 51.792 74.911 51.856C75.295 51.8987 75.6363 51.9947 75.935 52.144C76.6817 52.5493 77.055 53.264 77.055 54.288C77.055 54.7147 76.9697 55.2693 76.799 55.952C76.7777 56.0587 76.7457 56.1547 76.703 56.24C76.6603 56.3253 76.6283 56.4213 76.607 56.528C76.543 56.848 76.511 57.1147 76.511 57.328C76.319 57.968 76.4683 58.288 76.959 58.288C77.1297 58.288 77.5563 58.1813 78.239 57.968ZM96.8513 74.704C95.0593 74.704 93.9179 73.936 93.4273 72.4C93.5979 72.4 93.8219 72.4107 94.0993 72.432C94.3979 72.432 94.6433 72.4533 94.8353 72.496C95.1339 72.5387 95.3473 72.56 95.4753 72.56C96.4353 72.56 97.2353 72.1333 97.8753 71.28C98.3233 70.6613 98.5473 70.032 98.5473 69.392C98.5473 68.9653 98.4406 68.5493 98.2273 68.144C97.7579 67.312 97.1819 66.3947 96.4993 65.392C96.0513 64.7307 95.6459 64.1013 95.2833 63.504C94.8566 62.8213 94.6432 62.064 94.6432 61.232C94.6432 60.464 94.8566 59.792 95.2833 59.216C95.7313 58.6187 96.3819 58.2453 97.2352 58.096L98.2593 57.904C99.3686 57.6907 100.201 57.584 100.755 57.584C101.673 57.584 102.483 57.7973 103.187 58.224C103.337 58.3307 103.486 58.5227 103.635 58.8C103.806 59.056 103.934 59.2587 104.019 59.408C103.87 59.472 103.657 59.5787 103.379 59.728C103.123 59.856 102.899 59.9307 102.707 59.952C102.409 59.9947 101.961 60.016 101.363 60.016C100.787 60.016 100.35 60.0267 100.051 60.048C99.3686 60.112 98.8246 60.3467 98.4193 60.752C98.0353 61.136 97.8433 61.6053 97.8433 62.16C97.8433 62.5867 97.9713 63.024 98.2273 63.472C98.8033 64.432 99.6033 65.5307 100.627 66.768C101.395 67.728 101.779 68.72 101.779 69.744C101.779 70.2987 101.651 70.8853 101.395 71.504C100.521 73.6373 99.0059 74.704 96.8513 74.704ZM112.27 57.968C112.377 57.9253 112.612 57.8933 112.974 57.872C113.358 57.8293 113.7 57.808 113.998 57.808C114.596 57.808 115.14 58.1813 115.63 58.928L115.214 59.248C114.724 59.6107 114.02 59.888 113.102 60.08C112.292 60.4853 111.684 60.8267 111.278 61.104C110.894 61.3813 110.606 61.6907 110.414 62.032C110.244 62.3733 110.158 62.8107 110.158 63.344C110.158 63.6 110.222 64.2613 110.35 65.328L110.51 66.672C110.681 68.3147 110.83 69.52 110.958 70.288C111.001 70.5653 111.086 70.896 111.214 71.28C111.364 71.6427 111.513 71.856 111.662 71.92C111.812 71.984 112.11 71.8773 112.558 71.6C113.412 70.576 113.966 69.8613 114.222 69.456C114.286 69.3493 114.393 69.168 114.542 68.912C114.692 68.656 114.841 68.464 114.99 68.336C115.14 68.1867 115.321 68.112 115.534 68.112C115.577 68.112 115.684 68.1333 115.854 68.176C116.196 68.2827 116.462 68.4427 116.654 68.656C116.868 68.8693 116.974 69.1787 116.974 69.584C116.974 69.776 116.964 69.9147 116.942 70C116.814 70.8533 116.516 71.6213 116.046 72.304C115.577 72.9867 114.958 73.6587 114.19 74.32C113.892 74.5973 113.401 74.736 112.718 74.736C111.972 74.736 111.236 74.5653 110.51 74.224C109.785 73.904 109.294 73.4773 109.038 72.944C108.377 71.5147 107.758 69.6907 107.182 67.472C107.033 66.8533 106.916 65.872 106.83 64.528L106.734 63.344C106.692 62.8533 106.692 62.48 106.734 62.224C106.777 61.9467 106.361 61.776 105.486 61.712C105.166 61.6907 105.006 61.4773 105.006 61.072C105.22 60.3893 105.55 59.984 105.998 59.856C106.425 59.728 106.692 59.4613 106.798 59.056C106.905 58.6293 106.99 58.192 107.054 57.744C107.246 56.3573 107.289 54.8107 107.182 53.104C107.14 52.2933 107.385 51.824 107.918 51.696L108.206 51.728C108.313 51.7493 108.558 51.792 108.942 51.856C109.326 51.8987 109.668 51.9947 109.966 52.144C110.713 52.5493 111.086 53.264 111.086 54.288C111.086 54.7147 111.001 55.2693 110.83 55.952C110.809 56.0587 110.777 56.1547 110.734 56.24C110.692 56.3253 110.66 56.4213 110.638 56.528C110.574 56.848 110.542 57.1147 110.542 57.328C110.35 57.968 110.5 58.288 110.99 58.288C111.161 58.288 111.588 58.1813 112.27 57.968ZM129.923 72.368C129.731 72.2827 129.539 72.24 129.347 72.24C129.155 72.24 128.984 72.2933 128.835 72.4C128.707 72.4853 128.557 72.624 128.387 72.816C128.131 73.072 127.864 73.2853 127.587 73.456C127.331 73.6053 126.861 73.744 126.179 73.872C125.88 73.9147 125.635 73.936 125.443 73.936C124.547 73.936 123.608 73.744 122.627 73.36C121.667 72.9547 120.984 72.4747 120.579 71.92C120.152 71.3227 119.949 70.6827 119.971 70C119.992 68.976 120.419 67.952 121.251 66.928C122.061 65.9467 122.797 65.2533 123.459 64.848C124.141 64.4427 125.069 64.1867 126.243 64.08C126.499 64.08 126.861 64.0373 127.331 63.952C127.821 63.8667 128.067 63.7493 128.067 63.6C128.067 63.3013 127.928 63.0347 127.651 62.8C127.395 62.544 126.861 62.416 126.051 62.416C125.752 62.416 125.304 62.4373 124.707 62.48C124.109 62.5227 123.693 62.544 123.459 62.544C122.733 62.544 122.211 62.4267 121.891 62.192C121.805 62.1493 121.763 61.9467 121.763 61.584C121.763 60.944 121.987 60.5387 122.435 60.368C123.352 60.0267 124.301 59.8453 125.283 59.824C126.52 59.824 127.661 60.1013 128.707 60.656C129.773 61.1893 130.552 61.8613 131.043 62.672C131.533 63.4827 131.853 64.6027 132.003 66.032C132.173 67.632 132.259 69.6693 132.259 72.144C132.259 72.8267 132.163 73.2213 131.971 73.328C131.8 73.4347 131.64 73.488 131.491 73.488C131.299 73.488 131.117 73.4347 130.947 73.328C130.797 73.2 130.627 73.0293 130.435 72.816C130.243 72.5813 130.072 72.432 129.923 72.368ZM124.867 71.984C125.869 71.6853 126.851 71.2053 127.811 70.544C128.024 70.3947 128.216 70.2027 128.387 69.968C128.557 69.7333 128.664 69.584 128.707 69.52C128.749 69.456 128.781 69.2747 128.803 68.976C128.845 68.656 128.856 68.4 128.835 68.208C128.813 68.144 128.771 67.9733 128.707 67.696C128.664 67.4187 128.589 67.1733 128.483 66.96C128.376 66.7893 128.205 66.6293 127.97 66.48C127.736 66.3307 127.523 66.2667 127.331 66.288C126.925 66.3093 126.488 66.4587 126.019 66.736C125.549 67.0133 125.112 67.3867 124.707 67.856C124.301 68.3467 123.981 68.848 123.747 69.36C123.533 69.8507 123.427 70.3093 123.427 70.736C123.469 71.312 123.629 71.696 123.907 71.888C124.056 71.9947 124.237 72.048 124.451 72.048C124.621 72.048 124.76 72.0267 124.867 71.984ZM140.168 60.432C140.232 60.6453 140.242 60.976 140.2 61.424L139.816 65.2C139.922 65.1147 140.082 64.816 140.296 64.304C140.509 63.7707 140.712 63.344 140.904 63.024C141.096 62.6827 141.245 62.4587 141.352 62.352C142.354 61.392 143.485 60.816 144.744 60.624C146.002 60.432 147.389 60.3467 148.904 60.368C149.053 60.368 149.213 60.432 149.384 60.56C149.576 60.6667 149.672 60.7627 149.672 60.848C149.672 60.912 149.608 61.0293 149.48 61.2C149.352 61.3493 149.234 61.4453 149.128 61.488C147.848 61.9147 146.717 62.4053 145.736 62.96C144.776 63.5147 143.944 64.24 143.24 65.136C141.576 67.248 140.616 69.424 140.36 71.664C140.296 72.2613 140.114 72.6667 139.816 72.88C139.517 73.072 139.101 73.168 138.568 73.168C137.97 73.168 137.437 72.912 136.968 72.4C136.498 71.888 136.264 71.3227 136.264 70.704C136.285 68.4427 136.296 65.0507 136.296 60.528C136.296 59.9093 136.434 59.4827 136.712 59.248C136.989 58.992 137.49 58.864 138.216 58.864C138.749 58.864 139.197 59.0133 139.56 59.312C139.944 59.6107 140.146 59.984 140.168 60.432ZM158.239 57.968C158.346 57.9253 158.58 57.8933 158.943 57.872C159.327 57.8293 159.668 57.808 159.967 57.808C160.564 57.808 161.108 58.1813 161.599 58.928L161.183 59.248C160.692 59.6107 159.988 59.888 159.071 60.08C158.26 60.4853 157.652 60.8267 157.247 61.104C156.863 61.3813 156.575 61.6907 156.383 62.032C156.212 62.3733 156.127 62.8107 156.127 63.344C156.127 63.6 156.191 64.2613 156.319 65.328L156.479 66.672C156.65 68.3147 156.799 69.52 156.927 70.288C156.97 70.5653 157.055 70.896 157.183 71.28C157.332 71.6427 157.482 71.856 157.631 71.92C157.78 71.984 158.079 71.8773 158.527 71.6C159.38 70.576 159.935 69.8613 160.191 69.456C160.255 69.3493 160.362 69.168 160.511 68.912C160.66 68.656 160.81 68.464 160.959 68.336C161.108 68.1867 161.29 68.112 161.503 68.112C161.546 68.112 161.652 68.1333 161.823 68.176C162.164 68.2827 162.431 68.4427 162.623 68.656C162.836 68.8693 162.943 69.1787 162.943 69.584C162.943 69.776 162.932 69.9147 162.911 70C162.783 70.8533 162.484 71.6213 162.015 72.304C161.546 72.9867 160.927 73.6587 160.159 74.32C159.86 74.5973 159.37 74.736 158.687 74.736C157.94 74.736 157.204 74.5653 156.479 74.224C155.754 73.904 155.263 73.4773 155.007 72.944C154.346 71.5147 153.727 69.6907 153.151 67.472C153.002 66.8533 152.884 65.872 152.799 64.528L152.703 63.344C152.66 62.8533 152.66 62.48 152.703 62.224C152.746 61.9467 152.33 61.776 151.455 61.712C151.135 61.6907 150.975 61.4773 150.975 61.072C151.188 60.3893 151.519 59.984 151.967 59.856C152.394 59.728 152.66 59.4613 152.767 59.056C152.874 58.6293 152.959 58.192 153.023 57.744C153.215 56.3573 153.258 54.8107 153.151 53.104C153.108 52.2933 153.354 51.824 153.887 51.696L154.175 51.728C154.282 51.7493 154.527 51.792 154.911 51.856C155.295 51.8987 155.636 51.9947 155.935 52.144C156.682 52.5493 157.055 53.264 157.055 54.288C157.055 54.7147 156.97 55.2693 156.799 55.952C156.778 56.0587 156.746 56.1547 156.703 56.24C156.66 56.3253 156.628 56.4213 156.607 56.528C156.543 56.848 156.511 57.1147 156.511 57.328C156.319 57.968 156.468 58.288 156.959 58.288C157.13 58.288 157.556 58.1813 158.239 57.968ZM170.099 61.52C170.291 61.4987 170.451 61.4987 170.579 61.52C170.707 61.52 170.825 61.52 170.931 61.52C171.081 61.4987 171.305 61.488 171.603 61.488C173.054 61.488 174.483 61.904 175.891 62.736C176.51 63.12 176.819 63.5253 176.819 63.952C176.819 64.4213 176.499 64.8373 175.859 65.2C175.326 65.52 174.771 65.8933 174.195 66.32C173.171 67.0027 172.297 67.536 171.571 67.92C170.867 68.304 170.089 68.5707 169.235 68.72C169.107 68.7627 168.969 68.88 168.819 69.072C168.691 69.2427 168.638 69.3707 168.659 69.456C168.702 69.584 168.777 69.8507 168.883 70.256C168.99 70.64 169.107 70.9707 169.235 71.248C169.385 71.504 169.555 71.7173 169.747 71.888C169.961 72.0587 170.281 72.144 170.707 72.144C171.134 72.144 171.529 72.08 171.891 71.952C173.171 71.3547 174.387 70.608 175.539 69.712C175.881 69.4773 176.179 69.36 176.435 69.36C176.755 69.36 177.097 69.5307 177.459 69.872C177.715 70.1067 177.843 70.352 177.843 70.608C177.843 70.8853 177.641 71.2267 177.235 71.632C175.422 73.4027 173.491 74.288 171.443 74.288C170.889 74.288 170.206 74.1813 169.395 73.968C168.03 73.6267 166.985 72.8693 166.259 71.696C165.534 70.5227 165.171 69.1787 165.171 67.664C165.171 67.1947 165.203 66.7467 165.267 66.32C165.289 66.1707 165.331 65.8613 165.395 65.392C165.481 64.9013 165.609 64.496 165.779 64.176C166.59 62.576 168.03 61.6907 170.099 61.52ZM171.955 63.824C171.571 63.696 171.23 63.632 170.931 63.632C170.441 63.632 170.057 63.7813 169.779 64.08C169.502 64.3787 169.278 64.8267 169.107 65.424C169.619 65.488 170.163 65.36 170.739 65.04C171.337 64.6987 171.742 64.2933 171.955 63.824ZM192.229 70.256C192.271 70.6187 192.431 71.088 192.709 71.664C192.751 71.7707 192.794 71.888 192.837 72.016C192.901 72.144 192.965 72.2933 193.029 72.464C192.303 72.8693 191.727 73.072 191.301 73.072C190.981 73.072 190.682 72.976 190.405 72.784C190.127 72.5707 189.818 72.24 189.477 71.792C189.221 71.4933 189.007 71.344 188.837 71.344C188.666 71.344 188.485 71.4827 188.293 71.76C187.866 72.4 187.333 72.88 186.693 73.2C186.074 73.52 185.413 73.68 184.709 73.68C183.919 73.68 183.151 73.4987 182.405 73.136C181.679 72.752 181.114 72.24 180.709 71.6C180.282 70.9387 180.069 69.9573 180.069 68.656C180.069 67.7173 180.197 66.768 180.453 65.808C180.709 64.848 181.071 64.0587 181.541 63.44C182.053 62.736 182.661 62.1813 183.365 61.776C184.069 61.3493 184.847 61.136 185.701 61.136C185.978 61.136 186.191 61.1467 186.341 61.168C186.405 61.1893 186.501 61.2 186.629 61.2C187.119 61.2 187.365 60.9653 187.365 60.496L187.333 60.24C187.034 57.7867 186.767 55.984 186.533 54.832C186.511 54.7253 186.479 54.5547 186.437 54.32C186.394 54.0853 186.373 53.8933 186.373 53.744C186.373 53.4453 186.437 53.1893 186.565 52.976C186.693 52.7413 186.917 52.5493 187.237 52.4C187.365 52.336 187.514 52.304 187.685 52.304C188.133 52.304 188.602 52.4533 189.093 52.752C189.583 53.0293 189.871 53.3493 189.957 53.712C190.277 55.0347 190.575 56.752 190.853 58.864L191.429 63.728C191.77 66.6293 192.037 68.8053 192.229 70.256ZM183.685 66.256C183.322 67.3013 183.141 68.2613 183.141 69.136C183.141 70.352 183.567 71.248 184.421 71.824C184.762 71.632 185.029 71.4187 185.221 71.184C185.434 70.928 185.679 70.5653 185.957 70.096L186.309 69.488C186.799 68.784 187.119 67.9947 187.269 67.12C187.439 66.2453 187.546 65.136 187.589 63.792C187.61 63.6 187.567 63.3867 187.461 63.152C187.375 62.896 187.279 62.7573 187.173 62.736C187.002 62.6933 186.714 62.7467 186.309 62.896C185.903 63.024 185.647 63.1627 185.541 63.312C185.05 63.888 184.655 64.3893 184.357 64.816C184.079 65.2427 183.855 65.7227 183.685 66.256Z" fill="#00A0D6"/>
<path d="M223.908 54.7292C225.451 84.9554 177.203 113.473 116.144 118.424C55.0855 123.376 4.33666 102.886 2.79373 72.6604C1.25079 42.4342 49.4981 13.9171 110.557 8.96553C171.616 4.01399 222.365 24.5031 223.908 54.7292Z" stroke="black" stroke-width="0.851822"/>
<path d="M228.399 61.4399C228.425 91.7285 178.847 116.352 117.662 116.438C56.4765 116.523 6.85442 92.0391 6.82769 61.7505C6.80097 31.4619 56.3797 6.8386 117.565 6.75283C178.75 6.66705 228.372 31.1513 228.399 61.4399Z" stroke="black" stroke-width="0.851822"/>
</svg>
