<svg width="106" height="105" viewBox="0 0 106 105" fill="none" xmlns="http://www.w3.org/2000/svg">
<rect width="106" height="104.675" rx="20" fill="#FFF2F2"/>
<path d="M32.75 31.75H39.5V38.5H32.75V31.75Z" fill="#88898A"/>
<path d="M46.25 25V45.25H26V25H46.25ZM42.875 28.375H29.375V41.875H42.875V28.375ZM39.5 65.5H32.75V72.25H39.5V65.5Z" fill="#88898A"/>
<path d="M46.25 58.75V79H26V58.75H46.25ZM29.375 62.125V75.625H42.875V62.125H29.375ZM66.5 31.75H73.25V38.5H66.5V31.75Z" fill="#88898A"/>
<path d="M59.75 25V45.25H80V25H59.75ZM76.625 28.375V41.875H63.125V28.375H76.625ZM53 28.375V25H56.375V31.75H53V38.5H49.625V28.375H53ZM53 45.25V38.5H56.375V45.25H53ZM46.25 52V48.625H49.625V45.25H53V52H56.375V48.625H73.25V52H59.75V55.375H49.625V52H46.25ZM46.25 52V55.375H32.75V52H29.375V55.375H26V48.625H36.125V52H46.25ZM80 55.375H76.625V48.625H80V55.375ZM76.625 55.375H73.25V62.125H80V58.75H76.625V55.375ZM63.125 55.375H69.875V58.75H66.5V62.125H63.125V55.375ZM69.875 65.5V62.125H66.5V65.5H63.125V68.875H56.375V72.25H66.5V65.5H69.875ZM69.875 65.5H80V68.875H73.25V72.25H69.875V65.5ZM56.375 62.125V65.5H59.75V58.75H49.625V62.125H56.375Z" fill="#88898A"/>
<path d="M49.625 65.5H53V75.625H66.5V79H49.625V65.5ZM80 72.25V79H69.875V75.625H76.625V72.25H80Z" fill="#88898A"/>
</svg>
