<svg width="247" height="261" viewBox="0 0 247 261" fill="none" xmlns="http://www.w3.org/2000/svg">
<path d="M-80.9704 79.6649C-69.5087 97.585 -79.5175 120.652 -67.0661 148.498C-63.5406 156.383 -61.8617 161.006 -56.9196 168.261C-32.9215 203.489 2.00581 223.126 48.115 226.208C80.0896 228.346 117.972 228.087 131.917 199.747C146.01 171.108 138.507 134.752 114.443 103.112C87.9492 68.2764 64.8311 43.7823 21.9973 19.3728C-0.926216 6.30947 -46.7326 -11.8628 -73.0788 10.6639C-93.1366 27.8139 -92.4322 61.7447 -80.9704 79.6649Z" fill="#00AEE8"/>
<path fill-rule="evenodd" clip-rule="evenodd" d="M81.1931 232.666C65.8748 236.8 39.4682 238.502 5.81309 238.796C-25.419 239.279 -37.8831 242.56 -37.3287 247.993C-33.571 256.375 18.1334 259.925 106.758 258.796C179.92 257.936 213.945 252.376 223.657 243.489C238.38 228.214 128.175 220.187 81.1931 232.666Z" fill="url(#paint0_linear_12_21)"/>
<path d="M76.1007 83.8953C77.0723 84.8968 77.987 86.0427 78.7857 87.2376C78.8753 87.3699 78.9388 87.5192 78.9723 87.6769C79.0059 87.8346 79.009 87.9976 78.9813 88.1565C78.9537 88.3155 78.8958 88.4672 78.8112 88.6029C78.7266 88.7387 78.6168 88.8558 78.4881 88.9475C78.3595 89.0392 78.2146 89.1037 78.0617 89.1374C77.9089 89.171 77.7511 89.173 77.5975 89.1433C77.4438 89.1137 77.2974 89.0529 77.1666 88.9645C77.0358 88.8761 76.9232 88.7619 76.8353 88.6284C75.1418 86.0718 72.9239 83.9322 70.3394 82.3617C67.7548 80.7912 64.8671 79.8284 61.8816 79.5418C58.8961 79.2552 55.8861 79.6518 53.0658 80.7035C50.2454 81.7551 47.684 83.436 45.5637 85.6264C44.6857 86.5497 43.888 87.5509 43.1797 88.6186C43.0934 88.7564 42.9811 88.8748 42.8497 88.9669C42.7182 89.059 42.5701 89.1228 42.4142 89.1546C42.2584 89.1864 42.098 89.1854 41.9425 89.1518C41.787 89.1183 41.6396 89.0527 41.5091 88.9591C41.3787 88.8655 41.2677 88.7458 41.1829 88.607C41.0981 88.4682 41.0412 88.3132 41.0156 88.1512C40.9899 87.9893 40.996 87.8236 41.0336 87.6641C41.0711 87.5047 41.1393 87.3546 41.2341 87.2229C42.054 85.9986 42.9593 84.8576 43.8906 83.8929C48.1623 79.4794 53.9559 77 59.9968 77C66.0378 77 71.8313 79.4794 76.1031 83.8929L76.1007 83.8953ZM70.8042 88.7263C71.9433 89.9192 72.897 91.287 73.6314 92.7811C73.7077 92.9247 73.7553 93.0827 73.7715 93.2456C73.7877 93.4086 73.772 93.5733 73.7254 93.7299C73.6789 93.8865 73.6024 94.0318 73.5005 94.1573C73.3986 94.2828 73.2733 94.3859 73.1321 94.4605C72.991 94.5351 72.8367 94.5796 72.6786 94.5915C72.5205 94.6033 72.3616 94.5823 72.2115 94.5296C72.0614 94.4769 71.923 94.3936 71.8047 94.2846C71.6863 94.1756 71.5902 94.0432 71.5223 93.8952C70.9003 92.629 70.0929 91.4694 69.1288 90.4574C67.6859 88.9661 65.9216 87.8494 63.9803 87.1986C62.0391 86.5479 59.9762 86.3818 57.9608 86.7139C55.9454 87.046 54.0349 87.8668 52.3858 89.1091C50.7368 90.3515 49.3961 91.9799 48.4738 93.8609C48.404 94.0053 48.3072 94.1339 48.1892 94.2395C48.0711 94.3451 47.9339 94.4255 47.7857 94.4762C47.6374 94.5268 47.4809 94.5467 47.3252 94.5346C47.1694 94.5225 47.0175 94.4787 46.8782 94.4058C46.7389 94.3329 46.615 94.2322 46.5134 94.1096C46.4119 93.987 46.3349 93.8448 46.2867 93.6914C46.2385 93.5379 46.2202 93.376 46.2328 93.2152C46.2453 93.0544 46.2886 92.8977 46.3599 92.7542C47.4516 90.5281 49.0382 88.601 50.9898 87.1309C52.9414 85.6607 55.2024 84.6893 57.5875 84.2963C59.9726 83.9033 62.4138 84.0998 64.7112 84.8699C67.0086 85.6399 69.0966 86.9615 70.8042 88.7263V88.7263ZM66.7519 94.8403C67.5932 95.7071 68.2852 96.7747 68.7662 97.9108C68.8878 98.2075 68.8914 98.5417 68.7761 98.841C68.6608 99.1404 68.436 99.3807 68.1504 99.5099C67.8647 99.6391 67.5413 99.6467 67.2503 99.5312C66.9592 99.4157 66.7239 99.1863 66.5955 98.8927C66.2319 98.0295 65.7178 97.2426 65.0788 96.5715C64.4114 95.8816 63.6189 95.3344 62.7467 94.961C61.8746 94.5876 60.9397 94.3955 59.9957 94.3955C59.0516 94.3955 58.1167 94.5876 57.2446 94.961C56.3724 95.3344 55.5799 95.8816 54.9125 96.5715C54.2799 97.2341 53.7728 98.0131 53.4171 98.8682C53.356 99.0174 53.2668 99.1525 53.1547 99.2658C53.0426 99.3791 52.9099 99.4683 52.7642 99.5282C52.6185 99.5881 52.4628 99.6175 52.306 99.6148C52.1492 99.612 51.9946 99.5772 51.8509 99.5122C51.7073 99.4472 51.5776 99.3535 51.4693 99.2363C51.361 99.1192 51.2762 98.981 51.22 98.8297C51.1638 98.6785 51.1372 98.5172 51.1417 98.3553C51.1462 98.1934 51.1818 98.034 51.2464 97.8863C51.7205 96.7517 52.3956 95.7187 53.237 94.8403C54.1245 93.9232 55.1782 93.1957 56.3379 92.6993C57.4975 92.2029 58.7404 91.9474 59.9957 91.9474C61.2509 91.9474 62.4938 92.2029 63.6535 92.6993C64.8131 93.1957 65.8668 93.9232 66.7543 94.8403H66.7519ZM62.1924 99.5734C62.4781 99.8686 62.7047 100.219 62.8594 100.605C63.014 100.99 63.0935 101.404 63.0935 101.821C63.0935 102.239 63.014 102.652 62.8594 103.038C62.7047 103.423 62.4781 103.774 62.1924 104.069C61.9068 104.364 61.5676 104.598 61.1943 104.758C60.8211 104.918 60.421 105 60.017 105C59.613 105 59.2129 104.918 58.8396 104.758C58.4664 104.598 58.1272 104.364 57.8415 104.069C57.2646 103.473 56.9404 102.664 56.9404 101.821C56.9404 100.978 57.2646 100.17 57.8415 99.5734C58.4185 98.9773 59.201 98.6423 60.017 98.6423C60.8329 98.6423 61.6155 98.9773 62.1924 99.5734V99.5734Z" fill="white"/>
<path d="M212.359 165.111L190.642 123.566L181.428 127.815L188.338 167.117L212.359 165.111Z" fill="#EEEEEE" stroke="#DBDBDB"/>
<path d="M182.855 174.081C182.855 174.317 179.345 176.953 177.7 177.858C178.138 178.141 178.394 179.628 178.467 180.336L181.319 179.51L182.855 176.441C182.928 175.3 183.03 173.231 182.855 174.081Z" fill="#3A325B" stroke="black"/>
<path d="M177.59 177.74C172.763 179.534 164.83 178.487 161.466 177.74C160.991 178.841 160.962 181.658 164.647 184.113C168.332 186.568 175.469 182.618 178.577 180.336C178.43 179.471 178.028 177.74 177.59 177.74Z" fill="#784F4B" stroke="black"/>
<path d="M183.293 192.611L183.841 183.641H178.467L162.234 189.425L183.293 192.611Z" fill="#445370" stroke="black"/>
<path d="M184.061 203.587H149.949L154.666 194.972L167.499 188.834H184.061V203.587Z" fill="#607296" stroke="#5F7396"/>
<path d="M25.5683 244.306C22.9359 241.379 24.4715 236.555 25.5683 234.51L26.1167 230.379L28.091 224.478L33.5752 222.235H49.8083L49.0406 226.838L32.9171 233.447H29.4072C28.2738 236.949 25.9193 244.022 25.5683 244.306Z" fill="#6B6B6B"/>
<path d="M25.5683 244.306C22.9359 241.379 24.4715 236.555 25.5683 234.51L26.1167 230.379L28.091 224.478L33.5752 222.235H49.8083L49.0406 226.838L32.9171 233.447H29.4072C28.2738 236.949 25.9193 244.022 25.5683 244.306Z" stroke="black"/>
<path d="M25.5683 244.306C22.9359 241.379 24.4715 236.555 25.5683 234.51L26.1167 230.379L28.091 224.478L33.5752 222.235H49.8083L49.0406 226.838L32.9171 233.447H29.4072C28.2738 236.949 25.9193 244.022 25.5683 244.306Z" stroke="black" stroke-opacity="0.2"/>
<ellipse rx="12.8958" ry="14.5689" transform="matrix(-1 0 0 1 56.0874 242.458)" fill="#C8C7CC"/>
<mask id="path-11-inside-1_12_21" fill="white">
<ellipse rx="17.0944" ry="17.88" transform="matrix(-1 0 0 1 56.0875 243.12)"/>
</mask>
<path d="M62.9931 243.12C62.9931 240.768 60.9063 237 56.0875 237V285C32.3868 285 14.9931 265.222 14.9931 243.12H62.9931ZM56.0875 237C51.2688 237 49.1819 240.768 49.1819 243.12H97.1819C97.1819 265.222 79.7882 285 56.0875 285V237ZM49.1819 243.12C49.1819 245.472 51.2688 249.24 56.0875 249.24V201.24C79.7882 201.24 97.1819 221.018 97.1819 243.12H49.1819ZM56.0875 249.24C60.9063 249.24 62.9931 245.472 62.9931 243.12H14.9931C14.9931 221.018 32.3868 201.24 56.0875 201.24V249.24Z" fill="black" mask="url(#path-11-inside-1_12_21)"/>
<ellipse rx="2.99901" ry="3.31111" transform="matrix(-1 0 0 1 55.7875 243.12)" fill="black"/>
<mask id="path-14-inside-2_12_21" fill="white">
<ellipse rx="8.09733" ry="8.60889" transform="matrix(-1 0 0 1 55.4876 243.12)"/>
</mask>
<path d="M56.3903 243.12C56.3903 243.19 56.4114 243.141 56.3177 243.041C56.2694 242.99 56.1777 242.912 56.0269 242.844C55.868 242.773 55.6778 242.729 55.4876 242.729V260.729C45.5336 260.729 38.3903 252.318 38.3903 243.12H56.3903ZM55.4876 242.729C55.2975 242.729 55.1072 242.773 54.9483 242.844C54.7976 242.912 54.7058 242.99 54.6576 243.041C54.5638 243.141 54.585 243.19 54.585 243.12H72.585C72.585 252.318 65.4417 260.729 55.4876 260.729V242.729ZM54.585 243.12C54.585 243.05 54.5638 243.099 54.6576 243.199C54.7058 243.25 54.7976 243.328 54.9483 243.396C55.1072 243.467 55.2975 243.511 55.4876 243.511V225.511C65.4417 225.511 72.585 233.922 72.585 243.12H54.585ZM55.4876 243.511C55.6778 243.511 55.868 243.467 56.0269 243.396C56.1777 243.328 56.2694 243.25 56.3177 243.199C56.4114 243.099 56.3903 243.05 56.3903 243.12H38.3903C38.3903 233.922 45.5336 225.511 55.4876 225.511V243.511Z" fill="#595555" mask="url(#path-14-inside-2_12_21)"/>
<ellipse rx="12.296" ry="13.9067" transform="matrix(-1 0 0 1 226.431 242.458)" fill="#C8C7CC"/>
<mask id="path-17-inside-3_12_21" fill="white">
<ellipse rx="16.1947" ry="16.8867" transform="matrix(-1 0 0 1 226.731 243.451)"/>
</mask>
<path d="M234.537 243.451C234.537 240.479 231.979 236.338 226.731 236.338V284.338C203.596 284.338 186.537 265.076 186.537 243.451H234.537ZM226.731 236.338C221.484 236.338 218.926 240.479 218.926 243.451H266.926C266.926 265.076 249.867 284.338 226.731 284.338V236.338ZM218.926 243.451C218.926 246.423 221.484 250.564 226.731 250.564V202.564C249.867 202.564 266.926 221.826 266.926 243.451H218.926ZM226.731 250.564C231.979 250.564 234.537 246.423 234.537 243.451H186.537C186.537 221.826 203.596 202.564 226.731 202.564V250.564Z" fill="black" mask="url(#path-17-inside-3_12_21)"/>
<ellipse rx="2.99901" ry="3.31111" transform="matrix(-1 0 0 1 226.131 243.782)" fill="black"/>
<mask id="path-20-inside-4_12_21" fill="white">
<ellipse rx="7.79743" ry="8.27778" transform="matrix(-1 0 0 1 226.132 243.451)"/>
</mask>
<path d="M227.334 243.451C227.334 243.425 227.319 243.292 227.169 243.133C227.011 242.965 226.644 242.729 226.132 242.729V260.729C216.355 260.729 209.334 252.479 209.334 243.451H227.334ZM226.132 242.729C225.619 242.729 225.252 242.965 225.094 243.133C224.944 243.292 224.929 243.425 224.929 243.451H242.929C242.929 252.479 235.908 260.729 226.132 260.729V242.729ZM224.929 243.451C224.929 243.477 224.944 243.61 225.094 243.769C225.252 243.937 225.619 244.173 226.132 244.173V226.173C235.908 226.173 242.929 234.423 242.929 243.451H224.929ZM226.132 244.173C226.644 244.173 227.011 243.937 227.169 243.769C227.319 243.61 227.334 243.477 227.334 243.451H209.334C209.334 234.423 216.355 226.173 226.132 226.173V244.173Z" fill="white" mask="url(#path-20-inside-4_12_21)"/>
<path d="M186.591 121.206H181.216L179.352 125.101L178.694 128.641L182.752 168.18L184.068 176.323H219.276V174.671L212.147 164.993H200.959H190.649L188.346 149.296L184.946 134.543L185.713 125.101L186.591 121.206Z" fill="#FECF0F"/>
<path d="M186.591 121.206H181.216L179.352 125.101L178.694 128.641L182.752 168.18L184.068 176.323H219.276V174.671L212.147 164.993H200.959H190.649L188.346 149.296L184.946 134.543L185.713 125.101L186.591 121.206Z" stroke="black"/>
<path d="M186.591 121.206H181.216L179.352 125.101L178.694 128.641L182.752 168.18L184.068 176.323H219.276V174.671L212.147 164.993H200.959H190.649L188.346 149.296L184.946 134.543L185.713 125.101L186.591 121.206Z" stroke="black" stroke-opacity="0.2"/>
<path d="M105.637 232.515L105.199 206.903L84.7974 205.605V209.264C84.6877 211.034 84.5341 214.693 84.7974 215.165C85.0606 215.637 85.4189 225.197 85.5652 229.918L93.9011 236.056L110.573 238.062L120.664 236.882L121.212 233.105L105.637 232.515Z" fill="#AB6D22"/>
<path d="M105.637 232.515L105.199 206.903L84.7974 205.605V209.264C84.6877 211.034 84.5341 214.693 84.7974 215.165C85.0606 215.637 85.4189 225.197 85.5652 229.918L93.9011 236.056L110.573 238.062L120.664 236.882L121.212 233.105L105.637 232.515Z" stroke="black"/>
<path d="M105.637 232.515L105.199 206.903L84.7974 205.605V209.264C84.6877 211.034 84.5341 214.693 84.7974 215.165C85.0606 215.637 85.4189 225.197 85.5652 229.918L93.9011 236.056L110.573 238.062L120.664 236.882L121.212 233.105L105.637 232.515Z" stroke="black" stroke-opacity="0.2"/>
<path d="M104.974 142.332L178.496 141.506H180.01L179.242 131.12L175.995 126.753L128.14 123.33L89.8557 123.92L64.6229 139.381L65.9281 200.636L89.3118 208.78H93.7711L92.7922 181.398C92.7197 175.812 92.7922 162.349 93.6623 153.19C94.5324 144.032 101.566 142.135 104.974 142.332Z" fill="#232939"/>
<path d="M104.974 142.332L178.496 141.506H180.01L179.242 131.12L175.995 126.753L128.14 123.33L89.8557 123.92L64.6229 139.381L65.9281 200.636L89.3118 208.78H93.7711L92.7922 181.398C92.7197 175.812 92.7922 162.349 93.6623 153.19C94.5324 144.032 101.566 142.135 104.974 142.332Z" stroke="black"/>
<path d="M104.974 142.332L178.496 141.506H180.01L179.242 131.12L175.995 126.753L128.14 123.33L89.8557 123.92L64.6229 139.381L65.9281 200.636L89.3118 208.78H93.7711L92.7922 181.398C92.7197 175.812 92.7922 162.349 93.6623 153.19C94.5324 144.032 101.566 142.135 104.974 142.332Z" stroke="black" stroke-opacity="0.2"/>
<path d="M140.626 192.859L128.013 193.567L124.942 200.294L131.632 237.472L135.91 238.416L140.736 238.652L144.465 235.938L143.807 217.88L141.723 208.674L140.188 206.904H131.084L131.523 205.605L132.619 204.543L133.716 203.953H141.942V203.245L142.71 198.524L140.626 194.983V192.859Z" fill="#D1A345"/>
<path d="M140.626 192.859L128.013 193.567L124.942 200.294L131.632 237.472L135.91 238.416L140.736 238.652L144.465 235.938L143.807 217.88L141.723 208.674L140.188 206.904H131.084L131.523 205.605L132.619 204.543L133.716 203.953H141.942V203.245L142.71 198.524L140.626 194.983V192.859Z" stroke="black"/>
<path d="M140.626 192.859L128.013 193.567L124.942 200.294L131.632 237.472L135.91 238.416L140.736 238.652L144.465 235.938L143.807 217.88L141.723 208.674L140.188 206.904H131.084L131.523 205.605L132.619 204.543L133.716 203.953H141.942V203.245L142.71 198.524L140.626 194.983V192.859Z" stroke="black" stroke-opacity="0.2"/>
<path d="M192.068 124.994C192.068 126.505 190.02 127.04 188.997 127.119L193.603 160.638L213.346 160.166C213.858 160.323 214.948 161.063 215.211 162.762C215.474 164.462 214.078 165.674 213.346 166.067C207.716 166.421 195.556 167.082 191.958 166.893C187.461 166.657 187.242 158.041 187.022 157.687C186.803 157.333 183.513 128.181 183.184 125.939C182.92 124.145 184.39 122.516 185.158 121.926C185.743 121.493 187.417 120.651 189.435 120.746C191.958 120.864 192.068 123.106 192.068 124.994Z" fill="#707070" stroke="black" stroke-opacity="0.32"/>
<path d="M188.229 124.168H189.764C190.203 124.168 190.313 124.994 190.093 125.23C189.874 125.466 187.571 126.135 187.461 126.528L192.945 162.054C198.831 161.818 210.845 161.346 211.811 161.346C212.425 161.912 212.066 162.683 211.811 162.998C206.948 163.195 196.652 163.588 194.371 163.588C192.353 163.872 191.336 162.683 191.08 162.054C189.399 150.251 186.057 126.481 186.145 125.82C186.232 125.159 187.57 124.443 188.229 124.168Z" fill="white" stroke="black" stroke-opacity="0.48"/>
<path d="M182.964 175.627H220.366C220.629 176.099 220.476 177.004 220.366 177.397L182.964 177.279V175.627Z" fill="#C4C4C4" stroke="black"/>
<path d="M220.256 193.448V177.397H182.854L182.416 246.914H194.371C199.965 245.733 203.804 238.77 205.34 235.229C206.568 232.397 209.654 222.876 211.043 218.47L220.256 193.448Z" fill="#FECF0F" stroke="black" stroke-opacity="0.33"/>
<path d="M85.0167 112.365L180.88 121.099L181.099 121.217L180.441 122.28L179.564 123.932L178.686 126.056L178.357 127.591V129.361H178.028C157.152 128.968 111.428 128.181 95.5463 128.181C82.2746 128.181 80.2637 145.924 81.0681 156.861V183.062L26.1167 179.286C26.5554 173.935 27.6084 160.189 28.3104 148.009C29.0123 135.829 34.672 128.299 37.4141 126.056C39.7906 123.814 45.9036 118.456 51.3439 114.962C56.7842 111.469 76.0592 111.775 85.0167 112.365Z" fill="#797C8F" stroke="#797A8E"/>
<path d="M220.476 196.635H219.16L211.591 216.817H216.418V213.631H223.657L220.476 196.635Z" fill="black" stroke="black"/>
<path d="M214.333 222.955L211.262 217.998L209.727 222.246L211.92 225.197L214.333 222.955Z" fill="black" stroke="black"/>
<path d="M204.791 244.436L206.326 239.479C206.985 239.518 208.389 239.573 208.74 239.479C207.95 240.045 206.509 245.773 205.888 248.566C205.924 249.707 205.844 251.729 205.23 250.691C204.615 249.652 204.681 246.088 204.791 244.436Z" fill="black" stroke="black"/>
<rect x="-0.5" y="0.5" width="15.7945" height="6.28444" rx="3.14222" transform="matrix(-1 0 0 1 212.536 179.547)" fill="#7A7767" stroke="black"/>
<rect x="-0.5" y="0.5" width="12.1957" height="4.96" rx="2.48" transform="matrix(-1 0 0 1 211.336 180.209)" fill="#FF8134" stroke="black"/>
<path d="M210.495 181.634L209.507 181.162H208.411H207.423C208.301 181.202 210.144 181.516 210.495 182.461C210.84 183.389 210.86 183.937 210.825 184.105C210.825 184.107 210.824 184.11 210.824 184.113C210.824 184.11 210.825 184.108 210.825 184.105C210.971 183.432 211.106 182.011 210.495 181.634Z" fill="white"/>
<path d="M26.1165 179.404L25.3487 180.348L17.9999 231.689L18.658 233.695C22.1679 234.915 29.6922 235.56 31.7104 228.384C33.2898 225.835 40.5582 225.669 43.9949 225.905C47.9069 225.866 55.3362 226.071 57.2666 228.148C59.6796 230.744 60.1184 234.993 63.4089 238.062C67.3892 241.774 73.3901 239.714 73.2804 239.832C73.3554 239.025 73.3868 237.849 73.3007 236.528L130.754 241.721H133.058V236.528H137.335V235.937V209.382H128.89L128.122 193.449L126.038 193.094V181.528C125.855 181.253 125.27 180.702 124.393 180.702C123.515 180.702 123.223 181.253 123.186 181.528C123.552 192.583 123.91 216.487 123.735 224.135C123.559 231.783 120.079 235.19 118.36 235.937C113.351 236.095 102.324 236.315 98.2881 235.937C94.2518 235.56 91.634 232.947 90.8297 231.689C90.2813 220.043 89.0309 195.502 88.4166 190.498C87.8024 185.494 84.2852 183.534 82.6034 183.18C64.2863 181.921 27.3449 179.404 26.1165 179.404Z" fill="#FECF0F"/>
<path d="M18.658 233.695L17.9999 231.689L25.3487 180.348L26.1165 179.404C27.3449 179.404 64.2863 181.921 82.6034 183.18C84.2852 183.534 87.8024 185.494 88.4166 190.498C89.0309 195.502 90.2813 220.043 90.8297 231.689C91.634 232.947 94.2518 235.56 98.2881 235.937C102.324 236.315 113.351 236.095 118.36 235.937C120.079 235.19 123.559 231.783 123.735 224.135C123.91 216.487 123.552 192.583 123.186 181.528C123.223 181.253 123.515 180.702 124.393 180.702C125.27 180.702 125.855 181.253 126.038 181.528V193.094L128.122 193.449L128.89 209.382H137.335V235.937V236.528H133.058V241.721H130.754L73.3007 236.528M18.658 233.695C22.1679 234.915 29.6922 235.56 31.7104 228.384C33.2898 225.835 40.5582 225.669 43.9949 225.905C47.9069 225.866 55.3362 226.071 57.2666 228.148C59.6796 230.744 60.1184 234.993 63.4089 238.062C67.3892 241.774 73.3901 239.714 73.2804 239.832C73.3554 239.025 73.3868 237.849 73.3007 236.528M18.658 233.695C18.8774 232.711 20.1716 229.186 23.5937 222.955C27.5423 216.912 33.8674 214.85 36.5364 214.575C39.5344 214.378 47.3731 214.339 54.7438 215.755C63.9572 217.526 68.0156 224.961 70.977 228.856C72.5355 230.906 73.1352 233.987 73.3007 236.528" stroke="#A39595"/>
<path d="M18.658 233.695L17.9999 231.689L25.3487 180.348L26.1165 179.404C27.3449 179.404 64.2863 181.921 82.6034 183.18C84.2852 183.534 87.8024 185.494 88.4166 190.498C89.0309 195.502 90.2813 220.043 90.8297 231.689C91.634 232.947 94.2518 235.56 98.2881 235.937C102.324 236.315 113.351 236.095 118.36 235.937C120.079 235.19 123.559 231.783 123.735 224.135C123.91 216.487 123.552 192.583 123.186 181.528C123.223 181.253 123.515 180.702 124.393 180.702C125.27 180.702 125.855 181.253 126.038 181.528V193.094L128.122 193.449L128.89 209.382H137.335V235.937V236.528H133.058V241.721H130.754L73.3007 236.528M18.658 233.695C22.1679 234.915 29.6922 235.56 31.7104 228.384C33.2898 225.835 40.5582 225.669 43.9949 225.905C47.9069 225.866 55.3362 226.071 57.2666 228.148C59.6796 230.744 60.1184 234.993 63.4089 238.062C67.3892 241.774 73.3901 239.714 73.2804 239.832C73.3554 239.025 73.3868 237.849 73.3007 236.528M18.658 233.695C18.8774 232.711 20.1716 229.186 23.5937 222.955C27.5423 216.912 33.8674 214.85 36.5364 214.575C39.5344 214.378 47.3731 214.339 54.7438 215.755C63.9572 217.526 68.0156 224.961 70.977 228.856C72.5355 230.906 73.1352 233.987 73.3007 236.528" stroke="black" stroke-opacity="0.2"/>
<path d="M77.1195 238.888H73.7194H64.1769H61.9832V248.212H77.3389L77.8873 247.268H80.3004L84.1393 242.665V239.714H77.8873L77.1195 238.888Z" fill="#30324B"/>
<path d="M77.1195 238.888H73.7194H64.1769H61.9832V248.212H77.3389L77.8873 247.268H80.3004L84.1393 242.665V239.714H77.8873L77.1195 238.888Z" stroke="black"/>
<path d="M77.1195 238.888H73.7194H64.1769H61.9832V248.212H77.3389L77.8873 247.268H80.3004L84.1393 242.665V239.714H77.8873L77.1195 238.888Z" stroke="black" stroke-opacity="0.2"/>
<path d="M77.8873 247.268V239.714H84.1393V242.665L80.1907 247.268H77.8873Z" fill="#FECF0F"/>
<path d="M77.8873 247.268V239.714H84.1393V242.665L80.1907 247.268H77.8873Z" stroke="black"/>
<path d="M77.8873 247.268V239.714H84.1393V242.665L80.1907 247.268H77.8873Z" stroke="black" stroke-opacity="0.2"/>
<path d="M114.631 240.304H84.1388V241.603H130.096L114.631 240.304Z" fill="black"/>
<path d="M114.631 240.304H84.1388V241.603H130.096L114.631 240.304Z" stroke="black"/>
<path d="M114.631 240.304H84.1388V241.603H130.096L114.631 240.304Z" stroke="black" stroke-opacity="0.2"/>
<path d="M181.428 240.069V235.348L133.167 237V241.367L181.428 240.069Z" fill="#FECF0F"/>
<path d="M181.428 240.069V235.348L133.167 237V241.367L181.428 240.069Z" stroke="black" stroke-opacity="0.15"/>
<path d="M181.428 240.069V235.348L133.167 237V241.367L181.428 240.069Z" stroke="black" stroke-opacity="0.2"/>
<path d="M140.736 217.997V234.639H143.807L142.271 238.534H181.099H182.196V231.216H164.098V208.792H140.736C139.968 209.972 138.893 213.111 140.736 216.227C142.578 217.643 144.575 217.997 145.342 217.997H140.736Z" fill="#343434"/>
<path d="M161.904 234.639L164.098 231.216M161.904 234.639H143.807M161.904 234.639V217.997H160.917M164.098 231.216H182.196V238.534H181.099H142.271L143.807 234.639M164.098 231.216V208.792H140.736C139.968 209.972 138.893 213.111 140.736 216.227C142.578 217.643 144.575 217.997 145.342 217.997M143.807 234.639H140.736V217.997H145.342M145.342 217.997H157.846M157.846 217.997L160.917 216.227V217.997M157.846 217.997H160.917" stroke="black"/>
<path d="M161.904 234.639L164.098 231.216M161.904 234.639H143.807M161.904 234.639V217.997H160.917M164.098 231.216H182.196V238.534H181.099H142.271L143.807 234.639M164.098 231.216V208.792H140.736C139.968 209.972 138.893 213.111 140.736 216.227C142.578 217.643 144.575 217.997 145.342 217.997M143.807 234.639H140.736V217.997H145.342M145.342 217.997H157.846M157.846 217.997L160.917 216.227V217.997M157.846 217.997H160.917" stroke="black" stroke-opacity="0.2"/>
<path d="M170.131 205.251C169.341 203.929 168.193 203.835 167.718 203.953H133.716C133.277 203.953 132.202 204.354 131.413 205.959C130.623 207.564 132.107 208.28 132.948 208.438H168.486C169.363 207.926 170.921 206.573 170.131 205.251Z" fill="#4A5267"/>
<path d="M170.131 205.251C169.341 203.929 168.193 203.835 167.718 203.953H133.716C133.277 203.953 132.202 204.354 131.413 205.959C130.623 207.564 132.107 208.28 132.948 208.438H168.486C169.363 207.926 170.921 206.573 170.131 205.251Z" stroke="black"/>
<path d="M170.131 205.251C169.341 203.929 168.193 203.835 167.718 203.953H133.716C133.277 203.953 132.202 204.354 131.413 205.959C130.623 207.564 132.107 208.28 132.948 208.438H168.486C169.363 207.926 170.921 206.573 170.131 205.251Z" stroke="black" stroke-opacity="0.2"/>
<path d="M123.406 169.961L123.516 180.702H124.064H124.941L125.599 180.938L125.49 169.961L124.941 169.017V128.535H123.845V169.017L123.406 169.961Z" fill="#5A5B60" stroke="#5A5B60"/>
<path d="M133.716 183.771L125.928 183.299V184.361L134.264 184.951L133.716 183.771Z" fill="#FECF0F"/>
<path d="M133.716 183.771L125.928 183.299V184.361L134.264 184.951L133.716 183.771Z" stroke="black" stroke-opacity="0.38"/>
<path d="M133.716 183.771L125.928 183.299V184.361L134.264 184.951L133.716 183.771Z" stroke="black" stroke-opacity="0.2"/>
<path d="M132.4 171.142C133.277 170.764 133.936 171.771 134.155 172.322C135.617 177.436 138.608 188.043 138.871 189.554C138.52 191.253 136.751 191.049 135.91 190.734C134.338 185.226 131.15 174.045 130.974 173.384C130.799 172.723 131.047 172.086 131.193 171.85C131.23 171.771 131.523 171.519 132.4 171.142Z" fill="#40364B"/>
<path d="M132.4 171.142C133.277 170.764 133.936 171.771 134.155 172.322C135.617 177.436 138.608 188.043 138.871 189.554C138.52 191.253 136.751 191.049 135.91 190.734C134.338 185.226 131.15 174.045 130.974 173.384C130.799 172.723 131.047 172.086 131.193 171.85C131.23 171.771 131.523 171.519 132.4 171.142Z" stroke="black"/>
<path d="M132.4 171.142C133.277 170.764 133.936 171.771 134.155 172.322C135.617 177.436 138.608 188.043 138.871 189.554C138.52 191.253 136.751 191.049 135.91 190.734C134.338 185.226 131.15 174.045 130.974 173.384C130.799 172.723 131.047 172.086 131.193 171.85C131.23 171.771 131.523 171.519 132.4 171.142Z" stroke="black" stroke-opacity="0.2"/>
<path d="M184.061 159.811V157.805L183.293 157.687V159.811C183.644 160.85 183.951 160.244 184.061 159.811Z" fill="#707070"/>
<path d="M184.061 159.811V157.805L183.293 157.687V159.811C183.644 160.85 183.951 160.244 184.061 159.811Z" stroke="black"/>
<path d="M184.061 159.811V157.805L183.293 157.687V159.811C183.644 160.85 183.951 160.244 184.061 159.811Z" stroke="black" stroke-opacity="0.2"/>
<path d="M182.846 160.342C182.846 160.845 183.205 161.167 183.546 161.167C183.886 161.167 184.245 160.845 184.245 160.342C184.245 159.839 183.886 159.518 183.546 159.518C183.205 159.518 182.846 159.839 182.846 160.342Z" fill="#12131C" stroke="#12131C"/>
<path d="M89.4117 202.879H107.037C107.657 202.879 108.701 203.278 109.664 204.876C110.627 206.474 109.555 208.205 108.131 209.234L89.4117 209.961V202.879Z" fill="black"/>
<path d="M89.4117 202.879H107.037C107.657 202.879 108.701 203.278 109.664 204.876C110.627 206.474 109.555 208.205 108.131 209.234L89.4117 209.961V202.879Z" stroke="black"/>
<path d="M89.4117 202.879H107.037C107.657 202.879 108.701 203.278 109.664 204.876C110.627 206.474 109.555 208.205 108.131 209.234L89.4117 209.961V202.879Z" stroke="black" stroke-opacity="0.2"/>
<path d="M220.366 175.509L213.566 166.185H213.236L218.282 174.683L183.841 174.919C182.415 160.913 179.52 132.288 179.344 129.833C179.169 127.378 179.637 125.742 179.893 125.23L181.757 121.572L185.158 121.808L187.022 120.982L181.319 120.627C180.843 121.572 179.717 123.814 179.015 125.23C178.313 126.647 178.284 128.889 178.357 129.833L180.99 156.271L182.854 174.683V177.397H220.366C220.629 176.736 220.476 175.863 220.366 175.509Z" fill="#7A7767" stroke="black" stroke-opacity="0.35"/>
<path d="M179.234 153.91L178.247 145.884C179.454 145.412 180.66 146.593 181.867 147.655C183.046 148.693 185.267 153.91 184.719 157.687C182.525 158.065 180.148 155.326 179.234 153.91Z" fill="#232939"/>
<path d="M179.234 153.91L178.247 145.884C179.454 145.412 180.66 146.593 181.867 147.655C183.046 148.693 185.267 153.91 184.719 157.687C182.525 158.065 180.148 155.326 179.234 153.91Z" stroke="black"/>
<path d="M179.234 153.91L178.247 145.884C179.454 145.412 180.66 146.593 181.867 147.655C183.046 148.693 185.267 153.91 184.719 157.687C182.525 158.065 180.148 155.326 179.234 153.91Z" stroke="black" stroke-opacity="0.2"/>
<path d="M217.843 221.763C210.473 224.407 207.094 234.588 206.326 239.349C207.131 239.427 208.783 239.585 208.959 239.585C216.483 232.779 220.864 232.039 226.412 231.103L226.508 231.087C232.102 230.143 243.838 235.1 244.825 235.336C245.615 235.525 245.812 234.942 245.812 234.628C245.739 233.841 244.628 231.016 240.767 226.012C235.941 219.756 227.057 218.458 217.843 221.763Z" fill="#FECF0F"/>
<path d="M217.843 221.763C210.473 224.407 207.094 234.588 206.326 239.349C207.131 239.427 208.783 239.585 208.959 239.585C216.483 232.779 220.864 232.039 226.412 231.103L226.508 231.087C232.102 230.143 243.838 235.1 244.825 235.336C245.615 235.525 245.812 234.942 245.812 234.628C245.739 233.841 244.628 231.016 240.767 226.012C235.941 219.756 227.057 218.458 217.843 221.763Z" stroke="black" stroke-opacity="0.35"/>
<path d="M217.843 221.763C210.473 224.407 207.094 234.588 206.326 239.349C207.131 239.427 208.783 239.585 208.959 239.585C216.483 232.779 220.864 232.039 226.412 231.103L226.508 231.087C232.102 230.143 243.838 235.1 244.825 235.336C245.615 235.525 245.812 234.942 245.812 234.628C245.739 233.841 244.628 231.016 240.767 226.012C235.941 219.756 227.057 218.458 217.843 221.763Z" stroke="black" stroke-opacity="0.2"/>
<ellipse rx="12.8958" ry="14.5689" transform="matrix(-1 0 0 1 47.0903 242.458)" fill="black"/>
<mask id="path-56-inside-5_12_21" fill="white">
<ellipse rx="17.0944" ry="17.88" transform="matrix(-1 0 0 1 47.0904 243.12)"/>
</mask>
<path d="M53.9961 243.12C53.9961 240.768 51.9092 237 47.0904 237V285C23.3898 285 5.99607 265.222 5.99607 243.12H53.9961ZM47.0904 237C42.2717 237 40.1848 240.768 40.1848 243.12H88.1848C88.1848 265.222 70.7911 285 47.0904 285V237ZM40.1848 243.12C40.1848 245.472 42.2717 249.24 47.0904 249.24V201.24C70.7911 201.24 88.1848 221.018 88.1848 243.12H40.1848ZM47.0904 249.24C51.9092 249.24 53.9961 245.472 53.9961 243.12H5.99607C5.99607 221.018 23.3898 201.24 47.0904 201.24V249.24Z" fill="black" mask="url(#path-56-inside-5_12_21)"/>
<mask id="path-58-inside-6_12_21" fill="white">
<ellipse rx="7.79743" ry="8.27778" transform="matrix(-1 0 0 1 47.3902 243.451)"/>
</mask>
<path d="M48.5928 243.451C48.5928 243.425 48.5773 243.292 48.4278 243.133C48.2694 242.965 47.9024 242.729 47.3902 242.729V260.729C37.6139 260.729 30.5928 252.479 30.5928 243.451H48.5928ZM47.3902 242.729C46.878 242.729 46.5109 242.965 46.3526 243.133C46.203 243.292 46.1876 243.425 46.1876 243.451H64.1876C64.1876 252.479 57.1665 260.729 47.3902 260.729V242.729ZM46.1876 243.451C46.1876 243.477 46.203 243.61 46.3526 243.769C46.5109 243.937 46.878 244.173 47.3902 244.173V226.173C57.1665 226.173 64.1876 234.423 64.1876 243.451H46.1876ZM47.3902 244.173C47.9024 244.173 48.2694 243.937 48.4278 243.769C48.5773 243.61 48.5928 243.477 48.5928 243.451H30.5928C30.5928 234.423 37.6139 226.173 47.3902 226.173V244.173Z" fill="white" mask="url(#path-58-inside-6_12_21)"/>
<path d="M19.9742 202.171H22.3872L21.4001 209.96C20.5957 209.96 18.987 209.701 18.987 208.662C18.5483 207.623 19.4623 203.902 19.9742 202.171Z" fill="#F12C3E"/>
<path d="M19.9742 202.171H22.3872L21.4001 209.96C20.5957 209.96 18.987 209.701 18.987 208.662C18.5483 207.623 19.4623 203.902 19.9742 202.171Z" stroke="black"/>
<path d="M19.9742 202.171H22.3872L21.4001 209.96C20.5957 209.96 18.987 209.701 18.987 208.662C18.5483 207.623 19.4623 203.902 19.9742 202.171Z" stroke="black" stroke-opacity="0.2"/>
<path d="M157.956 141.152C158.132 138.509 157.079 136.982 156.53 136.549C156.64 135.841 155.982 134.071 155.762 133.717C153.349 130.294 146.878 131.356 146.001 131.828C140.078 133.953 141.394 138.792 141.613 141.742C141.789 144.103 144.173 146.896 145.342 147.998L144.026 151.893L151.375 156.495V154.607L151.704 150.594C151.997 150.673 152.604 150.83 152.691 150.83C157.079 152.719 158.322 150.28 158.395 148.824V145.047C158.746 145.047 159.638 144.339 160.04 143.985C159.345 143.198 157.956 141.53 157.956 141.152Z" fill="#8E5E5A"/>
<path d="M157.956 141.152C158.132 138.509 157.079 136.982 156.53 136.549C156.64 135.841 155.982 134.071 155.762 133.717C153.349 130.294 146.878 131.356 146.001 131.828C140.078 133.953 141.394 138.792 141.613 141.742C141.789 144.103 144.173 146.896 145.342 147.998L144.026 151.893L151.375 156.495V154.607L151.704 150.594C151.997 150.673 152.604 150.83 152.691 150.83C157.079 152.719 158.322 150.28 158.395 148.824V145.047C158.746 145.047 159.638 144.339 160.04 143.985C159.345 143.198 157.956 141.53 157.956 141.152Z" stroke="#8E5E5A"/>
<path d="M157.956 141.152C158.132 138.509 157.079 136.982 156.53 136.549C156.64 135.841 155.982 134.071 155.762 133.717C153.349 130.294 146.878 131.356 146.001 131.828C140.078 133.953 141.394 138.792 141.613 141.742C141.789 144.103 144.173 146.896 145.342 147.998L144.026 151.893L151.375 156.495V154.607L151.704 150.594C151.997 150.673 152.604 150.83 152.691 150.83C157.079 152.719 158.322 150.28 158.395 148.824V145.047C158.746 145.047 159.638 144.339 160.04 143.985C159.345 143.198 157.956 141.53 157.956 141.152Z" stroke="#8E5E5A"/>
<path d="M152.691 139.618L152.362 137.139L156.53 136.549C156.53 136.156 156.508 135.251 156.421 134.779C155.762 131.592 151.046 130.884 149.181 131.12C142.052 131.356 140.846 134.897 140.955 140.208C141.043 144.457 143.917 147.171 145.343 147.998L148.852 144.811C148.194 144.732 147.076 144.174 147.865 142.568C148.655 140.963 149.73 142.372 150.169 143.277L152.691 139.618Z" fill="black"/>
<path d="M152.691 139.618L152.362 137.139L156.53 136.549C156.53 136.156 156.508 135.251 156.421 134.779C155.762 131.592 151.046 130.884 149.181 131.12C142.052 131.356 140.846 134.897 140.955 140.208C141.043 144.457 143.917 147.171 145.343 147.998L148.852 144.811C148.194 144.732 147.076 144.174 147.865 142.568C148.655 140.963 149.73 142.372 150.169 143.277L152.691 139.618Z" stroke="black"/>
<path d="M152.691 139.618L152.362 137.139L156.53 136.549C156.53 136.156 156.508 135.251 156.421 134.779C155.762 131.592 151.046 130.884 149.181 131.12C142.052 131.356 140.846 134.897 140.955 140.208C141.043 144.457 143.917 147.171 145.343 147.998L148.852 144.811C148.194 144.732 147.076 144.174 147.865 142.568C148.655 140.963 149.73 142.372 150.169 143.277L152.691 139.618Z" stroke="black" stroke-opacity="0.2"/>
<path d="M143.039 153.899L144.136 150.594C146.586 152.128 151.88 155.386 153.459 156.141C155.039 156.897 154.775 159.288 154.446 160.39L143.039 153.899Z" fill="#177486"/>
<path d="M143.039 153.899L144.136 150.594C146.586 152.128 151.88 155.386 153.459 156.141C155.039 156.897 154.775 159.288 154.446 160.39L143.039 153.899Z" stroke="black" stroke-opacity="0.47"/>
<path d="M143.039 153.899L144.136 150.594C146.586 152.128 151.88 155.386 153.459 156.141C155.039 156.897 154.775 159.288 154.446 160.39L143.039 153.899Z" stroke="black" stroke-opacity="0.2"/>
<path d="M156.969 164.875L154.447 160.39C150.717 158.187 143.171 153.78 142.82 153.78C141.943 154.016 136.788 163.222 135.142 165.937C133.826 168.108 133.936 171.169 134.155 172.428L140.626 192.492L139.31 194.145L141.285 198.866L140.626 204.413C143.515 205.554 149.577 207.057 150.717 203.941C151.858 200.825 158.066 195.01 161.028 192.492L163.55 187.299C163.916 186.355 164.647 184.372 164.647 183.995C164.647 181.752 162.673 178.92 161.028 177.385C159.097 176.819 157.518 168.809 156.969 164.875Z" fill="#F1F1F2" stroke="#525252"/>
<path d="M147.865 188.48L155.433 180.219C156.676 180.376 159.053 181.092 158.614 182.697C158.175 184.302 153.971 189.582 151.923 192.021L147.865 188.48Z" fill="#177486"/>
<path d="M147.865 188.48L155.433 180.219C156.676 180.376 159.053 181.092 158.614 182.697C158.175 184.302 153.971 189.582 151.923 192.021L147.865 188.48Z" stroke="black"/>
<path d="M147.865 188.48L155.433 180.219C156.676 180.376 159.053 181.092 158.614 182.697C158.175 184.302 153.971 189.582 151.923 192.021L147.865 188.48Z" stroke="black" stroke-opacity="0.2"/>
<path d="M175.286 182.933C170.285 185.01 161.941 184.035 158.395 183.287L152.253 191.431C152.107 191.431 152.077 191.525 153.13 191.903C154.446 192.375 156.64 192.139 160.04 192.493C162.76 192.776 171.557 188.362 175.615 186.12C175.652 184.979 175.637 182.744 175.286 182.933Z" fill="#8E5E5A"/>
<path d="M175.286 182.933C170.285 185.01 161.941 184.035 158.395 183.287L152.253 191.431C152.107 191.431 152.077 191.525 153.13 191.903C154.446 192.375 156.64 192.139 160.04 192.493C162.76 192.776 171.557 188.362 175.615 186.12C175.652 184.979 175.637 182.744 175.286 182.933Z" stroke="black"/>
<path d="M175.286 182.933C170.285 185.01 161.941 184.035 158.395 183.287L152.253 191.431C152.107 191.431 152.077 191.525 153.13 191.903C154.446 192.375 156.64 192.139 160.04 192.493C162.76 192.776 171.557 188.362 175.615 186.12C175.652 184.979 175.637 182.744 175.286 182.933Z" stroke="black" stroke-opacity="0.2"/>
<path d="M180.331 179.51C179.191 181.021 176.566 182.5 175.396 183.051L175.725 185.883C176.273 185.647 177.699 185.152 179.015 185.057C180.331 184.963 182.196 183.13 182.964 182.225V176.56L182.635 176.323C182.342 176.756 181.472 177.999 180.331 179.51Z" fill="#3A325B" stroke="black"/>
<path d="M154.556 181.281C152.691 177.504 149.203 169.525 150.168 167.826" stroke="black" stroke-opacity="0.22"/>
<path d="M84.8588 188.74L24.9098 184.349L24.5808 186.592L84.7338 190.861L84.8588 188.74Z" fill="#EDB90E"/>
<path d="M85.0168 197.559L23.6139 193.131L23.295 195.446L84.8919 199.679L85.0168 197.559Z" fill="#EDB90E"/>
<path d="M84.7972 208.181L22.3048 203.674L22.0583 205.829L53.3653 208.065L84.6723 210.301L84.7972 208.181Z" fill="#EDB90E"/>
<path d="M30.1746 216.57L20.4127 215.98L20.0837 218.105L27.6518 218.341L30.1746 216.57Z" fill="#EDB90E"/>
<path d="M84.5781 220.22L62.4221 218.931L63.6286 219.875L64.7515 220.935L84.3853 222.351L84.5781 220.22Z" fill="#EDB90E"/>
<defs>
<linearGradient id="paint0_linear_12_21" x1="89.1562" y1="262.94" x2="89.3531" y2="234.934" gradientUnits="userSpaceOnUse">
<stop stop-color="white" stop-opacity="0"/>
<stop offset="1" stop-color="#82A9FF" stop-opacity="0.21"/>
</linearGradient>
</defs>
</svg>
