<svg width="110" height="110" viewBox="0 0 110 110" fill="none" xmlns="http://www.w3.org/2000/svg">
<g clip-path="url(#clip0_6_54)">
<path fill-rule="evenodd" clip-rule="evenodd" d="M42.8717 52.5789C40.7336 52.3635 38.7589 51.3881 37.1423 49.415C32.1419 43.3113 32.9602 36.687 36.5867 30.6505C41.8822 21.8365 53.2481 14.3054 60.5781 11.7118C60.9251 11.5885 61.3054 11.7712 61.4273 12.1172C61.5505 12.4643 61.3692 12.8454 61.0222 12.9687C53.9077 15.4855 42.8682 22.7836 37.7282 31.3374C34.3986 36.8801 33.5805 42.9649 38.174 48.5704C39.54 50.2397 41.2093 51.0573 43.0165 51.2441C43.1568 50.0649 43.3285 48.9052 43.5321 47.7673C44.0951 44.6265 47.0419 36.8524 50.9981 32.3593C53.8369 29.137 57.1899 27.6024 60.5582 30.0399C62.4301 31.3953 62.9974 33.5266 62.5486 35.994C61.9338 39.3865 59.3424 43.4564 55.917 46.7114C53.0656 49.422 49.6444 51.5658 46.3523 52.3232C45.6285 52.4882 44.9109 52.5903 44.2059 52.6174C42.5714 69.0085 47.0612 88.4506 56.2883 101.665C56.4974 101.967 56.4253 102.382 56.1225 102.592C55.8211 102.804 55.4055 102.729 55.1954 102.429C45.8189 88.9984 41.239 69.2564 42.8717 52.5789ZM44.3546 51.2709C44.4889 50.163 44.6519 49.0728 44.844 48.0024C45.3844 44.9928 48.2076 37.5455 51.9983 33.2408C54.3243 30.5986 57.0168 29.1216 59.7775 31.1193C61.2267 32.1693 61.5838 33.8453 61.2386 35.7562C60.8567 37.8578 59.6406 40.2261 57.9358 42.4721C55.3476 45.8821 51.629 49.0059 47.8839 50.4557C46.6977 50.9156 45.5083 51.2043 44.3546 51.2709Z" fill="#4D5959"/>
<path fill-rule="evenodd" clip-rule="evenodd" d="M58.7644 76.9366C55.4495 84.1617 54.9681 93.9393 56.2639 101.824C56.3235 102.187 56.077 102.529 55.7144 102.589C55.3518 102.648 55.0082 102.403 54.9485 102.041C53.6114 93.9099 54.1364 83.8301 57.5533 76.3814C57.7059 76.0479 58.1018 75.901 58.4367 76.0546C58.7702 76.2073 58.9171 76.6031 58.7644 76.9366Z" fill="#4D5959"/>
<path fill-rule="evenodd" clip-rule="evenodd" d="M54.7988 102.109C51.9073 96.1557 44.8866 90.8052 38.6433 88.5507C38.2969 88.4258 38.1162 88.0436 38.2425 87.6981C38.3673 87.3517 38.7486 87.1724 39.095 87.2973C45.6355 89.6593 52.9677 95.2899 55.9971 101.527C56.1583 101.857 56.0194 102.257 55.6892 102.418C55.3576 102.578 54.959 102.44 54.7988 102.109Z" fill="#4D5959"/>
</g>
<defs>
<clipPath id="clip0_6_54">
<rect width="78.3608" height="78.3608" fill="white" transform="matrix(0.825478 0.564434 0.564434 -0.825478 0.192139 64.8772)"/>
</clipPath>
</defs>
</svg>
