<svg width="103" height="101" viewBox="0 0 103 101" fill="none" xmlns="http://www.w3.org/2000/svg">
<rect width="102.278" height="101" rx="20" fill="#F1F1F1"/>
<g opacity="0.7">
<path fill-rule="evenodd" clip-rule="evenodd" d="M42.6074 29.5834C41.8564 29.7779 40.9929 30.569 40.7163 31.316C40.5777 31.69 40.5567 31.8804 40.5347 32.9558C40.5149 33.9265 40.5277 34.1775 40.5981 34.198C40.6466 34.2121 40.8056 34.2554 40.9513 34.2941C41.0971 34.3329 41.2653 34.3868 41.3251 34.4141C41.4226 34.4586 41.4364 34.3523 41.4592 33.3835C41.4824 32.3975 41.4998 32.2687 41.6583 31.905C41.8791 31.3988 42.2857 30.9653 42.7632 30.7269L43.1373 30.5402H48.4696H53.802L54.1786 30.7281C54.6581 30.9674 55.1165 31.4757 55.3084 31.9804C55.4573 32.3722 55.4581 32.3929 55.4769 36.7566L55.4958 41.1394L55.8081 41.1873C55.9799 41.2137 56.1883 41.2525 56.2712 41.2736L56.4221 41.3119L56.4037 36.5255L56.3854 31.7392L56.1775 31.2721C55.8262 30.4826 55.2525 29.923 54.5192 29.6544C54.1602 29.5229 53.9246 29.5178 48.4758 29.5247C45.3575 29.5287 42.7167 29.5551 42.6074 29.5834ZM46.449 29.6329C46.6045 29.6965 46.6903 29.9765 46.6171 30.1815C46.5018 30.5041 46.036 30.5093 45.8992 30.1895C45.7326 29.8004 46.0564 29.4725 46.449 29.6329ZM49.9137 29.9844C49.9304 30.2273 49.9115 30.2812 49.7986 30.3126C49.7242 30.3333 49.0808 30.3454 48.3686 30.3394C46.9894 30.3279 46.9495 30.3176 46.9471 29.9724C46.945 29.6719 47.0341 29.6549 48.5007 29.6749L49.8938 29.6939L49.9137 29.9844ZM39.5603 34.8344C38.8724 35.1813 38.4593 35.8645 38.455 36.6626C38.4509 37.4197 38.5966 37.6674 39.7794 38.9137C40.3511 39.5161 40.9219 40.0646 41.0477 40.1327C41.3557 40.2991 42.0317 40.3501 42.415 40.2358C42.8987 40.0917 43.3478 39.6673 43.5829 39.1324C43.7627 38.7232 43.7802 38.6241 43.7523 38.1699C43.7326 37.8483 43.6708 37.5605 43.583 37.3814C43.3769 36.9609 41.4819 34.9863 41.1169 34.8118C40.6838 34.6046 39.9964 34.6146 39.5603 34.8344ZM44.0733 39.0564C44.0513 39.1437 44.0329 39.8102 44.0325 40.5375L44.0315 41.8599H45.4226H46.8136V40.3788V38.8977H45.4634C44.1192 38.8977 44.1131 38.8984 44.0733 39.0564ZM47.5423 39.2504V39.603H47.8735H48.2047V39.2504V38.8977H47.8735H47.5423V39.2504ZM48.9202 39.2622L48.9002 39.6267L48.569 39.6325L48.2378 39.6383L48.2178 40.0085L48.1977 40.3788H47.87H47.5423V40.7314V41.0841H47.8735H48.2047V40.7314V40.3788H48.569H48.9333V40.7314V41.0841H49.2645H49.5957V39.9909V38.8977H49.268H48.9403L48.9202 39.2622ZM50.3244 40.3788V41.8599H51.7154H53.1065V40.3788V38.8977H51.7154H50.3244V40.3788ZM46.085 40.3813V41.1595L45.406 41.1394L44.7271 41.1193L44.7082 40.3612L44.6894 39.603H45.3872H46.085V40.3813ZM52.4109 40.3788V41.1193H51.7154H51.0199L51.0007 40.4546C50.9901 40.089 50.997 39.7467 51.016 39.694C51.0428 39.6198 51.2051 39.6026 51.7308 39.6182L52.4109 39.6383V40.3788ZM45.0914 40.3788V40.7314H45.4226H45.7538V40.3788V40.0262H45.4226H45.0914V40.3788ZM51.3842 40.3788V40.7314H51.7154H52.0466V40.3788V40.0262H51.7154H51.3842V40.3788ZM40.5208 40.8044V41.2957L40.7361 41.2988C40.8545 41.3004 41.0632 41.3443 41.1997 41.3962L41.4481 41.4906V41.1165C41.4481 40.7461 41.4457 40.7415 41.1997 40.6586C41.0632 40.6126 40.8545 40.516 40.7361 40.444L40.5208 40.313V40.8044ZM48.2047 41.5072V41.8599H47.8735H47.5423V42.2478V42.6357H47.8735H48.2047V42.9883V43.341H48.569H48.9333V43.7289V44.1168H48.569H48.2047V44.4694V44.822H48.5701H48.9356L48.9179 44.487L48.9002 44.152L49.6158 44.132L50.3315 44.1119L50.3113 44.4846L50.2912 44.8573L49.9932 44.8696C49.8292 44.8763 49.6728 44.8843 49.6454 44.8872C49.618 44.8902 49.5957 45.0513 49.5957 45.2452V45.5978H50.2912H50.9868L50.9938 45.7918C51.0125 46.3069 50.9543 46.2659 51.6989 46.288L52.3778 46.3081V45.9529V45.5978H52.7421H53.1065V45.2452V44.8926L52.5103 44.882C52.1824 44.8761 51.8769 44.8682 51.8313 44.8644C51.7771 44.8597 51.7416 44.9848 51.7285 45.2276L51.7085 45.5978H51.3476H50.9868V44.8573V44.1168H50.659H50.3313L50.3113 43.7465L50.2912 43.3762L49.9435 43.3549L49.5957 43.3335V42.9846V42.6357H48.9002H48.2047V42.2514V41.8673L48.5524 41.8459L48.9002 41.8246L48.9147 41.4896L48.9292 41.1546H48.5669H48.2047V41.5072ZM54.9238 41.7773C54.5519 41.9631 54.1948 42.3122 53.9816 42.6982C53.8221 42.9871 53.802 43.0947 53.8023 43.6583C53.8025 44.1439 53.8317 44.3511 53.9267 44.5399C53.9951 44.6757 54.5526 45.3279 55.1657 45.9892C56.3903 47.31 56.5471 47.5616 56.5495 48.2093C56.5506 48.5147 56.4992 48.7135 56.3121 49.1262C55.3458 51.258 54.7164 52.8436 54.2948 54.2081C53.7795 55.8758 53.2867 58.3371 53.0993 60.1794L53.0186 60.9729H49.4856C47.5424 60.9729 45.9525 60.9924 45.9525 61.0163C45.9525 61.0402 46.0556 61.2093 46.1816 61.3921C46.5227 61.8868 47.4157 62.7675 47.9584 63.1445C48.4447 63.4823 48.6258 63.5818 50.788 64.6977C52.2233 65.4385 53.0113 66.0113 53.8682 66.9363C54.8391 67.9844 55.606 69.1813 56.258 70.6656C56.4374 71.0738 56.6083 71.4086 56.6379 71.4094C56.6676 71.4103 57.2041 70.9568 57.8303 70.4017C58.4564 69.8467 59.863 68.6031 60.956 67.6384C62.0489 66.6736 63.2636 65.6009 63.6553 65.2545C64.0469 64.9082 64.3659 64.6045 64.3642 64.5797C64.3624 64.5548 64.1207 64.3282 63.827 64.0761C63.1377 63.4844 62.0773 62.2942 61.7952 61.7956C61.4313 61.1525 61.1177 60.3021 60.9769 59.5766C60.8674 59.0126 60.8496 58.7125 60.8756 57.8697C60.9081 56.8155 60.9941 56.2796 61.3841 54.7023C61.6696 53.5481 61.7414 52.85 61.6967 51.6632C61.6168 49.5346 60.8328 46.8154 59.8961 45.4179C59.5148 44.8488 56.8309 42.0136 56.501 41.8313C56.1339 41.6284 55.2803 41.5992 54.9238 41.7773ZM39.9909 41.7805C39.0946 42.0947 38.5728 42.8322 38.5781 43.7778C38.5821 44.5165 38.7612 44.8264 39.8386 45.9596C40.346 46.4931 40.8852 46.9935 41.0507 47.0843C41.4715 47.3151 42.2147 47.3179 42.6536 47.0903C43.0205 46.8999 43.3889 46.5203 43.5886 46.1268C43.7841 45.7418 43.7935 44.7806 43.6058 44.3636C43.4332 43.9799 41.6955 42.132 41.3157 41.9282C40.9949 41.7561 40.2861 41.6771 39.9909 41.7805ZM44.0315 43.3762V44.1168H44.3627H44.6939V44.4694V44.822H45.3895H46.085V44.4694V44.1168H45.3895H44.6939V43.7289V43.341H45.3895H46.085V42.9883V42.6357H45.0583H44.0315V43.3762ZM46.8136 42.9846V43.3335L46.4659 43.3549L46.1181 43.3762V43.7289V44.0815L46.4659 44.1028L46.8136 44.1242V44.4731V44.822H47.1448H47.476V43.7289V42.6357H47.1448H46.8136V42.9846ZM51.001 43.3586L51.0199 44.0815L51.3677 44.1028L51.7154 44.1242V43.7325V43.341H52.0466H52.3778V42.9883V42.6357H51.68H50.9821L51.001 43.3586ZM52.4441 43.725V44.1168H52.7787H53.1134L53.0933 43.7465L53.0733 43.3762L52.7587 43.3547L52.4441 43.3332V43.725ZM47.5743 44.8819C47.5567 44.9007 47.5423 45.4027 47.5423 45.9975V47.0789H47.87H48.1977L48.2178 47.4492L48.2378 47.8195L48.5856 47.8408L48.9333 47.8621V48.211V48.56H49.96H50.9868V47.4668V46.3736H49.96H48.9333V46.7263V47.0789H48.5707H48.2081L48.1898 45.9685L48.1716 44.8579L47.889 44.8529C47.7336 44.8501 47.5919 44.8632 47.5743 44.8819ZM44.1013 45.8623C44.0633 46.0078 44.0321 46.6742 44.0319 47.3434L44.0315 48.56H45.4226H46.8136V47.0789V45.5978H45.4919H44.1702L44.1013 45.8623ZM46.085 47.0789V47.8547H45.3895H44.6939V47.126C44.6939 46.7251 44.7138 46.376 44.7381 46.3502C44.7624 46.3243 45.0753 46.3031 45.4336 46.3031H46.085V47.0789ZM52.4441 46.7263V47.0789H52.0797H51.7154V47.8195V48.56H52.0432H52.3709L52.3909 48.1955L52.4109 47.831L52.7421 47.8252L53.0733 47.8195L53.0922 47.0966L53.1111 46.3736H52.7776H52.4441V46.7263ZM39.2121 46.83C38.7785 47.2451 38.5762 47.7306 38.5786 48.3502C38.5815 49.0888 38.7347 49.361 39.7778 50.482C40.8609 51.6459 41.1384 51.825 41.8682 51.8311C42.4264 51.8358 42.8099 51.6703 43.2001 51.2565C43.6214 50.8097 43.7317 50.514 43.7326 49.8295C43.7334 49.302 43.7109 49.1866 43.5456 48.8691C43.4422 48.6707 43.1819 48.3231 42.9672 48.0968L42.5766 47.6853L41.9296 47.6819C41.3685 47.6789 41.2317 47.653 40.8996 47.4873C40.689 47.3823 40.3435 47.1205 40.1318 46.9055C39.9202 46.6905 39.7008 46.5147 39.6443 46.5147C39.5877 46.5147 39.3933 46.6566 39.2121 46.83ZM45.0914 47.0789V47.4316H45.4226H45.7538V47.0789V46.7263H45.4226H45.0914V47.0789ZM55.4911 48.4524V49.9228L55.8223 49.2017C56.0404 48.7269 56.153 48.3917 56.1521 48.2206C56.1502 47.884 55.9594 47.4505 55.6982 47.1892L55.4911 46.982V48.4524ZM50.3244 47.4668V47.8547H49.96H49.5957V47.4668V47.0789H49.96H50.3244V47.4668ZM47.5423 48.2074V48.56H47.8735H48.2047V48.2074V47.8547H47.8735H47.5423V48.2074ZM39.1487 51.0082C38.744 51.4392 38.5699 51.8846 38.5758 52.4743C38.5831 53.2212 38.7251 53.4691 39.8123 54.6321C40.8834 55.7778 41.1629 55.9636 41.8172 55.9647C42.8836 55.9665 43.6869 55.1872 43.7546 54.0852C43.7929 53.4607 43.6368 53.0201 43.1987 52.5162L42.8422 52.1062L42.4951 52.2021C42.0362 52.3288 41.6182 52.3231 41.1787 52.1843C40.722 52.04 40.5393 51.9058 39.9156 51.2568L39.4097 50.7304L39.1487 51.0082ZM40.5344 57.1737C40.5597 58.2391 40.5754 58.3595 40.7373 58.7358C41.1254 59.6376 42.0064 60.3321 42.9458 60.4766C43.2135 60.5179 45.3106 60.5475 48.0177 60.5483L52.6332 60.5497L52.6766 60.1442C52.7004 59.9211 52.7341 59.6839 52.7515 59.617C52.7812 59.5028 52.4895 59.4942 47.9587 59.4759L43.1344 59.4565L42.6943 59.2258C41.895 58.8068 41.5162 58.1407 41.4631 57.0609L41.4315 56.4162L41.0261 56.2437C40.8031 56.1488 40.595 56.0595 40.5638 56.0452C40.5324 56.0309 40.5192 56.5387 40.5344 57.1737Z" fill="#88898A"/>
<path fill-rule="evenodd" clip-rule="evenodd" d="M30.0522 31.516C24.8426 36.7143 21.8479 43.7279 21.6963 51.0859C21.6882 51.433 21.4056 51.7156 21.0585 51.7156H16.2144C16.1282 51.7156 16.0429 51.6984 15.9635 51.6649C15.884 51.6315 15.8121 51.5825 15.7519 51.5208C15.6917 51.4591 15.6445 51.3859 15.613 51.3057C15.5815 51.2255 15.5664 51.1398 15.5686 51.0536C15.9157 32.1861 31.3117 17 50.2438 17C61.3124 17 71.17 22.1912 77.4996 30.2888L81.3587 27.2694C81.7785 26.9303 82.4001 27.2371 82.4001 27.778L82.3355 40.8165C82.3355 41.2283 81.9399 41.5351 81.5363 41.4382L68.8772 38.3461C68.7591 38.3173 68.6515 38.2557 68.5668 38.1685C68.4821 38.0813 68.4237 37.9719 68.3984 37.853C68.3731 37.7341 68.3819 37.6104 68.4238 37.4963C68.4656 37.3821 68.5388 37.2821 68.635 37.2077L72.6717 34.051C71.9774 33.171 71.2265 32.3233 70.4192 31.516C67.7953 28.8921 64.7436 26.8253 61.3447 25.3883C57.8328 23.8947 54.0948 23.1439 50.2357 23.1439C46.3847 23.1439 42.6467 23.9028 39.1267 25.3883C35.7278 26.8253 32.6761 28.8921 30.0522 31.516ZM79.5098 51.7156H84.3539C84.4401 51.7156 84.5254 51.7328 84.6048 51.7663C84.6843 51.7997 84.7562 51.8488 84.8164 51.9104C84.8766 51.9721 84.9238 52.0453 84.9553 52.1255C84.9868 52.2057 85.0019 52.2915 84.9997 52.3776C84.6526 71.2452 69.2566 86.4312 50.3245 86.4312C39.2559 86.4312 29.3983 81.24 23.0526 73.1585L19.1935 76.178C18.7737 76.5171 18.152 76.2103 18.152 75.6694L18.2166 62.6147C18.2166 62.2029 18.6122 61.8962 19.0159 61.993L31.675 65.0851C31.7931 65.1139 31.9007 65.1755 31.9854 65.2627C32.0701 65.35 32.1284 65.4593 32.1537 65.5782C32.179 65.6971 32.1703 65.8208 32.1284 65.9349C32.0866 66.0491 32.0133 66.1491 31.9172 66.2235L27.8886 69.3802C28.5829 70.2602 29.3337 71.1079 30.141 71.9152C32.7408 74.5258 35.8226 76.6069 39.2155 78.0429C42.7275 79.5365 46.4735 80.2874 50.3245 80.2874C54.1755 80.2874 57.9135 79.5285 61.4335 78.0429C64.8264 76.6069 67.9083 74.5258 70.508 71.9152C75.7177 66.7169 78.7123 59.7034 78.864 52.3453C78.872 51.9982 79.1627 51.7156 79.5098 51.7156Z" fill="#88898A"/>
</g>
</svg>
