<svg width="251" height="73" viewBox="0 0 251 73" fill="none" xmlns="http://www.w3.org/2000/svg">
<path d="M242.044 72.1668H8.7915C6.46022 72.1616 4.22608 71.2705 2.57832 69.6885C0.930548 68.1065 0.00343655 65.9626 0 63.7263L0 9.26153C0.00344531 7.02636 0.930974 4.88377 2.57911 3.30377C4.22725 1.72377 6.46142 0.835383 8.7915 0.833496L242.044 0.833496C246.889 0.833496 250.973 4.61416 250.973 9.26153V63.7263C250.973 68.3719 246.889 72.1668 242.044 72.1668Z" fill="#A6A6A6"/>
<path d="M249.173 63.7283C249.173 64.6259 248.989 65.5146 248.631 66.3438C248.272 67.1729 247.747 67.9262 247.085 68.5605C246.423 69.1948 245.637 69.6978 244.773 70.0406C243.908 70.3835 242.981 70.5594 242.046 70.5585H8.79123C6.90069 70.5604 5.08677 69.8419 3.74839 68.5611C2.41001 67.2802 1.65676 65.5419 1.6543 63.7283V9.25998C1.65676 7.44563 2.40971 5.70638 3.74783 4.42411C5.08594 3.14184 6.89984 2.42137 8.79123 2.4209H242.044C242.98 2.4209 243.907 2.59781 244.772 2.94153C245.637 3.28525 246.423 3.78904 247.084 4.42413C247.746 5.05922 248.271 5.81317 248.629 6.64291C248.988 7.47266 249.172 8.36195 249.171 9.25998L249.173 63.7283Z" fill="black"/>
<path d="M56.0101 36.1144C55.9562 30.3667 60.9162 27.5705 61.143 27.4403C58.3339 23.5116 53.98 22.9748 52.45 22.932C48.7932 22.5629 45.2461 25.031 43.3834 25.031C41.4834 25.031 38.6149 22.9677 35.5233 23.0283C31.5449 23.0872 27.823 25.2967 25.7818 28.7278C21.5691 35.7239 24.711 46.0048 28.747 51.6597C30.7659 54.4292 33.1251 57.5215 36.213 57.4128C39.2339 57.2933 40.3624 55.5652 44.008 55.5652C47.6202 55.5652 48.6798 57.4128 51.8291 57.3432C55.0713 57.2933 57.1125 54.5612 59.0608 51.7667C61.3939 48.5924 62.3309 45.4662 62.3681 45.3057C62.2919 45.2807 56.0714 43.0034 56.0101 36.1144ZM50.0611 19.212C51.6859 17.2628 52.7976 14.611 52.489 11.9199C50.1373 12.0198 47.1963 13.4803 45.5027 15.3867C44.0043 17.0666 42.6658 19.8201 43.0115 22.4095C45.6533 22.5985 48.3656 21.1308 50.0611 19.212ZM99.7296 57.0151H95.5077L93.195 50.044H85.1564L82.9535 57.0151H78.8431L86.8073 33.2825H91.7264L99.7296 57.0151ZM92.4979 47.1194L90.4064 40.9223C90.1852 40.2892 89.7706 38.7983 89.159 36.4515H89.0846C88.7138 37.9467 88.3221 39.4371 87.9097 40.9223L85.8555 47.1194H92.4979ZM120.211 48.2482C120.211 51.1586 119.391 53.4591 117.751 55.1479C116.283 56.6513 114.459 57.4021 112.282 57.4021C109.932 57.4021 108.244 56.5924 107.216 54.9732H107.142V63.9879H103.178V45.5358C103.178 43.7061 103.128 41.8282 103.031 39.9022H106.517L106.738 42.6147H106.813C108.134 40.571 110.14 39.5509 112.832 39.5509C114.937 39.5509 116.694 40.348 118.099 41.9441C119.508 43.542 120.211 45.6428 120.211 48.2482ZM116.173 48.3873C116.173 46.7217 115.783 45.3485 114.998 44.2678C114.141 43.1407 112.99 42.5772 111.548 42.5772C110.57 42.5772 109.681 42.8911 108.887 43.5099C108.092 44.1341 107.571 44.949 107.328 45.9584C107.205 46.4292 107.144 46.8144 107.144 47.1176V49.9709C107.144 51.2157 107.541 52.2661 108.337 53.1238C109.133 53.9816 110.166 54.4096 111.438 54.4096C112.931 54.4096 114.093 53.8568 114.924 52.7547C115.757 51.6508 116.173 50.1956 116.173 48.3873ZM140.729 48.2482C140.729 51.1586 139.909 53.4591 138.268 55.1479C136.801 56.6513 134.977 57.4021 132.8 57.4021C130.451 57.4021 128.763 56.5924 127.736 54.9732H127.662V63.9879H123.698V45.5358C123.698 43.7061 123.648 41.8282 123.552 39.9022H127.037L127.259 42.6147H127.333C128.653 40.571 130.659 39.5509 133.353 39.5509C135.455 39.5509 137.212 40.348 138.621 41.9441C140.025 43.542 140.729 45.6428 140.729 48.2482ZM136.691 48.3873C136.691 46.7217 136.299 45.3485 135.515 44.2678C134.658 43.1407 133.511 42.5772 132.066 42.5772C131.092 42.5769 130.149 42.9073 129.404 43.5099C128.608 44.1341 128.09 44.949 127.846 45.9584C127.725 46.4292 127.662 46.8144 127.662 47.1176V49.9709C127.662 51.2157 128.06 52.2661 128.852 53.1238C129.647 53.9798 130.681 54.4096 131.956 54.4096C133.449 54.4096 134.611 53.8568 135.442 52.7547C136.275 51.6508 136.691 50.1956 136.691 48.3873ZM163.67 50.3597C163.67 52.3784 162.94 54.0209 161.473 55.2888C159.861 56.6745 157.617 57.3664 154.734 57.3664C152.071 57.3664 149.937 56.8742 148.322 55.888L149.24 52.719C150.98 53.7284 152.889 54.2349 154.97 54.2349C156.463 54.2349 157.624 53.9103 158.459 53.2647C159.29 52.6192 159.705 51.7525 159.705 50.6718C159.705 49.7088 159.363 48.8973 158.677 48.2393C157.994 47.5812 156.855 46.9696 155.263 46.4042C150.932 44.8545 148.768 42.5843 148.768 39.599C148.768 37.6481 149.526 36.0484 151.045 34.8037C152.559 33.5571 154.577 32.9347 157.102 32.9347C159.353 32.9347 161.224 33.311 162.716 34.0618L161.726 37.1612C160.331 36.4336 158.755 36.0698 156.991 36.0698C155.596 36.0698 154.507 36.3997 153.726 37.056C153.409 37.3247 153.157 37.6558 152.986 38.0267C152.815 38.3975 152.729 38.7994 152.735 39.2049C152.735 40.143 153.113 40.9187 153.871 41.5286C154.531 42.0921 155.73 42.702 157.47 43.3601C159.599 44.1822 161.162 45.1434 162.168 46.2455C163.17 47.3441 163.67 48.719 163.67 50.3597ZM176.775 42.7555H172.406V51.0641C172.406 53.1773 173.176 54.2331 174.719 54.2331C175.427 54.2331 176.014 54.1742 176.479 54.0565L176.589 56.9437C175.808 57.2237 174.78 57.3646 173.506 57.3646C171.941 57.3646 170.718 56.9063 169.835 55.9914C168.955 55.0748 168.513 53.5376 168.513 51.378V42.752H165.91V39.8986H168.513V36.7653L172.406 35.6383V39.8986H176.775V42.7555ZM196.486 48.3178C196.486 50.9482 195.702 53.1078 194.136 54.7966C192.495 56.5354 190.316 57.4021 187.6 57.4021C184.982 57.4021 182.898 56.5692 181.344 54.9036C179.79 53.238 179.013 51.1354 179.013 48.6013C179.013 45.9495 179.812 43.7774 181.417 42.0886C183.017 40.398 185.178 39.5527 187.894 39.5527C190.511 39.5527 192.618 40.3855 194.207 42.0529C195.728 43.6704 196.486 45.7587 196.486 48.3178ZM192.374 48.4408C192.374 46.8626 192.023 45.509 191.311 44.3802C190.48 43.0141 189.292 42.3329 187.752 42.3329C186.159 42.3329 184.949 43.0159 184.118 44.3802C183.406 45.5108 183.055 46.8857 183.055 48.5121C183.055 50.0904 183.406 51.4439 184.118 52.571C184.975 53.937 186.172 54.6183 187.717 54.6183C189.23 54.6183 190.418 53.9228 191.275 52.5353C192.006 51.3851 192.374 50.0173 192.374 48.4408ZM209.37 43.246C208.957 43.1745 208.539 43.1393 208.12 43.1407C206.726 43.1407 205.648 43.6454 204.889 44.6566C204.229 45.5482 203.898 46.6753 203.898 48.036V57.0151H199.937L199.974 45.2914C199.974 43.3191 199.924 41.5233 199.825 39.904H203.277L203.422 43.1782H203.532C203.95 42.0529 204.61 41.147 205.514 40.4675C206.341 39.8738 207.346 39.5523 208.379 39.5509C208.745 39.5509 209.076 39.5759 209.37 39.6204V43.246ZM227.096 47.649C227.106 48.227 227.057 48.8045 226.951 49.3735H215.06C215.107 51.0641 215.681 52.357 216.785 53.2487C217.787 54.0458 219.083 54.4453 220.675 54.4453C222.435 54.4453 224.041 54.176 225.486 53.6357L226.107 56.275C224.419 56.9812 222.426 57.3325 220.126 57.3325C217.36 57.3325 215.188 56.5514 213.608 54.991C212.032 53.4306 211.242 51.3352 211.242 48.7065C211.242 46.126 211.976 43.9771 213.447 42.2633C214.986 40.4336 217.066 39.5188 219.684 39.5188C222.255 39.5188 224.201 40.4336 225.523 42.2633C226.57 43.7168 227.096 45.5144 227.096 47.649ZM223.316 46.6628C223.342 45.5358 223.084 44.5621 222.547 43.7399C221.861 42.6824 220.807 42.1546 219.388 42.1546C218.092 42.1546 217.038 42.6699 216.233 43.7043C215.573 44.5264 215.181 45.5126 215.06 46.661H223.316V46.6628ZM91.1872 18.6823C91.1872 20.7813 90.531 22.3613 89.2204 23.4224C88.0064 24.4015 86.2812 24.8919 84.0466 24.8919C82.9386 24.8919 81.9905 24.8455 81.1966 24.7528V13.2842C82.2321 13.1237 83.3476 13.0416 84.5522 13.0416C86.6809 13.0416 88.2852 13.4857 89.3672 14.3738C90.5793 15.3778 91.1872 16.8134 91.1872 18.6823ZM89.133 18.734C89.133 17.3734 88.7574 16.3301 88.0064 15.6025C87.2553 14.8767 86.1585 14.5129 84.714 14.5129C84.1005 14.5129 83.5781 14.5521 83.1449 14.6342V23.3529C83.3848 23.3885 83.8235 23.4046 84.4612 23.4046C85.9521 23.4046 87.1029 23.0069 87.9134 22.2115C88.724 21.4162 89.133 20.257 89.133 18.734ZM102.079 20.5156C102.079 21.8085 101.695 22.8678 100.925 23.6988C100.118 24.5531 99.0492 24.9793 97.7144 24.9793C96.4279 24.9793 95.4036 24.5709 94.6395 23.7506C93.8773 22.932 93.4962 21.8995 93.4962 20.6547C93.4962 19.3529 93.8885 18.2846 94.6767 17.4554C95.4649 16.6261 96.5246 16.2106 97.8594 16.2106C99.1459 16.2106 100.18 16.619 100.962 17.4376C101.706 18.2329 102.079 19.2601 102.079 20.5156ZM100.059 20.5762C100.059 19.8005 99.8839 19.1353 99.5363 18.5807C99.1273 17.9101 98.5454 17.5749 97.7888 17.5749C97.0061 17.5749 96.4112 17.9101 96.0022 18.5807C95.6527 19.1353 95.4798 19.8112 95.4798 20.6101C95.4798 21.3859 95.6546 22.051 96.0022 22.6057C96.4242 23.2762 97.0117 23.6115 97.7702 23.6115C98.5138 23.6115 99.0975 23.2708 99.5177 22.5878C99.8783 22.0225 100.059 21.352 100.059 20.5762ZM116.684 16.3818L113.942 24.7885H112.157L111.022 21.138C110.738 20.2448 110.503 19.3382 110.317 18.422H110.282C110.114 19.342 109.878 20.2496 109.577 21.138L108.371 24.7885H106.565L103.987 16.3818H105.989L106.98 20.3783C107.22 21.3234 107.417 22.224 107.575 23.0765H107.61C107.755 22.3738 107.995 21.4786 108.333 20.3961L109.577 16.3836H111.165L112.356 20.3105C112.645 21.2682 112.879 22.1901 113.059 23.0782H113.113C113.245 22.2133 113.444 21.2913 113.708 20.3105L114.771 16.3836H116.684V16.3818ZM126.785 24.7885H124.836V19.9735C124.836 18.4897 124.249 17.7479 123.07 17.7479C122.802 17.7403 122.537 17.7915 122.293 17.8975C122.049 18.0035 121.833 18.1615 121.663 18.3595C121.306 18.7608 121.114 19.2731 121.122 19.8005V24.7867H119.174V18.784C119.174 18.0457 119.149 17.245 119.103 16.3783H120.815L120.906 17.6926H120.96C121.187 17.2842 121.525 16.9471 121.97 16.6779C122.498 16.364 123.089 16.2053 123.736 16.2053C124.554 16.2053 125.234 16.4585 125.775 16.9668C126.448 17.5891 126.785 18.5183 126.785 19.7523V24.7885ZM132.157 24.7885H130.211V12.5245H132.157V24.7885ZM143.628 20.5156C143.628 21.8085 143.243 22.8678 142.473 23.6988C141.666 24.5531 140.595 24.9793 139.263 24.9793C137.974 24.9793 136.95 24.5709 136.188 23.7506C135.425 22.932 135.044 21.8995 135.044 20.6547C135.044 19.3529 135.437 18.2846 136.225 17.4554C137.013 16.6261 138.073 16.2106 139.406 16.2106C140.694 16.2106 141.726 16.619 142.51 17.4376C143.254 18.2329 143.628 19.2601 143.628 20.5156ZM141.605 20.5762C141.605 19.8005 141.43 19.1353 141.083 18.5807C140.675 17.9101 140.092 17.5749 139.337 17.5749C138.552 17.5749 137.957 17.9101 137.55 18.5807C137.201 19.1353 137.028 19.8112 137.028 20.6101C137.028 21.3859 137.203 22.051 137.55 22.6057C137.972 23.2762 138.56 23.6115 139.318 23.6115C140.062 23.6115 140.644 23.2708 141.064 22.5878C141.426 22.0225 141.605 21.352 141.605 20.5762ZM153.057 24.7885H151.307L151.162 23.8201H151.108C150.51 24.5923 149.657 24.9793 148.549 24.9793C147.721 24.9793 147.052 24.7243 146.548 24.2178C146.322 23.9899 146.145 23.7213 146.027 23.4275C145.909 23.1337 145.853 22.8204 145.862 22.5058C145.862 21.4786 146.308 20.6957 147.206 20.1536C148.102 19.6114 149.363 19.3457 150.986 19.3582V19.2013C150.986 18.0938 150.38 17.541 149.166 17.541C148.301 17.541 147.539 17.7496 146.881 18.1634L146.485 16.9364C147.299 16.4532 148.305 16.2106 149.491 16.2106C151.781 16.2106 152.93 17.3698 152.93 19.6881V22.784C152.93 23.6239 152.973 24.2927 153.057 24.7885ZM151.034 21.8995V20.603C148.885 20.5673 147.811 21.1326 147.811 22.2971C147.811 22.7358 147.933 23.064 148.184 23.2833C148.446 23.5058 148.787 23.6233 149.136 23.6115C149.564 23.6115 149.963 23.4813 150.328 23.2227C150.549 23.0739 150.729 22.8756 150.852 22.645C150.975 22.4144 151.037 22.1585 151.034 21.8995ZM164.127 24.7885H162.399L162.307 23.4385H162.254C161.701 24.4657 160.761 24.9793 159.439 24.9793C158.383 24.9793 157.504 24.5816 156.807 23.7862C156.109 22.9909 155.762 21.9583 155.762 20.6904C155.762 19.3297 156.139 18.2276 156.898 17.3858C157.632 16.6012 158.532 16.2088 159.603 16.2088C160.779 16.2088 161.603 16.5887 162.071 17.3502H162.109V12.5245H164.059V22.5236C164.059 23.3422 164.081 24.0965 164.127 24.7885ZM162.109 21.2432V19.8415C162.127 19.5182 162.068 19.1952 161.937 18.897C161.805 18.5988 161.605 18.3332 161.35 18.1206C160.991 17.8168 160.526 17.6533 160.047 17.6623C159.32 17.6623 158.751 17.9387 158.333 18.4933C157.918 19.0479 157.708 19.7559 157.708 20.6208C157.708 21.4518 157.907 22.1259 158.307 22.6449C158.729 23.1977 159.298 23.4741 160.01 23.4741C160.649 23.4741 161.16 23.2441 161.549 22.7822C161.924 22.356 162.109 21.8424 162.109 21.2432ZM180.79 20.5156C180.79 21.8085 180.405 22.8678 179.636 23.6988C178.829 24.5531 177.762 24.9793 176.425 24.9793C175.141 24.9793 174.116 24.5709 173.35 23.7506C172.588 22.932 172.207 21.8995 172.207 20.6547C172.207 19.3529 172.599 18.2846 173.387 17.4554C174.176 16.6261 175.235 16.2106 176.572 16.2106C177.857 16.2106 178.892 16.619 179.673 17.4376C180.417 18.2329 180.79 19.2601 180.79 20.5156ZM178.771 20.5762C178.771 19.8005 178.597 19.1353 178.249 18.5807C177.838 17.9101 177.258 17.5749 176.5 17.5749C175.719 17.5749 175.124 17.9101 174.713 18.5807C174.363 19.1353 174.191 19.8112 174.191 20.6101C174.191 21.3859 174.365 22.051 174.713 22.6057C175.135 23.2762 175.722 23.6115 176.481 23.6115C177.225 23.6115 177.81 23.2708 178.23 22.5878C178.589 22.0225 178.771 21.352 178.771 20.5762ZM191.266 24.7885H189.32V19.9735C189.32 18.4897 188.732 17.7479 187.552 17.7479C186.973 17.7479 186.507 17.9512 186.146 18.3595C185.786 18.7679 185.605 19.2494 185.605 19.8005V24.7867H183.655V18.784C183.655 18.0457 183.633 17.245 183.586 16.3783H185.297L185.388 17.6926H185.442C185.68 17.2757 186.028 16.9259 186.451 16.6779C186.981 16.364 187.57 16.2053 188.219 16.2053C189.035 16.2053 189.716 16.4585 190.257 16.9668C190.931 17.5891 191.266 18.5183 191.266 19.7523V24.7885ZM204.378 17.7817H202.233V21.8656C202.233 22.9035 202.614 23.4224 203.369 23.4224C203.718 23.4224 204.008 23.3939 204.237 23.335L204.287 24.7528C203.902 24.8919 203.396 24.9614 202.774 24.9614C202.004 24.9614 201.405 24.7367 200.972 24.2873C200.537 23.8379 200.322 23.0818 200.322 22.0207V17.7817H199.041V16.3818H200.322V14.841L202.231 14.2882V16.38H204.376V17.7817H204.378ZM214.692 24.7885H212.742V20.0091C212.742 18.5022 212.154 17.7479 210.978 17.7479C210.074 17.7479 209.457 18.1848 209.119 19.0586C209.055 19.2773 209.024 19.5038 209.027 19.7309V24.7867H207.081V12.5245H209.027V17.5909H209.065C209.678 16.6689 210.558 16.2088 211.697 16.2088C212.504 16.2088 213.171 16.4621 213.701 16.9703C214.361 17.6034 214.692 18.545 214.692 19.7898V24.7885ZM225.331 20.1875C225.331 20.5227 225.305 20.8045 225.259 21.0345H219.416C219.442 21.8656 219.721 22.4987 220.262 22.9374C220.756 23.3297 221.394 23.5259 222.175 23.5259C223.039 23.5259 223.827 23.3939 224.538 23.1282L224.843 24.4264C224.012 24.7724 223.034 24.9454 221.902 24.9454C220.544 24.9454 219.475 24.562 218.702 23.7951C217.925 23.0283 217.54 21.9993 217.54 20.7082C217.54 19.4402 217.899 18.3845 218.622 17.5428C219.377 16.644 220.398 16.1946 221.686 16.1946C222.946 16.1946 223.904 16.644 224.551 17.5428C225.073 18.2561 225.331 19.1389 225.331 20.1875ZM223.472 19.7042C223.5 19.2002 223.368 18.7 223.095 18.2686C222.757 17.7496 222.242 17.4893 221.545 17.4893C221.241 17.4843 220.94 17.5512 220.67 17.684C220.4 17.8168 220.167 18.0115 219.994 18.2508C219.664 18.6739 219.463 19.1774 219.416 19.7042H223.472Z" fill="white"/>
</svg>
