<svg width="100" height="101" viewBox="0 0 100 101" fill="none" xmlns="http://www.w3.org/2000/svg">
<ellipse cx="50" cy="50.5" rx="50" ry="50.5" fill="#00AEE8" fill-opacity="0.09"/>
<path d="M69.4047 53.7382V60.4524C69.4047 63.362 62.3906 67.1667 53.7381 67.1667C45.0856 67.1667 38.0714 63.362 38.0714 60.4524V54.8572" stroke="#444444" stroke-linecap="round" stroke-linejoin="round"/>
<path d="M38.7295 55.4368C40.6654 58.0062 46.6524 60.4166 53.7382 60.4166C62.3906 60.4166 69.4048 56.8222 69.4048 53.7336C69.4048 51.9991 67.1958 50.099 63.729 48.7651" stroke="#444444" stroke-linecap="round" stroke-linejoin="round"/>
<path d="M62.6905 42.5477V49.262C62.6905 52.1715 55.6763 55.9762 47.0238 55.9762C38.3714 55.9762 31.3572 52.1715 31.3572 49.262V42.5477" stroke="#444444" stroke-linecap="round" stroke-linejoin="round"/>
<path fill-rule="evenodd" clip-rule="evenodd" d="M47.0238 49.2261C55.6763 49.2261 62.6905 45.6318 62.6905 42.5432C62.6905 39.4524 55.6763 35.8334 47.0238 35.8334C38.3714 35.8334 31.3572 39.4524 31.3572 42.5432C31.3572 45.6318 38.3714 49.2261 47.0238 49.2261Z" stroke="#444444" stroke-linecap="round" stroke-linejoin="round"/>
</svg>
