<svg width="178" height="60" viewBox="0 0 178 60" fill="none" xmlns="http://www.w3.org/2000/svg">
<path d="M0.154501 9.41272C-0.0466706 9.41223 -0.0535065 9.75635 0.146445 9.82031L13.7441 14.1677L16.561 15.2621C17.0205 15.4407 17.2861 15.9816 17.1743 16.5118C17.0463 17.119 16.4804 17.4678 15.9541 17.2637L6.21261 13.4867C6.03072 13.4161 5.94283 13.7463 6.10689 13.8833L15.0393 21.3333C15.6169 21.8149 15.8845 22.6361 15.7197 23.4197L14.6438 39.2581L26.885 36.5787C31.696 35.6556 34.9521 32.6543 34.8535 27.495L34.8317 26.3693L26.1767 26.5267C25.0036 26.5481 24.8086 25.7 24.8086 24.1105V22.1121L24.8361 21.9818C25.0105 21.1572 25.143 20.5292 25.9162 20.5151L39.3901 20.3459C44.3325 20.2561 48.2531 15.6803 48.1469 10.1257L48.1252 9L22.1189 9.4729L0.154501 9.41272Z" fill="white"/>
<path d="M0.154501 9.41272C-0.0466706 9.41223 -0.0535065 9.75635 0.146445 9.82031L13.7441 14.1677L16.561 15.2621C17.0205 15.4407 17.2861 15.9816 17.1743 16.5118C17.0463 17.119 16.4804 17.4678 15.9541 17.2637L6.21261 13.4867C6.03072 13.4161 5.94283 13.7463 6.10689 13.8833L15.0393 21.3333C15.6169 21.8149 15.8845 22.6361 15.7197 23.4197L14.6438 39.2581L26.885 36.5787C31.696 35.6556 34.9521 32.6543 34.8535 27.495L34.8317 26.3693L26.1767 26.5267C25.0036 26.5481 24.8086 25.7 24.8086 24.1105V22.1121L24.8361 21.9818C25.0105 21.1572 25.143 20.5292 25.9162 20.5151L39.3901 20.3459C44.3325 20.2561 48.2531 15.6803 48.1469 10.1257L48.1252 9L22.1189 9.4729L0.154501 9.41272Z" fill="#00AEE8"/>
<path d="M22.7805 39.2872C17.8027 40.261 14.0974 44.4882 13.7517 49.5875L13.6743 50.7269C13.4707 55.6971 17.5459 60.3293 21.8161 59.9816L22.6713 40.5414C22.6743 40.4736 22.6809 40.3794 22.6894 40.2727C22.6965 40.1852 22.7045 40.0892 22.7131 39.9927L22.7273 39.8362C22.7544 39.5449 22.7805 39.2872 22.7805 39.2872Z" fill="white"/>
<path d="M22.7805 39.2872C17.8027 40.261 14.0974 44.4882 13.7517 49.5875L13.6743 50.7269C13.4707 55.6971 17.5459 60.3293 21.8161 59.9816L22.6713 40.5414C22.6743 40.4736 22.6809 40.3794 22.6894 40.2727C22.6965 40.1852 22.7045 40.0892 22.7131 39.9927L22.7273 39.8362C22.7544 39.5449 22.7805 39.2872 22.7805 39.2872Z" fill="#00AEE8"/>
<path d="M40.896 30.04C40.896 28.2053 41.2373 26.5947 41.92 25.208C42.624 23.8213 43.5733 22.7547 44.768 22.008C45.9627 21.2613 47.296 20.888 48.768 20.888C50.0267 20.888 51.1253 21.144 52.064 21.656C53.024 22.168 53.76 22.84 54.272 23.672V21.144H59.744V39H54.272V36.472C53.7387 37.304 52.992 37.976 52.032 38.488C51.0933 39 49.9947 39.256 48.736 39.256C47.2853 39.256 45.9627 38.8827 44.768 38.136C43.5733 37.368 42.624 36.2907 41.92 34.904C41.2373 33.496 40.896 31.8747 40.896 30.04ZM54.272 30.072C54.272 28.7067 53.888 27.6293 53.12 26.84C52.3733 26.0507 51.456 25.656 50.368 25.656C49.28 25.656 48.352 26.0507 47.584 26.84C46.8373 27.608 46.464 28.6747 46.464 30.04C46.464 31.4053 46.8373 32.4933 47.584 33.304C48.352 34.0933 49.28 34.488 50.368 34.488C51.456 34.488 52.3733 34.0933 53.12 33.304C53.888 32.5147 54.272 31.4373 54.272 30.072ZM70.9668 39.256C69.4094 39.256 68.0228 38.9893 66.8068 38.456C65.5908 37.9227 64.6308 37.1973 63.9268 36.28C63.2228 35.3413 62.8281 34.296 62.7428 33.144H68.1508C68.2148 33.7627 68.5028 34.264 69.0148 34.648C69.5268 35.032 70.1561 35.224 70.9028 35.224C71.5854 35.224 72.1081 35.096 72.4708 34.84C72.8548 34.5627 73.0468 34.2107 73.0468 33.784C73.0468 33.272 72.7801 32.8987 72.2468 32.664C71.7134 32.408 70.8494 32.1307 69.6548 31.832C68.3748 31.5333 67.3081 31.224 66.4548 30.904C65.6014 30.5627 64.8654 30.04 64.2468 29.336C63.6281 28.6107 63.3188 27.64 63.3188 26.424C63.3188 25.4 63.5961 24.472 64.1508 23.64C64.7268 22.7867 65.5588 22.1147 66.6468 21.624C67.7561 21.1333 69.0681 20.888 70.5828 20.888C72.8228 20.888 74.5828 21.4427 75.8628 22.552C77.1641 23.6613 77.9108 25.1333 78.1028 26.968H73.0468C72.9614 26.3493 72.6841 25.8587 72.2148 25.496C71.7668 25.1333 71.1694 24.952 70.4228 24.952C69.7828 24.952 69.2921 25.08 68.9508 25.336C68.6094 25.5707 68.4388 25.9013 68.4388 26.328C68.4388 26.84 68.7054 27.224 69.2388 27.48C69.7934 27.736 70.6468 27.992 71.7988 28.248C73.1214 28.5893 74.1988 28.9307 75.0308 29.272C75.8628 29.592 76.5881 30.1253 77.2068 30.872C77.8468 31.5973 78.1774 32.5787 78.1988 33.816C78.1988 34.8613 77.9001 35.8 77.3028 36.632C76.7268 37.4427 75.8841 38.0827 74.7748 38.552C73.6868 39.0213 72.4174 39.256 70.9668 39.256ZM91.4985 34.36V39H88.7145C86.7305 39 85.1838 38.52 84.0745 37.56C82.9652 36.5787 82.4105 34.9893 82.4105 32.792V25.688H80.2345V21.144H82.4105V16.792H87.8825V21.144H91.4665V25.688H87.8825V32.856C87.8825 33.3893 88.0105 33.7733 88.2665 34.008C88.5225 34.2427 88.9492 34.36 89.5465 34.36H91.4985ZM93.4585 30.04C93.4585 28.2053 93.7998 26.5947 94.4825 25.208C95.1865 23.8213 96.1358 22.7547 97.3305 22.008C98.5252 21.2613 99.8585 20.888 101.331 20.888C102.589 20.888 103.688 21.144 104.627 21.656C105.587 22.168 106.323 22.84 106.835 23.672V21.144H112.307V39H106.835V36.472C106.301 37.304 105.555 37.976 104.595 38.488C103.656 39 102.557 39.256 101.299 39.256C99.8478 39.256 98.5252 38.8827 97.3305 38.136C96.1358 37.368 95.1865 36.2907 94.4825 34.904C93.7998 33.496 93.4585 31.8747 93.4585 30.04ZM106.835 30.072C106.835 28.7067 106.451 27.6293 105.683 26.84C104.936 26.0507 104.019 25.656 102.931 25.656C101.843 25.656 100.915 26.0507 100.147 26.84C99.3998 27.608 99.0265 28.6747 99.0265 30.04C99.0265 31.4053 99.3998 32.4933 100.147 33.304C100.915 34.0933 101.843 34.488 102.931 34.488C104.019 34.488 104.936 34.0933 105.683 33.304C106.451 32.5147 106.835 31.4373 106.835 30.072ZM121.737 23.672C122.271 22.84 123.007 22.168 123.945 21.656C124.884 21.144 125.983 20.888 127.241 20.888C128.713 20.888 130.047 21.2613 131.241 22.008C132.436 22.7547 133.375 23.8213 134.057 25.208C134.761 26.5947 135.113 28.2053 135.113 30.04C135.113 31.8747 134.761 33.496 134.057 34.904C133.375 36.2907 132.436 37.368 131.241 38.136C130.047 38.8827 128.713 39.256 127.241 39.256C126.004 39.256 124.905 39 123.945 38.488C123.007 37.976 122.271 37.3147 121.737 36.504V47.512H116.265V21.144H121.737V23.672ZM129.545 30.04C129.545 28.6747 129.161 27.608 128.393 26.84C127.647 26.0507 126.719 25.656 125.609 25.656C124.521 25.656 123.593 26.0507 122.825 26.84C122.079 27.6293 121.705 28.7067 121.705 30.072C121.705 31.4373 122.079 32.5147 122.825 33.304C123.593 34.0933 124.521 34.488 125.609 34.488C126.697 34.488 127.625 34.0933 128.393 33.304C129.161 32.4933 129.545 31.4053 129.545 30.04ZM136.896 30.04C136.896 28.2053 137.237 26.5947 137.92 25.208C138.624 23.8213 139.573 22.7547 140.768 22.008C141.963 21.2613 143.296 20.888 144.768 20.888C146.027 20.888 147.125 21.144 148.064 21.656C149.024 22.168 149.76 22.84 150.272 23.672V21.144H155.744V39H150.272V36.472C149.739 37.304 148.992 37.976 148.032 38.488C147.093 39 145.995 39.256 144.736 39.256C143.285 39.256 141.963 38.8827 140.768 38.136C139.573 37.368 138.624 36.2907 137.92 34.904C137.237 33.496 136.896 31.8747 136.896 30.04ZM150.272 30.072C150.272 28.7067 149.888 27.6293 149.12 26.84C148.373 26.0507 147.456 25.656 146.368 25.656C145.28 25.656 144.352 26.0507 143.584 26.84C142.837 27.608 142.464 28.6747 142.464 30.04C142.464 31.4053 142.837 32.4933 143.584 33.304C144.352 34.0933 145.28 34.488 146.368 34.488C147.456 34.488 148.373 34.0933 149.12 33.304C149.888 32.5147 150.272 31.4373 150.272 30.072ZM177.943 21.144L166.743 47.48H160.855L164.951 38.392L157.687 21.144H163.799L167.927 32.312L172.023 21.144H177.943Z" fill="#00AEE8"/>
</svg>
