<svg width="96" height="36" viewBox="0 0 96 36" fill="none" xmlns="http://www.w3.org/2000/svg">
  <path d="M41.6342 23.4413C41.9985 23.4413 42.3818 23.4108 42.7844 23.3498C43.187 23.2888 43.5608 23.2177 43.9058 23.1363C44.3084 23.055 44.7014 22.9533 45.0848 22.8313V21.0013H40.9154C40.6278 21.0013 40.3882 21.103 40.1965 21.3063C40.0048 21.5097 39.909 21.7638 39.909 22.0688V22.3738C39.909 22.6788 40.0048 22.933 40.1965 23.1363C40.3882 23.3397 40.6278 23.4413 40.9154 23.4413H41.6342ZM39.1901 27.7114C37.8866 27.7114 36.8418 27.2945 36.0559 26.4608C35.2699 25.6272 34.877 24.519 34.877 23.1363V21.7638C34.877 20.3812 35.2699 19.273 36.0559 18.4393C36.8418 17.6057 37.8866 17.1888 39.1901 17.1888H45.0848V15.9688C45.0848 15.6638 44.9889 15.4097 44.7972 15.2063C44.6055 15.003 44.3659 14.9013 44.0784 14.9013C43.3116 14.9013 42.4777 14.9318 41.5767 14.9928C40.6949 15.0335 39.861 15.0843 39.0751 15.1453C38.155 15.2267 37.2348 15.2978 36.3147 15.3588V11.5463C37.369 11.4243 38.4425 11.3226 39.5352 11.2413C40.4745 11.16 41.5 11.0888 42.6119 11.0278C43.7237 10.9668 44.7876 10.9363 45.8036 10.9363C47.1072 10.9363 48.1519 11.3531 48.9378 12.1868C49.7238 13.0205 50.1168 14.1286 50.1168 15.5113V27.4064H45.6598L45.3723 25.8813C44.8739 26.227 44.3371 26.532 43.7621 26.7963C43.2636 27.02 42.7077 27.2234 42.0943 27.4064C41.4809 27.6097 40.8483 27.7114 40.1965 27.7114H39.1901Z" fill="#00AEE8"/>
  <path d="M56.8662 16.2738C56.8662 16.5788 56.962 16.833 57.1537 17.0363C57.3454 17.2397 57.5851 17.3413 57.8726 17.3413H63.0484C64.3519 17.3413 65.3967 17.7582 66.1826 18.5918C66.9686 19.4255 67.3615 20.5337 67.3615 21.9163V23.1363C67.3615 24.519 66.9686 25.6272 66.1826 26.4608C65.3967 27.2945 64.3519 27.7114 63.0484 27.7114C61.8215 27.7114 60.5659 27.6809 59.2816 27.6199C57.9972 27.5589 56.8183 27.4877 55.7448 27.4064C54.4988 27.325 53.2911 27.2234 52.1217 27.1014V26.2801C52.1217 24.5852 53.5661 23.25 55.256 23.3803C56.1761 23.4413 57.1729 23.4922 58.2464 23.5328C59.3199 23.5735 60.3455 23.5938 61.3231 23.5938C61.6107 23.5938 61.8503 23.4922 62.042 23.2888C62.2337 23.0855 62.3295 22.8313 62.3295 22.5263V21.4588H56.1473C54.8438 21.4588 53.7991 21.042 53.0131 20.2083C52.2272 19.3747 51.8342 18.2665 51.8342 16.8838V15.8163C51.8342 14.4337 52.2272 13.3255 53.0131 12.4918C53.7991 11.6581 54.8438 11.2413 56.1473 11.2413H65.9238C65.9238 13.4311 64.1486 15.2063 61.9588 15.2063H57.8726C57.5851 15.2063 57.3454 15.308 57.1537 15.5113C56.962 15.7147 56.8662 15.9688 56.8662 16.2738Z" fill="#00AEE8"/>
  <path d="M75.2713 11.2413H78.8656V15.3588H75.2713V22.3738C75.2713 22.6788 75.3671 22.933 75.5588 23.1363C75.7505 23.3397 75.9901 23.4413 76.2777 23.4413C78.3421 23.4413 80.0157 25.1149 80.0157 27.1794V27.4064C79.4598 27.4674 78.8751 27.5182 78.2617 27.5589C77.7441 27.5995 77.1595 27.63 76.5077 27.6504C75.8559 27.691 75.2042 27.7114 74.5524 27.7114C73.2489 27.7114 72.2041 27.2945 71.4182 26.4608C70.6322 25.6272 70.2392 24.519 70.2392 23.1363V15.3588H68.514V11.2413H70.2392C70.5703 9.13402 72.3861 7.5813 74.5192 7.5813H75.2713V11.2413Z" fill="#00AEE8"/>
  <path d="M87.5177 23.4413C87.8819 23.4413 88.2653 23.4108 88.6679 23.3498C89.0704 23.2888 89.4442 23.2177 89.7893 23.1363C90.1919 23.055 90.5848 22.9533 90.9682 22.8313V21.0013H86.7988C86.5113 21.0013 86.2717 21.103 86.08 21.3063C85.8883 21.5097 85.7924 21.7638 85.7924 22.0688V22.3738C85.7924 22.6788 85.8883 22.933 86.08 23.1363C86.2717 23.3397 86.5113 23.4413 86.7988 23.4413H87.5177ZM85.0736 27.7114C83.77 27.7114 82.7253 27.2945 81.9393 26.4608C81.1534 25.6272 80.7604 24.519 80.7604 23.1363V21.7638C80.7604 20.3812 81.1534 19.273 81.9393 18.4393C82.7253 17.6057 83.77 17.1888 85.0736 17.1888H90.9682V15.9688C90.9682 15.6638 90.8724 15.4097 90.6807 15.2063C90.489 15.003 90.2494 14.9013 89.9618 14.9013C89.195 14.9013 88.3612 14.9318 87.4602 14.9928C86.5784 15.0335 85.7445 15.0843 84.9586 15.1453C83.4658 15.2773 82.1981 14.0887 82.1981 12.5901V11.5463C83.2525 11.4243 84.326 11.3226 85.4186 11.2413C86.3579 11.16 87.3835 11.0888 88.4953 11.0278C89.6072 10.9668 90.6711 10.9363 91.6871 10.9363C92.9906 10.9363 94.0354 11.3531 94.8213 12.1868C95.6073 13.0205 96.0002 14.1286 96.0002 15.5113V27.4064H91.5433L91.2558 25.8813C90.7574 26.227 90.2206 26.532 89.6455 26.7963C89.1471 27.02 88.5912 27.2234 87.9778 27.4064C87.3643 27.6097 86.7317 27.7114 86.08 27.7114H85.0736Z" fill="#00AEE8"/>
  <path d="M0.144058 4.62821e-05C-0.0380885 -0.00386142 -0.0504366 0.240846 0.129436 0.289812L12.3625 3.61995L14.8933 4.44763C15.3062 4.58266 15.5371 4.9721 15.4267 5.34733C15.3002 5.77703 14.7817 6.0152 14.3088 5.86083L5.55652 3.00388C5.39315 2.95056 5.30768 3.18392 5.45386 3.28416L13.4092 8.73981C13.9235 9.09254 14.1514 9.68129 13.9882 10.2358L10.3417 21.6527L23.8644 19.7916C28.236 19.219 31.2364 17.1409 31.2378 13.4691L31.2382 12.668L23.4001 12.6287C22.3377 12.6234 21.5629 11.7318 21.8332 10.8256L22.2392 9.46445C22.4266 8.8362 23.0707 8.4008 23.8073 8.40449L35.4705 8.46292C39.9464 8.48534 43.576 5.29886 43.5776 1.34571L43.5779 0.544573L20.0267 0.426601L0.144058 4.62821e-05Z" fill="#00AEE8"/>
  <path d="M0.144058 4.62821e-05C-0.0380885 -0.00386142 -0.0504366 0.240846 0.129436 0.289812L12.3625 3.61995L14.8933 4.44763C15.3062 4.58266 15.5371 4.9721 15.4267 5.34733C15.3002 5.77703 14.7817 6.0152 14.3088 5.86083L5.55652 3.00388C5.39315 2.95056 5.30768 3.18392 5.45386 3.28416L13.4092 8.73981C13.9235 9.09254 14.1514 9.68129 13.9882 10.2358L10.3417 21.6527L23.8644 19.7916C28.236 19.219 31.2364 17.1409 31.2378 13.4691L31.2382 12.668L23.4001 12.6287C22.3377 12.6234 21.5629 11.7318 21.8332 10.8256L22.2392 9.46445C22.4266 8.8362 23.0707 8.4008 23.8073 8.40449L35.4705 8.46292C39.9464 8.48534 43.576 5.29886 43.5776 1.34571L43.5779 0.544573L20.0267 0.426601L0.144058 4.62821e-05Z" fill="#00AEE8"/>
  <path d="M15.0478 22.578C11.8156 23.0901 9.15123 25.3667 8.14364 28.4773C7.14328 31.7312 9.96131 35.3146 13.7738 35.6367L17.7379 22.9173C17.804 22.7052 18.0411 22.1038 18.0411 22.1038L15.0478 22.578Z" fill="#00AEE8"/>
  <path d="M15.0478 22.578C11.8156 23.0901 9.15123 25.3667 8.14364 28.4773C7.14328 31.7312 9.96131 35.3146 13.7738 35.6367L17.7379 22.9173C17.804 22.7052 18.0411 22.1038 18.0411 22.1038L15.0478 22.578Z" fill="#00AEE8"/>
</svg>
