<svg width="223" height="65" viewBox="0 0 223 65" fill="none" xmlns="http://www.w3.org/2000/svg">
<path d="M215.035 64.1568H7.81047C5.73934 64.1522 3.7545 63.3605 2.29061 61.9551C0.82671 60.5496 0.00305307 58.645 0 56.6582L0 8.27101C0.00306085 6.28527 0.827088 4.38176 2.29131 2.97807C3.75554 1.57438 5.7404 0.785123 7.81047 0.783447L215.035 0.783447C219.339 0.783447 222.968 4.14224 222.968 8.27101V56.6582C222.968 60.7854 219.339 64.1568 215.035 64.1568Z" fill="#A6A6A6"/>
<path d="M221.369 56.66C221.369 57.4574 221.205 58.247 220.886 58.9836C220.568 59.7202 220.102 60.3894 219.514 60.953C218.925 61.5165 218.227 61.9633 217.459 62.2679C216.691 62.5725 215.868 62.7288 215.036 62.728H7.81026C6.13069 62.7297 4.51918 62.0914 3.33015 60.9534C2.14111 59.8155 1.47192 58.2712 1.46973 56.66V8.26965C1.47191 6.65776 2.14085 5.11259 3.32964 3.9734C4.51844 2.83422 6.12993 2.19414 7.81026 2.19373H215.035C215.866 2.19373 216.69 2.3509 217.458 2.65626C218.227 2.96162 218.925 3.4092 219.513 3.97342C220.101 4.53764 220.567 5.20746 220.885 5.94461C221.204 6.68177 221.367 7.47182 221.367 8.26965L221.369 56.66Z" fill="black"/>
<path d="M49.7604 32.1275C49.7125 27.0212 54.119 24.5369 54.3205 24.4213C51.8249 20.931 47.9569 20.4541 46.5976 20.4161C43.3489 20.0881 40.1976 22.2808 38.5427 22.2808C36.8547 22.2808 34.3063 20.4478 31.5597 20.5016C28.0252 20.5539 24.7187 22.5169 22.9052 25.5652C19.1627 31.7805 21.9539 40.9142 25.5395 45.9381C27.3332 48.3986 29.4291 51.1458 32.1724 51.0492C34.8563 50.943 35.8588 49.4078 39.0976 49.4078C42.3067 49.4078 43.2481 51.0492 46.0459 50.9874C48.9264 50.943 50.7398 48.5158 52.4707 46.0332C54.5435 43.2131 55.3759 40.4357 55.4089 40.2931C55.3412 40.271 49.8149 38.2478 49.7604 32.1275ZM44.4753 17.1112C45.9188 15.3795 46.9064 13.0236 46.6323 10.6328C44.543 10.7215 41.9301 12.0191 40.4255 13.7128C39.0943 15.2052 37.9052 17.6514 38.2124 19.9519C40.5593 20.1198 42.969 18.8159 44.4753 17.1112ZM88.6014 50.6959H84.8506L82.796 44.5027H75.6544L73.6972 50.6959H70.0455L77.121 29.6116H81.4912L88.6014 50.6959ZM82.1766 41.9044L80.3185 36.3989C80.122 35.8364 79.7537 34.5119 79.2103 32.4269H79.1442C78.8148 33.7553 78.4668 35.0794 78.1004 36.3989L76.2754 41.9044H82.1766ZM106.797 42.9073C106.797 45.4929 106.069 47.5367 104.612 49.0371C103.307 50.3727 101.687 51.0397 99.7531 51.0397C97.6654 51.0397 96.1658 50.3204 95.2524 48.8818H95.1863V56.8906H91.6651V40.4975C91.6651 38.872 91.6205 37.2037 91.5346 35.4926H94.6314L94.8279 37.9024H94.894C96.0683 36.0867 97.8504 35.1805 100.242 35.1805C102.112 35.1805 103.672 35.8887 104.921 37.3067C106.173 38.7262 106.797 40.5926 106.797 42.9073ZM103.21 43.0309C103.21 41.5511 102.863 40.3312 102.166 39.3711C101.405 38.3698 100.382 37.8691 99.1007 37.8691C98.2319 37.8691 97.4425 38.148 96.7372 38.6977C96.0303 39.2522 95.5679 39.9763 95.3515 40.873C95.2425 41.2913 95.188 41.6335 95.188 41.9028V44.4378C95.188 45.5436 95.5415 46.4768 96.2483 47.2389C96.9552 48.0009 97.8735 48.3812 99.0032 48.3812C100.329 48.3812 101.362 47.89 102.1 46.9109C102.84 45.9302 103.21 44.6374 103.21 43.0309ZM125.026 42.9073C125.026 45.4929 124.298 47.5367 122.839 49.0371C121.536 50.3727 119.916 51.0397 117.982 51.0397C115.894 51.0397 114.395 50.3204 113.483 48.8818H113.417V56.8906H109.896V40.4975C109.896 38.872 109.851 37.2037 109.765 35.4926H112.862L113.058 37.9024H113.124C114.297 36.0867 116.079 35.1805 118.472 35.1805C120.34 35.1805 121.901 35.8887 123.153 37.3067C124.4 38.7262 125.026 40.5926 125.026 42.9073ZM121.439 43.0309C121.439 41.5511 121.09 40.3312 120.393 39.3711C119.632 38.3698 118.613 37.8691 117.33 37.8691C116.464 37.8689 115.626 38.1624 114.964 38.6977C114.258 39.2522 113.797 39.9763 113.58 40.873C113.473 41.2913 113.417 41.6335 113.417 41.9028V44.4378C113.417 45.5436 113.77 46.4768 114.474 47.2389C115.181 47.9993 116.099 48.3812 117.232 48.3812C118.558 48.3812 119.591 47.89 120.329 46.9109C121.069 45.9302 121.439 44.6374 121.439 43.0309ZM145.407 44.7831C145.407 46.5766 144.758 48.0358 143.455 49.1623C142.023 50.3933 140.029 51.008 137.468 51.008C135.103 51.008 133.206 50.5707 131.771 49.6946L132.587 46.8792C134.133 47.776 135.829 48.2259 137.677 48.2259C139.004 48.2259 140.036 47.9376 140.777 47.364C141.516 46.7905 141.884 46.0205 141.884 45.0604C141.884 44.2049 141.58 43.484 140.971 42.8994C140.365 42.3148 139.352 41.7713 137.938 41.2691C134.09 39.8923 132.168 37.8755 132.168 35.2233C132.168 33.49 132.841 32.0689 134.191 30.963C135.535 29.8555 137.329 29.3026 139.572 29.3026C141.572 29.3026 143.233 29.6369 144.56 30.3039L143.679 33.0575C142.441 32.4111 141.04 32.0879 139.473 32.0879C138.234 32.0879 137.266 32.381 136.572 32.964C136.291 33.2027 136.067 33.4969 135.915 33.8263C135.763 34.1558 135.687 34.5129 135.692 34.8731C135.692 35.7065 136.027 36.3957 136.701 36.9375C137.288 37.4382 138.353 37.98 139.899 38.5646C141.79 39.295 143.179 40.149 144.072 41.1281C144.963 42.104 145.407 43.3256 145.407 44.7831ZM157.049 38.0275H153.168V45.409C153.168 47.2864 153.852 48.2243 155.222 48.2243C155.852 48.2243 156.374 48.172 156.787 48.0675L156.884 50.6325C156.19 50.8813 155.277 51.0064 154.146 51.0064C152.755 51.0064 151.668 50.5992 150.884 49.7865C150.102 48.9721 149.709 47.6064 149.709 45.6878V38.0244H147.397V35.4894H149.709V32.7058L153.168 31.7045V35.4894H157.049V38.0275ZM174.561 42.9691C174.561 45.306 173.864 47.2246 172.474 48.725C171.015 50.2697 169.079 51.0397 166.666 51.0397C164.341 51.0397 162.49 50.2998 161.109 48.82C159.728 47.3403 159.038 45.4723 159.038 43.221C159.038 40.8651 159.748 38.9354 161.173 37.435C162.595 35.9331 164.514 35.1821 166.927 35.1821C169.253 35.1821 171.124 35.922 172.536 37.4033C173.887 38.8403 174.561 40.6956 174.561 42.9691ZM170.908 43.0784C170.908 41.6763 170.596 40.4738 169.963 39.4709C169.225 38.2573 168.169 37.6521 166.802 37.6521C165.386 37.6521 164.311 38.2589 163.573 39.4709C162.94 40.4753 162.628 41.6969 162.628 43.1418C162.628 44.5439 162.94 45.7464 163.573 46.7477C164.334 47.9613 165.398 48.5665 166.771 48.5665C168.115 48.5665 169.17 47.9487 169.932 46.716C170.581 45.6941 170.908 44.479 170.908 43.0784ZM186.007 38.4632C185.641 38.3997 185.269 38.3685 184.897 38.3698C183.658 38.3698 182.7 38.8181 182.026 39.7164C181.44 40.5086 181.146 41.5099 181.146 42.7188V50.6959H177.627L177.66 40.2805C177.66 38.5282 177.615 36.9328 177.527 35.4942H180.594L180.723 38.403H180.821C181.192 37.4033 181.779 36.5985 182.581 35.9948C183.316 35.4674 184.209 35.1817 185.127 35.1805C185.452 35.1805 185.746 35.2027 186.007 35.2423V38.4632ZM201.755 42.375C201.764 42.8884 201.721 43.4015 201.626 43.907H191.062C191.104 45.409 191.614 46.5576 192.595 47.3498C193.485 48.058 194.637 48.4129 196.05 48.4129C197.614 48.4129 199.041 48.1736 200.325 47.6936L200.876 50.0384C199.377 50.6658 197.606 50.9779 195.563 50.9779C193.105 50.9779 191.176 50.284 189.773 48.8977C188.372 47.5114 187.67 45.6498 187.67 43.3145C187.67 41.0219 188.322 39.1128 189.629 37.5903C190.996 35.9647 192.844 35.152 195.17 35.152C197.454 35.152 199.183 35.9647 200.358 37.5903C201.288 38.8815 201.755 40.4785 201.755 42.375ZM198.397 41.4988C198.42 40.4975 198.191 39.6325 197.713 38.9021C197.104 37.9626 196.168 37.4936 194.907 37.4936C193.756 37.4936 192.82 37.9515 192.105 38.8704C191.518 39.6008 191.17 40.4769 191.062 41.4972H198.397V41.4988ZM81.0122 16.6406C81.0122 18.5054 80.4292 19.9091 79.2648 20.8518C78.1863 21.7216 76.6536 22.1573 74.6684 22.1573C73.684 22.1573 72.8417 22.1161 72.1365 22.0337V11.8448C73.0564 11.7022 74.0474 11.6294 75.1176 11.6294C77.0087 11.6294 78.4341 12.0239 79.3953 12.8129C80.4721 13.7048 81.0122 14.9802 81.0122 16.6406ZM79.1872 16.6866C79.1872 15.4777 78.8536 14.5509 78.1863 13.9045C77.5191 13.2596 76.5446 12.9364 75.2613 12.9364C74.7163 12.9364 74.2522 12.9713 73.8673 13.0442V20.79C74.0804 20.8217 74.4702 20.8359 75.0367 20.8359C76.3613 20.8359 77.3836 20.4826 78.1037 19.776C78.8238 19.0694 79.1872 18.0396 79.1872 16.6866ZM90.689 18.2693C90.689 19.4179 90.3471 20.359 89.6634 21.0973C88.9466 21.8562 87.9969 22.2349 86.811 22.2349C85.6681 22.2349 84.7581 21.8721 84.0793 21.1433C83.4021 20.4161 83.0635 19.4987 83.0635 18.3929C83.0635 17.2363 83.412 16.2873 84.1123 15.5506C84.8126 14.8139 85.754 14.4447 86.9398 14.4447C88.0828 14.4447 89.0011 14.8075 89.6964 15.5347C90.357 16.2414 90.689 17.1539 90.689 18.2693ZM88.8937 18.3232C88.8937 17.634 88.7385 17.043 88.4296 16.5503C88.0663 15.9546 87.5493 15.6567 86.8771 15.6567C86.1818 15.6567 85.6532 15.9546 85.2899 16.5503C84.9794 17.043 84.8258 17.6435 84.8258 18.3533C84.8258 19.0425 84.981 19.6334 85.2899 20.1261C85.6648 20.7219 86.1867 21.0197 86.8606 21.0197C87.5212 21.0197 88.0398 20.7171 88.4131 20.1103C88.7335 19.6081 88.8937 19.0124 88.8937 18.3232ZM103.664 14.5968L101.228 22.0654H99.6424L98.6333 18.8222C98.3818 18.0287 98.1728 17.2233 98.0073 16.4093H97.9759C97.8266 17.2267 97.6174 18.033 97.35 18.8222L96.2781 22.0654H94.6743L92.3836 14.5968H94.1624L95.0427 18.1473C95.2557 18.987 95.4308 19.7871 95.5712 20.5444H95.6026C95.7314 19.9202 95.9444 19.1248 96.245 18.1632L97.35 14.5984H98.7604L99.8191 18.0871C100.075 18.9379 100.283 19.757 100.443 20.546H100.491C100.609 19.7776 100.785 18.9585 101.02 18.0871L101.965 14.5984H103.664V14.5968ZM112.637 22.0654H110.906V17.7877C110.906 16.4695 110.384 15.8104 109.337 15.8104C109.1 15.8037 108.863 15.8492 108.647 15.9434C108.43 16.0376 108.239 16.1779 108.087 16.3538C107.77 16.7104 107.599 17.1654 107.606 17.634V22.0638H105.876V16.7309C105.876 16.075 105.854 15.3636 105.813 14.5936H107.334L107.415 15.7613H107.463C107.664 15.3985 107.965 15.0991 108.36 14.8598C108.829 14.581 109.354 14.44 109.929 14.44C110.655 14.44 111.26 14.6649 111.74 15.1165C112.338 15.6694 112.637 16.4949 112.637 17.5912V22.0654ZM117.41 22.0654H115.681V11.1699H117.41V22.0654ZM127.601 18.2693C127.601 19.4179 127.259 20.359 126.575 21.0973C125.858 21.8562 124.907 22.2349 123.723 22.2349C122.578 22.2349 121.668 21.8721 120.991 21.1433C120.314 20.4161 119.975 19.4987 119.975 18.3929C119.975 17.2363 120.324 16.2873 121.024 15.5506C121.724 14.8139 122.666 14.4447 123.85 14.4447C124.995 14.4447 125.911 14.8075 126.608 15.5347C127.269 16.2414 127.601 17.1539 127.601 18.2693ZM125.804 18.3232C125.804 17.634 125.649 17.043 125.34 16.5503C124.978 15.9546 124.46 15.6567 123.789 15.6567C123.092 15.6567 122.563 15.9546 122.202 16.5503C121.891 17.043 121.738 17.6435 121.738 18.3533C121.738 19.0425 121.893 19.6334 122.202 20.1261C122.577 20.7219 123.099 21.0197 123.772 21.0197C124.433 21.0197 124.95 20.7171 125.323 20.1103C125.645 19.6081 125.804 19.0124 125.804 18.3232ZM135.978 22.0654H134.424L134.295 21.2051H134.247C133.715 21.8911 132.957 22.2349 131.973 22.2349C131.238 22.2349 130.643 22.0083 130.196 21.5584C129.994 21.3559 129.837 21.1173 129.733 20.8563C129.628 20.5952 129.578 20.317 129.586 20.0374C129.586 19.1248 129.983 18.4293 130.78 17.9477C131.576 17.466 132.696 17.23 134.138 17.2411V17.1017C134.138 16.1178 133.6 15.6266 132.521 15.6266C131.753 15.6266 131.076 15.812 130.491 16.1796L130.139 15.0895C130.863 14.6602 131.756 14.4447 132.81 14.4447C134.845 14.4447 135.866 15.4745 135.866 17.5342V20.2846C135.866 21.0308 135.904 21.6249 135.978 22.0654ZM134.181 19.4987V18.3469C132.272 18.3153 131.317 18.8175 131.317 19.8521C131.317 20.2418 131.426 20.5333 131.649 20.7282C131.881 20.9258 132.184 21.0302 132.495 21.0197C132.874 21.0197 133.23 20.9041 133.553 20.6743C133.75 20.5421 133.91 20.366 134.019 20.1611C134.128 19.9562 134.184 19.7289 134.181 19.4987ZM145.813 22.0654H144.277L144.196 20.866H144.148C143.658 21.7786 142.822 22.2349 141.648 22.2349C140.71 22.2349 139.929 21.8816 139.309 21.175C138.69 20.4684 138.381 19.551 138.381 18.4246C138.381 17.2157 138.716 16.2366 139.39 15.4888C140.042 14.7917 140.842 14.4431 141.793 14.4431C142.839 14.4431 143.57 14.7806 143.987 15.4571H144.02V11.1699H145.752V20.0533C145.752 20.7805 145.772 21.4507 145.813 22.0654ZM144.02 18.9157V17.6704C144.036 17.3832 143.984 17.0962 143.867 16.8313C143.75 16.5664 143.572 16.3305 143.346 16.1415C143.026 15.8717 142.613 15.7264 142.188 15.7344C141.542 15.7344 141.037 15.9799 140.665 16.4727C140.297 16.9654 140.11 17.5944 140.11 18.3628C140.11 19.1011 140.287 19.7 140.642 20.161C141.017 20.6521 141.522 20.8977 142.155 20.8977C142.723 20.8977 143.177 20.6933 143.522 20.283C143.856 19.9043 144.02 19.4481 144.02 18.9157ZM160.617 18.2693C160.617 19.4179 160.275 20.359 159.591 21.0973C158.874 21.8562 157.926 22.2349 156.739 22.2349C155.597 22.2349 154.687 21.8721 154.007 21.1433C153.33 20.4161 152.991 19.4987 152.991 18.3929C152.991 17.2363 153.34 16.2873 154.04 15.5506C154.74 14.8139 155.682 14.4447 156.869 14.4447C158.01 14.4447 158.93 14.8075 159.624 15.5347C160.285 16.2414 160.617 17.1539 160.617 18.2693ZM158.823 18.3232C158.823 17.634 158.668 17.043 158.359 16.5503C157.994 15.9546 157.479 15.6567 156.805 15.6567C156.111 15.6567 155.582 15.9546 155.217 16.5503C154.907 17.043 154.753 17.6435 154.753 18.3533C154.753 19.0425 154.909 19.6334 155.217 20.1261C155.592 20.7219 156.114 21.0197 156.788 21.0197C157.449 21.0197 157.969 20.7171 158.342 20.1103C158.661 19.6081 158.823 19.0124 158.823 18.3232ZM169.923 22.0654H168.194V17.7877C168.194 16.4695 167.672 15.8104 166.624 15.8104C166.11 15.8104 165.695 15.991 165.375 16.3538C165.054 16.7167 164.894 17.1444 164.894 17.634V22.0638H163.162V16.7309C163.162 16.075 163.142 15.3636 163.101 14.5936H164.62L164.701 15.7613H164.749C164.961 15.391 165.27 15.0802 165.646 14.8598C166.116 14.581 166.64 14.44 167.216 14.44C167.941 14.44 168.546 14.6649 169.027 15.1165C169.626 15.6694 169.923 16.4949 169.923 17.5912V22.0654ZM181.572 15.8405H179.666V19.4686C179.666 20.3907 180.005 20.8518 180.675 20.8518C180.986 20.8518 181.244 20.8264 181.447 20.7741L181.491 22.0337C181.149 22.1573 180.7 22.2191 180.147 22.2191C179.463 22.2191 178.931 22.0194 178.546 21.6202C178.16 21.2209 177.968 20.5492 177.968 19.6065V15.8405H176.83V14.5968H177.968V13.228L179.665 12.7368V14.5952H181.571V15.8405H181.572ZM190.735 22.0654H189.003V17.8194C189.003 16.4806 188.481 15.8104 187.435 15.8104C186.633 15.8104 186.084 16.1986 185.784 16.9749C185.727 17.1692 185.7 17.3704 185.703 17.5722V22.0638H183.974V11.1699H185.703V15.671H185.736C186.281 14.8519 187.062 14.4431 188.075 14.4431C188.791 14.4431 189.384 14.6681 189.855 15.1196C190.441 15.6821 190.735 16.5186 190.735 17.6245V22.0654ZM200.188 17.9778C200.188 18.2756 200.164 18.526 200.123 18.7303H194.932C194.955 19.4686 195.203 20.0311 195.684 20.4208C196.123 20.7694 196.689 20.9437 197.383 20.9437C198.151 20.9437 198.851 20.8264 199.482 20.5904L199.753 21.7438C199.015 22.0511 198.146 22.2048 197.14 22.2048C195.935 22.2048 194.985 21.8642 194.298 21.1829C193.608 20.5016 193.266 19.5875 193.266 18.4404C193.266 17.314 193.584 16.376 194.227 15.6282C194.897 14.8297 195.804 14.4305 196.949 14.4305C198.069 14.4305 198.919 14.8297 199.494 15.6282C199.958 16.262 200.188 17.0462 200.188 17.9778ZM198.536 17.5484C198.56 17.1007 198.443 16.6563 198.201 16.273C197.9 15.812 197.443 15.5807 196.823 15.5807C196.553 15.5763 196.287 15.6357 196.046 15.7537C195.806 15.8717 195.6 16.0446 195.446 16.2572C195.152 16.6331 194.974 17.0804 194.932 17.5484H198.536Z" fill="white"/>
</svg>
