<svg width="91" height="88" viewBox="0 0 91 88" fill="none" xmlns="http://www.w3.org/2000/svg">
<g filter="url(#filter0_d_2_181)">
<ellipse cx="45.2554" cy="40" rx="30.7663" ry="30" fill="white"/>
</g>
<g clip-path="url(#clip0_2_181)">
<path d="M51.5553 27.647H40.7653C37.2536 27.647 34.3967 30.4327 34.3967 33.8569V44.3783C34.3967 47.8024 37.2536 50.5881 40.7653 50.5881H51.5555C55.067 50.5881 57.9239 47.8024 57.9239 44.3783V33.8569C57.9239 30.4327 55.067 27.647 51.5553 27.647V27.647ZM56.5446 44.3783C56.5446 47.0608 54.3065 49.2432 51.5553 49.2432H40.7653C38.0142 49.2432 35.776 47.0608 35.776 44.3783V33.8569C35.776 31.1743 38.0142 28.9919 40.7653 28.9919H51.5555C54.3065 28.9919 56.5446 31.1743 56.5446 33.8569V44.3783Z" fill="black"/>
<path d="M46.1603 32.8447C42.6131 32.8447 39.7273 35.6586 39.7273 39.1175C39.7273 42.5764 42.6131 45.3903 46.1603 45.3903C49.7075 45.3903 52.5933 42.5764 52.5933 39.1175C52.5933 35.6586 49.7075 32.8447 46.1603 32.8447ZM46.1603 44.0454C43.3738 44.0454 41.1066 41.8348 41.1066 39.1175C41.1066 36.4004 43.3738 34.1896 46.1603 34.1896C48.947 34.1896 51.2141 36.4004 51.2141 39.1175C51.2141 41.8348 48.947 44.0454 46.1603 44.0454Z" fill="black"/>
<path d="M52.7465 30.6162C51.6982 30.6162 50.8456 31.4478 50.8456 32.4697C50.8456 33.4919 51.6982 34.3235 52.7465 34.3235C53.7948 34.3235 54.6476 33.4919 54.6476 32.4697C54.6476 31.4476 53.7948 30.6162 52.7465 30.6162ZM52.7465 32.9784C52.4589 32.9784 52.2249 32.7501 52.2249 32.4697C52.2249 32.1892 52.4589 31.9611 52.7465 31.9611C53.0342 31.9611 53.2683 32.1892 53.2683 32.4697C53.2683 32.7501 53.0342 32.9784 52.7465 32.9784Z" fill="black"/>
</g>
<defs>
<filter id="filter0_d_2_181" x="0.489136" y="0" width="89.5326" height="88" filterUnits="userSpaceOnUse" color-interpolation-filters="sRGB">
<feFlood flood-opacity="0" result="BackgroundImageFix"/>
<feColorMatrix in="SourceAlpha" type="matrix" values="0 0 0 0 0 0 0 0 0 0 0 0 0 0 0 0 0 0 127 0" result="hardAlpha"/>
<feOffset dy="4"/>
<feGaussianBlur stdDeviation="7"/>
<feColorMatrix type="matrix" values="0 0 0 0 0 0 0 0 0 0 0 0 0 0 0 0 0 0 0.15 0"/>
<feBlend mode="normal" in2="BackgroundImageFix" result="effect1_dropShadow_2_181"/>
<feBlend mode="normal" in="SourceGraphic" in2="effect1_dropShadow_2_181" result="shape"/>
</filter>
<clipPath id="clip0_2_181">
<rect width="23.5272" height="22.9412" fill="white" transform="translate(34.3967 27.647)"/>
</clipPath>
</defs>
</svg>
