<svg width="257" height="96" viewBox="0 0 257 96" fill="none" xmlns="http://www.w3.org/2000/svg">
<g clip-path="url(#clip0_2_1037)">
<path d="M231.42 16.7834H25.0788C20.5205 16.7834 16.8252 20.3301 16.8252 24.7051V72.2352C16.8252 76.6102 20.5205 80.1568 25.0788 80.1568H231.42C235.978 80.1568 239.673 76.6102 239.673 72.2352V24.7051C239.673 20.3301 235.978 16.7834 231.42 16.7834Z" fill="black"/>
<path d="M231.42 18.0509C233.258 18.0509 235.022 18.752 236.322 19.9999C237.622 21.2478 238.353 22.9403 238.353 24.7051V72.2352C238.353 74 237.622 75.6925 236.322 76.9404C235.022 78.1883 233.258 78.8894 231.42 78.8894H25.0788C23.2401 78.8894 21.4766 78.1883 20.1764 76.9404C18.8762 75.6925 18.1458 74 18.1458 72.2352V24.7051C18.1458 22.9403 18.8762 21.2478 20.1764 19.9999C21.4766 18.752 23.2401 18.0509 25.0788 18.0509H231.42ZM231.42 16.7834H25.0788C22.8898 16.7834 20.7905 17.618 19.2426 19.1037C17.6948 20.5893 16.8252 22.6042 16.8252 24.7051V72.2352C16.8252 74.3361 17.6948 76.351 19.2426 77.8366C20.7905 79.3222 22.8898 80.1568 25.0788 80.1568H231.42C233.609 80.1568 235.708 79.3222 237.256 77.8366C238.804 76.351 239.673 74.3361 239.673 72.2352V24.7051C239.673 22.6042 238.804 20.5893 237.256 19.1037C235.708 17.618 233.609 16.7834 231.42 16.7834Z" fill="#A6A6A6"/>
<path d="M95.102 33.0067C95.13 33.5878 95.0348 34.1684 94.8219 34.7131C94.6091 35.2578 94.2832 35.7553 93.8639 36.1754C93.3958 36.6421 92.8304 37.0089 92.2047 37.2519C91.579 37.4948 90.9069 37.6085 90.2323 37.5854C89.2089 37.5778 88.2105 37.2803 87.3624 36.7305C86.5142 36.1806 85.8541 35.4027 85.4645 34.4943C85.075 33.5858 84.9735 32.5873 85.1727 31.6237C85.3718 30.6602 85.8629 29.7745 86.5842 29.0776C87.0583 28.613 87.6267 28.2468 88.2542 28.0015C88.8817 27.7562 89.555 27.6372 90.2323 27.6517C90.9302 27.6494 91.6212 27.7842 92.2627 28.0478C92.8601 28.279 93.3918 28.6428 93.8144 29.1093L92.9395 29.949C92.6101 29.5728 92.194 29.2754 91.7241 29.0802C91.2543 28.8849 90.7436 28.7973 90.2323 28.8241C89.7167 28.8216 89.2059 28.9192 88.7305 29.1108C88.2551 29.3025 87.8249 29.5843 87.4658 29.9394C87.1066 30.2944 86.8259 30.7155 86.6403 31.1772C86.4548 31.6389 86.3684 32.1319 86.3861 32.6265C86.3753 33.365 86.5926 34.09 87.0107 34.7101C87.4287 35.3303 88.0287 35.8176 88.735 36.1108C89.4413 36.404 90.2223 36.4899 90.9794 36.3576C91.7365 36.2253 92.4358 35.8807 92.9891 35.3674C93.497 34.8391 93.79 34.153 93.8144 33.4345H90.2323V32.2938H95.036C95.08 32.5291 95.1021 32.7677 95.102 33.0067ZM102.662 29.0459H98.2053V32.0561H102.266V33.1968H98.2053V36.2071H102.662V37.3795H96.8848V27.8735H102.662V29.0459ZM108.077 37.3795H106.806V29.0459H104.032V27.8735H110.916V29.0459H108.077V37.3795ZM115.769 37.3795V27.8735H117.04V37.3795H115.769ZM122.686 37.3795H121.415V29.0459H118.641V27.8735H125.442V29.0459H122.686V37.3795ZM138.335 36.1437C137.369 37.0647 136.064 37.5818 134.703 37.5818C133.342 37.5818 132.036 37.0647 131.071 36.1437C130.133 35.1908 129.611 33.9295 129.611 32.6186C129.611 31.3076 130.133 30.0464 131.071 29.0934C131.547 28.6335 132.113 28.2686 132.736 28.0195C133.359 27.7704 134.028 27.6422 134.703 27.6422C135.378 27.6422 136.047 27.7704 136.67 28.0195C137.293 28.2686 137.859 28.6335 138.335 29.0934C139.276 30.0445 139.801 31.3065 139.801 32.6186C139.801 33.9306 139.276 35.1926 138.335 36.1437ZM132.012 35.3515C132.727 36.0346 133.694 36.4181 134.703 36.4181C135.711 36.4181 136.679 36.0346 137.394 35.3515C138.099 34.6053 138.49 33.6339 138.49 32.6265C138.49 31.619 138.099 30.6476 137.394 29.9014C136.679 29.2184 135.711 28.8349 134.703 28.8349C133.694 28.8349 132.727 29.2184 132.012 29.9014C131.307 30.6476 130.916 31.619 130.916 32.6265C130.916 33.6339 131.307 34.6053 132.012 35.3515ZM141.586 37.3795V27.8735H143.138L147.958 35.2723V27.8735H149.229V37.3795H147.909L142.874 29.6321V37.3795H141.586Z" fill="white" stroke="white" stroke-width="0.2" stroke-miterlimit="10"/>
<path d="M129.305 51.2426C127.919 51.2489 126.566 51.6491 125.417 52.3928C124.267 53.1364 123.373 54.1902 122.847 55.4212C122.321 56.6521 122.187 58.0049 122.462 59.309C122.736 60.613 123.407 61.8099 124.389 62.7484C125.372 63.6869 126.622 64.3251 127.982 64.5823C129.342 64.8396 130.751 64.7044 132.031 64.1938C133.311 63.6833 134.404 62.8202 135.174 61.7136C135.943 60.607 136.354 59.3064 136.354 57.976C136.367 57.0855 136.194 56.2015 135.844 55.3767C135.494 54.5518 134.975 53.803 134.317 53.1747C133.66 52.5465 132.877 52.0516 132.016 51.7197C131.155 51.3878 130.233 51.2255 129.305 51.2426ZM129.305 62.0636C128.453 62.1208 127.602 61.9306 126.864 61.5176C126.126 61.1047 125.534 60.4881 125.165 59.748C124.797 59.008 124.669 58.1786 124.798 57.3679C124.928 56.5571 125.308 55.8025 125.89 55.2019C126.472 54.6014 127.229 54.1828 128.062 54.0006C128.895 53.8184 129.766 53.8809 130.562 54.1801C131.358 54.4793 132.041 55.0013 132.523 55.6783C133.006 56.3553 133.265 57.1559 133.267 57.976C133.294 58.4957 133.212 59.0153 133.026 59.504C132.84 59.9928 132.554 60.4408 132.184 60.8218C131.815 61.2027 131.37 61.5089 130.876 61.7222C130.381 61.9355 129.847 62.0516 129.305 62.0636ZM113.937 51.2426C112.55 51.2457 111.196 51.6433 110.044 52.3851C108.892 53.1269 107.996 54.1796 107.467 55.4102C106.939 56.6409 106.802 57.9942 107.075 59.2994C107.347 60.6045 108.017 61.8028 108.999 62.7429C109.98 63.683 111.231 64.3227 112.591 64.5812C113.951 64.8397 115.361 64.7055 116.642 64.1954C117.923 63.6853 119.018 62.8222 119.788 61.7153C120.558 60.6083 120.969 59.3071 120.969 57.976C120.983 57.0855 120.809 56.2015 120.459 55.3767C120.11 54.5518 119.59 53.803 118.933 53.1747C118.275 52.5465 117.492 52.0516 116.631 51.7197C115.77 51.3878 114.848 51.2255 113.921 51.2426H113.937ZM113.937 62.0636C113.084 62.1241 112.232 61.9367 111.492 61.5258C110.751 61.115 110.157 60.4997 109.786 59.7602C109.415 59.0206 109.285 58.1909 109.412 57.3793C109.539 56.5676 109.918 55.8115 110.499 55.2093C111.08 54.6072 111.837 54.1869 112.67 54.0032C113.504 53.8195 114.376 53.881 115.172 54.1795C115.969 54.478 116.654 54.9998 117.137 55.677C117.62 56.3541 117.88 57.1552 117.882 57.976C117.909 58.4957 117.827 59.0153 117.641 59.504C117.455 59.9928 117.169 60.4408 116.8 60.8218C116.43 61.2027 115.985 61.5089 115.491 61.7222C114.997 61.9355 114.463 62.0516 113.921 62.0636H113.937ZM95.6306 53.3181V56.1699H102.762C102.65 57.5131 102.068 58.7806 101.111 59.7663C100.398 60.4638 99.5398 61.0102 98.5931 61.3704C97.6464 61.7306 96.6316 61.8966 95.614 61.8577C93.5126 61.8577 91.4972 61.0564 90.0113 59.6303C88.5253 58.2041 87.6906 56.2698 87.6906 54.2529C87.6906 52.2359 88.5253 50.3016 90.0113 48.8754C91.4972 47.4493 93.5126 46.648 95.614 46.648C97.6243 46.6166 99.5655 47.3516 101.012 48.6918L103.108 46.6797C102.132 45.7308 100.967 44.9796 99.6824 44.4706C98.398 43.9617 97.0201 43.7055 95.6306 43.717C94.163 43.6622 92.6991 43.8923 91.3265 44.3935C89.9538 44.8947 88.7007 45.6567 87.6423 46.6338C86.5838 47.6109 85.7418 48.7831 85.1666 50.08C84.5914 51.377 84.2949 52.772 84.2949 54.1816C84.2949 55.5911 84.5914 56.9861 85.1666 58.2831C85.7418 59.58 86.5838 60.7522 87.6423 61.7293C88.7007 62.7064 89.9538 63.4684 91.3265 63.9696C92.6991 64.4708 94.163 64.7009 95.6306 64.6461C97.0435 64.7074 98.4537 64.4775 99.7663 63.9719C101.079 63.4663 102.264 62.6968 103.24 61.7151C104.97 59.8914 105.893 57.494 105.816 55.0292C105.821 54.4287 105.766 53.8291 105.65 53.2389L95.6306 53.3181ZM170.425 55.5362C169.994 54.3206 169.189 53.2591 168.116 52.4924C167.043 51.7257 165.753 51.2899 164.416 51.2426C163.513 51.2409 162.62 51.417 161.79 51.76C160.961 52.1029 160.214 52.6055 159.595 53.2366C158.976 53.8676 158.499 54.6138 158.192 55.429C157.886 56.2442 157.757 57.1111 157.813 57.976C157.793 58.8615 157.959 59.7418 158.302 60.5644C158.644 61.3869 159.156 62.1347 159.806 62.7632C160.456 63.3917 161.232 63.888 162.086 64.2224C162.941 64.5568 163.857 64.7224 164.779 64.7095C165.934 64.7154 167.072 64.4465 168.092 63.9267C169.112 63.4069 169.982 62.6524 170.623 61.7309L168.23 60.1466C167.872 60.7182 167.367 61.191 166.762 61.5187C166.157 61.8464 165.474 62.0178 164.779 62.0161C164.064 62.0422 163.358 61.8613 162.751 61.4968C162.145 61.1323 161.667 60.6011 161.379 59.9723L170.772 56.2491L170.425 55.5362ZM160.851 57.7859C160.817 57.2959 160.886 56.8043 161.053 56.3401C161.22 55.8759 161.482 55.4483 161.823 55.0824C162.164 54.7165 162.578 54.4196 163.04 54.2092C163.503 53.9987 164.004 53.8789 164.515 53.8568C165.048 53.8231 165.579 53.9403 166.043 54.1938C166.506 54.4473 166.882 54.8259 167.124 55.2827L160.851 57.7859ZM153.224 64.3134H156.311V44.5092H153.224V64.3134ZM148.173 52.7477H148.058C147.592 52.2485 147.022 51.8493 146.385 51.5763C145.748 51.3032 145.058 51.1625 144.36 51.1634C142.556 51.2474 140.855 51.9943 139.609 53.2493C138.363 54.5044 137.669 56.1713 137.669 57.9047C137.669 59.6382 138.363 61.3051 139.609 62.5602C140.855 63.8152 142.556 64.5621 144.36 64.6461C145.06 64.6574 145.753 64.5214 146.392 64.2476C147.031 63.9739 147.599 63.5691 148.058 63.0618H148.157V64.0282C148.157 66.6107 146.721 67.989 144.41 67.989C143.64 67.9717 142.893 67.735 142.264 67.309C141.635 66.883 141.152 66.2869 140.877 65.5967L138.186 66.674C138.693 67.8565 139.556 68.8668 140.665 69.5754C141.773 70.2839 143.077 70.6584 144.41 70.6507C148.025 70.6507 151.012 68.6069 151.012 63.6321V51.6387H148.173V52.7477ZM144.641 62.0636C143.576 61.9736 142.585 61.5039 141.863 60.7473C141.141 59.9907 140.741 59.002 140.741 57.976C140.741 56.9501 141.141 55.9614 141.863 55.2048C142.585 54.4481 143.576 53.9785 144.641 53.8885C145.169 53.9145 145.686 54.0416 146.162 54.2624C146.638 54.4832 147.063 54.7932 147.412 55.1741C147.761 55.5551 148.027 55.9992 148.195 56.4804C148.363 56.9616 148.428 57.4701 148.388 57.976C148.433 58.4841 148.37 58.9957 148.203 59.4798C148.036 59.9639 147.769 60.4106 147.417 60.7926C147.065 61.1747 146.636 61.4844 146.156 61.7028C145.676 61.9213 145.155 62.044 144.624 62.0636H144.641ZM184.885 44.5092H177.507V64.3134H180.593V56.8036H184.902C185.782 56.8643 186.665 56.7504 187.497 56.4689C188.329 56.1875 189.091 55.7446 189.737 55.1678C190.382 54.591 190.897 53.8928 191.25 53.1166C191.602 52.3404 191.783 51.503 191.783 50.6564C191.783 49.8099 191.602 48.9724 191.25 48.1962C190.897 47.42 190.382 46.7218 189.737 46.145C189.091 45.5683 188.329 45.1254 187.497 44.8439C186.665 44.5625 185.782 44.4485 184.902 44.5092H184.885ZM184.885 54.0152H180.577V47.2659H184.951C185.89 47.2659 186.791 47.624 187.455 48.2613C188.119 48.8986 188.492 49.763 188.492 50.6643C188.492 51.5656 188.119 52.43 187.455 53.0674C186.791 53.7047 185.89 54.0627 184.951 54.0627L184.885 54.0152ZM203.918 51.1634C202.794 51.0989 201.676 51.351 200.699 51.8886C199.722 52.4262 198.931 53.2259 198.421 54.1895L201.162 55.2827C201.432 54.8048 201.841 54.4125 202.339 54.1538C202.837 53.895 203.403 53.7808 203.968 53.8251C204.36 53.7812 204.757 53.8126 205.136 53.9175C205.515 54.0224 205.868 54.1987 206.176 54.4362C206.483 54.6736 206.738 54.9674 206.926 55.3005C207.113 55.6335 207.23 55.9991 207.269 56.3759V56.5818C206.278 56.078 205.172 55.8168 204.05 55.8213C201.095 55.8213 198.108 57.4057 198.108 60.2733C198.137 60.8848 198.293 61.4844 198.568 62.0368C198.843 62.5891 199.23 63.083 199.707 63.4892C200.185 63.8954 200.742 64.2057 201.346 64.4016C201.95 64.5976 202.589 64.6754 203.225 64.6302C204.002 64.6838 204.78 64.5356 205.477 64.201C206.175 63.8665 206.765 63.3581 207.187 62.729H207.286V64.3134H210.257V56.6927C210.257 53.223 207.517 51.2109 204.001 51.2109L203.918 51.1634ZM203.539 62.0161C202.532 62.0161 201.129 61.525 201.129 60.3367C201.129 58.7524 202.878 58.2295 204.43 58.2295C205.411 58.2063 206.38 58.4361 207.236 58.895C207.133 59.7527 206.71 60.5458 206.046 61.128C205.382 61.7103 204.52 62.0426 203.621 62.0636L203.539 62.0161ZM221.086 51.6387L217.553 60.2258H217.454L213.79 51.6387H210.488L215.985 63.648L212.849 70.318H216.068L224.519 51.6387H221.086ZM193.337 64.3134H196.424V44.5092H193.337V64.3134Z" fill="white"/>
<path d="M34.0582 28.7291C33.5202 29.3487 33.2486 30.142 33.2989 30.9471V65.9926C33.2486 66.7978 33.5202 67.591 34.0582 68.2107L34.1738 68.3216L54.6263 48.7075V48.2481L34.1738 28.6182L34.0582 28.7291Z" fill="url(#paint0_linear_2_1037)"/>
<path d="M61.3938 55.2509L54.6259 48.7076V48.2481L61.3938 41.689L61.5424 41.7682L69.6475 46.1885C71.9585 47.4401 71.9585 49.4997 69.6475 50.7672L61.5754 55.1717L61.3938 55.2509Z" fill="url(#paint1_linear_2_1037)"/>
<path d="M61.5917 55.1559L54.6257 48.47L34.0576 68.2108C34.5287 68.6082 35.1296 68.8352 35.7565 68.8526C36.3834 68.8699 36.997 68.6766 37.4911 68.3058L61.6082 55.1559" fill="url(#paint2_linear_2_1037)"/>
<path d="M61.5916 41.7842L37.4745 28.6342C36.9804 28.2635 36.3668 28.0701 35.7399 28.0875C35.113 28.1049 34.5121 28.3319 34.041 28.7293L54.6256 48.4701L61.5916 41.7842Z" fill="url(#paint3_linear_2_1037)"/>
<path opacity="0.2" d="M61.3937 55.0134L37.4746 68.0842C36.998 68.4262 36.419 68.611 35.8239 68.611C35.2288 68.611 34.6497 68.4262 34.1732 68.0842L34.0576 68.1951L34.1732 68.306C34.6487 68.6504 35.2282 68.8368 35.8239 68.8368C36.4196 68.8368 36.9991 68.6504 37.4746 68.306L61.5917 55.156L61.3937 55.0134Z" fill="black"/>
<path opacity="0.12" d="M34.0582 67.989C33.5202 67.3693 33.2486 66.5761 33.2989 65.7709V66.0086C33.2486 66.8137 33.5202 67.607 34.0582 68.2266L34.1738 68.1157L34.0582 67.989ZM69.6479 50.5296L61.3943 55.0133L61.5428 55.1559L69.6479 50.7514C70.1078 50.5441 70.5026 50.224 70.7924 49.8234C71.0822 49.4228 71.2568 48.956 71.2986 48.47C71.2058 48.9115 71.0087 49.3268 70.7226 49.6838C70.4364 50.0409 70.0688 50.3302 69.6479 50.5296Z" fill="black"/>
<path opacity="0.25" d="M37.4751 28.8559L69.6477 46.4103C70.0686 46.6097 70.4362 46.899 70.7224 47.2561C71.0086 47.6131 71.2056 48.0284 71.2985 48.4699C71.2567 47.9839 71.0821 47.5171 70.7922 47.1165C70.5024 46.7159 70.1076 46.3958 69.6477 46.1885L37.4751 28.6341C35.1641 27.3824 33.2822 28.4281 33.2822 30.963V31.2007C33.3317 28.6499 35.1806 27.6042 37.4751 28.8559Z" fill="white"/>
</g>
<defs>
<linearGradient id="paint0_linear_2_1037" x1="52.8105" y1="30.5827" x2="26.2477" y2="58.2586" gradientUnits="userSpaceOnUse">
<stop stop-color="#00A0FF"/>
<stop offset="0.01" stop-color="#00A1FF"/>
<stop offset="0.26" stop-color="#00BEFF"/>
<stop offset="0.51" stop-color="#00D2FF"/>
<stop offset="0.76" stop-color="#00DFFF"/>
<stop offset="1" stop-color="#00E3FF"/>
</linearGradient>
<linearGradient id="paint1_linear_2_1037" x1="72.6683" y1="48.4699" x2="32.7372" y2="48.4699" gradientUnits="userSpaceOnUse">
<stop stop-color="#FFE000"/>
<stop offset="0.41" stop-color="#FFBD00"/>
<stop offset="0.78" stop-color="#FFA500"/>
<stop offset="1" stop-color="#FF9C00"/>
</linearGradient>
<linearGradient id="paint2_linear_2_1037" x1="57.8116" y1="52.1139" x2="21.7818" y2="89.637" gradientUnits="userSpaceOnUse">
<stop stop-color="#FF3A44"/>
<stop offset="1" stop-color="#C31162"/>
</linearGradient>
<linearGradient id="paint3_linear_2_1037" x1="28.8742" y1="17.0686" x2="44.9575" y2="33.8259" gradientUnits="userSpaceOnUse">
<stop stop-color="#32A071"/>
<stop offset="0.07" stop-color="#2DA771"/>
<stop offset="0.48" stop-color="#15CF74"/>
<stop offset="0.8" stop-color="#06E775"/>
<stop offset="1" stop-color="#00F076"/>
</linearGradient>
<clipPath id="clip0_2_1037">
<rect width="255.863" height="95.0601" fill="white" transform="translate(0.317383 0.939941)"/>
</clipPath>
</defs>
</svg>
